G04 #@! TF.GenerationSoftware,KiCad,Pcbnew,9.0.7*
G04 #@! TF.CreationDate,2026-01-25T12:22:48+01:00*
G04 #@! TF.ProjectId,kastenwagen-1840-pcb,6b617374-656e-4776-9167-656e2d313834,rev?*
G04 #@! TF.SameCoordinates,Original*
G04 #@! TF.FileFunction,Profile,NP*
%FSLAX46Y46*%
G04 Gerber Fmt 4.6, Leading zero omitted, Abs format (unit mm)*
G04 Created by KiCad (PCBNEW 9.0.7) date 2026-01-25 12:22:48*
%MOMM*%
%LPD*%
G01*
G04 APERTURE LIST*
G04 #@! TA.AperFunction,Profile*
%ADD10C,0.100000*%
G04 #@! TD*
G04 APERTURE END LIST*
D10*
X98421350Y-84668350D02*
G75*
G02*
X101421259Y-81668350I2999950J50D01*
G01*
X163807300Y-153168228D02*
X165907100Y-153168228D01*
X169401500Y-156468228D02*
G75*
G02*
X166905653Y-154111082I0J2499928D01*
G01*
X373900000Y-81919935D02*
X373900000Y-82318439D01*
X359749999Y-82568387D02*
G75*
G02*
X359500013Y-82318387I1J249987D01*
G01*
X162808866Y-154111085D02*
G75*
G02*
X163807300Y-153168228I998434J-57215D01*
G01*
X329998314Y-156468228D02*
G75*
G02*
X331499972Y-157969900I-14J-1501672D01*
G01*
X100721400Y-156468607D02*
X160322486Y-156468228D01*
X364503305Y-161421212D02*
X333001514Y-161421212D01*
X157207752Y-83967600D02*
G75*
G02*
X156207752Y-84967552I-999952J0D01*
G01*
X162808866Y-154111085D02*
G75*
G02*
X160322486Y-156468229I-2495866J142785D01*
G01*
X373900000Y-82318439D02*
G75*
G02*
X373649999Y-82568400I-250000J39D01*
G01*
X370122200Y-158121212D02*
G75*
G02*
X371120555Y-159064072I0J-999988D01*
G01*
X368032782Y-158121212D02*
X370122200Y-158121212D01*
X157207752Y-83467600D02*
G75*
G02*
X159001253Y-81667564I1800048J0D01*
G01*
X395298366Y-83679803D02*
G75*
G02*
X397298042Y-81679866I1999934J3D01*
G01*
X373616500Y-161421212D02*
X386100000Y-161421212D01*
X467078591Y-81668689D02*
X397298042Y-81679803D01*
X367023846Y-159100000D02*
G75*
G02*
X368032675Y-158124393I976154J0D01*
G01*
X373649999Y-82568439D02*
X359749999Y-82568387D01*
X149913456Y-81667566D02*
X101414789Y-81668388D01*
X98422589Y-84671216D02*
X98421239Y-154182866D01*
X387600000Y-157975550D02*
G75*
G02*
X389099828Y-156475500I1500100J-50D01*
G01*
X389099828Y-156475550D02*
X467078794Y-156476549D01*
X390500000Y-83955362D02*
X390500000Y-83468400D01*
X373616500Y-161421212D02*
G75*
G02*
X371120574Y-159064071I0J2500012D01*
G01*
X157207752Y-83467600D02*
X157207752Y-83967600D01*
X394295102Y-84968386D02*
X391499900Y-84968386D01*
X395298366Y-83911292D02*
X395298366Y-83679803D01*
X395298366Y-83911292D02*
G75*
G02*
X394295102Y-84968386I-998366J-57108D01*
G01*
X149913456Y-81667566D02*
G75*
G02*
X152409353Y-84024711I44J-2499934D01*
G01*
X387600000Y-159921212D02*
G75*
G02*
X386100000Y-161421200I-1500000J12D01*
G01*
X468578813Y-154976549D02*
G75*
G02*
X467078794Y-156476613I-1500113J49D01*
G01*
X391499900Y-84968386D02*
G75*
G02*
X390499998Y-83955362I100J1000086D01*
G01*
X359500000Y-81949919D02*
X359500000Y-82318387D01*
X387600000Y-159921212D02*
X387600000Y-157975550D01*
X388700000Y-81668300D02*
G75*
G02*
X390500000Y-83468400I0J-1800000D01*
G01*
X156207752Y-84967566D02*
X156200000Y-84967566D01*
X169401500Y-156468228D02*
X329998314Y-156468228D01*
X373900000Y-81919935D02*
G75*
G02*
X374149973Y-81669900I250000J35D01*
G01*
X155800000Y-84967566D02*
X153407700Y-84967566D01*
X333001514Y-161421212D02*
G75*
G02*
X331499999Y-159925447I-14J1501512D01*
G01*
X359250040Y-81699919D02*
G75*
G02*
X359499981Y-81949919I-40J-249981D01*
G01*
X467078591Y-81668689D02*
G75*
G02*
X468578811Y-83168689I209J-1500011D01*
G01*
X359250040Y-81699919D02*
X159001253Y-81667564D01*
X331499986Y-157969900D02*
X331500014Y-159925447D01*
X165907100Y-153168228D02*
G75*
G02*
X166905628Y-154111083I0J-1000172D01*
G01*
X367023847Y-159100000D02*
G75*
G02*
X364503283Y-161423531I-2496147J178900D01*
G01*
X156200000Y-84967566D02*
X155800000Y-84967566D01*
X153407700Y-84967566D02*
G75*
G02*
X152409366Y-84024710I0J999966D01*
G01*
X468578813Y-154976549D02*
X468578830Y-83168689D01*
X388700000Y-81668386D02*
X374149973Y-81669935D01*
X100721377Y-156468607D02*
G75*
G02*
X98421139Y-154182866I23J2300307D01*
G01*
M02*
