M48
; DRILL file {KiCad 9.0.7} date 2026-01-25T12:22:48+0100
; FORMAT={-:-/ absolute / metric / decimal}
; #@! TF.CreationDate,2026-01-25T12:22:48+01:00
; #@! TF.GenerationSoftware,Kicad,Pcbnew,9.0.7
; #@! TF.FileFunction,Plated,1,2,PTH
FMAT,2
METRIC
; #@! TA.AperFunction,Plated,PTH,ViaDrill
T1C0.300
; #@! TA.AperFunction,Plated,PTH,ComponentDrill
T2C0.300
; #@! TA.AperFunction,Plated,PTH,ComponentDrill
T3C1.000
; #@! TA.AperFunction,Plated,PTH,ComponentDrill
T4C1.500
; #@! TA.AperFunction,Plated,PTH,ComponentDrill
T5C3.000
; #@! TA.AperFunction,Plated,PTH,ComponentDrill
T6C3.048
%
G90
G05
T1
X106.416Y-112.316
X112.8Y-73.2
X113.4Y-79.4
X119.955Y-114.449
X123.6Y-90.1
X128.0Y-147.5
X128.4Y-109.1
X129.778Y-114.546
X134.541Y-91.976
X137.7Y-128.5
X150.019Y-115.094
X161.7Y-90.1
X166.6Y-108.8
X169.811Y-116.336
X176.0Y-128.3
X187.4Y-148.4
X188.106Y-115.503
X199.9Y-90.1
X204.6Y-109.1
X207.236Y-116.128
X213.0Y-159.6
X214.0Y-128.3
X226.014Y-116.092
X237.9Y-90.1
X242.7Y-109.1
X245.336Y-116.128
X251.9Y-128.2
X262.086Y-148.53
X264.416Y-116.543
X268.7Y-147.3
X275.0Y-151.2
X276.0Y-90.0
X280.8Y-109.1
X284.207Y-116.637
X287.685Y-185.589
X290.2Y-128.3
X303.841Y-117.243
X311.6Y-147.2
X314.1Y-90.1
X318.9Y-109.1
X319.8Y-90.1
X322.262Y-126.206
X323.782Y-117.147
X324.743Y-110.579
X327.2Y-135.75
X329.803Y-110.877
X330.5Y-128.3
X331.7Y-92.1
X333.821Y-125.611
X337.7Y-152.0
X338.3Y-92.2
X338.4Y-136.35
X342.85Y-128.8
X343.346Y-115.491
X344.227Y-126.093
X344.388Y-115.491
X345.678Y-129.0
X347.067Y-126.057
X347.365Y-118.021
X348.456Y-88.256
X348.86Y-144.15
X349.299Y-122.634
X349.895Y-101.65
X351.869Y-112.316
X352.276Y-117.574
X352.722Y-122.485
X352.871Y-118.914
X353.169Y-110.43
X353.318Y-106.71
X353.615Y-126.057
X354.211Y-100.608
X354.806Y-114.598
X355.699Y-123.676
X355.848Y-109.091
X355.997Y-110.579
X356.592Y-105.221
X356.741Y-114.002
X356.8Y-152.1
X357.038Y-101.054
X357.485Y-95.696
X357.485Y-117.128
X360.313Y-116.086
X360.313Y-122.634
X360.313Y-125.611
X361.65Y-85.226
X361.799Y-116.033
X361.95Y-83.79
X361.95Y-114.449
X365.125Y-121.841
X365.968Y-175.617
X366.501Y-116.008
X366.567Y-85.222
X371.326Y-83.79
X371.326Y-114.449
X371.475Y-116.532
X379.571Y-121.841
X398.621Y-121.85
X399.5Y-90.6
X403.0Y-140.0
X411.4Y-144.4
X417.671Y-121.841
X418.4Y-90.7
X421.4Y-141.8
X436.721Y-121.841
X450.026Y-115.863
X450.85Y-115.887
T2
X352.75Y-90.825
X353.25Y-89.825
X353.25Y-90.325
X353.25Y-90.825
X357.95Y-89.825
X357.95Y-90.325
X357.95Y-90.825
X358.45Y-90.825
T3
X352.197Y-87.486
X354.737Y-87.486
X357.277Y-87.486
X359.817Y-87.486
X457.081Y-82.987
X457.081Y-97.487
X459.581Y-82.987
X462.081Y-82.987
X462.081Y-97.487
T5
X103.346Y-87.947
X105.727Y-106.997
X105.727Y-145.097
X109.696Y-85.407
X110.49Y-126.047
X112.078Y-104.457
X112.078Y-142.558
X116.84Y-123.507
X122.396Y-87.947
X127.159Y-106.997
X127.159Y-145.097
X128.746Y-85.407
X133.509Y-104.457
X133.509Y-142.558
X136.684Y-126.047
X141.446Y-87.947
X143.034Y-123.507
X146.209Y-106.997
X147.796Y-85.407
X148.59Y-145.097
X152.559Y-104.457
X154.94Y-142.558
X155.734Y-126.047
X160.496Y-87.947
X162.084Y-123.507
X165.259Y-106.997
X166.846Y-85.407
X171.609Y-104.457
X174.784Y-126.047
X179.546Y-87.947
X181.134Y-123.507
X184.309Y-106.997
X185.896Y-85.407
X186.69Y-145.097
X190.659Y-104.457
X193.04Y-142.558
X193.834Y-126.047
X198.596Y-87.947
X200.184Y-123.507
X203.359Y-106.997
X204.946Y-85.407
X209.391Y-152.718
X209.709Y-104.457
X212.884Y-126.047
X215.741Y-150.177
X217.646Y-87.947
X219.234Y-123.507
X220.028Y-145.097
X222.409Y-106.997
X223.996Y-85.407
X226.377Y-142.558
X228.759Y-104.457
X231.934Y-126.047
X234.315Y-145.097
X236.696Y-87.947
X238.284Y-123.507
X240.665Y-142.558
X241.459Y-106.997
X243.046Y-85.407
X247.809Y-104.457
X250.984Y-126.047
X255.746Y-87.947
X257.334Y-123.507
X260.509Y-106.997
X262.096Y-85.407
X266.859Y-104.457
X267.652Y-145.097
X270.034Y-126.047
X274.002Y-142.558
X274.796Y-87.947
X276.384Y-123.507
X279.559Y-106.997
X281.146Y-85.407
X285.909Y-104.457
X289.084Y-126.047
X289.084Y-145.097
X293.846Y-87.947
X295.434Y-123.507
X295.434Y-142.558
X298.609Y-106.997
X300.196Y-85.407
X304.959Y-104.457
X308.134Y-126.047
X310.515Y-145.097
X312.896Y-87.947
X314.484Y-123.507
X316.865Y-142.558
X317.659Y-106.997
X319.246Y-85.407
X324.009Y-104.457
X329.565Y-126.047
X331.946Y-87.947
X335.915Y-123.507
X336.709Y-149.86
X338.296Y-85.407
X340.36Y-95.567
X341.471Y-106.997
X343.059Y-147.32
X346.71Y-93.027
X347.821Y-104.457
X355.759Y-130.81
X355.759Y-149.86
X362.109Y-128.27
X362.109Y-147.32
X374.809Y-149.86
X379.571Y-87.947
X379.571Y-106.997
X379.571Y-126.047
X381.159Y-147.32
X385.921Y-85.407
X385.921Y-104.457
X385.921Y-123.507
X398.621Y-87.947
X398.621Y-106.997
X398.621Y-126.047
X398.621Y-145.097
X404.971Y-85.407
X404.971Y-104.457
X404.971Y-123.507
X404.971Y-142.558
X409.416Y-152.718
X415.766Y-150.177
X417.671Y-87.947
X417.671Y-106.997
X417.671Y-126.047
X417.671Y-145.097
X424.021Y-85.407
X424.021Y-104.457
X424.021Y-123.507
X424.021Y-142.558
X436.721Y-87.947
X436.721Y-106.997
X436.721Y-126.047
X436.721Y-145.097
X443.071Y-85.407
X443.071Y-104.457
X443.071Y-123.507
X443.071Y-142.558
X454.501Y-126.047
X454.501Y-145.097
X455.771Y-106.997
X457.041Y-132.398
X457.041Y-151.447
X462.121Y-104.457
X462.121Y-134.302
X464.661Y-140.653
T6
X173.831Y-154.623
X178.594Y-154.623
X202.406Y-154.623
X226.219Y-154.623
X250.031Y-154.623
X273.844Y-154.623
X400.05Y-154.623
X423.862Y-154.623
X466.566Y-126.206
X466.566Y-150.019
T4
X453.981Y-89.837G85X453.981Y-91.138
G05
X465.181Y-89.837G85X465.181Y-91.138
G05
M30
