M48
; DRILL file {KiCad 9.0.7} date 2026-01-25T12:22:48+0100
; FORMAT={-:-/ absolute / metric / decimal}
; #@! TF.CreationDate,2026-01-25T12:22:48+01:00
; #@! TF.GenerationSoftware,Kicad,Pcbnew,9.0.7
; #@! TF.FileFunction,NonPlated,1,2,NPTH
FMAT,2
METRIC
; #@! TA.AperFunction,NonPlated,NPTH,ComponentDrill
T1C1.750
; #@! TA.AperFunction,NonPlated,NPTH,ComponentDrill
T2C3.048
; #@! TA.AperFunction,NonPlated,NPTH,ComponentDrill
T3C3.988
%
G90
G05
T1
X102.076Y-90.487
X104.457Y-109.537
X104.457Y-147.637
X109.22Y-128.588
X112.236Y-90.487
X114.617Y-109.537
X114.617Y-147.637
X119.38Y-128.588
X121.126Y-90.487
X125.889Y-109.537
X125.889Y-147.637
X131.286Y-90.487
X135.414Y-128.588
X136.049Y-109.537
X136.049Y-147.637
X140.176Y-90.487
X144.939Y-109.537
X145.574Y-128.588
X147.32Y-147.637
X150.336Y-90.487
X154.464Y-128.588
X155.099Y-109.537
X157.48Y-147.637
X159.226Y-90.487
X163.989Y-109.537
X164.624Y-128.588
X169.386Y-90.487
X173.514Y-128.588
X174.149Y-109.537
X178.276Y-90.487
X183.039Y-109.537
X183.674Y-128.588
X185.42Y-147.637
X188.436Y-90.487
X192.564Y-128.588
X193.199Y-109.537
X195.58Y-147.637
X197.326Y-90.487
X202.089Y-109.537
X202.724Y-128.588
X206.851Y-147.637
X207.486Y-90.487
X211.614Y-128.588
X212.249Y-109.537
X216.376Y-90.487
X217.011Y-147.637
X218.757Y-147.637
X221.139Y-109.537
X221.774Y-128.588
X226.536Y-90.487
X228.917Y-147.637
X230.664Y-128.588
X231.299Y-109.537
X233.045Y-147.637
X235.426Y-90.487
X240.189Y-109.537
X240.824Y-128.588
X243.205Y-147.637
X245.586Y-90.487
X249.714Y-128.588
X250.349Y-109.537
X254.476Y-90.487
X259.239Y-109.537
X259.874Y-128.588
X264.636Y-90.487
X266.382Y-147.637
X268.764Y-128.588
X269.399Y-109.537
X273.526Y-90.487
X276.542Y-147.637
X278.289Y-109.537
X278.924Y-128.588
X283.686Y-90.487
X287.814Y-128.588
X287.814Y-147.637
X288.449Y-109.537
X292.576Y-90.487
X297.339Y-109.537
X297.974Y-128.588
X297.974Y-147.637
X302.736Y-90.487
X306.864Y-128.588
X307.499Y-109.537
X309.245Y-147.637
X311.626Y-90.487
X316.389Y-109.537
X317.024Y-128.588
X319.405Y-147.637
X321.786Y-90.487
X326.549Y-109.537
X328.295Y-128.588
X330.676Y-90.487
X335.439Y-152.4
X337.82Y-90.487
X338.455Y-128.588
X340.201Y-109.537
X340.836Y-90.487
X345.599Y-152.4
X347.98Y-90.487
X350.361Y-109.537
X354.489Y-133.35
X354.489Y-152.4
X364.649Y-133.35
X364.649Y-152.4
X373.539Y-152.4
X378.301Y-90.487
X378.301Y-109.537
X378.301Y-128.588
X383.699Y-152.4
X388.461Y-90.487
X388.461Y-109.537
X388.461Y-128.588
X397.351Y-90.487
X397.351Y-109.537
X397.351Y-128.588
X397.351Y-147.637
X406.876Y-147.637
X407.511Y-90.487
X407.511Y-109.537
X407.511Y-128.588
X407.511Y-147.637
X416.401Y-90.487
X416.401Y-109.537
X416.401Y-128.588
X416.401Y-147.637
X417.036Y-147.637
X426.561Y-90.487
X426.561Y-109.537
X426.561Y-128.588
X426.561Y-147.637
X435.451Y-90.487
X435.451Y-109.537
X435.451Y-128.588
X435.451Y-147.637
X445.611Y-90.487
X445.611Y-109.537
X445.611Y-128.588
X445.611Y-147.637
X454.501Y-109.537
X459.581Y-123.507
X459.581Y-133.032
X459.581Y-133.667
X459.581Y-142.558
X459.581Y-143.192
X459.581Y-152.718
X464.661Y-109.537
T2
X173.831Y-154.623
X250.031Y-154.623
T3
X107.156Y-90.487
X109.537Y-109.537
X109.537Y-147.637
X114.3Y-128.588
X126.206Y-90.487
X130.969Y-109.537
X130.969Y-147.637
X140.494Y-128.588
X145.256Y-90.487
X150.019Y-109.537
X152.4Y-147.637
X159.544Y-128.588
X164.306Y-90.487
X169.069Y-109.537
X173.831Y-139.382
X173.831Y-139.382
X178.594Y-128.588
X178.594Y-139.382
X183.356Y-90.487
X188.119Y-109.537
X190.5Y-147.637
X197.644Y-128.588
X202.406Y-90.487
X202.406Y-139.382
X207.169Y-109.537
X211.931Y-147.637
X216.694Y-128.588
X221.456Y-90.487
X223.837Y-147.637
X226.219Y-109.537
X226.219Y-139.382
X235.744Y-128.588
X238.125Y-147.637
X240.506Y-90.487
X245.269Y-109.537
X250.031Y-139.382
X250.031Y-139.382
X254.794Y-128.588
X259.556Y-90.487
X264.319Y-109.537
X271.462Y-147.637
X273.844Y-128.588
X273.844Y-139.382
X278.606Y-90.487
X283.369Y-109.537
X292.894Y-128.588
X292.894Y-147.637
X297.656Y-90.487
X302.419Y-109.537
X311.944Y-128.588
X314.325Y-147.637
X316.706Y-90.487
X321.469Y-109.537
X333.375Y-128.588
X335.405Y-139.347
X335.756Y-90.487
X340.519Y-152.4
X342.9Y-90.487
X345.281Y-109.537
X359.569Y-133.35
X359.569Y-152.4
X378.619Y-152.4
X383.381Y-90.487
X383.381Y-109.537
X383.381Y-128.588
X400.05Y-139.382
X402.431Y-90.487
X402.431Y-109.537
X402.431Y-128.588
X402.431Y-147.637
X411.956Y-147.637
X421.481Y-90.487
X421.481Y-109.537
X421.481Y-128.588
X421.481Y-147.637
X423.862Y-139.382
X440.531Y-90.487
X440.531Y-109.537
X440.531Y-128.588
X440.531Y-147.637
X451.326Y-126.206
X451.326Y-150.019
X459.581Y-109.537
X459.581Y-128.588
X459.581Y-138.112
X459.581Y-147.637
M30
