G04 #@! TF.GenerationSoftware,KiCad,Pcbnew,9.0.7*
G04 #@! TF.CreationDate,2026-01-25T12:22:48+01:00*
G04 #@! TF.ProjectId,kastenwagen-1840-pcb,6b617374-656e-4776-9167-656e2d313834,rev?*
G04 #@! TF.SameCoordinates,Original*
G04 #@! TF.FileFunction,Paste,Bot*
G04 #@! TF.FilePolarity,Positive*
%FSLAX46Y46*%
G04 Gerber Fmt 4.6, Leading zero omitted, Abs format (unit mm)*
G04 Created by KiCad (PCBNEW 9.0.7) date 2026-01-25 12:22:48*
%MOMM*%
%LPD*%
G01*
G04 APERTURE LIST*
G04 Aperture macros list*
%AMRoundRect*
0 Rectangle with rounded corners*
0 $1 Rounding radius*
0 $2 $3 $4 $5 $6 $7 $8 $9 X,Y pos of 4 corners*
0 Add a 4 corners polygon primitive as box body*
4,1,4,$2,$3,$4,$5,$6,$7,$8,$9,$2,$3,0*
0 Add four circle primitives for the rounded corners*
1,1,$1+$1,$2,$3*
1,1,$1+$1,$4,$5*
1,1,$1+$1,$6,$7*
1,1,$1+$1,$8,$9*
0 Add four rect primitives between the rounded corners*
20,1,$1+$1,$2,$3,$4,$5,0*
20,1,$1+$1,$4,$5,$6,$7,0*
20,1,$1+$1,$6,$7,$8,$9,0*
20,1,$1+$1,$8,$9,$2,$3,0*%
G04 Aperture macros list end*
%ADD10RoundRect,0.150000X-0.150000X0.587500X-0.150000X-0.587500X0.150000X-0.587500X0.150000X0.587500X0*%
%ADD11RoundRect,0.150000X0.150000X-0.587500X0.150000X0.587500X-0.150000X0.587500X-0.150000X-0.587500X0*%
%ADD12RoundRect,0.250000X1.025000X1.000000X-1.025000X1.000000X-1.025000X-1.000000X1.025000X-1.000000X0*%
%ADD13RoundRect,0.250000X-1.025000X-1.000000X1.025000X-1.000000X1.025000X1.000000X-1.025000X1.000000X0*%
%ADD14RoundRect,0.250000X-1.000000X1.025000X-1.000000X-1.025000X1.000000X-1.025000X1.000000X1.025000X0*%
%ADD15RoundRect,0.250000X1.000000X-1.025000X1.000000X1.025000X-1.000000X1.025000X-1.000000X-1.025000X0*%
%ADD16RoundRect,0.140000X0.170000X-0.140000X0.170000X0.140000X-0.170000X0.140000X-0.170000X-0.140000X0*%
%ADD17RoundRect,0.085000X-0.265000X-0.085000X0.265000X-0.085000X0.265000X0.085000X-0.265000X0.085000X0*%
%ADD18RoundRect,0.140000X-0.140000X-0.170000X0.140000X-0.170000X0.140000X0.170000X-0.140000X0.170000X0*%
%ADD19RoundRect,0.250000X-0.375000X-0.625000X0.375000X-0.625000X0.375000X0.625000X-0.375000X0.625000X0*%
%ADD20RoundRect,0.140000X0.140000X0.170000X-0.140000X0.170000X-0.140000X-0.170000X0.140000X-0.170000X0*%
%ADD21RoundRect,0.175000X-0.175000X-0.325000X0.175000X-0.325000X0.175000X0.325000X-0.175000X0.325000X0*%
%ADD22RoundRect,0.150000X-0.200000X-0.150000X0.200000X-0.150000X0.200000X0.150000X-0.200000X0.150000X0*%
%ADD23RoundRect,0.140000X-0.170000X0.140000X-0.170000X-0.140000X0.170000X-0.140000X0.170000X0.140000X0*%
%ADD24RoundRect,0.200000X1.075000X0.800000X-1.075000X0.800000X-1.075000X-0.800000X1.075000X-0.800000X0*%
%ADD25RoundRect,0.135000X-0.185000X0.135000X-0.185000X-0.135000X0.185000X-0.135000X0.185000X0.135000X0*%
%ADD26RoundRect,0.150000X-0.150000X-0.275000X0.150000X-0.275000X0.150000X0.275000X-0.150000X0.275000X0*%
%ADD27RoundRect,0.175000X-0.175000X-0.225000X0.175000X-0.225000X0.175000X0.225000X-0.175000X0.225000X0*%
%ADD28RoundRect,0.135000X0.185000X-0.135000X0.185000X0.135000X-0.185000X0.135000X-0.185000X-0.135000X0*%
%ADD29R,1.000000X1.700000*%
%ADD30RoundRect,0.075000X0.075000X-0.662500X0.075000X0.662500X-0.075000X0.662500X-0.075000X-0.662500X0*%
%ADD31RoundRect,0.075000X0.662500X-0.075000X0.662500X0.075000X-0.662500X0.075000X-0.662500X-0.075000X0*%
G04 APERTURE END LIST*
D10*
G04 #@! TO.C,D1*
X116128125Y-83200000D03*
X118028125Y-83200000D03*
X117078125Y-85075000D03*
G04 #@! TD*
G04 #@! TO.C,D2*
X152640625Y-87962500D03*
X154540625Y-87962500D03*
X153590625Y-89837500D03*
G04 #@! TD*
G04 #@! TO.C,D3*
X190740625Y-87962500D03*
X192640625Y-87962500D03*
X191690625Y-89837500D03*
G04 #@! TD*
G04 #@! TO.C,D4*
X228840625Y-87962500D03*
X230740625Y-87962500D03*
X229790625Y-89837500D03*
G04 #@! TD*
G04 #@! TO.C,D5*
X266940625Y-87962500D03*
X268840625Y-87962500D03*
X267890625Y-89837500D03*
G04 #@! TD*
G04 #@! TO.C,D6*
X305040625Y-87962500D03*
X306940625Y-87962500D03*
X305990625Y-89837500D03*
G04 #@! TD*
G04 #@! TO.C,D7*
X325950000Y-88062500D03*
X324050000Y-88062500D03*
X325000000Y-89937500D03*
G04 #@! TD*
G04 #@! TO.C,D8*
X409787500Y-88112500D03*
X411687500Y-88112500D03*
X410737500Y-89987500D03*
G04 #@! TD*
G04 #@! TO.C,D9*
X448237500Y-88212500D03*
X450137500Y-88212500D03*
X449187500Y-90087500D03*
G04 #@! TD*
G04 #@! TO.C,D10*
X118509375Y-107012500D03*
X120409375Y-107012500D03*
X119459375Y-108887500D03*
G04 #@! TD*
G04 #@! TO.C,D11*
X157403125Y-107012500D03*
X159303125Y-107012500D03*
X158353125Y-108887500D03*
G04 #@! TD*
G04 #@! TO.C,D12*
X195503125Y-107012500D03*
X197403125Y-107012500D03*
X196453125Y-108887500D03*
G04 #@! TD*
G04 #@! TO.C,D13*
X233603125Y-107012500D03*
X235503125Y-107012500D03*
X234553125Y-108887500D03*
G04 #@! TD*
G04 #@! TO.C,D14*
X271703125Y-107012500D03*
X273603125Y-107012500D03*
X272653125Y-108887500D03*
G04 #@! TD*
G04 #@! TO.C,D15*
X309803125Y-107012500D03*
X311703125Y-107012500D03*
X310753125Y-108887500D03*
G04 #@! TD*
G04 #@! TO.C,D16*
X328853125Y-107012500D03*
X330753125Y-107012500D03*
X329803125Y-108887500D03*
G04 #@! TD*
G04 #@! TO.C,D17*
X409050000Y-107062500D03*
X410950000Y-107062500D03*
X410000000Y-108937500D03*
G04 #@! TD*
G04 #@! TO.C,D18*
X447550000Y-107062500D03*
X449450000Y-107062500D03*
X448500000Y-108937500D03*
G04 #@! TD*
G04 #@! TO.C,D19*
X128431250Y-125665625D03*
X130331250Y-125665625D03*
X129381250Y-127540625D03*
G04 #@! TD*
G04 #@! TO.C,D20*
X166928125Y-126062500D03*
X168828125Y-126062500D03*
X167878125Y-127937500D03*
G04 #@! TD*
G04 #@! TO.C,D21*
X205028125Y-126062500D03*
X206928125Y-126062500D03*
X205978125Y-127937500D03*
G04 #@! TD*
G04 #@! TO.C,D22*
X243128125Y-126062500D03*
X245028125Y-126062500D03*
X244078125Y-127937500D03*
G04 #@! TD*
G04 #@! TO.C,D23*
X281228125Y-126062500D03*
X283128125Y-126062500D03*
X282178125Y-127937500D03*
G04 #@! TD*
G04 #@! TO.C,D24*
X321312500Y-126062500D03*
X323212500Y-126062500D03*
X322262500Y-127937500D03*
G04 #@! TD*
G04 #@! TO.C,D25*
X367550000Y-131562500D03*
X369450000Y-131562500D03*
X368500000Y-133437500D03*
G04 #@! TD*
G04 #@! TO.C,D26*
X409550000Y-126062500D03*
X411450000Y-126062500D03*
X410500000Y-127937500D03*
G04 #@! TD*
G04 #@! TO.C,D27*
X448187500Y-129912500D03*
X450087500Y-129912500D03*
X449137500Y-131787500D03*
G04 #@! TD*
G04 #@! TO.C,D28*
X119303125Y-144715625D03*
X121203125Y-144715625D03*
X120253125Y-146590625D03*
G04 #@! TD*
G04 #@! TO.C,D29*
X162044355Y-142543633D03*
X163944355Y-142543633D03*
X162994355Y-144418633D03*
G04 #@! TD*
G04 #@! TO.C,D30*
X259561882Y-142580759D03*
X261461882Y-142580759D03*
X260511882Y-144455759D03*
G04 #@! TD*
G04 #@! TO.C,D31*
X302251550Y-142558315D03*
X304151550Y-142558315D03*
X303201550Y-144433315D03*
G04 #@! TD*
G04 #@! TO.C,D32*
X347903125Y-149875000D03*
X349803125Y-149875000D03*
X348853125Y-151750000D03*
G04 #@! TD*
D11*
G04 #@! TO.C,D35*
X449300000Y-141937500D03*
X451200000Y-141937500D03*
X450250000Y-140062500D03*
G04 #@! TD*
D12*
G04 #@! TO.C,MX2*
X118846144Y-87947424D03*
X132296144Y-85407424D03*
G04 #@! TD*
G04 #@! TO.C,MX3*
X137896250Y-87947500D03*
X151346250Y-85407500D03*
G04 #@! TD*
G04 #@! TO.C,MX4*
X156946250Y-87947500D03*
X170396250Y-85407500D03*
G04 #@! TD*
G04 #@! TO.C,MX5*
X175996250Y-87947500D03*
X189446250Y-85407500D03*
G04 #@! TD*
G04 #@! TO.C,MX6*
X195046250Y-87947500D03*
X208496250Y-85407500D03*
G04 #@! TD*
G04 #@! TO.C,MX7*
X214096250Y-87947500D03*
X227546250Y-85407500D03*
G04 #@! TD*
G04 #@! TO.C,MX8*
X233146250Y-87947500D03*
X246596250Y-85407500D03*
G04 #@! TD*
G04 #@! TO.C,MX9*
X252196250Y-87947500D03*
X265646250Y-85407500D03*
G04 #@! TD*
G04 #@! TO.C,MX10*
X271246250Y-87947500D03*
X284696250Y-85407500D03*
G04 #@! TD*
G04 #@! TO.C,MX11*
X290296250Y-87947500D03*
X303746250Y-85407500D03*
G04 #@! TD*
G04 #@! TO.C,MX12*
X309346250Y-87947500D03*
X322796250Y-85407500D03*
G04 #@! TD*
D13*
G04 #@! TO.C,MX13*
X350260000Y-93027500D03*
X336810000Y-95567500D03*
G04 #@! TD*
D12*
G04 #@! TO.C,MX15*
X395071250Y-87947500D03*
X408521250Y-85407500D03*
G04 #@! TD*
G04 #@! TO.C,MX16*
X414121250Y-87947500D03*
X427571250Y-85407500D03*
G04 #@! TD*
G04 #@! TO.C,MX17*
X433171250Y-87947500D03*
X446621250Y-85407500D03*
G04 #@! TD*
G04 #@! TO.C,MX19*
X102177500Y-106997500D03*
X115627500Y-104457500D03*
G04 #@! TD*
G04 #@! TO.C,MX20*
X123608750Y-106997500D03*
X137058750Y-104457500D03*
G04 #@! TD*
G04 #@! TO.C,MX21*
X142658750Y-106997500D03*
X156108750Y-104457500D03*
G04 #@! TD*
G04 #@! TO.C,MX22*
X161708750Y-106997500D03*
X175158750Y-104457500D03*
G04 #@! TD*
G04 #@! TO.C,MX23*
X180758750Y-106997500D03*
X194208750Y-104457500D03*
G04 #@! TD*
G04 #@! TO.C,MX24*
X199808750Y-106997500D03*
X213258750Y-104457500D03*
G04 #@! TD*
G04 #@! TO.C,MX25*
X218858750Y-106997500D03*
X232308750Y-104457500D03*
G04 #@! TD*
G04 #@! TO.C,MX26*
X237908750Y-106997500D03*
X251358750Y-104457500D03*
G04 #@! TD*
G04 #@! TO.C,MX27*
X256958750Y-106997500D03*
X270408750Y-104457500D03*
G04 #@! TD*
G04 #@! TO.C,MX28*
X276008750Y-106997500D03*
X289458750Y-104457500D03*
G04 #@! TD*
G04 #@! TO.C,MX29*
X295058750Y-106997500D03*
X308508750Y-104457500D03*
G04 #@! TD*
G04 #@! TO.C,MX30*
X314108750Y-106997500D03*
X327558750Y-104457500D03*
G04 #@! TD*
G04 #@! TO.C,MX31*
X337921250Y-106997500D03*
X351371250Y-104457500D03*
G04 #@! TD*
G04 #@! TO.C,MX33*
X395071250Y-106997500D03*
X408521250Y-104457500D03*
G04 #@! TD*
G04 #@! TO.C,MX34*
X414121250Y-106997500D03*
X427571250Y-104457500D03*
G04 #@! TD*
G04 #@! TO.C,MX35*
X433171250Y-106997500D03*
X446621250Y-104457500D03*
G04 #@! TD*
G04 #@! TO.C,MX36*
X452221250Y-106997500D03*
X465671250Y-104457500D03*
G04 #@! TD*
G04 #@! TO.C,MX37*
X106940000Y-126047500D03*
X120390000Y-123507500D03*
G04 #@! TD*
G04 #@! TO.C,MX38*
X133133750Y-126047500D03*
X146583750Y-123507500D03*
G04 #@! TD*
G04 #@! TO.C,MX39*
X152183750Y-126047500D03*
X165633750Y-123507500D03*
G04 #@! TD*
G04 #@! TO.C,MX40*
X171233750Y-126047500D03*
X184683750Y-123507500D03*
G04 #@! TD*
G04 #@! TO.C,MX41*
X190283750Y-126047500D03*
X203733750Y-123507500D03*
G04 #@! TD*
G04 #@! TO.C,MX42*
X209333750Y-126047500D03*
X222783750Y-123507500D03*
G04 #@! TD*
G04 #@! TO.C,MX43*
X228383750Y-126047500D03*
X241833750Y-123507500D03*
G04 #@! TD*
G04 #@! TO.C,MX44*
X247433750Y-126047500D03*
X260883750Y-123507500D03*
G04 #@! TD*
G04 #@! TO.C,MX45*
X266483750Y-126047500D03*
X279933750Y-123507500D03*
G04 #@! TD*
G04 #@! TO.C,MX46*
X285533750Y-126047500D03*
X298983750Y-123507500D03*
G04 #@! TD*
G04 #@! TO.C,MX47*
X304583750Y-126047500D03*
X318033750Y-123507500D03*
G04 #@! TD*
G04 #@! TO.C,MX48*
X326015000Y-126047500D03*
X339465000Y-123507500D03*
G04 #@! TD*
G04 #@! TO.C,MX49*
X352208750Y-130810000D03*
X365658750Y-128270000D03*
G04 #@! TD*
G04 #@! TO.C,MX51*
X395071250Y-126047500D03*
X408521250Y-123507500D03*
G04 #@! TD*
G04 #@! TO.C,MX52*
X414121250Y-126047500D03*
X427571250Y-123507500D03*
G04 #@! TD*
G04 #@! TO.C,MX53*
X433171250Y-126047500D03*
X446621250Y-123507500D03*
G04 #@! TD*
D14*
G04 #@! TO.C,MX54*
X457041250Y-135947500D03*
X454501250Y-122497500D03*
G04 #@! TD*
D12*
G04 #@! TO.C,MX56*
X285533750Y-145097500D03*
X298983750Y-142557500D03*
G04 #@! TD*
G04 #@! TO.C,MX57*
X333158750Y-149860000D03*
X346608750Y-147320000D03*
G04 #@! TD*
G04 #@! TO.C,MX58*
X352208750Y-149860000D03*
X365658750Y-147320000D03*
G04 #@! TD*
G04 #@! TO.C,MX59*
X371258750Y-149860000D03*
X384708750Y-147320000D03*
G04 #@! TD*
G04 #@! TO.C,MX61*
X414121250Y-145097500D03*
X427571250Y-142557500D03*
G04 #@! TD*
D13*
G04 #@! TO.C,MX477.1*
X419316250Y-150177500D03*
X405866250Y-152717500D03*
G04 #@! TD*
D12*
G04 #@! TO.C,MX62*
X433171250Y-145097500D03*
X446621250Y-142557500D03*
G04 #@! TD*
D14*
G04 #@! TO.C,MX63*
X457041250Y-154997500D03*
X454501250Y-141547500D03*
G04 #@! TD*
D15*
G04 #@! TO.C,MX487.1*
X462121250Y-130752500D03*
X464661250Y-144202500D03*
G04 #@! TD*
D12*
G04 #@! TO.C,MX1*
X99796250Y-87947500D03*
X113246250Y-85407500D03*
G04 #@! TD*
G04 #@! TO.C,MX14*
X376021250Y-87947500D03*
X389471250Y-85407500D03*
G04 #@! TD*
D10*
G04 #@! TO.C,D37*
X390450000Y-126362500D03*
X392350000Y-126362500D03*
X391400000Y-128237500D03*
G04 #@! TD*
D16*
G04 #@! TO.C,C10*
X357414319Y-99375434D03*
X357414319Y-98415434D03*
G04 #@! TD*
D12*
G04 #@! TO.C,MX60*
X395071250Y-145097500D03*
X408521250Y-142557500D03*
G04 #@! TD*
D16*
G04 #@! TO.C,C5*
X349001660Y-126983801D03*
X349001660Y-126023801D03*
G04 #@! TD*
D17*
G04 #@! TO.C,U4*
X355990716Y-112865140D03*
X355990716Y-112365140D03*
X355990716Y-111865140D03*
X357490716Y-111865140D03*
X357490716Y-112365140D03*
X357490716Y-112865140D03*
G04 #@! TD*
D16*
G04 #@! TO.C,C1*
X352792593Y-127000913D03*
X352792593Y-126040913D03*
G04 #@! TD*
D12*
G04 #@! TO.C,MX406.1*
X102177500Y-145097500D03*
X115627500Y-142557500D03*
G04 #@! TD*
D18*
G04 #@! TO.C,C3*
X343312680Y-116383497D03*
X344272680Y-116383497D03*
G04 #@! TD*
D12*
G04 #@! TO.C,MX55*
X123608750Y-145097500D03*
X137058750Y-142557500D03*
G04 #@! TD*
D16*
G04 #@! TO.C,C11*
X358526652Y-99375434D03*
X358526652Y-98415434D03*
G04 #@! TD*
D18*
G04 #@! TO.C,C12*
X358939620Y-104477256D03*
X359899620Y-104477256D03*
G04 #@! TD*
D19*
G04 #@! TO.C,F1*
X353803125Y-102790625D03*
X356603125Y-102790625D03*
G04 #@! TD*
D12*
G04 #@! TO.C,MX416.1*
X145040000Y-145097500D03*
X158490000Y-142557500D03*
G04 #@! TD*
D11*
G04 #@! TO.C,D34*
X411200000Y-141937500D03*
X413100000Y-141937500D03*
X412150000Y-140062500D03*
G04 #@! TD*
D20*
G04 #@! TO.C,C4*
X356760739Y-123003944D03*
X355800739Y-123003944D03*
G04 #@! TD*
D12*
G04 #@! TO.C,MX456.1*
X306965000Y-145097500D03*
X320415000Y-142557500D03*
G04 #@! TD*
D21*
G04 #@! TO.C,U2*
X354203125Y-99175000D03*
D22*
X354203125Y-97475000D03*
X356203125Y-97475000D03*
X356203125Y-99375000D03*
G04 #@! TD*
D23*
G04 #@! TO.C,C7*
X353900545Y-113579073D03*
X353900545Y-114539073D03*
G04 #@! TD*
D12*
G04 #@! TO.C,MX18*
X328396250Y-87947500D03*
X341846250Y-85407500D03*
G04 #@! TD*
D13*
G04 #@! TO.C,MX417.3*
X219291250Y-150177500D03*
X205841250Y-152717500D03*
G04 #@! TD*
D12*
G04 #@! TO.C,MX417.2*
X216477500Y-145097500D03*
D24*
X229927500Y-142557500D03*
G04 #@! TD*
D23*
G04 #@! TO.C,C8*
X352792683Y-113579073D03*
X352792683Y-114539073D03*
G04 #@! TD*
D25*
G04 #@! TO.C,R1*
X367109375Y-121727500D03*
X367109375Y-122747500D03*
G04 #@! TD*
D12*
G04 #@! TO.C,MX446.1*
X264102500Y-145097500D03*
X277552500Y-142557500D03*
G04 #@! TD*
G04 #@! TO.C,MX32*
X376021250Y-106997500D03*
X389471250Y-104457500D03*
G04 #@! TD*
D26*
G04 #@! TO.C,J1*
X353800000Y-93950000D03*
X355000000Y-93950000D03*
X356200000Y-93950000D03*
X357400000Y-93950000D03*
D27*
X352650000Y-90175000D03*
X358550000Y-90175000D03*
G04 #@! TD*
D28*
G04 #@! TO.C,R2*
X366063259Y-122747500D03*
X366063259Y-121727500D03*
G04 #@! TD*
D10*
G04 #@! TO.C,D38*
X390417500Y-107162500D03*
X392317500Y-107162500D03*
X391367500Y-109037500D03*
G04 #@! TD*
D16*
G04 #@! TO.C,C6*
X347959864Y-126983801D03*
X347959864Y-126023801D03*
G04 #@! TD*
D29*
G04 #@! TO.C,BOOT1*
X372581250Y-128562500D03*
X372581250Y-122262500D03*
X368781250Y-128562500D03*
X368781250Y-122262500D03*
G04 #@! TD*
D18*
G04 #@! TO.C,C2*
X343316364Y-117507680D03*
X344276364Y-117507680D03*
G04 #@! TD*
D11*
G04 #@! TO.C,U3*
X360369620Y-102884680D03*
X358469620Y-102884680D03*
X359419620Y-101009680D03*
G04 #@! TD*
D24*
G04 #@! TO.C,MX437.1*
X230765000Y-145097500D03*
D12*
X244215000Y-142557500D03*
G04 #@! TD*
D30*
G04 #@! TO.C,U1*
X352793750Y-124415625D03*
X352293750Y-124415625D03*
X351793750Y-124415625D03*
X351293750Y-124415625D03*
X350793750Y-124415625D03*
X350293750Y-124415625D03*
X349793750Y-124415625D03*
X349293750Y-124415625D03*
X348793750Y-124415625D03*
X348293750Y-124415625D03*
X347793750Y-124415625D03*
X347293750Y-124415625D03*
D31*
X345881250Y-123003125D03*
X345881250Y-122503125D03*
X345881250Y-122003125D03*
X345881250Y-121503125D03*
X345881250Y-121003125D03*
X345881250Y-120503125D03*
X345881250Y-120003125D03*
X345881250Y-119503125D03*
X345881250Y-119003125D03*
X345881250Y-118503125D03*
X345881250Y-118003125D03*
X345881250Y-117503125D03*
D30*
X347293750Y-116090625D03*
X347793750Y-116090625D03*
X348293750Y-116090625D03*
X348793750Y-116090625D03*
X349293750Y-116090625D03*
X349793750Y-116090625D03*
X350293750Y-116090625D03*
X350793750Y-116090625D03*
X351293750Y-116090625D03*
X351793750Y-116090625D03*
X352293750Y-116090625D03*
X352793750Y-116090625D03*
D31*
X354206250Y-117503125D03*
X354206250Y-118003125D03*
X354206250Y-118503125D03*
X354206250Y-119003125D03*
X354206250Y-119503125D03*
X354206250Y-120003125D03*
X354206250Y-120503125D03*
X354206250Y-121003125D03*
X354206250Y-121503125D03*
X354206250Y-122003125D03*
X354206250Y-122503125D03*
X354206250Y-123003125D03*
G04 #@! TD*
D10*
G04 #@! TO.C,D33*
X390300000Y-147312500D03*
X392200000Y-147312500D03*
X391250000Y-149187500D03*
G04 #@! TD*
D12*
G04 #@! TO.C,MX50*
X376021250Y-126047500D03*
X389471250Y-123507500D03*
G04 #@! TD*
G04 #@! TO.C,MX417.1*
X183140000Y-145097500D03*
X196590000Y-142557500D03*
G04 #@! TD*
D23*
G04 #@! TO.C,C9*
X350043456Y-126023801D03*
X350043456Y-126983801D03*
G04 #@! TD*
D10*
G04 #@! TO.C,D36*
X390550000Y-88062500D03*
X392450000Y-88062500D03*
X391500000Y-89937500D03*
G04 #@! TD*
M02*
