%TF.GenerationSoftware,KiCad,Pcbnew,9.0.7*%
%TF.CreationDate,2026-01-25T12:22:48+01:00*%
%TF.ProjectId,kastenwagen-1840-pcb,6b617374-656e-4776-9167-656e2d313834,rev?*%
%TF.SameCoordinates,Original*%
%TF.FileFunction,Drillmap*%
%TF.FilePolarity,Positive*%
%FSLAX45Y45*%
G04 Gerber Fmt 4.5, Leading zero omitted, Abs format (unit mm)*
G04 Created by KiCad (PCBNEW 9.0.7) date 2026-01-25 12:22:48*
%MOMM*%
%LPD*%
G01*
G04 APERTURE LIST*
%ADD10C,0.100000*%
%ADD11C,0.200000*%
%ADD12C,0.175000*%
%ADD13C,0.304800*%
%ADD14C,0.398780*%
G04 APERTURE END LIST*
D10*
X9842135Y-8466835D02*
G75*
G02*
X10142126Y-8166835I299995J5D01*
G01*
X16380730Y-15316823D02*
X16590710Y-15316823D01*
X16940150Y-15646823D02*
G75*
G02*
X16690565Y-15411108I0J249993D01*
G01*
X37390000Y-8191993D02*
X37390000Y-8231844D01*
X35975000Y-8256839D02*
G75*
G02*
X35950001Y-8231839I0J24999D01*
G01*
X16280887Y-15411108D02*
G75*
G02*
X16380730Y-15316823I99843J-5722D01*
G01*
X32999831Y-15646823D02*
G75*
G02*
X33149997Y-15796990I-1J-150167D01*
G01*
X10072140Y-15646861D02*
X16032249Y-15646823D01*
X36450331Y-16142121D02*
X33300151Y-16142121D01*
X15720775Y-8396760D02*
G75*
G02*
X15620775Y-8496755I-99995J0D01*
G01*
X16280887Y-15411108D02*
G75*
G02*
X16032249Y-15646823I-249587J14279D01*
G01*
X37390000Y-8231844D02*
G75*
G02*
X37365000Y-8256840I-25000J4D01*
G01*
X37012220Y-15812121D02*
G75*
G02*
X37112056Y-15906407I0J-99999D01*
G01*
X36803278Y-15812121D02*
X37012220Y-15812121D01*
X15720775Y-8346760D02*
G75*
G02*
X15900125Y-8166756I180005J0D01*
G01*
X39529837Y-8367980D02*
G75*
G02*
X39729804Y-8167987I199993J0D01*
G01*
X37361650Y-16142121D02*
X38610000Y-16142121D01*
X46707859Y-8166869D02*
X39729804Y-8167980D01*
X36702385Y-15910000D02*
G75*
G02*
X36803268Y-15812439I97615J0D01*
G01*
X37365000Y-8256844D02*
X35975000Y-8256839D01*
X14991346Y-8166757D02*
X10141479Y-8166839D01*
X9842259Y-8467122D02*
X9842124Y-15418287D01*
X38760000Y-15797555D02*
G75*
G02*
X38909983Y-15647550I150010J-5D01*
G01*
X38909983Y-15647555D02*
X46707879Y-15647655D01*
X39050000Y-8395536D02*
X39050000Y-8346840D01*
X37361650Y-16142121D02*
G75*
G02*
X37112057Y-15906407I0J250001D01*
G01*
X15720775Y-8346760D02*
X15720775Y-8396760D01*
X39429510Y-8496839D02*
X39149990Y-8496839D01*
X39529837Y-8391129D02*
X39529837Y-8367980D01*
X39529837Y-8391129D02*
G75*
G02*
X39429510Y-8496839I-99837J-5711D01*
G01*
X14991346Y-8166757D02*
G75*
G02*
X15240935Y-8402471I4J-249993D01*
G01*
X38760000Y-15992121D02*
G75*
G02*
X38610000Y-16142120I-150000J1D01*
G01*
X46857881Y-15497655D02*
G75*
G02*
X46707879Y-15647661I-150011J5D01*
G01*
X39149990Y-8496839D02*
G75*
G02*
X39050000Y-8395536I10J100009D01*
G01*
X35950000Y-8194992D02*
X35950000Y-8231839D01*
X38760000Y-15992121D02*
X38760000Y-15797555D01*
X38870000Y-8166830D02*
G75*
G02*
X39050000Y-8346840I0J-180000D01*
G01*
X15620775Y-8496757D02*
X15620000Y-8496757D01*
X16940150Y-15646823D02*
X32999831Y-15646823D01*
X37390000Y-8191993D02*
G75*
G02*
X37414997Y-8166990I25000J4D01*
G01*
X15580000Y-8496757D02*
X15340770Y-8496757D01*
X33300151Y-16142121D02*
G75*
G02*
X33150000Y-15992545I-1J150151D01*
G01*
X35925004Y-8169992D02*
G75*
G02*
X35949998Y-8194992I-4J-24998D01*
G01*
X46707859Y-8166869D02*
G75*
G02*
X46857881Y-8316869I21J-150001D01*
G01*
X35925004Y-8169992D02*
X15900125Y-8166756D01*
X33149999Y-15796990D02*
X33150001Y-15992545D01*
X16590710Y-15316823D02*
G75*
G02*
X16690563Y-15411108I0J-100017D01*
G01*
X36702385Y-15910000D02*
G75*
G02*
X36450328Y-16142353I-249615J17890D01*
G01*
X15620000Y-8496757D02*
X15580000Y-8496757D01*
X15340770Y-8496757D02*
G75*
G02*
X15240937Y-8402471I0J99997D01*
G01*
X46857881Y-15497655D02*
X46857883Y-8316869D01*
X38870000Y-8166839D02*
X37414997Y-8166993D01*
X10072138Y-15646861D02*
G75*
G02*
X9842114Y-15418287I2J230031D01*
G01*
D11*
D12*
X10120125Y-8961250D02*
X10295125Y-9136250D01*
X10295125Y-8961250D02*
X10120125Y-9136250D01*
X10358250Y-10866250D02*
X10533250Y-11041250D01*
X10533250Y-10866250D02*
X10358250Y-11041250D01*
X10358250Y-14676250D02*
X10533250Y-14851250D01*
X10533250Y-14676250D02*
X10358250Y-14851250D01*
X10834500Y-12771250D02*
X11009500Y-12946250D01*
X11009500Y-12771250D02*
X10834500Y-12946250D01*
X11136125Y-8961250D02*
X11311125Y-9136250D01*
X11311125Y-8961250D02*
X11136125Y-9136250D01*
X11374250Y-10866250D02*
X11549250Y-11041250D01*
X11549250Y-10866250D02*
X11374250Y-11041250D01*
X11374250Y-14676250D02*
X11549250Y-14851250D01*
X11549250Y-14676250D02*
X11374250Y-14851250D01*
X11850500Y-12771250D02*
X12025500Y-12946250D01*
X12025500Y-12771250D02*
X11850500Y-12946250D01*
X12025114Y-8961242D02*
X12200114Y-9136242D01*
X12200114Y-8961242D02*
X12025114Y-9136242D01*
X12501375Y-10866250D02*
X12676375Y-11041250D01*
X12676375Y-10866250D02*
X12501375Y-11041250D01*
X12501375Y-14676250D02*
X12676375Y-14851250D01*
X12676375Y-14676250D02*
X12501375Y-14851250D01*
X13041114Y-8961242D02*
X13216114Y-9136242D01*
X13216114Y-8961242D02*
X13041114Y-9136242D01*
X13453875Y-12771250D02*
X13628875Y-12946250D01*
X13628875Y-12771250D02*
X13453875Y-12946250D01*
X13517375Y-10866250D02*
X13692375Y-11041250D01*
X13692375Y-10866250D02*
X13517375Y-11041250D01*
X13517375Y-14676250D02*
X13692375Y-14851250D01*
X13692375Y-14676250D02*
X13517375Y-14851250D01*
X13930125Y-8961250D02*
X14105125Y-9136250D01*
X14105125Y-8961250D02*
X13930125Y-9136250D01*
X14406375Y-10866250D02*
X14581375Y-11041250D01*
X14581375Y-10866250D02*
X14406375Y-11041250D01*
X14469875Y-12771250D02*
X14644875Y-12946250D01*
X14644875Y-12771250D02*
X14469875Y-12946250D01*
X14644500Y-14676250D02*
X14819500Y-14851250D01*
X14819500Y-14676250D02*
X14644500Y-14851250D01*
X14946125Y-8961250D02*
X15121125Y-9136250D01*
X15121125Y-8961250D02*
X14946125Y-9136250D01*
X15358875Y-12771250D02*
X15533875Y-12946250D01*
X15533875Y-12771250D02*
X15358875Y-12946250D01*
X15422375Y-10866250D02*
X15597375Y-11041250D01*
X15597375Y-10866250D02*
X15422375Y-11041250D01*
X15660500Y-14676250D02*
X15835500Y-14851250D01*
X15835500Y-14676250D02*
X15660500Y-14851250D01*
X15835125Y-8961250D02*
X16010125Y-9136250D01*
X16010125Y-8961250D02*
X15835125Y-9136250D01*
X16311375Y-10866250D02*
X16486375Y-11041250D01*
X16486375Y-10866250D02*
X16311375Y-11041250D01*
X16374875Y-12771250D02*
X16549875Y-12946250D01*
X16549875Y-12771250D02*
X16374875Y-12946250D01*
X16851125Y-8961250D02*
X17026125Y-9136250D01*
X17026125Y-8961250D02*
X16851125Y-9136250D01*
X17263875Y-12771250D02*
X17438875Y-12946250D01*
X17438875Y-12771250D02*
X17263875Y-12946250D01*
X17327375Y-10866250D02*
X17502375Y-11041250D01*
X17502375Y-10866250D02*
X17327375Y-11041250D01*
X17740125Y-8961250D02*
X17915125Y-9136250D01*
X17915125Y-8961250D02*
X17740125Y-9136250D01*
X18216375Y-10866250D02*
X18391375Y-11041250D01*
X18391375Y-10866250D02*
X18216375Y-11041250D01*
X18279875Y-12771250D02*
X18454875Y-12946250D01*
X18454875Y-12771250D02*
X18279875Y-12946250D01*
X18454500Y-14676250D02*
X18629500Y-14851250D01*
X18629500Y-14676250D02*
X18454500Y-14851250D01*
X18756125Y-8961250D02*
X18931125Y-9136250D01*
X18931125Y-8961250D02*
X18756125Y-9136250D01*
X19168875Y-12771250D02*
X19343875Y-12946250D01*
X19343875Y-12771250D02*
X19168875Y-12946250D01*
X19232375Y-10866250D02*
X19407375Y-11041250D01*
X19407375Y-10866250D02*
X19232375Y-11041250D01*
X19470500Y-14676250D02*
X19645500Y-14851250D01*
X19645500Y-14676250D02*
X19470500Y-14851250D01*
X19645125Y-8961250D02*
X19820125Y-9136250D01*
X19820125Y-8961250D02*
X19645125Y-9136250D01*
X20121375Y-10866250D02*
X20296375Y-11041250D01*
X20296375Y-10866250D02*
X20121375Y-11041250D01*
X20184875Y-12771250D02*
X20359875Y-12946250D01*
X20359875Y-12771250D02*
X20184875Y-12946250D01*
X20597625Y-14676250D02*
X20772625Y-14851250D01*
X20772625Y-14676250D02*
X20597625Y-14851250D01*
X20661125Y-8961250D02*
X20836125Y-9136250D01*
X20836125Y-8961250D02*
X20661125Y-9136250D01*
X21073875Y-12771250D02*
X21248875Y-12946250D01*
X21248875Y-12771250D02*
X21073875Y-12946250D01*
X21137375Y-10866250D02*
X21312375Y-11041250D01*
X21312375Y-10866250D02*
X21137375Y-11041250D01*
X21550125Y-8961250D02*
X21725125Y-9136250D01*
X21725125Y-8961250D02*
X21550125Y-9136250D01*
X21613625Y-14676250D02*
X21788625Y-14851250D01*
X21788625Y-14676250D02*
X21613625Y-14851250D01*
X21788250Y-14676250D02*
X21963250Y-14851250D01*
X21963250Y-14676250D02*
X21788250Y-14851250D01*
X22026375Y-10866250D02*
X22201375Y-11041250D01*
X22201375Y-10866250D02*
X22026375Y-11041250D01*
X22089875Y-12771250D02*
X22264875Y-12946250D01*
X22264875Y-12771250D02*
X22089875Y-12946250D01*
X22566125Y-8961250D02*
X22741125Y-9136250D01*
X22741125Y-8961250D02*
X22566125Y-9136250D01*
X22804250Y-14676250D02*
X22979250Y-14851250D01*
X22979250Y-14676250D02*
X22804250Y-14851250D01*
X22978875Y-12771250D02*
X23153875Y-12946250D01*
X23153875Y-12771250D02*
X22978875Y-12946250D01*
X23042375Y-10866250D02*
X23217375Y-11041250D01*
X23217375Y-10866250D02*
X23042375Y-11041250D01*
X23217000Y-14676250D02*
X23392000Y-14851250D01*
X23392000Y-14676250D02*
X23217000Y-14851250D01*
X23455125Y-8961250D02*
X23630125Y-9136250D01*
X23630125Y-8961250D02*
X23455125Y-9136250D01*
X23931375Y-10866250D02*
X24106375Y-11041250D01*
X24106375Y-10866250D02*
X23931375Y-11041250D01*
X23994875Y-12771250D02*
X24169875Y-12946250D01*
X24169875Y-12771250D02*
X23994875Y-12946250D01*
X24233000Y-14676250D02*
X24408000Y-14851250D01*
X24408000Y-14676250D02*
X24233000Y-14851250D01*
X24471125Y-8961250D02*
X24646125Y-9136250D01*
X24646125Y-8961250D02*
X24471125Y-9136250D01*
X24883875Y-12771250D02*
X25058875Y-12946250D01*
X25058875Y-12771250D02*
X24883875Y-12946250D01*
X24947375Y-10866250D02*
X25122375Y-11041250D01*
X25122375Y-10866250D02*
X24947375Y-11041250D01*
X25360125Y-8961250D02*
X25535125Y-9136250D01*
X25535125Y-8961250D02*
X25360125Y-9136250D01*
X25836375Y-10866250D02*
X26011375Y-11041250D01*
X26011375Y-10866250D02*
X25836375Y-11041250D01*
X25899875Y-12771250D02*
X26074875Y-12946250D01*
X26074875Y-12771250D02*
X25899875Y-12946250D01*
X26376125Y-8961250D02*
X26551125Y-9136250D01*
X26551125Y-8961250D02*
X26376125Y-9136250D01*
X26550750Y-14676250D02*
X26725750Y-14851250D01*
X26725750Y-14676250D02*
X26550750Y-14851250D01*
X26788875Y-12771250D02*
X26963875Y-12946250D01*
X26963875Y-12771250D02*
X26788875Y-12946250D01*
X26852375Y-10866250D02*
X27027375Y-11041250D01*
X27027375Y-10866250D02*
X26852375Y-11041250D01*
X27265125Y-8961250D02*
X27440125Y-9136250D01*
X27440125Y-8961250D02*
X27265125Y-9136250D01*
X27566750Y-14676250D02*
X27741750Y-14851250D01*
X27741750Y-14676250D02*
X27566750Y-14851250D01*
X27741375Y-10866250D02*
X27916375Y-11041250D01*
X27916375Y-10866250D02*
X27741375Y-11041250D01*
X27804875Y-12771250D02*
X27979875Y-12946250D01*
X27979875Y-12771250D02*
X27804875Y-12946250D01*
X28281125Y-8961250D02*
X28456125Y-9136250D01*
X28456125Y-8961250D02*
X28281125Y-9136250D01*
X28693875Y-12771250D02*
X28868875Y-12946250D01*
X28868875Y-12771250D02*
X28693875Y-12946250D01*
X28693875Y-14676250D02*
X28868875Y-14851250D01*
X28868875Y-14676250D02*
X28693875Y-14851250D01*
X28757375Y-10866250D02*
X28932375Y-11041250D01*
X28932375Y-10866250D02*
X28757375Y-11041250D01*
X29170125Y-8961250D02*
X29345125Y-9136250D01*
X29345125Y-8961250D02*
X29170125Y-9136250D01*
X29646375Y-10866250D02*
X29821375Y-11041250D01*
X29821375Y-10866250D02*
X29646375Y-11041250D01*
X29709875Y-12771250D02*
X29884875Y-12946250D01*
X29884875Y-12771250D02*
X29709875Y-12946250D01*
X29709875Y-14676250D02*
X29884875Y-14851250D01*
X29884875Y-14676250D02*
X29709875Y-14851250D01*
X30186125Y-8961250D02*
X30361125Y-9136250D01*
X30361125Y-8961250D02*
X30186125Y-9136250D01*
X30598875Y-12771250D02*
X30773875Y-12946250D01*
X30773875Y-12771250D02*
X30598875Y-12946250D01*
X30662375Y-10866250D02*
X30837375Y-11041250D01*
X30837375Y-10866250D02*
X30662375Y-11041250D01*
X30837000Y-14676250D02*
X31012000Y-14851250D01*
X31012000Y-14676250D02*
X30837000Y-14851250D01*
X31075125Y-8961250D02*
X31250125Y-9136250D01*
X31250125Y-8961250D02*
X31075125Y-9136250D01*
X31551375Y-10866250D02*
X31726375Y-11041250D01*
X31726375Y-10866250D02*
X31551375Y-11041250D01*
X31614875Y-12771250D02*
X31789875Y-12946250D01*
X31789875Y-12771250D02*
X31614875Y-12946250D01*
X31853000Y-14676250D02*
X32028000Y-14851250D01*
X32028000Y-14676250D02*
X31853000Y-14851250D01*
X32091125Y-8961250D02*
X32266125Y-9136250D01*
X32266125Y-8961250D02*
X32091125Y-9136250D01*
X32567375Y-10866250D02*
X32742375Y-11041250D01*
X32742375Y-10866250D02*
X32567375Y-11041250D01*
X32742000Y-12771250D02*
X32917000Y-12946250D01*
X32917000Y-12771250D02*
X32742000Y-12946250D01*
X32980125Y-8961250D02*
X33155125Y-9136250D01*
X33155125Y-8961250D02*
X32980125Y-9136250D01*
X33456375Y-15152500D02*
X33631375Y-15327500D01*
X33631375Y-15152500D02*
X33456375Y-15327500D01*
X33694500Y-8961250D02*
X33869500Y-9136250D01*
X33869500Y-8961250D02*
X33694500Y-9136250D01*
X33758000Y-12771250D02*
X33933000Y-12946250D01*
X33933000Y-12771250D02*
X33758000Y-12946250D01*
X33932625Y-10866250D02*
X34107625Y-11041250D01*
X34107625Y-10866250D02*
X33932625Y-11041250D01*
X33996125Y-8961250D02*
X34171125Y-9136250D01*
X34171125Y-8961250D02*
X33996125Y-9136250D01*
X34472375Y-15152500D02*
X34647375Y-15327500D01*
X34647375Y-15152500D02*
X34472375Y-15327500D01*
X34710500Y-8961250D02*
X34885500Y-9136250D01*
X34885500Y-8961250D02*
X34710500Y-9136250D01*
X34948625Y-10866250D02*
X35123625Y-11041250D01*
X35123625Y-10866250D02*
X34948625Y-11041250D01*
X35361375Y-13247500D02*
X35536375Y-13422500D01*
X35536375Y-13247500D02*
X35361375Y-13422500D01*
X35361375Y-15152500D02*
X35536375Y-15327500D01*
X35536375Y-15152500D02*
X35361375Y-15327500D01*
X36377375Y-13247500D02*
X36552375Y-13422500D01*
X36552375Y-13247500D02*
X36377375Y-13422500D01*
X36377375Y-15152500D02*
X36552375Y-15327500D01*
X36552375Y-15152500D02*
X36377375Y-15327500D01*
X37266375Y-15152500D02*
X37441375Y-15327500D01*
X37441375Y-15152500D02*
X37266375Y-15327500D01*
X37742625Y-8961250D02*
X37917625Y-9136250D01*
X37917625Y-8961250D02*
X37742625Y-9136250D01*
X37742625Y-10866250D02*
X37917625Y-11041250D01*
X37917625Y-10866250D02*
X37742625Y-11041250D01*
X37742625Y-12771250D02*
X37917625Y-12946250D01*
X37917625Y-12771250D02*
X37742625Y-12946250D01*
X38282375Y-15152500D02*
X38457375Y-15327500D01*
X38457375Y-15152500D02*
X38282375Y-15327500D01*
X38758625Y-8961250D02*
X38933625Y-9136250D01*
X38933625Y-8961250D02*
X38758625Y-9136250D01*
X38758625Y-10866250D02*
X38933625Y-11041250D01*
X38933625Y-10866250D02*
X38758625Y-11041250D01*
X38758625Y-12771250D02*
X38933625Y-12946250D01*
X38933625Y-12771250D02*
X38758625Y-12946250D01*
X39647625Y-8961250D02*
X39822625Y-9136250D01*
X39822625Y-8961250D02*
X39647625Y-9136250D01*
X39647625Y-10866250D02*
X39822625Y-11041250D01*
X39822625Y-10866250D02*
X39647625Y-11041250D01*
X39647625Y-12771250D02*
X39822625Y-12946250D01*
X39822625Y-12771250D02*
X39647625Y-12946250D01*
X39647625Y-14676250D02*
X39822625Y-14851250D01*
X39822625Y-14676250D02*
X39647625Y-14851250D01*
X40600125Y-14676250D02*
X40775125Y-14851250D01*
X40775125Y-14676250D02*
X40600125Y-14851250D01*
X40663625Y-8961250D02*
X40838625Y-9136250D01*
X40838625Y-8961250D02*
X40663625Y-9136250D01*
X40663625Y-10866250D02*
X40838625Y-11041250D01*
X40838625Y-10866250D02*
X40663625Y-11041250D01*
X40663625Y-12771250D02*
X40838625Y-12946250D01*
X40838625Y-12771250D02*
X40663625Y-12946250D01*
X40663625Y-14676250D02*
X40838625Y-14851250D01*
X40838625Y-14676250D02*
X40663625Y-14851250D01*
X41552625Y-8961250D02*
X41727625Y-9136250D01*
X41727625Y-8961250D02*
X41552625Y-9136250D01*
X41552625Y-10866250D02*
X41727625Y-11041250D01*
X41727625Y-10866250D02*
X41552625Y-11041250D01*
X41552625Y-12771250D02*
X41727625Y-12946250D01*
X41727625Y-12771250D02*
X41552625Y-12946250D01*
X41552625Y-14676250D02*
X41727625Y-14851250D01*
X41727625Y-14676250D02*
X41552625Y-14851250D01*
X41616125Y-14676250D02*
X41791125Y-14851250D01*
X41791125Y-14676250D02*
X41616125Y-14851250D01*
X42568625Y-8961250D02*
X42743625Y-9136250D01*
X42743625Y-8961250D02*
X42568625Y-9136250D01*
X42568625Y-10866250D02*
X42743625Y-11041250D01*
X42743625Y-10866250D02*
X42568625Y-11041250D01*
X42568625Y-12771250D02*
X42743625Y-12946250D01*
X42743625Y-12771250D02*
X42568625Y-12946250D01*
X42568625Y-14676250D02*
X42743625Y-14851250D01*
X42743625Y-14676250D02*
X42568625Y-14851250D01*
X43457625Y-8961250D02*
X43632625Y-9136250D01*
X43632625Y-8961250D02*
X43457625Y-9136250D01*
X43457625Y-10866250D02*
X43632625Y-11041250D01*
X43632625Y-10866250D02*
X43457625Y-11041250D01*
X43457625Y-12771250D02*
X43632625Y-12946250D01*
X43632625Y-12771250D02*
X43457625Y-12946250D01*
X43457625Y-14676250D02*
X43632625Y-14851250D01*
X43632625Y-14676250D02*
X43457625Y-14851250D01*
X44473625Y-8961250D02*
X44648625Y-9136250D01*
X44648625Y-8961250D02*
X44473625Y-9136250D01*
X44473625Y-10866250D02*
X44648625Y-11041250D01*
X44648625Y-10866250D02*
X44473625Y-11041250D01*
X44473625Y-12771250D02*
X44648625Y-12946250D01*
X44648625Y-12771250D02*
X44473625Y-12946250D01*
X44473625Y-14676250D02*
X44648625Y-14851250D01*
X44648625Y-14676250D02*
X44473625Y-14851250D01*
X45362625Y-10866250D02*
X45537625Y-11041250D01*
X45537625Y-10866250D02*
X45362625Y-11041250D01*
X45870625Y-12263250D02*
X46045625Y-12438250D01*
X46045625Y-12263250D02*
X45870625Y-12438250D01*
X45870625Y-13215750D02*
X46045625Y-13390750D01*
X46045625Y-13215750D02*
X45870625Y-13390750D01*
X45870625Y-13279250D02*
X46045625Y-13454250D01*
X46045625Y-13279250D02*
X45870625Y-13454250D01*
X45870625Y-14168250D02*
X46045625Y-14343250D01*
X46045625Y-14168250D02*
X45870625Y-14343250D01*
X45870625Y-14231750D02*
X46045625Y-14406750D01*
X46045625Y-14231750D02*
X45870625Y-14406750D01*
X45870625Y-15184250D02*
X46045625Y-15359250D01*
X46045625Y-15184250D02*
X45870625Y-15359250D01*
X46378625Y-10866250D02*
X46553625Y-11041250D01*
X46553625Y-10866250D02*
X46378625Y-11041250D01*
D13*
X17535525Y-15462250D02*
G75*
G02*
X17230725Y-15462250I-152400J0D01*
G01*
X17230725Y-15462250D02*
G75*
G02*
X17535525Y-15462250I152400J0D01*
G01*
X25155525Y-15462250D02*
G75*
G02*
X24850725Y-15462250I-152400J0D01*
G01*
X24850725Y-15462250D02*
G75*
G02*
X25155525Y-15462250I152400J0D01*
G01*
D14*
X10715625Y-8849360D02*
X10715625Y-9248140D01*
X10516235Y-9048750D02*
X10915015Y-9048750D01*
X10953750Y-10754360D02*
X10953750Y-11153140D01*
X10754360Y-10953750D02*
X11153140Y-10953750D01*
X10953750Y-14564360D02*
X10953750Y-14963140D01*
X10754360Y-14763750D02*
X11153140Y-14763750D01*
X11430000Y-12659360D02*
X11430000Y-13058140D01*
X11230610Y-12858750D02*
X11629390Y-12858750D01*
X12620614Y-8849352D02*
X12620614Y-9248132D01*
X12421224Y-9048742D02*
X12820004Y-9048742D01*
X13096875Y-10754360D02*
X13096875Y-11153140D01*
X12897485Y-10953750D02*
X13296265Y-10953750D01*
X13096875Y-14564360D02*
X13096875Y-14963140D01*
X12897485Y-14763750D02*
X13296265Y-14763750D01*
X14049375Y-12659360D02*
X14049375Y-13058140D01*
X13849985Y-12858750D02*
X14248765Y-12858750D01*
X14525625Y-8849360D02*
X14525625Y-9248140D01*
X14326235Y-9048750D02*
X14725015Y-9048750D01*
X15001875Y-10754360D02*
X15001875Y-11153140D01*
X14802485Y-10953750D02*
X15201265Y-10953750D01*
X15240000Y-14564360D02*
X15240000Y-14963140D01*
X15040610Y-14763750D02*
X15439390Y-14763750D01*
X15954375Y-12659360D02*
X15954375Y-13058140D01*
X15754985Y-12858750D02*
X16153765Y-12858750D01*
X16430625Y-8849360D02*
X16430625Y-9248140D01*
X16231235Y-9048750D02*
X16630015Y-9048750D01*
X16906875Y-10754360D02*
X16906875Y-11153140D01*
X16707485Y-10953750D02*
X17106265Y-10953750D01*
X17383125Y-13738860D02*
X17383125Y-14137640D01*
X17183735Y-13938250D02*
X17582515Y-13938250D01*
X17383125Y-13738860D02*
X17383125Y-14137640D01*
X17183735Y-13938250D02*
X17582515Y-13938250D01*
X17859375Y-12659360D02*
X17859375Y-13058140D01*
X17659985Y-12858750D02*
X18058765Y-12858750D01*
X17859375Y-13738860D02*
X17859375Y-14137640D01*
X17659985Y-13938250D02*
X18058765Y-13938250D01*
X18335625Y-8849360D02*
X18335625Y-9248140D01*
X18136235Y-9048750D02*
X18535015Y-9048750D01*
X18811875Y-10754360D02*
X18811875Y-11153140D01*
X18612485Y-10953750D02*
X19011265Y-10953750D01*
X19050000Y-14564360D02*
X19050000Y-14963140D01*
X18850610Y-14763750D02*
X19249390Y-14763750D01*
X19764375Y-12659360D02*
X19764375Y-13058140D01*
X19564985Y-12858750D02*
X19963765Y-12858750D01*
X20240625Y-8849360D02*
X20240625Y-9248140D01*
X20041235Y-9048750D02*
X20440015Y-9048750D01*
X20240625Y-13738860D02*
X20240625Y-14137640D01*
X20041235Y-13938250D02*
X20440015Y-13938250D01*
X20716875Y-10754360D02*
X20716875Y-11153140D01*
X20517485Y-10953750D02*
X20916265Y-10953750D01*
X21193125Y-14564360D02*
X21193125Y-14963140D01*
X20993735Y-14763750D02*
X21392515Y-14763750D01*
X21669375Y-12659360D02*
X21669375Y-13058140D01*
X21469985Y-12858750D02*
X21868765Y-12858750D01*
X22145625Y-8849360D02*
X22145625Y-9248140D01*
X21946235Y-9048750D02*
X22345015Y-9048750D01*
X22383750Y-14564360D02*
X22383750Y-14963140D01*
X22184360Y-14763750D02*
X22583140Y-14763750D01*
X22621875Y-10754360D02*
X22621875Y-11153140D01*
X22422485Y-10953750D02*
X22821265Y-10953750D01*
X22621875Y-13738860D02*
X22621875Y-14137640D01*
X22422485Y-13938250D02*
X22821265Y-13938250D01*
X23574375Y-12659360D02*
X23574375Y-13058140D01*
X23374985Y-12858750D02*
X23773765Y-12858750D01*
X23812500Y-14564360D02*
X23812500Y-14963140D01*
X23613110Y-14763750D02*
X24011890Y-14763750D01*
X24050625Y-8849360D02*
X24050625Y-9248140D01*
X23851235Y-9048750D02*
X24250015Y-9048750D01*
X24526875Y-10754360D02*
X24526875Y-11153140D01*
X24327485Y-10953750D02*
X24726265Y-10953750D01*
X25003125Y-13738860D02*
X25003125Y-14137640D01*
X24803735Y-13938250D02*
X25202515Y-13938250D01*
X25003125Y-13738860D02*
X25003125Y-14137640D01*
X24803735Y-13938250D02*
X25202515Y-13938250D01*
X25479375Y-12659360D02*
X25479375Y-13058140D01*
X25279985Y-12858750D02*
X25678765Y-12858750D01*
X25955625Y-8849360D02*
X25955625Y-9248140D01*
X25756235Y-9048750D02*
X26155015Y-9048750D01*
X26431875Y-10754360D02*
X26431875Y-11153140D01*
X26232485Y-10953750D02*
X26631265Y-10953750D01*
X27146250Y-14564360D02*
X27146250Y-14963140D01*
X26946860Y-14763750D02*
X27345640Y-14763750D01*
X27384375Y-12659360D02*
X27384375Y-13058140D01*
X27184985Y-12858750D02*
X27583765Y-12858750D01*
X27384375Y-13738860D02*
X27384375Y-14137640D01*
X27184985Y-13938250D02*
X27583765Y-13938250D01*
X27860625Y-8849360D02*
X27860625Y-9248140D01*
X27661235Y-9048750D02*
X28060015Y-9048750D01*
X28336875Y-10754360D02*
X28336875Y-11153140D01*
X28137485Y-10953750D02*
X28536265Y-10953750D01*
X29289375Y-12659360D02*
X29289375Y-13058140D01*
X29089985Y-12858750D02*
X29488765Y-12858750D01*
X29289375Y-14564360D02*
X29289375Y-14963140D01*
X29089985Y-14763750D02*
X29488765Y-14763750D01*
X29765625Y-8849360D02*
X29765625Y-9248140D01*
X29566235Y-9048750D02*
X29965015Y-9048750D01*
X30241875Y-10754360D02*
X30241875Y-11153140D01*
X30042485Y-10953750D02*
X30441265Y-10953750D01*
X31194375Y-12659360D02*
X31194375Y-13058140D01*
X30994985Y-12858750D02*
X31393765Y-12858750D01*
X31432500Y-14564360D02*
X31432500Y-14963140D01*
X31233110Y-14763750D02*
X31631890Y-14763750D01*
X31670625Y-8849360D02*
X31670625Y-9248140D01*
X31471235Y-9048750D02*
X31870015Y-9048750D01*
X32146875Y-10754360D02*
X32146875Y-11153140D01*
X31947485Y-10953750D02*
X32346265Y-10953750D01*
X33337500Y-12659360D02*
X33337500Y-13058140D01*
X33138110Y-12858750D02*
X33536890Y-12858750D01*
X33540466Y-13735280D02*
X33540466Y-14134060D01*
X33341076Y-13934670D02*
X33739856Y-13934670D01*
X33575625Y-8849360D02*
X33575625Y-9248140D01*
X33376235Y-9048750D02*
X33775015Y-9048750D01*
X34051875Y-15040610D02*
X34051875Y-15439390D01*
X33852485Y-15240000D02*
X34251265Y-15240000D01*
X34290000Y-8849360D02*
X34290000Y-9248140D01*
X34090610Y-9048750D02*
X34489390Y-9048750D01*
X34528125Y-10754360D02*
X34528125Y-11153140D01*
X34328735Y-10953750D02*
X34727515Y-10953750D01*
X35956875Y-13135610D02*
X35956875Y-13534390D01*
X35757485Y-13335000D02*
X36156265Y-13335000D01*
X35956875Y-15040610D02*
X35956875Y-15439390D01*
X35757485Y-15240000D02*
X36156265Y-15240000D01*
X37861875Y-15040610D02*
X37861875Y-15439390D01*
X37662485Y-15240000D02*
X38061265Y-15240000D01*
X38338125Y-8849360D02*
X38338125Y-9248140D01*
X38138735Y-9048750D02*
X38537515Y-9048750D01*
X38338125Y-10754360D02*
X38338125Y-11153140D01*
X38138735Y-10953750D02*
X38537515Y-10953750D01*
X38338125Y-12659360D02*
X38338125Y-13058140D01*
X38138735Y-12858750D02*
X38537515Y-12858750D01*
X40005000Y-13738860D02*
X40005000Y-14137640D01*
X39805610Y-13938250D02*
X40204390Y-13938250D01*
X40243125Y-8849360D02*
X40243125Y-9248140D01*
X40043735Y-9048750D02*
X40442515Y-9048750D01*
X40243125Y-10754360D02*
X40243125Y-11153140D01*
X40043735Y-10953750D02*
X40442515Y-10953750D01*
X40243125Y-12659360D02*
X40243125Y-13058140D01*
X40043735Y-12858750D02*
X40442515Y-12858750D01*
X40243125Y-14564360D02*
X40243125Y-14963140D01*
X40043735Y-14763750D02*
X40442515Y-14763750D01*
X41195625Y-14564360D02*
X41195625Y-14963140D01*
X40996235Y-14763750D02*
X41395015Y-14763750D01*
X42148125Y-8849360D02*
X42148125Y-9248140D01*
X41948735Y-9048750D02*
X42347515Y-9048750D01*
X42148125Y-10754360D02*
X42148125Y-11153140D01*
X41948735Y-10953750D02*
X42347515Y-10953750D01*
X42148125Y-12659360D02*
X42148125Y-13058140D01*
X41948735Y-12858750D02*
X42347515Y-12858750D01*
X42148125Y-14564360D02*
X42148125Y-14963140D01*
X41948735Y-14763750D02*
X42347515Y-14763750D01*
X42386250Y-13738860D02*
X42386250Y-14137640D01*
X42186860Y-13938250D02*
X42585640Y-13938250D01*
X44053125Y-8849360D02*
X44053125Y-9248140D01*
X43853735Y-9048750D02*
X44252515Y-9048750D01*
X44053125Y-10754360D02*
X44053125Y-11153140D01*
X43853735Y-10953750D02*
X44252515Y-10953750D01*
X44053125Y-12659360D02*
X44053125Y-13058140D01*
X43853735Y-12858750D02*
X44252515Y-12858750D01*
X44053125Y-14564360D02*
X44053125Y-14963140D01*
X43853735Y-14763750D02*
X44252515Y-14763750D01*
X45132625Y-12421235D02*
X45132625Y-12820015D01*
X44933235Y-12620625D02*
X45332015Y-12620625D01*
X45132625Y-14802485D02*
X45132625Y-15201265D01*
X44933235Y-15001875D02*
X45332015Y-15001875D01*
X45958125Y-10754360D02*
X45958125Y-11153140D01*
X45758735Y-10953750D02*
X46157515Y-10953750D01*
X45958125Y-12659360D02*
X45958125Y-13058140D01*
X45758735Y-12858750D02*
X46157515Y-12858750D01*
X45958125Y-13611860D02*
X45958125Y-14010640D01*
X45758735Y-13811250D02*
X46157515Y-13811250D01*
X45958125Y-14564360D02*
X45958125Y-14963140D01*
X45758735Y-14763750D02*
X46157515Y-14763750D01*
D11*
X10097896Y-16458849D02*
X10097896Y-16258849D01*
X10097896Y-16258849D02*
X10145515Y-16258849D01*
X10145515Y-16258849D02*
X10174087Y-16268373D01*
X10174087Y-16268373D02*
X10193134Y-16287420D01*
X10193134Y-16287420D02*
X10202658Y-16306468D01*
X10202658Y-16306468D02*
X10212182Y-16344563D01*
X10212182Y-16344563D02*
X10212182Y-16373134D01*
X10212182Y-16373134D02*
X10202658Y-16411230D01*
X10202658Y-16411230D02*
X10193134Y-16430277D01*
X10193134Y-16430277D02*
X10174087Y-16449325D01*
X10174087Y-16449325D02*
X10145515Y-16458849D01*
X10145515Y-16458849D02*
X10097896Y-16458849D01*
X10297896Y-16458849D02*
X10297896Y-16325515D01*
X10297896Y-16363611D02*
X10307420Y-16344563D01*
X10307420Y-16344563D02*
X10316944Y-16335039D01*
X10316944Y-16335039D02*
X10335992Y-16325515D01*
X10335992Y-16325515D02*
X10355039Y-16325515D01*
X10421706Y-16458849D02*
X10421706Y-16325515D01*
X10421706Y-16258849D02*
X10412182Y-16268373D01*
X10412182Y-16268373D02*
X10421706Y-16277896D01*
X10421706Y-16277896D02*
X10431230Y-16268373D01*
X10431230Y-16268373D02*
X10421706Y-16258849D01*
X10421706Y-16258849D02*
X10421706Y-16277896D01*
X10545515Y-16458849D02*
X10526468Y-16449325D01*
X10526468Y-16449325D02*
X10516944Y-16430277D01*
X10516944Y-16430277D02*
X10516944Y-16258849D01*
X10650277Y-16458849D02*
X10631230Y-16449325D01*
X10631230Y-16449325D02*
X10621706Y-16430277D01*
X10621706Y-16430277D02*
X10621706Y-16258849D01*
X10878849Y-16458849D02*
X10878849Y-16258849D01*
X10878849Y-16258849D02*
X10945515Y-16401706D01*
X10945515Y-16401706D02*
X11012182Y-16258849D01*
X11012182Y-16258849D02*
X11012182Y-16458849D01*
X11193134Y-16458849D02*
X11193134Y-16354087D01*
X11193134Y-16354087D02*
X11183611Y-16335039D01*
X11183611Y-16335039D02*
X11164563Y-16325515D01*
X11164563Y-16325515D02*
X11126468Y-16325515D01*
X11126468Y-16325515D02*
X11107420Y-16335039D01*
X11193134Y-16449325D02*
X11174087Y-16458849D01*
X11174087Y-16458849D02*
X11126468Y-16458849D01*
X11126468Y-16458849D02*
X11107420Y-16449325D01*
X11107420Y-16449325D02*
X11097896Y-16430277D01*
X11097896Y-16430277D02*
X11097896Y-16411230D01*
X11097896Y-16411230D02*
X11107420Y-16392182D01*
X11107420Y-16392182D02*
X11126468Y-16382658D01*
X11126468Y-16382658D02*
X11174087Y-16382658D01*
X11174087Y-16382658D02*
X11193134Y-16373134D01*
X11288372Y-16325515D02*
X11288372Y-16525515D01*
X11288372Y-16335039D02*
X11307420Y-16325515D01*
X11307420Y-16325515D02*
X11345515Y-16325515D01*
X11345515Y-16325515D02*
X11364563Y-16335039D01*
X11364563Y-16335039D02*
X11374087Y-16344563D01*
X11374087Y-16344563D02*
X11383611Y-16363611D01*
X11383611Y-16363611D02*
X11383611Y-16420753D01*
X11383611Y-16420753D02*
X11374087Y-16439801D01*
X11374087Y-16439801D02*
X11364563Y-16449325D01*
X11364563Y-16449325D02*
X11345515Y-16458849D01*
X11345515Y-16458849D02*
X11307420Y-16458849D01*
X11307420Y-16458849D02*
X11288372Y-16449325D01*
X11469325Y-16439801D02*
X11478849Y-16449325D01*
X11478849Y-16449325D02*
X11469325Y-16458849D01*
X11469325Y-16458849D02*
X11459801Y-16449325D01*
X11459801Y-16449325D02*
X11469325Y-16439801D01*
X11469325Y-16439801D02*
X11469325Y-16458849D01*
X11469325Y-16335039D02*
X11478849Y-16344563D01*
X11478849Y-16344563D02*
X11469325Y-16354087D01*
X11469325Y-16354087D02*
X11459801Y-16344563D01*
X11459801Y-16344563D02*
X11469325Y-16335039D01*
X11469325Y-16335039D02*
X11469325Y-16354087D01*
D12*
X9662120Y-16699865D02*
X9837120Y-16874865D01*
X9837120Y-16699865D02*
X9662120Y-16874865D01*
D11*
X10202658Y-16878849D02*
X10088373Y-16878849D01*
X10145515Y-16878849D02*
X10145515Y-16678849D01*
X10145515Y-16678849D02*
X10126468Y-16707420D01*
X10126468Y-16707420D02*
X10107420Y-16726468D01*
X10107420Y-16726468D02*
X10088373Y-16735992D01*
X10288373Y-16859801D02*
X10297896Y-16869325D01*
X10297896Y-16869325D02*
X10288373Y-16878849D01*
X10288373Y-16878849D02*
X10278849Y-16869325D01*
X10278849Y-16869325D02*
X10288373Y-16859801D01*
X10288373Y-16859801D02*
X10288373Y-16878849D01*
X10364563Y-16678849D02*
X10497896Y-16678849D01*
X10497896Y-16678849D02*
X10412182Y-16878849D01*
X10669325Y-16678849D02*
X10574087Y-16678849D01*
X10574087Y-16678849D02*
X10564563Y-16774087D01*
X10564563Y-16774087D02*
X10574087Y-16764563D01*
X10574087Y-16764563D02*
X10593134Y-16755039D01*
X10593134Y-16755039D02*
X10640754Y-16755039D01*
X10640754Y-16755039D02*
X10659801Y-16764563D01*
X10659801Y-16764563D02*
X10669325Y-16774087D01*
X10669325Y-16774087D02*
X10678849Y-16793135D01*
X10678849Y-16793135D02*
X10678849Y-16840754D01*
X10678849Y-16840754D02*
X10669325Y-16859801D01*
X10669325Y-16859801D02*
X10659801Y-16869325D01*
X10659801Y-16869325D02*
X10640754Y-16878849D01*
X10640754Y-16878849D02*
X10593134Y-16878849D01*
X10593134Y-16878849D02*
X10574087Y-16869325D01*
X10574087Y-16869325D02*
X10564563Y-16859801D01*
X10802658Y-16678849D02*
X10821706Y-16678849D01*
X10821706Y-16678849D02*
X10840754Y-16688373D01*
X10840754Y-16688373D02*
X10850277Y-16697896D01*
X10850277Y-16697896D02*
X10859801Y-16716944D01*
X10859801Y-16716944D02*
X10869325Y-16755039D01*
X10869325Y-16755039D02*
X10869325Y-16802658D01*
X10869325Y-16802658D02*
X10859801Y-16840754D01*
X10859801Y-16840754D02*
X10850277Y-16859801D01*
X10850277Y-16859801D02*
X10840754Y-16869325D01*
X10840754Y-16869325D02*
X10821706Y-16878849D01*
X10821706Y-16878849D02*
X10802658Y-16878849D01*
X10802658Y-16878849D02*
X10783611Y-16869325D01*
X10783611Y-16869325D02*
X10774087Y-16859801D01*
X10774087Y-16859801D02*
X10764563Y-16840754D01*
X10764563Y-16840754D02*
X10755039Y-16802658D01*
X10755039Y-16802658D02*
X10755039Y-16755039D01*
X10755039Y-16755039D02*
X10764563Y-16716944D01*
X10764563Y-16716944D02*
X10774087Y-16697896D01*
X10774087Y-16697896D02*
X10783611Y-16688373D01*
X10783611Y-16688373D02*
X10802658Y-16678849D01*
X10955039Y-16878849D02*
X10955039Y-16745515D01*
X10955039Y-16764563D02*
X10964563Y-16755039D01*
X10964563Y-16755039D02*
X10983611Y-16745515D01*
X10983611Y-16745515D02*
X11012182Y-16745515D01*
X11012182Y-16745515D02*
X11031230Y-16755039D01*
X11031230Y-16755039D02*
X11040754Y-16774087D01*
X11040754Y-16774087D02*
X11040754Y-16878849D01*
X11040754Y-16774087D02*
X11050277Y-16755039D01*
X11050277Y-16755039D02*
X11069325Y-16745515D01*
X11069325Y-16745515D02*
X11097896Y-16745515D01*
X11097896Y-16745515D02*
X11116944Y-16755039D01*
X11116944Y-16755039D02*
X11126468Y-16774087D01*
X11126468Y-16774087D02*
X11126468Y-16878849D01*
X11221706Y-16878849D02*
X11221706Y-16745515D01*
X11221706Y-16764563D02*
X11231230Y-16755039D01*
X11231230Y-16755039D02*
X11250277Y-16745515D01*
X11250277Y-16745515D02*
X11278849Y-16745515D01*
X11278849Y-16745515D02*
X11297896Y-16755039D01*
X11297896Y-16755039D02*
X11307420Y-16774087D01*
X11307420Y-16774087D02*
X11307420Y-16878849D01*
X11307420Y-16774087D02*
X11316944Y-16755039D01*
X11316944Y-16755039D02*
X11335992Y-16745515D01*
X11335992Y-16745515D02*
X11364563Y-16745515D01*
X11364563Y-16745515D02*
X11383611Y-16755039D01*
X11383611Y-16755039D02*
X11393134Y-16774087D01*
X11393134Y-16774087D02*
X11393134Y-16878849D01*
X11783611Y-16669325D02*
X11612182Y-16926468D01*
X12040754Y-16678849D02*
X12059801Y-16678849D01*
X12059801Y-16678849D02*
X12078849Y-16688373D01*
X12078849Y-16688373D02*
X12088373Y-16697896D01*
X12088373Y-16697896D02*
X12097896Y-16716944D01*
X12097896Y-16716944D02*
X12107420Y-16755039D01*
X12107420Y-16755039D02*
X12107420Y-16802658D01*
X12107420Y-16802658D02*
X12097896Y-16840754D01*
X12097896Y-16840754D02*
X12088373Y-16859801D01*
X12088373Y-16859801D02*
X12078849Y-16869325D01*
X12078849Y-16869325D02*
X12059801Y-16878849D01*
X12059801Y-16878849D02*
X12040754Y-16878849D01*
X12040754Y-16878849D02*
X12021706Y-16869325D01*
X12021706Y-16869325D02*
X12012182Y-16859801D01*
X12012182Y-16859801D02*
X12002658Y-16840754D01*
X12002658Y-16840754D02*
X11993135Y-16802658D01*
X11993135Y-16802658D02*
X11993135Y-16755039D01*
X11993135Y-16755039D02*
X12002658Y-16716944D01*
X12002658Y-16716944D02*
X12012182Y-16697896D01*
X12012182Y-16697896D02*
X12021706Y-16688373D01*
X12021706Y-16688373D02*
X12040754Y-16678849D01*
X12193135Y-16859801D02*
X12202658Y-16869325D01*
X12202658Y-16869325D02*
X12193135Y-16878849D01*
X12193135Y-16878849D02*
X12183611Y-16869325D01*
X12183611Y-16869325D02*
X12193135Y-16859801D01*
X12193135Y-16859801D02*
X12193135Y-16878849D01*
X12326468Y-16678849D02*
X12345516Y-16678849D01*
X12345516Y-16678849D02*
X12364563Y-16688373D01*
X12364563Y-16688373D02*
X12374087Y-16697896D01*
X12374087Y-16697896D02*
X12383611Y-16716944D01*
X12383611Y-16716944D02*
X12393135Y-16755039D01*
X12393135Y-16755039D02*
X12393135Y-16802658D01*
X12393135Y-16802658D02*
X12383611Y-16840754D01*
X12383611Y-16840754D02*
X12374087Y-16859801D01*
X12374087Y-16859801D02*
X12364563Y-16869325D01*
X12364563Y-16869325D02*
X12345516Y-16878849D01*
X12345516Y-16878849D02*
X12326468Y-16878849D01*
X12326468Y-16878849D02*
X12307420Y-16869325D01*
X12307420Y-16869325D02*
X12297896Y-16859801D01*
X12297896Y-16859801D02*
X12288373Y-16840754D01*
X12288373Y-16840754D02*
X12278849Y-16802658D01*
X12278849Y-16802658D02*
X12278849Y-16755039D01*
X12278849Y-16755039D02*
X12288373Y-16716944D01*
X12288373Y-16716944D02*
X12297896Y-16697896D01*
X12297896Y-16697896D02*
X12307420Y-16688373D01*
X12307420Y-16688373D02*
X12326468Y-16678849D01*
X12564563Y-16678849D02*
X12526468Y-16678849D01*
X12526468Y-16678849D02*
X12507420Y-16688373D01*
X12507420Y-16688373D02*
X12497896Y-16697896D01*
X12497896Y-16697896D02*
X12478849Y-16726468D01*
X12478849Y-16726468D02*
X12469325Y-16764563D01*
X12469325Y-16764563D02*
X12469325Y-16840754D01*
X12469325Y-16840754D02*
X12478849Y-16859801D01*
X12478849Y-16859801D02*
X12488373Y-16869325D01*
X12488373Y-16869325D02*
X12507420Y-16878849D01*
X12507420Y-16878849D02*
X12545516Y-16878849D01*
X12545516Y-16878849D02*
X12564563Y-16869325D01*
X12564563Y-16869325D02*
X12574087Y-16859801D01*
X12574087Y-16859801D02*
X12583611Y-16840754D01*
X12583611Y-16840754D02*
X12583611Y-16793135D01*
X12583611Y-16793135D02*
X12574087Y-16774087D01*
X12574087Y-16774087D02*
X12564563Y-16764563D01*
X12564563Y-16764563D02*
X12545516Y-16755039D01*
X12545516Y-16755039D02*
X12507420Y-16755039D01*
X12507420Y-16755039D02*
X12488373Y-16764563D01*
X12488373Y-16764563D02*
X12478849Y-16774087D01*
X12478849Y-16774087D02*
X12469325Y-16793135D01*
X12697896Y-16764563D02*
X12678849Y-16755039D01*
X12678849Y-16755039D02*
X12669325Y-16745515D01*
X12669325Y-16745515D02*
X12659801Y-16726468D01*
X12659801Y-16726468D02*
X12659801Y-16716944D01*
X12659801Y-16716944D02*
X12669325Y-16697896D01*
X12669325Y-16697896D02*
X12678849Y-16688373D01*
X12678849Y-16688373D02*
X12697896Y-16678849D01*
X12697896Y-16678849D02*
X12735992Y-16678849D01*
X12735992Y-16678849D02*
X12755039Y-16688373D01*
X12755039Y-16688373D02*
X12764563Y-16697896D01*
X12764563Y-16697896D02*
X12774087Y-16716944D01*
X12774087Y-16716944D02*
X12774087Y-16726468D01*
X12774087Y-16726468D02*
X12764563Y-16745515D01*
X12764563Y-16745515D02*
X12755039Y-16755039D01*
X12755039Y-16755039D02*
X12735992Y-16764563D01*
X12735992Y-16764563D02*
X12697896Y-16764563D01*
X12697896Y-16764563D02*
X12678849Y-16774087D01*
X12678849Y-16774087D02*
X12669325Y-16783611D01*
X12669325Y-16783611D02*
X12659801Y-16802658D01*
X12659801Y-16802658D02*
X12659801Y-16840754D01*
X12659801Y-16840754D02*
X12669325Y-16859801D01*
X12669325Y-16859801D02*
X12678849Y-16869325D01*
X12678849Y-16869325D02*
X12697896Y-16878849D01*
X12697896Y-16878849D02*
X12735992Y-16878849D01*
X12735992Y-16878849D02*
X12755039Y-16869325D01*
X12755039Y-16869325D02*
X12764563Y-16859801D01*
X12764563Y-16859801D02*
X12774087Y-16840754D01*
X12774087Y-16840754D02*
X12774087Y-16802658D01*
X12774087Y-16802658D02*
X12764563Y-16783611D01*
X12764563Y-16783611D02*
X12755039Y-16774087D01*
X12755039Y-16774087D02*
X12735992Y-16764563D01*
X12869325Y-16878849D02*
X12907420Y-16878849D01*
X12907420Y-16878849D02*
X12926468Y-16869325D01*
X12926468Y-16869325D02*
X12935992Y-16859801D01*
X12935992Y-16859801D02*
X12955039Y-16831230D01*
X12955039Y-16831230D02*
X12964563Y-16793135D01*
X12964563Y-16793135D02*
X12964563Y-16716944D01*
X12964563Y-16716944D02*
X12955039Y-16697896D01*
X12955039Y-16697896D02*
X12945516Y-16688373D01*
X12945516Y-16688373D02*
X12926468Y-16678849D01*
X12926468Y-16678849D02*
X12888373Y-16678849D01*
X12888373Y-16678849D02*
X12869325Y-16688373D01*
X12869325Y-16688373D02*
X12859801Y-16697896D01*
X12859801Y-16697896D02*
X12850277Y-16716944D01*
X12850277Y-16716944D02*
X12850277Y-16764563D01*
X12850277Y-16764563D02*
X12859801Y-16783611D01*
X12859801Y-16783611D02*
X12869325Y-16793135D01*
X12869325Y-16793135D02*
X12888373Y-16802658D01*
X12888373Y-16802658D02*
X12926468Y-16802658D01*
X12926468Y-16802658D02*
X12945516Y-16793135D01*
X12945516Y-16793135D02*
X12955039Y-16783611D01*
X12955039Y-16783611D02*
X12964563Y-16764563D01*
X13040754Y-16678849D02*
X13040754Y-16716944D01*
X13116944Y-16678849D02*
X13116944Y-16716944D01*
X13412182Y-16955039D02*
X13402658Y-16945515D01*
X13402658Y-16945515D02*
X13383611Y-16916944D01*
X13383611Y-16916944D02*
X13374087Y-16897896D01*
X13374087Y-16897896D02*
X13364563Y-16869325D01*
X13364563Y-16869325D02*
X13355039Y-16821706D01*
X13355039Y-16821706D02*
X13355039Y-16783611D01*
X13355039Y-16783611D02*
X13364563Y-16735992D01*
X13364563Y-16735992D02*
X13374087Y-16707420D01*
X13374087Y-16707420D02*
X13383611Y-16688373D01*
X13383611Y-16688373D02*
X13402658Y-16659801D01*
X13402658Y-16659801D02*
X13412182Y-16650277D01*
X13593135Y-16878849D02*
X13478849Y-16878849D01*
X13535992Y-16878849D02*
X13535992Y-16678849D01*
X13535992Y-16678849D02*
X13516944Y-16707420D01*
X13516944Y-16707420D02*
X13497897Y-16726468D01*
X13497897Y-16726468D02*
X13478849Y-16735992D01*
X13764563Y-16745515D02*
X13764563Y-16878849D01*
X13716944Y-16669325D02*
X13669325Y-16812182D01*
X13669325Y-16812182D02*
X13793135Y-16812182D01*
X13955039Y-16678849D02*
X13916944Y-16678849D01*
X13916944Y-16678849D02*
X13897897Y-16688373D01*
X13897897Y-16688373D02*
X13888373Y-16697896D01*
X13888373Y-16697896D02*
X13869325Y-16726468D01*
X13869325Y-16726468D02*
X13859801Y-16764563D01*
X13859801Y-16764563D02*
X13859801Y-16840754D01*
X13859801Y-16840754D02*
X13869325Y-16859801D01*
X13869325Y-16859801D02*
X13878849Y-16869325D01*
X13878849Y-16869325D02*
X13897897Y-16878849D01*
X13897897Y-16878849D02*
X13935992Y-16878849D01*
X13935992Y-16878849D02*
X13955039Y-16869325D01*
X13955039Y-16869325D02*
X13964563Y-16859801D01*
X13964563Y-16859801D02*
X13974087Y-16840754D01*
X13974087Y-16840754D02*
X13974087Y-16793135D01*
X13974087Y-16793135D02*
X13964563Y-16774087D01*
X13964563Y-16774087D02*
X13955039Y-16764563D01*
X13955039Y-16764563D02*
X13935992Y-16755039D01*
X13935992Y-16755039D02*
X13897897Y-16755039D01*
X13897897Y-16755039D02*
X13878849Y-16764563D01*
X13878849Y-16764563D02*
X13869325Y-16774087D01*
X13869325Y-16774087D02*
X13859801Y-16793135D01*
X14212182Y-16878849D02*
X14212182Y-16678849D01*
X14297897Y-16878849D02*
X14297897Y-16774087D01*
X14297897Y-16774087D02*
X14288373Y-16755039D01*
X14288373Y-16755039D02*
X14269325Y-16745515D01*
X14269325Y-16745515D02*
X14240754Y-16745515D01*
X14240754Y-16745515D02*
X14221706Y-16755039D01*
X14221706Y-16755039D02*
X14212182Y-16764563D01*
X14421706Y-16878849D02*
X14402659Y-16869325D01*
X14402659Y-16869325D02*
X14393135Y-16859801D01*
X14393135Y-16859801D02*
X14383611Y-16840754D01*
X14383611Y-16840754D02*
X14383611Y-16783611D01*
X14383611Y-16783611D02*
X14393135Y-16764563D01*
X14393135Y-16764563D02*
X14402659Y-16755039D01*
X14402659Y-16755039D02*
X14421706Y-16745515D01*
X14421706Y-16745515D02*
X14450278Y-16745515D01*
X14450278Y-16745515D02*
X14469325Y-16755039D01*
X14469325Y-16755039D02*
X14478849Y-16764563D01*
X14478849Y-16764563D02*
X14488373Y-16783611D01*
X14488373Y-16783611D02*
X14488373Y-16840754D01*
X14488373Y-16840754D02*
X14478849Y-16859801D01*
X14478849Y-16859801D02*
X14469325Y-16869325D01*
X14469325Y-16869325D02*
X14450278Y-16878849D01*
X14450278Y-16878849D02*
X14421706Y-16878849D01*
X14602659Y-16878849D02*
X14583611Y-16869325D01*
X14583611Y-16869325D02*
X14574087Y-16850277D01*
X14574087Y-16850277D02*
X14574087Y-16678849D01*
X14755040Y-16869325D02*
X14735992Y-16878849D01*
X14735992Y-16878849D02*
X14697897Y-16878849D01*
X14697897Y-16878849D02*
X14678849Y-16869325D01*
X14678849Y-16869325D02*
X14669325Y-16850277D01*
X14669325Y-16850277D02*
X14669325Y-16774087D01*
X14669325Y-16774087D02*
X14678849Y-16755039D01*
X14678849Y-16755039D02*
X14697897Y-16745515D01*
X14697897Y-16745515D02*
X14735992Y-16745515D01*
X14735992Y-16745515D02*
X14755040Y-16755039D01*
X14755040Y-16755039D02*
X14764563Y-16774087D01*
X14764563Y-16774087D02*
X14764563Y-16793135D01*
X14764563Y-16793135D02*
X14669325Y-16812182D01*
X14840754Y-16869325D02*
X14859801Y-16878849D01*
X14859801Y-16878849D02*
X14897897Y-16878849D01*
X14897897Y-16878849D02*
X14916944Y-16869325D01*
X14916944Y-16869325D02*
X14926468Y-16850277D01*
X14926468Y-16850277D02*
X14926468Y-16840754D01*
X14926468Y-16840754D02*
X14916944Y-16821706D01*
X14916944Y-16821706D02*
X14897897Y-16812182D01*
X14897897Y-16812182D02*
X14869325Y-16812182D01*
X14869325Y-16812182D02*
X14850278Y-16802658D01*
X14850278Y-16802658D02*
X14840754Y-16783611D01*
X14840754Y-16783611D02*
X14840754Y-16774087D01*
X14840754Y-16774087D02*
X14850278Y-16755039D01*
X14850278Y-16755039D02*
X14869325Y-16745515D01*
X14869325Y-16745515D02*
X14897897Y-16745515D01*
X14897897Y-16745515D02*
X14916944Y-16755039D01*
X14993135Y-16955039D02*
X15002659Y-16945515D01*
X15002659Y-16945515D02*
X15021706Y-16916944D01*
X15021706Y-16916944D02*
X15031230Y-16897896D01*
X15031230Y-16897896D02*
X15040754Y-16869325D01*
X15040754Y-16869325D02*
X15050278Y-16821706D01*
X15050278Y-16821706D02*
X15050278Y-16783611D01*
X15050278Y-16783611D02*
X15040754Y-16735992D01*
X15040754Y-16735992D02*
X15031230Y-16707420D01*
X15031230Y-16707420D02*
X15021706Y-16688373D01*
X15021706Y-16688373D02*
X15002659Y-16659801D01*
X15002659Y-16659801D02*
X14993135Y-16650277D01*
X15355040Y-16955039D02*
X15345516Y-16945515D01*
X15345516Y-16945515D02*
X15326468Y-16916944D01*
X15326468Y-16916944D02*
X15316944Y-16897896D01*
X15316944Y-16897896D02*
X15307421Y-16869325D01*
X15307421Y-16869325D02*
X15297897Y-16821706D01*
X15297897Y-16821706D02*
X15297897Y-16783611D01*
X15297897Y-16783611D02*
X15307421Y-16735992D01*
X15307421Y-16735992D02*
X15316944Y-16707420D01*
X15316944Y-16707420D02*
X15326468Y-16688373D01*
X15326468Y-16688373D02*
X15345516Y-16659801D01*
X15345516Y-16659801D02*
X15355040Y-16650277D01*
X15431230Y-16745515D02*
X15431230Y-16878849D01*
X15431230Y-16764563D02*
X15440754Y-16755039D01*
X15440754Y-16755039D02*
X15459801Y-16745515D01*
X15459801Y-16745515D02*
X15488373Y-16745515D01*
X15488373Y-16745515D02*
X15507421Y-16755039D01*
X15507421Y-16755039D02*
X15516944Y-16774087D01*
X15516944Y-16774087D02*
X15516944Y-16878849D01*
X15640754Y-16878849D02*
X15621706Y-16869325D01*
X15621706Y-16869325D02*
X15612182Y-16859801D01*
X15612182Y-16859801D02*
X15602659Y-16840754D01*
X15602659Y-16840754D02*
X15602659Y-16783611D01*
X15602659Y-16783611D02*
X15612182Y-16764563D01*
X15612182Y-16764563D02*
X15621706Y-16755039D01*
X15621706Y-16755039D02*
X15640754Y-16745515D01*
X15640754Y-16745515D02*
X15669325Y-16745515D01*
X15669325Y-16745515D02*
X15688373Y-16755039D01*
X15688373Y-16755039D02*
X15697897Y-16764563D01*
X15697897Y-16764563D02*
X15707421Y-16783611D01*
X15707421Y-16783611D02*
X15707421Y-16840754D01*
X15707421Y-16840754D02*
X15697897Y-16859801D01*
X15697897Y-16859801D02*
X15688373Y-16869325D01*
X15688373Y-16869325D02*
X15669325Y-16878849D01*
X15669325Y-16878849D02*
X15640754Y-16878849D01*
X15764563Y-16745515D02*
X15840754Y-16745515D01*
X15793135Y-16678849D02*
X15793135Y-16850277D01*
X15793135Y-16850277D02*
X15802659Y-16869325D01*
X15802659Y-16869325D02*
X15821706Y-16878849D01*
X15821706Y-16878849D02*
X15840754Y-16878849D01*
X16059802Y-16745515D02*
X16059802Y-16945515D01*
X16059802Y-16755039D02*
X16078849Y-16745515D01*
X16078849Y-16745515D02*
X16116944Y-16745515D01*
X16116944Y-16745515D02*
X16135992Y-16755039D01*
X16135992Y-16755039D02*
X16145516Y-16764563D01*
X16145516Y-16764563D02*
X16155040Y-16783611D01*
X16155040Y-16783611D02*
X16155040Y-16840754D01*
X16155040Y-16840754D02*
X16145516Y-16859801D01*
X16145516Y-16859801D02*
X16135992Y-16869325D01*
X16135992Y-16869325D02*
X16116944Y-16878849D01*
X16116944Y-16878849D02*
X16078849Y-16878849D01*
X16078849Y-16878849D02*
X16059802Y-16869325D01*
X16269325Y-16878849D02*
X16250278Y-16869325D01*
X16250278Y-16869325D02*
X16240754Y-16850277D01*
X16240754Y-16850277D02*
X16240754Y-16678849D01*
X16431230Y-16878849D02*
X16431230Y-16774087D01*
X16431230Y-16774087D02*
X16421706Y-16755039D01*
X16421706Y-16755039D02*
X16402659Y-16745515D01*
X16402659Y-16745515D02*
X16364563Y-16745515D01*
X16364563Y-16745515D02*
X16345516Y-16755039D01*
X16431230Y-16869325D02*
X16412183Y-16878849D01*
X16412183Y-16878849D02*
X16364563Y-16878849D01*
X16364563Y-16878849D02*
X16345516Y-16869325D01*
X16345516Y-16869325D02*
X16335992Y-16850277D01*
X16335992Y-16850277D02*
X16335992Y-16831230D01*
X16335992Y-16831230D02*
X16345516Y-16812182D01*
X16345516Y-16812182D02*
X16364563Y-16802658D01*
X16364563Y-16802658D02*
X16412183Y-16802658D01*
X16412183Y-16802658D02*
X16431230Y-16793135D01*
X16497897Y-16745515D02*
X16574087Y-16745515D01*
X16526468Y-16678849D02*
X16526468Y-16850277D01*
X16526468Y-16850277D02*
X16535992Y-16869325D01*
X16535992Y-16869325D02*
X16555040Y-16878849D01*
X16555040Y-16878849D02*
X16574087Y-16878849D01*
X16716944Y-16869325D02*
X16697897Y-16878849D01*
X16697897Y-16878849D02*
X16659802Y-16878849D01*
X16659802Y-16878849D02*
X16640754Y-16869325D01*
X16640754Y-16869325D02*
X16631230Y-16850277D01*
X16631230Y-16850277D02*
X16631230Y-16774087D01*
X16631230Y-16774087D02*
X16640754Y-16755039D01*
X16640754Y-16755039D02*
X16659802Y-16745515D01*
X16659802Y-16745515D02*
X16697897Y-16745515D01*
X16697897Y-16745515D02*
X16716944Y-16755039D01*
X16716944Y-16755039D02*
X16726468Y-16774087D01*
X16726468Y-16774087D02*
X16726468Y-16793135D01*
X16726468Y-16793135D02*
X16631230Y-16812182D01*
X16897897Y-16878849D02*
X16897897Y-16678849D01*
X16897897Y-16869325D02*
X16878849Y-16878849D01*
X16878849Y-16878849D02*
X16840754Y-16878849D01*
X16840754Y-16878849D02*
X16821706Y-16869325D01*
X16821706Y-16869325D02*
X16812183Y-16859801D01*
X16812183Y-16859801D02*
X16802659Y-16840754D01*
X16802659Y-16840754D02*
X16802659Y-16783611D01*
X16802659Y-16783611D02*
X16812183Y-16764563D01*
X16812183Y-16764563D02*
X16821706Y-16755039D01*
X16821706Y-16755039D02*
X16840754Y-16745515D01*
X16840754Y-16745515D02*
X16878849Y-16745515D01*
X16878849Y-16745515D02*
X16897897Y-16755039D01*
X16974087Y-16955039D02*
X16983611Y-16945515D01*
X16983611Y-16945515D02*
X17002659Y-16916944D01*
X17002659Y-16916944D02*
X17012183Y-16897896D01*
X17012183Y-16897896D02*
X17021706Y-16869325D01*
X17021706Y-16869325D02*
X17031230Y-16821706D01*
X17031230Y-16821706D02*
X17031230Y-16783611D01*
X17031230Y-16783611D02*
X17021706Y-16735992D01*
X17021706Y-16735992D02*
X17012183Y-16707420D01*
X17012183Y-16707420D02*
X17002659Y-16688373D01*
X17002659Y-16688373D02*
X16983611Y-16659801D01*
X16983611Y-16659801D02*
X16974087Y-16650277D01*
X9837120Y-17082365D02*
G75*
G02*
X9637120Y-17082365I-100000J0D01*
G01*
X9637120Y-17082365D02*
G75*
G02*
X9837120Y-17082365I100000J0D01*
G01*
X10078849Y-16973849D02*
X10202658Y-16973849D01*
X10202658Y-16973849D02*
X10135992Y-17050039D01*
X10135992Y-17050039D02*
X10164563Y-17050039D01*
X10164563Y-17050039D02*
X10183611Y-17059563D01*
X10183611Y-17059563D02*
X10193134Y-17069087D01*
X10193134Y-17069087D02*
X10202658Y-17088135D01*
X10202658Y-17088135D02*
X10202658Y-17135754D01*
X10202658Y-17135754D02*
X10193134Y-17154801D01*
X10193134Y-17154801D02*
X10183611Y-17164325D01*
X10183611Y-17164325D02*
X10164563Y-17173849D01*
X10164563Y-17173849D02*
X10107420Y-17173849D01*
X10107420Y-17173849D02*
X10088373Y-17164325D01*
X10088373Y-17164325D02*
X10078849Y-17154801D01*
X10288373Y-17154801D02*
X10297896Y-17164325D01*
X10297896Y-17164325D02*
X10288373Y-17173849D01*
X10288373Y-17173849D02*
X10278849Y-17164325D01*
X10278849Y-17164325D02*
X10288373Y-17154801D01*
X10288373Y-17154801D02*
X10288373Y-17173849D01*
X10421706Y-16973849D02*
X10440754Y-16973849D01*
X10440754Y-16973849D02*
X10459801Y-16983373D01*
X10459801Y-16983373D02*
X10469325Y-16992896D01*
X10469325Y-16992896D02*
X10478849Y-17011944D01*
X10478849Y-17011944D02*
X10488373Y-17050039D01*
X10488373Y-17050039D02*
X10488373Y-17097658D01*
X10488373Y-17097658D02*
X10478849Y-17135754D01*
X10478849Y-17135754D02*
X10469325Y-17154801D01*
X10469325Y-17154801D02*
X10459801Y-17164325D01*
X10459801Y-17164325D02*
X10440754Y-17173849D01*
X10440754Y-17173849D02*
X10421706Y-17173849D01*
X10421706Y-17173849D02*
X10402658Y-17164325D01*
X10402658Y-17164325D02*
X10393134Y-17154801D01*
X10393134Y-17154801D02*
X10383611Y-17135754D01*
X10383611Y-17135754D02*
X10374087Y-17097658D01*
X10374087Y-17097658D02*
X10374087Y-17050039D01*
X10374087Y-17050039D02*
X10383611Y-17011944D01*
X10383611Y-17011944D02*
X10393134Y-16992896D01*
X10393134Y-16992896D02*
X10402658Y-16983373D01*
X10402658Y-16983373D02*
X10421706Y-16973849D01*
X10659801Y-17040515D02*
X10659801Y-17173849D01*
X10612182Y-16964325D02*
X10564563Y-17107182D01*
X10564563Y-17107182D02*
X10688373Y-17107182D01*
X10793134Y-17059563D02*
X10774087Y-17050039D01*
X10774087Y-17050039D02*
X10764563Y-17040515D01*
X10764563Y-17040515D02*
X10755039Y-17021468D01*
X10755039Y-17021468D02*
X10755039Y-17011944D01*
X10755039Y-17011944D02*
X10764563Y-16992896D01*
X10764563Y-16992896D02*
X10774087Y-16983373D01*
X10774087Y-16983373D02*
X10793134Y-16973849D01*
X10793134Y-16973849D02*
X10831230Y-16973849D01*
X10831230Y-16973849D02*
X10850277Y-16983373D01*
X10850277Y-16983373D02*
X10859801Y-16992896D01*
X10859801Y-16992896D02*
X10869325Y-17011944D01*
X10869325Y-17011944D02*
X10869325Y-17021468D01*
X10869325Y-17021468D02*
X10859801Y-17040515D01*
X10859801Y-17040515D02*
X10850277Y-17050039D01*
X10850277Y-17050039D02*
X10831230Y-17059563D01*
X10831230Y-17059563D02*
X10793134Y-17059563D01*
X10793134Y-17059563D02*
X10774087Y-17069087D01*
X10774087Y-17069087D02*
X10764563Y-17078611D01*
X10764563Y-17078611D02*
X10755039Y-17097658D01*
X10755039Y-17097658D02*
X10755039Y-17135754D01*
X10755039Y-17135754D02*
X10764563Y-17154801D01*
X10764563Y-17154801D02*
X10774087Y-17164325D01*
X10774087Y-17164325D02*
X10793134Y-17173849D01*
X10793134Y-17173849D02*
X10831230Y-17173849D01*
X10831230Y-17173849D02*
X10850277Y-17164325D01*
X10850277Y-17164325D02*
X10859801Y-17154801D01*
X10859801Y-17154801D02*
X10869325Y-17135754D01*
X10869325Y-17135754D02*
X10869325Y-17097658D01*
X10869325Y-17097658D02*
X10859801Y-17078611D01*
X10859801Y-17078611D02*
X10850277Y-17069087D01*
X10850277Y-17069087D02*
X10831230Y-17059563D01*
X10955039Y-17173849D02*
X10955039Y-17040515D01*
X10955039Y-17059563D02*
X10964563Y-17050039D01*
X10964563Y-17050039D02*
X10983611Y-17040515D01*
X10983611Y-17040515D02*
X11012182Y-17040515D01*
X11012182Y-17040515D02*
X11031230Y-17050039D01*
X11031230Y-17050039D02*
X11040754Y-17069087D01*
X11040754Y-17069087D02*
X11040754Y-17173849D01*
X11040754Y-17069087D02*
X11050277Y-17050039D01*
X11050277Y-17050039D02*
X11069325Y-17040515D01*
X11069325Y-17040515D02*
X11097896Y-17040515D01*
X11097896Y-17040515D02*
X11116944Y-17050039D01*
X11116944Y-17050039D02*
X11126468Y-17069087D01*
X11126468Y-17069087D02*
X11126468Y-17173849D01*
X11221706Y-17173849D02*
X11221706Y-17040515D01*
X11221706Y-17059563D02*
X11231230Y-17050039D01*
X11231230Y-17050039D02*
X11250277Y-17040515D01*
X11250277Y-17040515D02*
X11278849Y-17040515D01*
X11278849Y-17040515D02*
X11297896Y-17050039D01*
X11297896Y-17050039D02*
X11307420Y-17069087D01*
X11307420Y-17069087D02*
X11307420Y-17173849D01*
X11307420Y-17069087D02*
X11316944Y-17050039D01*
X11316944Y-17050039D02*
X11335992Y-17040515D01*
X11335992Y-17040515D02*
X11364563Y-17040515D01*
X11364563Y-17040515D02*
X11383611Y-17050039D01*
X11383611Y-17050039D02*
X11393134Y-17069087D01*
X11393134Y-17069087D02*
X11393134Y-17173849D01*
X11783611Y-16964325D02*
X11612182Y-17221468D01*
X12040754Y-16973849D02*
X12059801Y-16973849D01*
X12059801Y-16973849D02*
X12078849Y-16983373D01*
X12078849Y-16983373D02*
X12088373Y-16992896D01*
X12088373Y-16992896D02*
X12097896Y-17011944D01*
X12097896Y-17011944D02*
X12107420Y-17050039D01*
X12107420Y-17050039D02*
X12107420Y-17097658D01*
X12107420Y-17097658D02*
X12097896Y-17135754D01*
X12097896Y-17135754D02*
X12088373Y-17154801D01*
X12088373Y-17154801D02*
X12078849Y-17164325D01*
X12078849Y-17164325D02*
X12059801Y-17173849D01*
X12059801Y-17173849D02*
X12040754Y-17173849D01*
X12040754Y-17173849D02*
X12021706Y-17164325D01*
X12021706Y-17164325D02*
X12012182Y-17154801D01*
X12012182Y-17154801D02*
X12002658Y-17135754D01*
X12002658Y-17135754D02*
X11993135Y-17097658D01*
X11993135Y-17097658D02*
X11993135Y-17050039D01*
X11993135Y-17050039D02*
X12002658Y-17011944D01*
X12002658Y-17011944D02*
X12012182Y-16992896D01*
X12012182Y-16992896D02*
X12021706Y-16983373D01*
X12021706Y-16983373D02*
X12040754Y-16973849D01*
X12193135Y-17154801D02*
X12202658Y-17164325D01*
X12202658Y-17164325D02*
X12193135Y-17173849D01*
X12193135Y-17173849D02*
X12183611Y-17164325D01*
X12183611Y-17164325D02*
X12193135Y-17154801D01*
X12193135Y-17154801D02*
X12193135Y-17173849D01*
X12393135Y-17173849D02*
X12278849Y-17173849D01*
X12335992Y-17173849D02*
X12335992Y-16973849D01*
X12335992Y-16973849D02*
X12316944Y-17002420D01*
X12316944Y-17002420D02*
X12297896Y-17021468D01*
X12297896Y-17021468D02*
X12278849Y-17030992D01*
X12469325Y-16992896D02*
X12478849Y-16983373D01*
X12478849Y-16983373D02*
X12497896Y-16973849D01*
X12497896Y-16973849D02*
X12545516Y-16973849D01*
X12545516Y-16973849D02*
X12564563Y-16983373D01*
X12564563Y-16983373D02*
X12574087Y-16992896D01*
X12574087Y-16992896D02*
X12583611Y-17011944D01*
X12583611Y-17011944D02*
X12583611Y-17030992D01*
X12583611Y-17030992D02*
X12574087Y-17059563D01*
X12574087Y-17059563D02*
X12459801Y-17173849D01*
X12459801Y-17173849D02*
X12583611Y-17173849D01*
X12707420Y-16973849D02*
X12726468Y-16973849D01*
X12726468Y-16973849D02*
X12745516Y-16983373D01*
X12745516Y-16983373D02*
X12755039Y-16992896D01*
X12755039Y-16992896D02*
X12764563Y-17011944D01*
X12764563Y-17011944D02*
X12774087Y-17050039D01*
X12774087Y-17050039D02*
X12774087Y-17097658D01*
X12774087Y-17097658D02*
X12764563Y-17135754D01*
X12764563Y-17135754D02*
X12755039Y-17154801D01*
X12755039Y-17154801D02*
X12745516Y-17164325D01*
X12745516Y-17164325D02*
X12726468Y-17173849D01*
X12726468Y-17173849D02*
X12707420Y-17173849D01*
X12707420Y-17173849D02*
X12688373Y-17164325D01*
X12688373Y-17164325D02*
X12678849Y-17154801D01*
X12678849Y-17154801D02*
X12669325Y-17135754D01*
X12669325Y-17135754D02*
X12659801Y-17097658D01*
X12659801Y-17097658D02*
X12659801Y-17050039D01*
X12659801Y-17050039D02*
X12669325Y-17011944D01*
X12669325Y-17011944D02*
X12678849Y-16992896D01*
X12678849Y-16992896D02*
X12688373Y-16983373D01*
X12688373Y-16983373D02*
X12707420Y-16973849D01*
X12897896Y-16973849D02*
X12916944Y-16973849D01*
X12916944Y-16973849D02*
X12935992Y-16983373D01*
X12935992Y-16983373D02*
X12945516Y-16992896D01*
X12945516Y-16992896D02*
X12955039Y-17011944D01*
X12955039Y-17011944D02*
X12964563Y-17050039D01*
X12964563Y-17050039D02*
X12964563Y-17097658D01*
X12964563Y-17097658D02*
X12955039Y-17135754D01*
X12955039Y-17135754D02*
X12945516Y-17154801D01*
X12945516Y-17154801D02*
X12935992Y-17164325D01*
X12935992Y-17164325D02*
X12916944Y-17173849D01*
X12916944Y-17173849D02*
X12897896Y-17173849D01*
X12897896Y-17173849D02*
X12878849Y-17164325D01*
X12878849Y-17164325D02*
X12869325Y-17154801D01*
X12869325Y-17154801D02*
X12859801Y-17135754D01*
X12859801Y-17135754D02*
X12850277Y-17097658D01*
X12850277Y-17097658D02*
X12850277Y-17050039D01*
X12850277Y-17050039D02*
X12859801Y-17011944D01*
X12859801Y-17011944D02*
X12869325Y-16992896D01*
X12869325Y-16992896D02*
X12878849Y-16983373D01*
X12878849Y-16983373D02*
X12897896Y-16973849D01*
X13040754Y-16973849D02*
X13040754Y-17011944D01*
X13116944Y-16973849D02*
X13116944Y-17011944D01*
X13412182Y-17250039D02*
X13402658Y-17240515D01*
X13402658Y-17240515D02*
X13383611Y-17211944D01*
X13383611Y-17211944D02*
X13374087Y-17192896D01*
X13374087Y-17192896D02*
X13364563Y-17164325D01*
X13364563Y-17164325D02*
X13355039Y-17116706D01*
X13355039Y-17116706D02*
X13355039Y-17078611D01*
X13355039Y-17078611D02*
X13364563Y-17030992D01*
X13364563Y-17030992D02*
X13374087Y-17002420D01*
X13374087Y-17002420D02*
X13383611Y-16983373D01*
X13383611Y-16983373D02*
X13402658Y-16954801D01*
X13402658Y-16954801D02*
X13412182Y-16945277D01*
X13478849Y-16992896D02*
X13488373Y-16983373D01*
X13488373Y-16983373D02*
X13507420Y-16973849D01*
X13507420Y-16973849D02*
X13555039Y-16973849D01*
X13555039Y-16973849D02*
X13574087Y-16983373D01*
X13574087Y-16983373D02*
X13583611Y-16992896D01*
X13583611Y-16992896D02*
X13593135Y-17011944D01*
X13593135Y-17011944D02*
X13593135Y-17030992D01*
X13593135Y-17030992D02*
X13583611Y-17059563D01*
X13583611Y-17059563D02*
X13469325Y-17173849D01*
X13469325Y-17173849D02*
X13593135Y-17173849D01*
X13831230Y-17173849D02*
X13831230Y-16973849D01*
X13916944Y-17173849D02*
X13916944Y-17069087D01*
X13916944Y-17069087D02*
X13907420Y-17050039D01*
X13907420Y-17050039D02*
X13888373Y-17040515D01*
X13888373Y-17040515D02*
X13859801Y-17040515D01*
X13859801Y-17040515D02*
X13840754Y-17050039D01*
X13840754Y-17050039D02*
X13831230Y-17059563D01*
X14040754Y-17173849D02*
X14021706Y-17164325D01*
X14021706Y-17164325D02*
X14012182Y-17154801D01*
X14012182Y-17154801D02*
X14002659Y-17135754D01*
X14002659Y-17135754D02*
X14002659Y-17078611D01*
X14002659Y-17078611D02*
X14012182Y-17059563D01*
X14012182Y-17059563D02*
X14021706Y-17050039D01*
X14021706Y-17050039D02*
X14040754Y-17040515D01*
X14040754Y-17040515D02*
X14069325Y-17040515D01*
X14069325Y-17040515D02*
X14088373Y-17050039D01*
X14088373Y-17050039D02*
X14097897Y-17059563D01*
X14097897Y-17059563D02*
X14107420Y-17078611D01*
X14107420Y-17078611D02*
X14107420Y-17135754D01*
X14107420Y-17135754D02*
X14097897Y-17154801D01*
X14097897Y-17154801D02*
X14088373Y-17164325D01*
X14088373Y-17164325D02*
X14069325Y-17173849D01*
X14069325Y-17173849D02*
X14040754Y-17173849D01*
X14221706Y-17173849D02*
X14202659Y-17164325D01*
X14202659Y-17164325D02*
X14193135Y-17145277D01*
X14193135Y-17145277D02*
X14193135Y-16973849D01*
X14374087Y-17164325D02*
X14355040Y-17173849D01*
X14355040Y-17173849D02*
X14316944Y-17173849D01*
X14316944Y-17173849D02*
X14297897Y-17164325D01*
X14297897Y-17164325D02*
X14288373Y-17145277D01*
X14288373Y-17145277D02*
X14288373Y-17069087D01*
X14288373Y-17069087D02*
X14297897Y-17050039D01*
X14297897Y-17050039D02*
X14316944Y-17040515D01*
X14316944Y-17040515D02*
X14355040Y-17040515D01*
X14355040Y-17040515D02*
X14374087Y-17050039D01*
X14374087Y-17050039D02*
X14383611Y-17069087D01*
X14383611Y-17069087D02*
X14383611Y-17088135D01*
X14383611Y-17088135D02*
X14288373Y-17107182D01*
X14459801Y-17164325D02*
X14478849Y-17173849D01*
X14478849Y-17173849D02*
X14516944Y-17173849D01*
X14516944Y-17173849D02*
X14535992Y-17164325D01*
X14535992Y-17164325D02*
X14545516Y-17145277D01*
X14545516Y-17145277D02*
X14545516Y-17135754D01*
X14545516Y-17135754D02*
X14535992Y-17116706D01*
X14535992Y-17116706D02*
X14516944Y-17107182D01*
X14516944Y-17107182D02*
X14488373Y-17107182D01*
X14488373Y-17107182D02*
X14469325Y-17097658D01*
X14469325Y-17097658D02*
X14459801Y-17078611D01*
X14459801Y-17078611D02*
X14459801Y-17069087D01*
X14459801Y-17069087D02*
X14469325Y-17050039D01*
X14469325Y-17050039D02*
X14488373Y-17040515D01*
X14488373Y-17040515D02*
X14516944Y-17040515D01*
X14516944Y-17040515D02*
X14535992Y-17050039D01*
X14612182Y-17250039D02*
X14621706Y-17240515D01*
X14621706Y-17240515D02*
X14640754Y-17211944D01*
X14640754Y-17211944D02*
X14650278Y-17192896D01*
X14650278Y-17192896D02*
X14659801Y-17164325D01*
X14659801Y-17164325D02*
X14669325Y-17116706D01*
X14669325Y-17116706D02*
X14669325Y-17078611D01*
X14669325Y-17078611D02*
X14659801Y-17030992D01*
X14659801Y-17030992D02*
X14650278Y-17002420D01*
X14650278Y-17002420D02*
X14640754Y-16983373D01*
X14640754Y-16983373D02*
X14621706Y-16954801D01*
X14621706Y-16954801D02*
X14612182Y-16945277D01*
X14974087Y-17250039D02*
X14964563Y-17240515D01*
X14964563Y-17240515D02*
X14945516Y-17211944D01*
X14945516Y-17211944D02*
X14935992Y-17192896D01*
X14935992Y-17192896D02*
X14926468Y-17164325D01*
X14926468Y-17164325D02*
X14916944Y-17116706D01*
X14916944Y-17116706D02*
X14916944Y-17078611D01*
X14916944Y-17078611D02*
X14926468Y-17030992D01*
X14926468Y-17030992D02*
X14935992Y-17002420D01*
X14935992Y-17002420D02*
X14945516Y-16983373D01*
X14945516Y-16983373D02*
X14964563Y-16954801D01*
X14964563Y-16954801D02*
X14974087Y-16945277D01*
X15050278Y-17040515D02*
X15050278Y-17173849D01*
X15050278Y-17059563D02*
X15059801Y-17050039D01*
X15059801Y-17050039D02*
X15078849Y-17040515D01*
X15078849Y-17040515D02*
X15107421Y-17040515D01*
X15107421Y-17040515D02*
X15126468Y-17050039D01*
X15126468Y-17050039D02*
X15135992Y-17069087D01*
X15135992Y-17069087D02*
X15135992Y-17173849D01*
X15259801Y-17173849D02*
X15240754Y-17164325D01*
X15240754Y-17164325D02*
X15231230Y-17154801D01*
X15231230Y-17154801D02*
X15221706Y-17135754D01*
X15221706Y-17135754D02*
X15221706Y-17078611D01*
X15221706Y-17078611D02*
X15231230Y-17059563D01*
X15231230Y-17059563D02*
X15240754Y-17050039D01*
X15240754Y-17050039D02*
X15259801Y-17040515D01*
X15259801Y-17040515D02*
X15288373Y-17040515D01*
X15288373Y-17040515D02*
X15307421Y-17050039D01*
X15307421Y-17050039D02*
X15316944Y-17059563D01*
X15316944Y-17059563D02*
X15326468Y-17078611D01*
X15326468Y-17078611D02*
X15326468Y-17135754D01*
X15326468Y-17135754D02*
X15316944Y-17154801D01*
X15316944Y-17154801D02*
X15307421Y-17164325D01*
X15307421Y-17164325D02*
X15288373Y-17173849D01*
X15288373Y-17173849D02*
X15259801Y-17173849D01*
X15383611Y-17040515D02*
X15459801Y-17040515D01*
X15412182Y-16973849D02*
X15412182Y-17145277D01*
X15412182Y-17145277D02*
X15421706Y-17164325D01*
X15421706Y-17164325D02*
X15440754Y-17173849D01*
X15440754Y-17173849D02*
X15459801Y-17173849D01*
X15678849Y-17040515D02*
X15678849Y-17240515D01*
X15678849Y-17050039D02*
X15697897Y-17040515D01*
X15697897Y-17040515D02*
X15735992Y-17040515D01*
X15735992Y-17040515D02*
X15755040Y-17050039D01*
X15755040Y-17050039D02*
X15764563Y-17059563D01*
X15764563Y-17059563D02*
X15774087Y-17078611D01*
X15774087Y-17078611D02*
X15774087Y-17135754D01*
X15774087Y-17135754D02*
X15764563Y-17154801D01*
X15764563Y-17154801D02*
X15755040Y-17164325D01*
X15755040Y-17164325D02*
X15735992Y-17173849D01*
X15735992Y-17173849D02*
X15697897Y-17173849D01*
X15697897Y-17173849D02*
X15678849Y-17164325D01*
X15888373Y-17173849D02*
X15869325Y-17164325D01*
X15869325Y-17164325D02*
X15859802Y-17145277D01*
X15859802Y-17145277D02*
X15859802Y-16973849D01*
X16050278Y-17173849D02*
X16050278Y-17069087D01*
X16050278Y-17069087D02*
X16040754Y-17050039D01*
X16040754Y-17050039D02*
X16021706Y-17040515D01*
X16021706Y-17040515D02*
X15983611Y-17040515D01*
X15983611Y-17040515D02*
X15964563Y-17050039D01*
X16050278Y-17164325D02*
X16031230Y-17173849D01*
X16031230Y-17173849D02*
X15983611Y-17173849D01*
X15983611Y-17173849D02*
X15964563Y-17164325D01*
X15964563Y-17164325D02*
X15955040Y-17145277D01*
X15955040Y-17145277D02*
X15955040Y-17126230D01*
X15955040Y-17126230D02*
X15964563Y-17107182D01*
X15964563Y-17107182D02*
X15983611Y-17097658D01*
X15983611Y-17097658D02*
X16031230Y-17097658D01*
X16031230Y-17097658D02*
X16050278Y-17088135D01*
X16116944Y-17040515D02*
X16193135Y-17040515D01*
X16145516Y-16973849D02*
X16145516Y-17145277D01*
X16145516Y-17145277D02*
X16155040Y-17164325D01*
X16155040Y-17164325D02*
X16174087Y-17173849D01*
X16174087Y-17173849D02*
X16193135Y-17173849D01*
X16335992Y-17164325D02*
X16316944Y-17173849D01*
X16316944Y-17173849D02*
X16278849Y-17173849D01*
X16278849Y-17173849D02*
X16259802Y-17164325D01*
X16259802Y-17164325D02*
X16250278Y-17145277D01*
X16250278Y-17145277D02*
X16250278Y-17069087D01*
X16250278Y-17069087D02*
X16259802Y-17050039D01*
X16259802Y-17050039D02*
X16278849Y-17040515D01*
X16278849Y-17040515D02*
X16316944Y-17040515D01*
X16316944Y-17040515D02*
X16335992Y-17050039D01*
X16335992Y-17050039D02*
X16345516Y-17069087D01*
X16345516Y-17069087D02*
X16345516Y-17088135D01*
X16345516Y-17088135D02*
X16250278Y-17107182D01*
X16516944Y-17173849D02*
X16516944Y-16973849D01*
X16516944Y-17164325D02*
X16497897Y-17173849D01*
X16497897Y-17173849D02*
X16459802Y-17173849D01*
X16459802Y-17173849D02*
X16440754Y-17164325D01*
X16440754Y-17164325D02*
X16431230Y-17154801D01*
X16431230Y-17154801D02*
X16421706Y-17135754D01*
X16421706Y-17135754D02*
X16421706Y-17078611D01*
X16421706Y-17078611D02*
X16431230Y-17059563D01*
X16431230Y-17059563D02*
X16440754Y-17050039D01*
X16440754Y-17050039D02*
X16459802Y-17040515D01*
X16459802Y-17040515D02*
X16497897Y-17040515D01*
X16497897Y-17040515D02*
X16516944Y-17050039D01*
X16593135Y-17250039D02*
X16602659Y-17240515D01*
X16602659Y-17240515D02*
X16621706Y-17211944D01*
X16621706Y-17211944D02*
X16631230Y-17192896D01*
X16631230Y-17192896D02*
X16640754Y-17164325D01*
X16640754Y-17164325D02*
X16650278Y-17116706D01*
X16650278Y-17116706D02*
X16650278Y-17078611D01*
X16650278Y-17078611D02*
X16640754Y-17030992D01*
X16640754Y-17030992D02*
X16631230Y-17002420D01*
X16631230Y-17002420D02*
X16621706Y-16983373D01*
X16621706Y-16983373D02*
X16602659Y-16954801D01*
X16602659Y-16954801D02*
X16593135Y-16945277D01*
X9737120Y-17302365D02*
X9737120Y-17502365D01*
X9637120Y-17402365D02*
X9837120Y-17402365D01*
X10078849Y-17293849D02*
X10202658Y-17293849D01*
X10202658Y-17293849D02*
X10135992Y-17370039D01*
X10135992Y-17370039D02*
X10164563Y-17370039D01*
X10164563Y-17370039D02*
X10183611Y-17379563D01*
X10183611Y-17379563D02*
X10193134Y-17389087D01*
X10193134Y-17389087D02*
X10202658Y-17408135D01*
X10202658Y-17408135D02*
X10202658Y-17455754D01*
X10202658Y-17455754D02*
X10193134Y-17474801D01*
X10193134Y-17474801D02*
X10183611Y-17484325D01*
X10183611Y-17484325D02*
X10164563Y-17493849D01*
X10164563Y-17493849D02*
X10107420Y-17493849D01*
X10107420Y-17493849D02*
X10088373Y-17484325D01*
X10088373Y-17484325D02*
X10078849Y-17474801D01*
X10288373Y-17474801D02*
X10297896Y-17484325D01*
X10297896Y-17484325D02*
X10288373Y-17493849D01*
X10288373Y-17493849D02*
X10278849Y-17484325D01*
X10278849Y-17484325D02*
X10288373Y-17474801D01*
X10288373Y-17474801D02*
X10288373Y-17493849D01*
X10393134Y-17493849D02*
X10431230Y-17493849D01*
X10431230Y-17493849D02*
X10450277Y-17484325D01*
X10450277Y-17484325D02*
X10459801Y-17474801D01*
X10459801Y-17474801D02*
X10478849Y-17446230D01*
X10478849Y-17446230D02*
X10488373Y-17408135D01*
X10488373Y-17408135D02*
X10488373Y-17331944D01*
X10488373Y-17331944D02*
X10478849Y-17312896D01*
X10478849Y-17312896D02*
X10469325Y-17303373D01*
X10469325Y-17303373D02*
X10450277Y-17293849D01*
X10450277Y-17293849D02*
X10412182Y-17293849D01*
X10412182Y-17293849D02*
X10393134Y-17303373D01*
X10393134Y-17303373D02*
X10383611Y-17312896D01*
X10383611Y-17312896D02*
X10374087Y-17331944D01*
X10374087Y-17331944D02*
X10374087Y-17379563D01*
X10374087Y-17379563D02*
X10383611Y-17398611D01*
X10383611Y-17398611D02*
X10393134Y-17408135D01*
X10393134Y-17408135D02*
X10412182Y-17417658D01*
X10412182Y-17417658D02*
X10450277Y-17417658D01*
X10450277Y-17417658D02*
X10469325Y-17408135D01*
X10469325Y-17408135D02*
X10478849Y-17398611D01*
X10478849Y-17398611D02*
X10488373Y-17379563D01*
X10602658Y-17379563D02*
X10583611Y-17370039D01*
X10583611Y-17370039D02*
X10574087Y-17360515D01*
X10574087Y-17360515D02*
X10564563Y-17341468D01*
X10564563Y-17341468D02*
X10564563Y-17331944D01*
X10564563Y-17331944D02*
X10574087Y-17312896D01*
X10574087Y-17312896D02*
X10583611Y-17303373D01*
X10583611Y-17303373D02*
X10602658Y-17293849D01*
X10602658Y-17293849D02*
X10640754Y-17293849D01*
X10640754Y-17293849D02*
X10659801Y-17303373D01*
X10659801Y-17303373D02*
X10669325Y-17312896D01*
X10669325Y-17312896D02*
X10678849Y-17331944D01*
X10678849Y-17331944D02*
X10678849Y-17341468D01*
X10678849Y-17341468D02*
X10669325Y-17360515D01*
X10669325Y-17360515D02*
X10659801Y-17370039D01*
X10659801Y-17370039D02*
X10640754Y-17379563D01*
X10640754Y-17379563D02*
X10602658Y-17379563D01*
X10602658Y-17379563D02*
X10583611Y-17389087D01*
X10583611Y-17389087D02*
X10574087Y-17398611D01*
X10574087Y-17398611D02*
X10564563Y-17417658D01*
X10564563Y-17417658D02*
X10564563Y-17455754D01*
X10564563Y-17455754D02*
X10574087Y-17474801D01*
X10574087Y-17474801D02*
X10583611Y-17484325D01*
X10583611Y-17484325D02*
X10602658Y-17493849D01*
X10602658Y-17493849D02*
X10640754Y-17493849D01*
X10640754Y-17493849D02*
X10659801Y-17484325D01*
X10659801Y-17484325D02*
X10669325Y-17474801D01*
X10669325Y-17474801D02*
X10678849Y-17455754D01*
X10678849Y-17455754D02*
X10678849Y-17417658D01*
X10678849Y-17417658D02*
X10669325Y-17398611D01*
X10669325Y-17398611D02*
X10659801Y-17389087D01*
X10659801Y-17389087D02*
X10640754Y-17379563D01*
X10793134Y-17379563D02*
X10774087Y-17370039D01*
X10774087Y-17370039D02*
X10764563Y-17360515D01*
X10764563Y-17360515D02*
X10755039Y-17341468D01*
X10755039Y-17341468D02*
X10755039Y-17331944D01*
X10755039Y-17331944D02*
X10764563Y-17312896D01*
X10764563Y-17312896D02*
X10774087Y-17303373D01*
X10774087Y-17303373D02*
X10793134Y-17293849D01*
X10793134Y-17293849D02*
X10831230Y-17293849D01*
X10831230Y-17293849D02*
X10850277Y-17303373D01*
X10850277Y-17303373D02*
X10859801Y-17312896D01*
X10859801Y-17312896D02*
X10869325Y-17331944D01*
X10869325Y-17331944D02*
X10869325Y-17341468D01*
X10869325Y-17341468D02*
X10859801Y-17360515D01*
X10859801Y-17360515D02*
X10850277Y-17370039D01*
X10850277Y-17370039D02*
X10831230Y-17379563D01*
X10831230Y-17379563D02*
X10793134Y-17379563D01*
X10793134Y-17379563D02*
X10774087Y-17389087D01*
X10774087Y-17389087D02*
X10764563Y-17398611D01*
X10764563Y-17398611D02*
X10755039Y-17417658D01*
X10755039Y-17417658D02*
X10755039Y-17455754D01*
X10755039Y-17455754D02*
X10764563Y-17474801D01*
X10764563Y-17474801D02*
X10774087Y-17484325D01*
X10774087Y-17484325D02*
X10793134Y-17493849D01*
X10793134Y-17493849D02*
X10831230Y-17493849D01*
X10831230Y-17493849D02*
X10850277Y-17484325D01*
X10850277Y-17484325D02*
X10859801Y-17474801D01*
X10859801Y-17474801D02*
X10869325Y-17455754D01*
X10869325Y-17455754D02*
X10869325Y-17417658D01*
X10869325Y-17417658D02*
X10859801Y-17398611D01*
X10859801Y-17398611D02*
X10850277Y-17389087D01*
X10850277Y-17389087D02*
X10831230Y-17379563D01*
X10955039Y-17493849D02*
X10955039Y-17360515D01*
X10955039Y-17379563D02*
X10964563Y-17370039D01*
X10964563Y-17370039D02*
X10983611Y-17360515D01*
X10983611Y-17360515D02*
X11012182Y-17360515D01*
X11012182Y-17360515D02*
X11031230Y-17370039D01*
X11031230Y-17370039D02*
X11040754Y-17389087D01*
X11040754Y-17389087D02*
X11040754Y-17493849D01*
X11040754Y-17389087D02*
X11050277Y-17370039D01*
X11050277Y-17370039D02*
X11069325Y-17360515D01*
X11069325Y-17360515D02*
X11097896Y-17360515D01*
X11097896Y-17360515D02*
X11116944Y-17370039D01*
X11116944Y-17370039D02*
X11126468Y-17389087D01*
X11126468Y-17389087D02*
X11126468Y-17493849D01*
X11221706Y-17493849D02*
X11221706Y-17360515D01*
X11221706Y-17379563D02*
X11231230Y-17370039D01*
X11231230Y-17370039D02*
X11250277Y-17360515D01*
X11250277Y-17360515D02*
X11278849Y-17360515D01*
X11278849Y-17360515D02*
X11297896Y-17370039D01*
X11297896Y-17370039D02*
X11307420Y-17389087D01*
X11307420Y-17389087D02*
X11307420Y-17493849D01*
X11307420Y-17389087D02*
X11316944Y-17370039D01*
X11316944Y-17370039D02*
X11335992Y-17360515D01*
X11335992Y-17360515D02*
X11364563Y-17360515D01*
X11364563Y-17360515D02*
X11383611Y-17370039D01*
X11383611Y-17370039D02*
X11393134Y-17389087D01*
X11393134Y-17389087D02*
X11393134Y-17493849D01*
X11783611Y-17284325D02*
X11612182Y-17541468D01*
X12040754Y-17293849D02*
X12059801Y-17293849D01*
X12059801Y-17293849D02*
X12078849Y-17303373D01*
X12078849Y-17303373D02*
X12088373Y-17312896D01*
X12088373Y-17312896D02*
X12097896Y-17331944D01*
X12097896Y-17331944D02*
X12107420Y-17370039D01*
X12107420Y-17370039D02*
X12107420Y-17417658D01*
X12107420Y-17417658D02*
X12097896Y-17455754D01*
X12097896Y-17455754D02*
X12088373Y-17474801D01*
X12088373Y-17474801D02*
X12078849Y-17484325D01*
X12078849Y-17484325D02*
X12059801Y-17493849D01*
X12059801Y-17493849D02*
X12040754Y-17493849D01*
X12040754Y-17493849D02*
X12021706Y-17484325D01*
X12021706Y-17484325D02*
X12012182Y-17474801D01*
X12012182Y-17474801D02*
X12002658Y-17455754D01*
X12002658Y-17455754D02*
X11993135Y-17417658D01*
X11993135Y-17417658D02*
X11993135Y-17370039D01*
X11993135Y-17370039D02*
X12002658Y-17331944D01*
X12002658Y-17331944D02*
X12012182Y-17312896D01*
X12012182Y-17312896D02*
X12021706Y-17303373D01*
X12021706Y-17303373D02*
X12040754Y-17293849D01*
X12193135Y-17474801D02*
X12202658Y-17484325D01*
X12202658Y-17484325D02*
X12193135Y-17493849D01*
X12193135Y-17493849D02*
X12183611Y-17484325D01*
X12183611Y-17484325D02*
X12193135Y-17474801D01*
X12193135Y-17474801D02*
X12193135Y-17493849D01*
X12393135Y-17493849D02*
X12278849Y-17493849D01*
X12335992Y-17493849D02*
X12335992Y-17293849D01*
X12335992Y-17293849D02*
X12316944Y-17322420D01*
X12316944Y-17322420D02*
X12297896Y-17341468D01*
X12297896Y-17341468D02*
X12278849Y-17350992D01*
X12574087Y-17293849D02*
X12478849Y-17293849D01*
X12478849Y-17293849D02*
X12469325Y-17389087D01*
X12469325Y-17389087D02*
X12478849Y-17379563D01*
X12478849Y-17379563D02*
X12497896Y-17370039D01*
X12497896Y-17370039D02*
X12545516Y-17370039D01*
X12545516Y-17370039D02*
X12564563Y-17379563D01*
X12564563Y-17379563D02*
X12574087Y-17389087D01*
X12574087Y-17389087D02*
X12583611Y-17408135D01*
X12583611Y-17408135D02*
X12583611Y-17455754D01*
X12583611Y-17455754D02*
X12574087Y-17474801D01*
X12574087Y-17474801D02*
X12564563Y-17484325D01*
X12564563Y-17484325D02*
X12545516Y-17493849D01*
X12545516Y-17493849D02*
X12497896Y-17493849D01*
X12497896Y-17493849D02*
X12478849Y-17484325D01*
X12478849Y-17484325D02*
X12469325Y-17474801D01*
X12650277Y-17293849D02*
X12783611Y-17293849D01*
X12783611Y-17293849D02*
X12697896Y-17493849D01*
X12897896Y-17293849D02*
X12916944Y-17293849D01*
X12916944Y-17293849D02*
X12935992Y-17303373D01*
X12935992Y-17303373D02*
X12945516Y-17312896D01*
X12945516Y-17312896D02*
X12955039Y-17331944D01*
X12955039Y-17331944D02*
X12964563Y-17370039D01*
X12964563Y-17370039D02*
X12964563Y-17417658D01*
X12964563Y-17417658D02*
X12955039Y-17455754D01*
X12955039Y-17455754D02*
X12945516Y-17474801D01*
X12945516Y-17474801D02*
X12935992Y-17484325D01*
X12935992Y-17484325D02*
X12916944Y-17493849D01*
X12916944Y-17493849D02*
X12897896Y-17493849D01*
X12897896Y-17493849D02*
X12878849Y-17484325D01*
X12878849Y-17484325D02*
X12869325Y-17474801D01*
X12869325Y-17474801D02*
X12859801Y-17455754D01*
X12859801Y-17455754D02*
X12850277Y-17417658D01*
X12850277Y-17417658D02*
X12850277Y-17370039D01*
X12850277Y-17370039D02*
X12859801Y-17331944D01*
X12859801Y-17331944D02*
X12869325Y-17312896D01*
X12869325Y-17312896D02*
X12878849Y-17303373D01*
X12878849Y-17303373D02*
X12897896Y-17293849D01*
X13040754Y-17293849D02*
X13040754Y-17331944D01*
X13116944Y-17293849D02*
X13116944Y-17331944D01*
X13412182Y-17570039D02*
X13402658Y-17560515D01*
X13402658Y-17560515D02*
X13383611Y-17531944D01*
X13383611Y-17531944D02*
X13374087Y-17512896D01*
X13374087Y-17512896D02*
X13364563Y-17484325D01*
X13364563Y-17484325D02*
X13355039Y-17436706D01*
X13355039Y-17436706D02*
X13355039Y-17398611D01*
X13355039Y-17398611D02*
X13364563Y-17350992D01*
X13364563Y-17350992D02*
X13374087Y-17322420D01*
X13374087Y-17322420D02*
X13383611Y-17303373D01*
X13383611Y-17303373D02*
X13402658Y-17274801D01*
X13402658Y-17274801D02*
X13412182Y-17265277D01*
X13516944Y-17379563D02*
X13497897Y-17370039D01*
X13497897Y-17370039D02*
X13488373Y-17360515D01*
X13488373Y-17360515D02*
X13478849Y-17341468D01*
X13478849Y-17341468D02*
X13478849Y-17331944D01*
X13478849Y-17331944D02*
X13488373Y-17312896D01*
X13488373Y-17312896D02*
X13497897Y-17303373D01*
X13497897Y-17303373D02*
X13516944Y-17293849D01*
X13516944Y-17293849D02*
X13555039Y-17293849D01*
X13555039Y-17293849D02*
X13574087Y-17303373D01*
X13574087Y-17303373D02*
X13583611Y-17312896D01*
X13583611Y-17312896D02*
X13593135Y-17331944D01*
X13593135Y-17331944D02*
X13593135Y-17341468D01*
X13593135Y-17341468D02*
X13583611Y-17360515D01*
X13583611Y-17360515D02*
X13574087Y-17370039D01*
X13574087Y-17370039D02*
X13555039Y-17379563D01*
X13555039Y-17379563D02*
X13516944Y-17379563D01*
X13516944Y-17379563D02*
X13497897Y-17389087D01*
X13497897Y-17389087D02*
X13488373Y-17398611D01*
X13488373Y-17398611D02*
X13478849Y-17417658D01*
X13478849Y-17417658D02*
X13478849Y-17455754D01*
X13478849Y-17455754D02*
X13488373Y-17474801D01*
X13488373Y-17474801D02*
X13497897Y-17484325D01*
X13497897Y-17484325D02*
X13516944Y-17493849D01*
X13516944Y-17493849D02*
X13555039Y-17493849D01*
X13555039Y-17493849D02*
X13574087Y-17484325D01*
X13574087Y-17484325D02*
X13583611Y-17474801D01*
X13583611Y-17474801D02*
X13593135Y-17455754D01*
X13593135Y-17455754D02*
X13593135Y-17417658D01*
X13593135Y-17417658D02*
X13583611Y-17398611D01*
X13583611Y-17398611D02*
X13574087Y-17389087D01*
X13574087Y-17389087D02*
X13555039Y-17379563D01*
X13764563Y-17293849D02*
X13726468Y-17293849D01*
X13726468Y-17293849D02*
X13707420Y-17303373D01*
X13707420Y-17303373D02*
X13697897Y-17312896D01*
X13697897Y-17312896D02*
X13678849Y-17341468D01*
X13678849Y-17341468D02*
X13669325Y-17379563D01*
X13669325Y-17379563D02*
X13669325Y-17455754D01*
X13669325Y-17455754D02*
X13678849Y-17474801D01*
X13678849Y-17474801D02*
X13688373Y-17484325D01*
X13688373Y-17484325D02*
X13707420Y-17493849D01*
X13707420Y-17493849D02*
X13745516Y-17493849D01*
X13745516Y-17493849D02*
X13764563Y-17484325D01*
X13764563Y-17484325D02*
X13774087Y-17474801D01*
X13774087Y-17474801D02*
X13783611Y-17455754D01*
X13783611Y-17455754D02*
X13783611Y-17408135D01*
X13783611Y-17408135D02*
X13774087Y-17389087D01*
X13774087Y-17389087D02*
X13764563Y-17379563D01*
X13764563Y-17379563D02*
X13745516Y-17370039D01*
X13745516Y-17370039D02*
X13707420Y-17370039D01*
X13707420Y-17370039D02*
X13688373Y-17379563D01*
X13688373Y-17379563D02*
X13678849Y-17389087D01*
X13678849Y-17389087D02*
X13669325Y-17408135D01*
X14021706Y-17493849D02*
X14021706Y-17293849D01*
X14107420Y-17493849D02*
X14107420Y-17389087D01*
X14107420Y-17389087D02*
X14097897Y-17370039D01*
X14097897Y-17370039D02*
X14078849Y-17360515D01*
X14078849Y-17360515D02*
X14050278Y-17360515D01*
X14050278Y-17360515D02*
X14031230Y-17370039D01*
X14031230Y-17370039D02*
X14021706Y-17379563D01*
X14231230Y-17493849D02*
X14212182Y-17484325D01*
X14212182Y-17484325D02*
X14202659Y-17474801D01*
X14202659Y-17474801D02*
X14193135Y-17455754D01*
X14193135Y-17455754D02*
X14193135Y-17398611D01*
X14193135Y-17398611D02*
X14202659Y-17379563D01*
X14202659Y-17379563D02*
X14212182Y-17370039D01*
X14212182Y-17370039D02*
X14231230Y-17360515D01*
X14231230Y-17360515D02*
X14259801Y-17360515D01*
X14259801Y-17360515D02*
X14278849Y-17370039D01*
X14278849Y-17370039D02*
X14288373Y-17379563D01*
X14288373Y-17379563D02*
X14297897Y-17398611D01*
X14297897Y-17398611D02*
X14297897Y-17455754D01*
X14297897Y-17455754D02*
X14288373Y-17474801D01*
X14288373Y-17474801D02*
X14278849Y-17484325D01*
X14278849Y-17484325D02*
X14259801Y-17493849D01*
X14259801Y-17493849D02*
X14231230Y-17493849D01*
X14412182Y-17493849D02*
X14393135Y-17484325D01*
X14393135Y-17484325D02*
X14383611Y-17465277D01*
X14383611Y-17465277D02*
X14383611Y-17293849D01*
X14564563Y-17484325D02*
X14545516Y-17493849D01*
X14545516Y-17493849D02*
X14507420Y-17493849D01*
X14507420Y-17493849D02*
X14488373Y-17484325D01*
X14488373Y-17484325D02*
X14478849Y-17465277D01*
X14478849Y-17465277D02*
X14478849Y-17389087D01*
X14478849Y-17389087D02*
X14488373Y-17370039D01*
X14488373Y-17370039D02*
X14507420Y-17360515D01*
X14507420Y-17360515D02*
X14545516Y-17360515D01*
X14545516Y-17360515D02*
X14564563Y-17370039D01*
X14564563Y-17370039D02*
X14574087Y-17389087D01*
X14574087Y-17389087D02*
X14574087Y-17408135D01*
X14574087Y-17408135D02*
X14478849Y-17427182D01*
X14650278Y-17484325D02*
X14669325Y-17493849D01*
X14669325Y-17493849D02*
X14707420Y-17493849D01*
X14707420Y-17493849D02*
X14726468Y-17484325D01*
X14726468Y-17484325D02*
X14735992Y-17465277D01*
X14735992Y-17465277D02*
X14735992Y-17455754D01*
X14735992Y-17455754D02*
X14726468Y-17436706D01*
X14726468Y-17436706D02*
X14707420Y-17427182D01*
X14707420Y-17427182D02*
X14678849Y-17427182D01*
X14678849Y-17427182D02*
X14659801Y-17417658D01*
X14659801Y-17417658D02*
X14650278Y-17398611D01*
X14650278Y-17398611D02*
X14650278Y-17389087D01*
X14650278Y-17389087D02*
X14659801Y-17370039D01*
X14659801Y-17370039D02*
X14678849Y-17360515D01*
X14678849Y-17360515D02*
X14707420Y-17360515D01*
X14707420Y-17360515D02*
X14726468Y-17370039D01*
X14802659Y-17570039D02*
X14812182Y-17560515D01*
X14812182Y-17560515D02*
X14831230Y-17531944D01*
X14831230Y-17531944D02*
X14840754Y-17512896D01*
X14840754Y-17512896D02*
X14850278Y-17484325D01*
X14850278Y-17484325D02*
X14859801Y-17436706D01*
X14859801Y-17436706D02*
X14859801Y-17398611D01*
X14859801Y-17398611D02*
X14850278Y-17350992D01*
X14850278Y-17350992D02*
X14840754Y-17322420D01*
X14840754Y-17322420D02*
X14831230Y-17303373D01*
X14831230Y-17303373D02*
X14812182Y-17274801D01*
X14812182Y-17274801D02*
X14802659Y-17265277D01*
X15164563Y-17570039D02*
X15155040Y-17560515D01*
X15155040Y-17560515D02*
X15135992Y-17531944D01*
X15135992Y-17531944D02*
X15126468Y-17512896D01*
X15126468Y-17512896D02*
X15116944Y-17484325D01*
X15116944Y-17484325D02*
X15107421Y-17436706D01*
X15107421Y-17436706D02*
X15107421Y-17398611D01*
X15107421Y-17398611D02*
X15116944Y-17350992D01*
X15116944Y-17350992D02*
X15126468Y-17322420D01*
X15126468Y-17322420D02*
X15135992Y-17303373D01*
X15135992Y-17303373D02*
X15155040Y-17274801D01*
X15155040Y-17274801D02*
X15164563Y-17265277D01*
X15240754Y-17360515D02*
X15240754Y-17493849D01*
X15240754Y-17379563D02*
X15250278Y-17370039D01*
X15250278Y-17370039D02*
X15269325Y-17360515D01*
X15269325Y-17360515D02*
X15297897Y-17360515D01*
X15297897Y-17360515D02*
X15316944Y-17370039D01*
X15316944Y-17370039D02*
X15326468Y-17389087D01*
X15326468Y-17389087D02*
X15326468Y-17493849D01*
X15450278Y-17493849D02*
X15431230Y-17484325D01*
X15431230Y-17484325D02*
X15421706Y-17474801D01*
X15421706Y-17474801D02*
X15412182Y-17455754D01*
X15412182Y-17455754D02*
X15412182Y-17398611D01*
X15412182Y-17398611D02*
X15421706Y-17379563D01*
X15421706Y-17379563D02*
X15431230Y-17370039D01*
X15431230Y-17370039D02*
X15450278Y-17360515D01*
X15450278Y-17360515D02*
X15478849Y-17360515D01*
X15478849Y-17360515D02*
X15497897Y-17370039D01*
X15497897Y-17370039D02*
X15507421Y-17379563D01*
X15507421Y-17379563D02*
X15516944Y-17398611D01*
X15516944Y-17398611D02*
X15516944Y-17455754D01*
X15516944Y-17455754D02*
X15507421Y-17474801D01*
X15507421Y-17474801D02*
X15497897Y-17484325D01*
X15497897Y-17484325D02*
X15478849Y-17493849D01*
X15478849Y-17493849D02*
X15450278Y-17493849D01*
X15574087Y-17360515D02*
X15650278Y-17360515D01*
X15602659Y-17293849D02*
X15602659Y-17465277D01*
X15602659Y-17465277D02*
X15612182Y-17484325D01*
X15612182Y-17484325D02*
X15631230Y-17493849D01*
X15631230Y-17493849D02*
X15650278Y-17493849D01*
X15869325Y-17360515D02*
X15869325Y-17560515D01*
X15869325Y-17370039D02*
X15888373Y-17360515D01*
X15888373Y-17360515D02*
X15926468Y-17360515D01*
X15926468Y-17360515D02*
X15945516Y-17370039D01*
X15945516Y-17370039D02*
X15955040Y-17379563D01*
X15955040Y-17379563D02*
X15964563Y-17398611D01*
X15964563Y-17398611D02*
X15964563Y-17455754D01*
X15964563Y-17455754D02*
X15955040Y-17474801D01*
X15955040Y-17474801D02*
X15945516Y-17484325D01*
X15945516Y-17484325D02*
X15926468Y-17493849D01*
X15926468Y-17493849D02*
X15888373Y-17493849D01*
X15888373Y-17493849D02*
X15869325Y-17484325D01*
X16078849Y-17493849D02*
X16059802Y-17484325D01*
X16059802Y-17484325D02*
X16050278Y-17465277D01*
X16050278Y-17465277D02*
X16050278Y-17293849D01*
X16240754Y-17493849D02*
X16240754Y-17389087D01*
X16240754Y-17389087D02*
X16231230Y-17370039D01*
X16231230Y-17370039D02*
X16212183Y-17360515D01*
X16212183Y-17360515D02*
X16174087Y-17360515D01*
X16174087Y-17360515D02*
X16155040Y-17370039D01*
X16240754Y-17484325D02*
X16221706Y-17493849D01*
X16221706Y-17493849D02*
X16174087Y-17493849D01*
X16174087Y-17493849D02*
X16155040Y-17484325D01*
X16155040Y-17484325D02*
X16145516Y-17465277D01*
X16145516Y-17465277D02*
X16145516Y-17446230D01*
X16145516Y-17446230D02*
X16155040Y-17427182D01*
X16155040Y-17427182D02*
X16174087Y-17417658D01*
X16174087Y-17417658D02*
X16221706Y-17417658D01*
X16221706Y-17417658D02*
X16240754Y-17408135D01*
X16307421Y-17360515D02*
X16383611Y-17360515D01*
X16335992Y-17293849D02*
X16335992Y-17465277D01*
X16335992Y-17465277D02*
X16345516Y-17484325D01*
X16345516Y-17484325D02*
X16364563Y-17493849D01*
X16364563Y-17493849D02*
X16383611Y-17493849D01*
X16526468Y-17484325D02*
X16507421Y-17493849D01*
X16507421Y-17493849D02*
X16469325Y-17493849D01*
X16469325Y-17493849D02*
X16450278Y-17484325D01*
X16450278Y-17484325D02*
X16440754Y-17465277D01*
X16440754Y-17465277D02*
X16440754Y-17389087D01*
X16440754Y-17389087D02*
X16450278Y-17370039D01*
X16450278Y-17370039D02*
X16469325Y-17360515D01*
X16469325Y-17360515D02*
X16507421Y-17360515D01*
X16507421Y-17360515D02*
X16526468Y-17370039D01*
X16526468Y-17370039D02*
X16535992Y-17389087D01*
X16535992Y-17389087D02*
X16535992Y-17408135D01*
X16535992Y-17408135D02*
X16440754Y-17427182D01*
X16707421Y-17493849D02*
X16707421Y-17293849D01*
X16707421Y-17484325D02*
X16688373Y-17493849D01*
X16688373Y-17493849D02*
X16650278Y-17493849D01*
X16650278Y-17493849D02*
X16631230Y-17484325D01*
X16631230Y-17484325D02*
X16621706Y-17474801D01*
X16621706Y-17474801D02*
X16612183Y-17455754D01*
X16612183Y-17455754D02*
X16612183Y-17398611D01*
X16612183Y-17398611D02*
X16621706Y-17379563D01*
X16621706Y-17379563D02*
X16631230Y-17370039D01*
X16631230Y-17370039D02*
X16650278Y-17360515D01*
X16650278Y-17360515D02*
X16688373Y-17360515D01*
X16688373Y-17360515D02*
X16707421Y-17370039D01*
X16783611Y-17570039D02*
X16793135Y-17560515D01*
X16793135Y-17560515D02*
X16812183Y-17531944D01*
X16812183Y-17531944D02*
X16821706Y-17512896D01*
X16821706Y-17512896D02*
X16831230Y-17484325D01*
X16831230Y-17484325D02*
X16840754Y-17436706D01*
X16840754Y-17436706D02*
X16840754Y-17398611D01*
X16840754Y-17398611D02*
X16831230Y-17350992D01*
X16831230Y-17350992D02*
X16821706Y-17322420D01*
X16821706Y-17322420D02*
X16812183Y-17303373D01*
X16812183Y-17303373D02*
X16793135Y-17274801D01*
X16793135Y-17274801D02*
X16783611Y-17265277D01*
M02*
