G04 #@! TF.GenerationSoftware,KiCad,Pcbnew,9.0.7*
G04 #@! TF.CreationDate,2026-01-25T12:22:48+01:00*
G04 #@! TF.ProjectId,kastenwagen-1840-pcb,6b617374-656e-4776-9167-656e2d313834,rev?*
G04 #@! TF.SameCoordinates,Original*
G04 #@! TF.FileFunction,Paste,Top*
G04 #@! TF.FilePolarity,Positive*
%FSLAX46Y46*%
G04 Gerber Fmt 4.6, Leading zero omitted, Abs format (unit mm)*
G04 Created by KiCad (PCBNEW 9.0.7) date 2026-01-25 12:22:48*
%MOMM*%
%LPD*%
G01*
G04 APERTURE LIST*
G04 Aperture macros list*
%AMRoundRect*
0 Rectangle with rounded corners*
0 $1 Rounding radius*
0 $2 $3 $4 $5 $6 $7 $8 $9 X,Y pos of 4 corners*
0 Add a 4 corners polygon primitive as box body*
4,1,4,$2,$3,$4,$5,$6,$7,$8,$9,$2,$3,0*
0 Add four circle primitives for the rounded corners*
1,1,$1+$1,$2,$3*
1,1,$1+$1,$4,$5*
1,1,$1+$1,$6,$7*
1,1,$1+$1,$8,$9*
0 Add four rect primitives between the rounded corners*
20,1,$1+$1,$2,$3,$4,$5,0*
20,1,$1+$1,$4,$5,$6,$7,0*
20,1,$1+$1,$6,$7,$8,$9,0*
20,1,$1+$1,$8,$9,$2,$3,0*%
G04 Aperture macros list end*
%ADD10RoundRect,0.140000X0.140000X0.170000X-0.140000X0.170000X-0.140000X-0.170000X0.140000X-0.170000X0*%
%ADD11RoundRect,0.112500X0.112500X-0.112500X0.112500X0.112500X-0.112500X0.112500X-0.112500X-0.112500X0*%
%ADD12RoundRect,0.140000X-0.140000X-0.170000X0.140000X-0.170000X0.140000X0.170000X-0.140000X0.170000X0*%
%ADD13RoundRect,0.135000X-0.135000X-0.185000X0.135000X-0.185000X0.135000X0.185000X-0.135000X0.185000X0*%
%ADD14RoundRect,0.112500X-0.112500X0.112500X-0.112500X-0.112500X0.112500X-0.112500X0.112500X0.112500X0*%
%ADD15RoundRect,0.112500X-0.112500X-0.112500X0.112500X-0.112500X0.112500X0.112500X-0.112500X0.112500X0*%
G04 APERTURE END LIST*
D10*
G04 #@! TO.C,C38*
X363988377Y-99584585D03*
X363028377Y-99584585D03*
G04 #@! TD*
D11*
G04 #@! TO.C,LED34*
X365014185Y-116313575D03*
X365014185Y-115455575D03*
X365872185Y-116313575D03*
X365872185Y-115455575D03*
G04 #@! TD*
D10*
G04 #@! TO.C,C40*
X363988377Y-103602941D03*
X363028377Y-103602941D03*
G04 #@! TD*
D11*
G04 #@! TO.C,LED21*
X365110051Y-90534184D03*
X365110051Y-89676184D03*
X365968051Y-90534184D03*
X365968051Y-89676184D03*
G04 #@! TD*
D12*
G04 #@! TO.C,C18*
X369228511Y-106407834D03*
X370188511Y-106407834D03*
G04 #@! TD*
D11*
G04 #@! TO.C,LED26*
X365110051Y-100456059D03*
X365110051Y-99598059D03*
X365968051Y-100456059D03*
X365968051Y-99598059D03*
G04 #@! TD*
D12*
G04 #@! TO.C,C22*
X369224928Y-98489181D03*
X370184928Y-98489181D03*
G04 #@! TD*
D13*
G04 #@! TO.C,R4*
X362998878Y-116477634D03*
X364018878Y-116477634D03*
G04 #@! TD*
D14*
G04 #@! TO.C,LED13*
X368018904Y-91660559D03*
X368018904Y-92518559D03*
X367160904Y-91660559D03*
X367160904Y-92518559D03*
G04 #@! TD*
D11*
G04 #@! TO.C,LED30*
X365110051Y-108393559D03*
X365110051Y-107535559D03*
X365968051Y-108393559D03*
X365968051Y-107535559D03*
G04 #@! TD*
D14*
G04 #@! TO.C,LED6*
X368018904Y-105551184D03*
X368018904Y-106409184D03*
X367160904Y-105551184D03*
X367160904Y-106409184D03*
G04 #@! TD*
G04 #@! TO.C,LED9*
X368018904Y-99598059D03*
X368018904Y-100456059D03*
X367160904Y-99598059D03*
X367160904Y-100456059D03*
G04 #@! TD*
G04 #@! TO.C,LED3*
X368018904Y-111504309D03*
X368018904Y-112362309D03*
X367160904Y-111504309D03*
X367160904Y-112362309D03*
G04 #@! TD*
D11*
G04 #@! TO.C,LED18*
X365110051Y-84613184D03*
X365110051Y-83755184D03*
X365968051Y-84613184D03*
X365968051Y-83755184D03*
G04 #@! TD*
G04 #@! TO.C,LED29*
X365110051Y-106409184D03*
X365110051Y-105551184D03*
X365968051Y-106409184D03*
X365968051Y-105551184D03*
G04 #@! TD*
D10*
G04 #@! TO.C,C34*
X363988377Y-91696701D03*
X363028377Y-91696701D03*
G04 #@! TD*
D11*
G04 #@! TO.C,LED27*
X365110051Y-102440434D03*
X365110051Y-101582434D03*
X365968051Y-102440434D03*
X365968051Y-101582434D03*
G04 #@! TD*
D10*
G04 #@! TO.C,C46*
X363984431Y-115289261D03*
X363024431Y-115289261D03*
G04 #@! TD*
G04 #@! TO.C,C30*
X363988378Y-83737725D03*
X363028378Y-83737725D03*
G04 #@! TD*
D14*
G04 #@! TO.C,LED5*
X368018904Y-107535559D03*
X368018904Y-108393559D03*
X367160904Y-107535559D03*
X367160904Y-108393559D03*
G04 #@! TD*
D12*
G04 #@! TO.C,C16*
X369224928Y-110377934D03*
X370184928Y-110377934D03*
G04 #@! TD*
G04 #@! TO.C,C28*
X369225235Y-86515920D03*
X370185235Y-86515920D03*
G04 #@! TD*
G04 #@! TO.C,C13*
X369224928Y-115455574D03*
X370184928Y-115455574D03*
G04 #@! TD*
D10*
G04 #@! TO.C,C32*
X363988377Y-87678345D03*
X363028377Y-87678345D03*
G04 #@! TD*
D12*
G04 #@! TO.C,C26*
X369224928Y-90601297D03*
X370184928Y-90601297D03*
G04 #@! TD*
D14*
G04 #@! TO.C,LED7*
X368018904Y-103566809D03*
X368018904Y-104424809D03*
X367160904Y-103566809D03*
X367160904Y-104424809D03*
G04 #@! TD*
D10*
G04 #@! TO.C,C35*
X363988378Y-93631465D03*
X363028378Y-93631465D03*
G04 #@! TD*
D12*
G04 #@! TO.C,C15*
X369224928Y-112362309D03*
X370184928Y-112362309D03*
G04 #@! TD*
D14*
G04 #@! TO.C,LED8*
X368018904Y-101582434D03*
X368018904Y-102440434D03*
X367160904Y-101582434D03*
X367160904Y-102440434D03*
G04 #@! TD*
D11*
G04 #@! TO.C,LED25*
X365110051Y-98471684D03*
X365110051Y-97613684D03*
X365968051Y-98471684D03*
X365968051Y-97613684D03*
G04 #@! TD*
G04 #@! TO.C,LED28*
X365110051Y-104424809D03*
X365110051Y-103566809D03*
X365968051Y-104424809D03*
X365968051Y-103566809D03*
G04 #@! TD*
D10*
G04 #@! TO.C,C33*
X363988377Y-89613109D03*
X363028377Y-89613109D03*
G04 #@! TD*
D14*
G04 #@! TO.C,LED2*
X368018904Y-113488684D03*
X368018904Y-114346684D03*
X367160904Y-113488684D03*
X367160904Y-114346684D03*
G04 #@! TD*
D10*
G04 #@! TO.C,C43*
X363988378Y-109556059D03*
X363028378Y-109556059D03*
G04 #@! TD*
D14*
G04 #@! TO.C,LED14*
X368018904Y-89676184D03*
X368018904Y-90534184D03*
X367160904Y-89676184D03*
X367160904Y-90534184D03*
G04 #@! TD*
D11*
G04 #@! TO.C,LED19*
X365110051Y-86565434D03*
X365110051Y-85707434D03*
X365968051Y-86565434D03*
X365968051Y-85707434D03*
G04 #@! TD*
D14*
G04 #@! TO.C,LED10*
X368018904Y-97613684D03*
X368018904Y-98471684D03*
X367160904Y-97613684D03*
X367160904Y-98471684D03*
G04 #@! TD*
D12*
G04 #@! TO.C,C24*
X369224928Y-94470826D03*
X370184928Y-94470826D03*
G04 #@! TD*
D11*
G04 #@! TO.C,LED32*
X365015141Y-112362309D03*
X365015141Y-111504309D03*
X365873141Y-112362309D03*
X365873141Y-111504309D03*
G04 #@! TD*
D12*
G04 #@! TO.C,C25*
X369224928Y-92536063D03*
X370184928Y-92536063D03*
G04 #@! TD*
D11*
G04 #@! TO.C,LED24*
X365110051Y-96487309D03*
X365110051Y-95629309D03*
X365968051Y-96487309D03*
X365968051Y-95629309D03*
G04 #@! TD*
D15*
G04 #@! TO.C,LED17*
X367192336Y-83756184D03*
X368050336Y-83756184D03*
X367192336Y-84614184D03*
X368050336Y-84614184D03*
G04 #@! TD*
D10*
G04 #@! TO.C,C45*
X363986420Y-113503327D03*
X363026420Y-113503327D03*
G04 #@! TD*
G04 #@! TO.C,C42*
X363988378Y-107472467D03*
X363028378Y-107472467D03*
G04 #@! TD*
G04 #@! TO.C,C41*
X363988378Y-105537705D03*
X363028378Y-105537705D03*
G04 #@! TD*
D12*
G04 #@! TO.C,C20*
X369224928Y-102507537D03*
X370184928Y-102507537D03*
G04 #@! TD*
D10*
G04 #@! TO.C,C31*
X363988377Y-85594753D03*
X363028377Y-85594753D03*
G04 #@! TD*
D12*
G04 #@! TO.C,C29*
X369225235Y-83787309D03*
X370185235Y-83787309D03*
G04 #@! TD*
D11*
G04 #@! TO.C,LED33*
X365016007Y-114378810D03*
X365016007Y-113520810D03*
X365874007Y-114378810D03*
X365874007Y-113520810D03*
G04 #@! TD*
D14*
G04 #@! TO.C,LED16*
X368018904Y-85707434D03*
X368018904Y-86565434D03*
X367160904Y-85707434D03*
X367160904Y-86565434D03*
G04 #@! TD*
D11*
G04 #@! TO.C,LED22*
X365110051Y-92518559D03*
X365110051Y-91660559D03*
X365968051Y-92518559D03*
X365968051Y-91660559D03*
G04 #@! TD*
D12*
G04 #@! TO.C,C27*
X369224928Y-88517707D03*
X370184928Y-88517707D03*
G04 #@! TD*
D10*
G04 #@! TO.C,C37*
X363988378Y-97649819D03*
X363028378Y-97649819D03*
G04 #@! TD*
D12*
G04 #@! TO.C,C21*
X369224928Y-100423945D03*
X370184928Y-100423945D03*
G04 #@! TD*
D14*
G04 #@! TO.C,LED1*
X368049338Y-115473059D03*
X368049338Y-116331059D03*
X367191338Y-115473059D03*
X367191338Y-116331059D03*
G04 #@! TD*
D10*
G04 #@! TO.C,C44*
X363988377Y-111490823D03*
X363028377Y-111490823D03*
G04 #@! TD*
D14*
G04 #@! TO.C,LED12*
X368018904Y-93644934D03*
X368018904Y-94502934D03*
X367160904Y-93644934D03*
X367160904Y-94502934D03*
G04 #@! TD*
D13*
G04 #@! TO.C,R3*
X369176445Y-116497370D03*
X370196445Y-116497370D03*
G04 #@! TD*
D12*
G04 #@! TO.C,C23*
X369224928Y-96554418D03*
X370184928Y-96554418D03*
G04 #@! TD*
D10*
G04 #@! TO.C,C39*
X363988377Y-101519349D03*
X363028377Y-101519349D03*
G04 #@! TD*
D11*
G04 #@! TO.C,LED23*
X365110051Y-94502934D03*
X365110051Y-93644934D03*
X365968051Y-94502934D03*
X365968051Y-93644934D03*
G04 #@! TD*
D12*
G04 #@! TO.C,C17*
X369232632Y-108386282D03*
X370192632Y-108386282D03*
G04 #@! TD*
D14*
G04 #@! TO.C,LED4*
X368018904Y-109519934D03*
X368018904Y-110377934D03*
X367160904Y-109519934D03*
X367160904Y-110377934D03*
G04 #@! TD*
G04 #@! TO.C,LED15*
X368018904Y-87691809D03*
X368018904Y-88549809D03*
X367160904Y-87691809D03*
X367160904Y-88549809D03*
G04 #@! TD*
D11*
G04 #@! TO.C,LED20*
X365110051Y-88549809D03*
X365110051Y-87691809D03*
X365968051Y-88549809D03*
X365968051Y-87691809D03*
G04 #@! TD*
G04 #@! TO.C,LED31*
X365110051Y-110377934D03*
X365110051Y-109519934D03*
X365968051Y-110377934D03*
X365968051Y-109519934D03*
G04 #@! TD*
D10*
G04 #@! TO.C,C36*
X363988378Y-95566228D03*
X363028378Y-95566228D03*
G04 #@! TD*
D12*
G04 #@! TO.C,C14*
X369224928Y-114346684D03*
X370184928Y-114346684D03*
G04 #@! TD*
D14*
G04 #@! TO.C,LED11*
X368018904Y-95629309D03*
X368018904Y-96487309D03*
X367160904Y-95629309D03*
X367160904Y-96487309D03*
G04 #@! TD*
D12*
G04 #@! TO.C,C19*
X369224928Y-104442303D03*
X370184928Y-104442303D03*
G04 #@! TD*
M02*
