G04 #@! TF.GenerationSoftware,KiCad,Pcbnew,9.0.7*
G04 #@! TF.CreationDate,2026-01-25T12:22:48+01:00*
G04 #@! TF.ProjectId,kastenwagen-1840-pcb,6b617374-656e-4776-9167-656e2d313834,rev?*
G04 #@! TF.SameCoordinates,Original*
G04 #@! TF.FileFunction,Soldermask,Top*
G04 #@! TF.FilePolarity,Negative*
%FSLAX46Y46*%
G04 Gerber Fmt 4.6, Leading zero omitted, Abs format (unit mm)*
G04 Created by KiCad (PCBNEW 9.0.7) date 2026-01-25 12:22:48*
%MOMM*%
%LPD*%
G01*
G04 APERTURE LIST*
G04 Aperture macros list*
%AMRoundRect*
0 Rectangle with rounded corners*
0 $1 Rounding radius*
0 $2 $3 $4 $5 $6 $7 $8 $9 X,Y pos of 4 corners*
0 Add a 4 corners polygon primitive as box body*
4,1,4,$2,$3,$4,$5,$6,$7,$8,$9,$2,$3,0*
0 Add four circle primitives for the rounded corners*
1,1,$1+$1,$2,$3*
1,1,$1+$1,$4,$5*
1,1,$1+$1,$6,$7*
1,1,$1+$1,$8,$9*
0 Add four rect primitives between the rounded corners*
20,1,$1+$1,$2,$3,$4,$5,0*
20,1,$1+$1,$4,$5,$6,$7,0*
20,1,$1+$1,$6,$7,$8,$9,0*
20,1,$1+$1,$8,$9,$2,$3,0*%
G04 Aperture macros list end*
%ADD10RoundRect,0.140000X0.140000X0.170000X-0.140000X0.170000X-0.140000X-0.170000X0.140000X-0.170000X0*%
%ADD11RoundRect,0.112500X0.112500X-0.112500X0.112500X0.112500X-0.112500X0.112500X-0.112500X-0.112500X0*%
%ADD12RoundRect,0.140000X-0.140000X-0.170000X0.140000X-0.170000X0.140000X0.170000X-0.140000X0.170000X0*%
%ADD13RoundRect,0.135000X-0.135000X-0.185000X0.135000X-0.185000X0.135000X0.185000X-0.135000X0.185000X0*%
%ADD14RoundRect,0.112500X-0.112500X0.112500X-0.112500X-0.112500X0.112500X-0.112500X0.112500X0.112500X0*%
%ADD15R,1.700000X1.700000*%
%ADD16O,1.700000X1.700000*%
%ADD17RoundRect,0.112500X-0.112500X-0.112500X0.112500X-0.112500X0.112500X0.112500X-0.112500X0.112500X0*%
%ADD18C,3.300000*%
G04 APERTURE END LIST*
D10*
G04 #@! TO.C,C38*
X363988377Y-99584585D03*
X363028377Y-99584585D03*
G04 #@! TD*
D11*
G04 #@! TO.C,LED34*
X365014185Y-116313575D03*
X365014185Y-115455575D03*
X365872185Y-116313575D03*
X365872185Y-115455575D03*
G04 #@! TD*
D10*
G04 #@! TO.C,C40*
X363988377Y-103602941D03*
X363028377Y-103602941D03*
G04 #@! TD*
D11*
G04 #@! TO.C,LED21*
X365110051Y-90534184D03*
X365110051Y-89676184D03*
X365968051Y-90534184D03*
X365968051Y-89676184D03*
G04 #@! TD*
D12*
G04 #@! TO.C,C18*
X369228511Y-106407834D03*
X370188511Y-106407834D03*
G04 #@! TD*
D11*
G04 #@! TO.C,LED26*
X365110051Y-100456059D03*
X365110051Y-99598059D03*
X365968051Y-100456059D03*
X365968051Y-99598059D03*
G04 #@! TD*
D12*
G04 #@! TO.C,C22*
X369224928Y-98489181D03*
X370184928Y-98489181D03*
G04 #@! TD*
D13*
G04 #@! TO.C,R4*
X362998878Y-116477634D03*
X364018878Y-116477634D03*
G04 #@! TD*
D14*
G04 #@! TO.C,LED13*
X368018904Y-91660559D03*
X368018904Y-92518559D03*
X367160904Y-91660559D03*
X367160904Y-92518559D03*
G04 #@! TD*
D11*
G04 #@! TO.C,LED30*
X365110051Y-108393559D03*
X365110051Y-107535559D03*
X365968051Y-108393559D03*
X365968051Y-107535559D03*
G04 #@! TD*
D14*
G04 #@! TO.C,LED6*
X368018904Y-105551184D03*
X368018904Y-106409184D03*
X367160904Y-105551184D03*
X367160904Y-106409184D03*
G04 #@! TD*
G04 #@! TO.C,LED9*
X368018904Y-99598059D03*
X368018904Y-100456059D03*
X367160904Y-99598059D03*
X367160904Y-100456059D03*
G04 #@! TD*
G04 #@! TO.C,LED3*
X368018904Y-111504309D03*
X368018904Y-112362309D03*
X367160904Y-111504309D03*
X367160904Y-112362309D03*
G04 #@! TD*
D11*
G04 #@! TO.C,LED18*
X365110051Y-84613184D03*
X365110051Y-83755184D03*
X365968051Y-84613184D03*
X365968051Y-83755184D03*
G04 #@! TD*
D15*
G04 #@! TO.C,J2*
X352196576Y-87485864D03*
D16*
X354736576Y-87485864D03*
X357276576Y-87485864D03*
X359816576Y-87485864D03*
G04 #@! TD*
D11*
G04 #@! TO.C,LED29*
X365110051Y-106409184D03*
X365110051Y-105551184D03*
X365968051Y-106409184D03*
X365968051Y-105551184D03*
G04 #@! TD*
D10*
G04 #@! TO.C,C34*
X363988377Y-91696701D03*
X363028377Y-91696701D03*
G04 #@! TD*
D11*
G04 #@! TO.C,LED27*
X365110051Y-102440434D03*
X365110051Y-101582434D03*
X365968051Y-102440434D03*
X365968051Y-101582434D03*
G04 #@! TD*
D10*
G04 #@! TO.C,C46*
X363984431Y-115289261D03*
X363024431Y-115289261D03*
G04 #@! TD*
G04 #@! TO.C,C30*
X363988378Y-83737725D03*
X363028378Y-83737725D03*
G04 #@! TD*
D14*
G04 #@! TO.C,LED5*
X368018904Y-107535559D03*
X368018904Y-108393559D03*
X367160904Y-107535559D03*
X367160904Y-108393559D03*
G04 #@! TD*
D12*
G04 #@! TO.C,C16*
X369224928Y-110377934D03*
X370184928Y-110377934D03*
G04 #@! TD*
G04 #@! TO.C,C28*
X369225235Y-86515920D03*
X370185235Y-86515920D03*
G04 #@! TD*
G04 #@! TO.C,C13*
X369224928Y-115455574D03*
X370184928Y-115455574D03*
G04 #@! TD*
D10*
G04 #@! TO.C,C32*
X363988377Y-87678345D03*
X363028377Y-87678345D03*
G04 #@! TD*
D12*
G04 #@! TO.C,C26*
X369224928Y-90601297D03*
X370184928Y-90601297D03*
G04 #@! TD*
D14*
G04 #@! TO.C,LED7*
X368018904Y-103566809D03*
X368018904Y-104424809D03*
X367160904Y-103566809D03*
X367160904Y-104424809D03*
G04 #@! TD*
D10*
G04 #@! TO.C,C35*
X363988378Y-93631465D03*
X363028378Y-93631465D03*
G04 #@! TD*
D12*
G04 #@! TO.C,C15*
X369224928Y-112362309D03*
X370184928Y-112362309D03*
G04 #@! TD*
D14*
G04 #@! TO.C,LED8*
X368018904Y-101582434D03*
X368018904Y-102440434D03*
X367160904Y-101582434D03*
X367160904Y-102440434D03*
G04 #@! TD*
D11*
G04 #@! TO.C,LED25*
X365110051Y-98471684D03*
X365110051Y-97613684D03*
X365968051Y-98471684D03*
X365968051Y-97613684D03*
G04 #@! TD*
G04 #@! TO.C,LED28*
X365110051Y-104424809D03*
X365110051Y-103566809D03*
X365968051Y-104424809D03*
X365968051Y-103566809D03*
G04 #@! TD*
D10*
G04 #@! TO.C,C33*
X363988377Y-89613109D03*
X363028377Y-89613109D03*
G04 #@! TD*
D14*
G04 #@! TO.C,LED2*
X368018904Y-113488684D03*
X368018904Y-114346684D03*
X367160904Y-113488684D03*
X367160904Y-114346684D03*
G04 #@! TD*
D10*
G04 #@! TO.C,C43*
X363988378Y-109556059D03*
X363028378Y-109556059D03*
G04 #@! TD*
D14*
G04 #@! TO.C,LED14*
X368018904Y-89676184D03*
X368018904Y-90534184D03*
X367160904Y-89676184D03*
X367160904Y-90534184D03*
G04 #@! TD*
D11*
G04 #@! TO.C,LED19*
X365110051Y-86565434D03*
X365110051Y-85707434D03*
X365968051Y-86565434D03*
X365968051Y-85707434D03*
G04 #@! TD*
D14*
G04 #@! TO.C,LED10*
X368018904Y-97613684D03*
X368018904Y-98471684D03*
X367160904Y-97613684D03*
X367160904Y-98471684D03*
G04 #@! TD*
D12*
G04 #@! TO.C,C24*
X369224928Y-94470826D03*
X370184928Y-94470826D03*
G04 #@! TD*
D11*
G04 #@! TO.C,LED32*
X365015141Y-112362309D03*
X365015141Y-111504309D03*
X365873141Y-112362309D03*
X365873141Y-111504309D03*
G04 #@! TD*
D12*
G04 #@! TO.C,C25*
X369224928Y-92536063D03*
X370184928Y-92536063D03*
G04 #@! TD*
D11*
G04 #@! TO.C,LED24*
X365110051Y-96487309D03*
X365110051Y-95629309D03*
X365968051Y-96487309D03*
X365968051Y-95629309D03*
G04 #@! TD*
D17*
G04 #@! TO.C,LED17*
X367192336Y-83756184D03*
X368050336Y-83756184D03*
X367192336Y-84614184D03*
X368050336Y-84614184D03*
G04 #@! TD*
D10*
G04 #@! TO.C,C45*
X363986420Y-113503327D03*
X363026420Y-113503327D03*
G04 #@! TD*
G04 #@! TO.C,C42*
X363988378Y-107472467D03*
X363028378Y-107472467D03*
G04 #@! TD*
G04 #@! TO.C,C41*
X363988378Y-105537705D03*
X363028378Y-105537705D03*
G04 #@! TD*
D12*
G04 #@! TO.C,C20*
X369224928Y-102507537D03*
X370184928Y-102507537D03*
G04 #@! TD*
D10*
G04 #@! TO.C,C31*
X363988377Y-85594753D03*
X363028377Y-85594753D03*
G04 #@! TD*
D12*
G04 #@! TO.C,C29*
X369225235Y-83787309D03*
X370185235Y-83787309D03*
G04 #@! TD*
D11*
G04 #@! TO.C,LED33*
X365016007Y-114378810D03*
X365016007Y-113520810D03*
X365874007Y-114378810D03*
X365874007Y-113520810D03*
G04 #@! TD*
D14*
G04 #@! TO.C,LED16*
X368018904Y-85707434D03*
X368018904Y-86565434D03*
X367160904Y-85707434D03*
X367160904Y-86565434D03*
G04 #@! TD*
D11*
G04 #@! TO.C,LED22*
X365110051Y-92518559D03*
X365110051Y-91660559D03*
X365968051Y-92518559D03*
X365968051Y-91660559D03*
G04 #@! TD*
D12*
G04 #@! TO.C,C27*
X369224928Y-88517707D03*
X370184928Y-88517707D03*
G04 #@! TD*
D10*
G04 #@! TO.C,C37*
X363988378Y-97649819D03*
X363028378Y-97649819D03*
G04 #@! TD*
D12*
G04 #@! TO.C,C21*
X369224928Y-100423945D03*
X370184928Y-100423945D03*
G04 #@! TD*
D14*
G04 #@! TO.C,LED1*
X368049338Y-115473059D03*
X368049338Y-116331059D03*
X367191338Y-115473059D03*
X367191338Y-116331059D03*
G04 #@! TD*
D10*
G04 #@! TO.C,C44*
X363988377Y-111490823D03*
X363028377Y-111490823D03*
G04 #@! TD*
D14*
G04 #@! TO.C,LED12*
X368018904Y-93644934D03*
X368018904Y-94502934D03*
X367160904Y-93644934D03*
X367160904Y-94502934D03*
G04 #@! TD*
D13*
G04 #@! TO.C,R3*
X369176445Y-116497370D03*
X370196445Y-116497370D03*
G04 #@! TD*
D12*
G04 #@! TO.C,C23*
X369224928Y-96554418D03*
X370184928Y-96554418D03*
G04 #@! TD*
D10*
G04 #@! TO.C,C39*
X363988377Y-101519349D03*
X363028377Y-101519349D03*
G04 #@! TD*
D11*
G04 #@! TO.C,LED23*
X365110051Y-94502934D03*
X365110051Y-93644934D03*
X365968051Y-94502934D03*
X365968051Y-93644934D03*
G04 #@! TD*
D12*
G04 #@! TO.C,C17*
X369232632Y-108386282D03*
X370192632Y-108386282D03*
G04 #@! TD*
D14*
G04 #@! TO.C,LED4*
X368018904Y-109519934D03*
X368018904Y-110377934D03*
X367160904Y-109519934D03*
X367160904Y-110377934D03*
G04 #@! TD*
G04 #@! TO.C,LED15*
X368018904Y-87691809D03*
X368018904Y-88549809D03*
X367160904Y-87691809D03*
X367160904Y-88549809D03*
G04 #@! TD*
D11*
G04 #@! TO.C,LED20*
X365110051Y-88549809D03*
X365110051Y-87691809D03*
X365968051Y-88549809D03*
X365968051Y-87691809D03*
G04 #@! TD*
G04 #@! TO.C,LED31*
X365110051Y-110377934D03*
X365110051Y-109519934D03*
X365968051Y-110377934D03*
X365968051Y-109519934D03*
G04 #@! TD*
D10*
G04 #@! TO.C,C36*
X363988378Y-95566228D03*
X363028378Y-95566228D03*
G04 #@! TD*
D12*
G04 #@! TO.C,C14*
X369224928Y-114346684D03*
X370184928Y-114346684D03*
G04 #@! TD*
D14*
G04 #@! TO.C,LED11*
X368018904Y-95629309D03*
X368018904Y-96487309D03*
X367160904Y-95629309D03*
X367160904Y-96487309D03*
G04 #@! TD*
D12*
G04 #@! TO.C,C19*
X369224928Y-104442303D03*
X370184928Y-104442303D03*
G04 #@! TD*
D18*
G04 #@! TO.C,MX2*
X122396144Y-87947424D03*
X128746144Y-85407424D03*
G04 #@! TD*
G04 #@! TO.C,MX3*
X141446250Y-87947500D03*
X147796250Y-85407500D03*
G04 #@! TD*
G04 #@! TO.C,MX4*
X160496250Y-87947500D03*
X166846250Y-85407500D03*
G04 #@! TD*
G04 #@! TO.C,MX5*
X179546250Y-87947500D03*
X185896250Y-85407500D03*
G04 #@! TD*
G04 #@! TO.C,MX6*
X198596250Y-87947500D03*
X204946250Y-85407500D03*
G04 #@! TD*
G04 #@! TO.C,MX7*
X217646250Y-87947500D03*
X223996250Y-85407500D03*
G04 #@! TD*
G04 #@! TO.C,MX8*
X236696250Y-87947500D03*
X243046250Y-85407500D03*
G04 #@! TD*
G04 #@! TO.C,MX9*
X255746250Y-87947500D03*
X262096250Y-85407500D03*
G04 #@! TD*
G04 #@! TO.C,MX10*
X274796250Y-87947500D03*
X281146250Y-85407500D03*
G04 #@! TD*
G04 #@! TO.C,MX11*
X293846250Y-87947500D03*
X300196250Y-85407500D03*
G04 #@! TD*
G04 #@! TO.C,MX12*
X312896250Y-87947500D03*
X319246250Y-85407500D03*
G04 #@! TD*
G04 #@! TO.C,MX13*
X346710000Y-93027500D03*
X340360000Y-95567500D03*
G04 #@! TD*
G04 #@! TO.C,MX15*
X398621250Y-87947500D03*
X404971250Y-85407500D03*
G04 #@! TD*
G04 #@! TO.C,MX16*
X417671250Y-87947500D03*
X424021250Y-85407500D03*
G04 #@! TD*
G04 #@! TO.C,MX17*
X436721250Y-87947500D03*
X443071250Y-85407500D03*
G04 #@! TD*
G04 #@! TO.C,MX19*
X105727500Y-106997500D03*
X112077500Y-104457500D03*
G04 #@! TD*
G04 #@! TO.C,MX20*
X127158750Y-106997500D03*
X133508750Y-104457500D03*
G04 #@! TD*
G04 #@! TO.C,MX21*
X146208750Y-106997500D03*
X152558750Y-104457500D03*
G04 #@! TD*
G04 #@! TO.C,MX22*
X165258750Y-106997500D03*
X171608750Y-104457500D03*
G04 #@! TD*
G04 #@! TO.C,MX23*
X184308750Y-106997500D03*
X190658750Y-104457500D03*
G04 #@! TD*
G04 #@! TO.C,MX24*
X203358750Y-106997500D03*
X209708750Y-104457500D03*
G04 #@! TD*
G04 #@! TO.C,MX25*
X222408750Y-106997500D03*
X228758750Y-104457500D03*
G04 #@! TD*
G04 #@! TO.C,MX26*
X241458750Y-106997500D03*
X247808750Y-104457500D03*
G04 #@! TD*
G04 #@! TO.C,MX27*
X260508750Y-106997500D03*
X266858750Y-104457500D03*
G04 #@! TD*
G04 #@! TO.C,MX28*
X279558750Y-106997500D03*
X285908750Y-104457500D03*
G04 #@! TD*
G04 #@! TO.C,MX29*
X298608750Y-106997500D03*
X304958750Y-104457500D03*
G04 #@! TD*
G04 #@! TO.C,MX30*
X317658750Y-106997500D03*
X324008750Y-104457500D03*
G04 #@! TD*
G04 #@! TO.C,MX31*
X341471250Y-106997500D03*
X347821250Y-104457500D03*
G04 #@! TD*
G04 #@! TO.C,MX33*
X398621250Y-106997500D03*
X404971250Y-104457500D03*
G04 #@! TD*
G04 #@! TO.C,MX34*
X417671250Y-106997500D03*
X424021250Y-104457500D03*
G04 #@! TD*
G04 #@! TO.C,MX35*
X436721250Y-106997500D03*
X443071250Y-104457500D03*
G04 #@! TD*
G04 #@! TO.C,MX36*
X455771250Y-106997500D03*
X462121250Y-104457500D03*
G04 #@! TD*
G04 #@! TO.C,MX37*
X110490000Y-126047500D03*
X116840000Y-123507500D03*
G04 #@! TD*
G04 #@! TO.C,MX38*
X136683750Y-126047500D03*
X143033750Y-123507500D03*
G04 #@! TD*
G04 #@! TO.C,MX39*
X155733750Y-126047500D03*
X162083750Y-123507500D03*
G04 #@! TD*
G04 #@! TO.C,MX40*
X174783750Y-126047500D03*
X181133750Y-123507500D03*
G04 #@! TD*
G04 #@! TO.C,MX41*
X193833750Y-126047500D03*
X200183750Y-123507500D03*
G04 #@! TD*
G04 #@! TO.C,MX42*
X212883750Y-126047500D03*
X219233750Y-123507500D03*
G04 #@! TD*
G04 #@! TO.C,MX43*
X231933750Y-126047500D03*
X238283750Y-123507500D03*
G04 #@! TD*
G04 #@! TO.C,MX44*
X250983750Y-126047500D03*
X257333750Y-123507500D03*
G04 #@! TD*
G04 #@! TO.C,MX45*
X270033750Y-126047500D03*
X276383750Y-123507500D03*
G04 #@! TD*
G04 #@! TO.C,MX46*
X289083750Y-126047500D03*
X295433750Y-123507500D03*
G04 #@! TD*
G04 #@! TO.C,MX47*
X308133750Y-126047500D03*
X314483750Y-123507500D03*
G04 #@! TD*
G04 #@! TO.C,MX48*
X329565000Y-126047500D03*
X335915000Y-123507500D03*
G04 #@! TD*
G04 #@! TO.C,MX49*
X355758750Y-130810000D03*
X362108750Y-128270000D03*
G04 #@! TD*
G04 #@! TO.C,MX51*
X398621250Y-126047500D03*
X404971250Y-123507500D03*
G04 #@! TD*
G04 #@! TO.C,MX52*
X417671250Y-126047500D03*
X424021250Y-123507500D03*
G04 #@! TD*
G04 #@! TO.C,MX53*
X436721250Y-126047500D03*
X443071250Y-123507500D03*
G04 #@! TD*
G04 #@! TO.C,MX54*
X457041250Y-132397500D03*
X454501250Y-126047500D03*
G04 #@! TD*
G04 #@! TO.C,MX56*
X289083750Y-145097500D03*
X295433750Y-142557500D03*
G04 #@! TD*
G04 #@! TO.C,MX57*
X336708750Y-149860000D03*
X343058750Y-147320000D03*
G04 #@! TD*
G04 #@! TO.C,MX58*
X355758750Y-149860000D03*
X362108750Y-147320000D03*
G04 #@! TD*
G04 #@! TO.C,MX59*
X374808750Y-149860000D03*
X381158750Y-147320000D03*
G04 #@! TD*
G04 #@! TO.C,MX61*
X417671250Y-145097500D03*
X424021250Y-142557500D03*
G04 #@! TD*
G04 #@! TO.C,MX477.1*
X415766250Y-150177500D03*
X409416250Y-152717500D03*
G04 #@! TD*
G04 #@! TO.C,MX62*
X436721250Y-145097500D03*
X443071250Y-142557500D03*
G04 #@! TD*
G04 #@! TO.C,MX63*
X457041250Y-151447500D03*
X454501250Y-145097500D03*
G04 #@! TD*
G04 #@! TO.C,MX487.1*
X462121250Y-134302500D03*
X464661250Y-140652500D03*
G04 #@! TD*
G04 #@! TO.C,MX1*
X103346250Y-87947500D03*
X109696250Y-85407500D03*
G04 #@! TD*
G04 #@! TO.C,MX14*
X379571250Y-87947500D03*
X385921250Y-85407500D03*
G04 #@! TD*
G04 #@! TO.C,MX60*
X398621250Y-145097500D03*
X404971250Y-142557500D03*
G04 #@! TD*
G04 #@! TO.C,MX406.1*
X105727500Y-145097500D03*
X112077500Y-142557500D03*
G04 #@! TD*
G04 #@! TO.C,MX55*
X127158750Y-145097500D03*
X133508750Y-142557500D03*
G04 #@! TD*
G04 #@! TO.C,MX416.1*
X148590000Y-145097500D03*
X154940000Y-142557500D03*
G04 #@! TD*
G04 #@! TO.C,MX456.1*
X310515000Y-145097500D03*
X316865000Y-142557500D03*
G04 #@! TD*
G04 #@! TO.C,MX18*
X331946250Y-87947500D03*
X338296250Y-85407500D03*
G04 #@! TD*
G04 #@! TO.C,MX417.3*
X215741250Y-150177500D03*
X209391250Y-152717500D03*
G04 #@! TD*
G04 #@! TO.C,MX417.2*
X220027500Y-145097500D03*
X226377500Y-142557500D03*
G04 #@! TD*
G04 #@! TO.C,MX446.1*
X267652500Y-145097500D03*
X274002500Y-142557500D03*
G04 #@! TD*
G04 #@! TO.C,MX32*
X379571250Y-106997500D03*
X385921250Y-104457500D03*
G04 #@! TD*
G04 #@! TO.C,MX437.1*
X234315000Y-145097500D03*
X240665000Y-142557500D03*
G04 #@! TD*
G04 #@! TO.C,MX50*
X379571250Y-126047500D03*
X385921250Y-123507500D03*
G04 #@! TD*
G04 #@! TO.C,MX417.1*
X186690000Y-145097500D03*
X193040000Y-142557500D03*
G04 #@! TD*
M02*
