%TF.GenerationSoftware,KiCad,Pcbnew,9.0.7*%
%TF.CreationDate,2026-01-25T12:22:48+01:00*%
%TF.ProjectId,kastenwagen-1840-pcb,6b617374-656e-4776-9167-656e2d313834,rev?*%
%TF.SameCoordinates,Original*%
%TF.FileFunction,Drillmap*%
%TF.FilePolarity,Positive*%
%FSLAX45Y45*%
G04 Gerber Fmt 4.5, Leading zero omitted, Abs format (unit mm)*
G04 Created by KiCad (PCBNEW 9.0.7) date 2026-01-25 12:22:48*
%MOMM*%
%LPD*%
G01*
G04 APERTURE LIST*
%ADD10C,0.100000*%
%ADD11C,0.200000*%
%ADD12C,0.150000*%
%ADD13C,0.300000*%
%ADD14C,0.304800*%
G04 APERTURE END LIST*
D10*
X9842135Y-8466835D02*
G75*
G02*
X10142126Y-8166835I299995J5D01*
G01*
X16380730Y-15316823D02*
X16590710Y-15316823D01*
X16940150Y-15646823D02*
G75*
G02*
X16690565Y-15411108I0J249993D01*
G01*
X37390000Y-8191993D02*
X37390000Y-8231844D01*
X35975000Y-8256839D02*
G75*
G02*
X35950001Y-8231839I0J24999D01*
G01*
X16280887Y-15411108D02*
G75*
G02*
X16380730Y-15316823I99843J-5722D01*
G01*
X32999831Y-15646823D02*
G75*
G02*
X33149997Y-15796990I-1J-150167D01*
G01*
X10072140Y-15646861D02*
X16032249Y-15646823D01*
X36450331Y-16142121D02*
X33300151Y-16142121D01*
X15720775Y-8396760D02*
G75*
G02*
X15620775Y-8496755I-99995J0D01*
G01*
X16280887Y-15411108D02*
G75*
G02*
X16032249Y-15646823I-249587J14279D01*
G01*
X37390000Y-8231844D02*
G75*
G02*
X37365000Y-8256840I-25000J4D01*
G01*
X37012220Y-15812121D02*
G75*
G02*
X37112056Y-15906407I0J-99999D01*
G01*
X36803278Y-15812121D02*
X37012220Y-15812121D01*
X15720775Y-8346760D02*
G75*
G02*
X15900125Y-8166756I180005J0D01*
G01*
X39529837Y-8367980D02*
G75*
G02*
X39729804Y-8167987I199993J0D01*
G01*
X37361650Y-16142121D02*
X38610000Y-16142121D01*
X46707859Y-8166869D02*
X39729804Y-8167980D01*
X36702385Y-15910000D02*
G75*
G02*
X36803268Y-15812439I97615J0D01*
G01*
X37365000Y-8256844D02*
X35975000Y-8256839D01*
X14991346Y-8166757D02*
X10141479Y-8166839D01*
X9842259Y-8467122D02*
X9842124Y-15418287D01*
X38760000Y-15797555D02*
G75*
G02*
X38909983Y-15647550I150010J-5D01*
G01*
X38909983Y-15647555D02*
X46707879Y-15647655D01*
X39050000Y-8395536D02*
X39050000Y-8346840D01*
X37361650Y-16142121D02*
G75*
G02*
X37112057Y-15906407I0J250001D01*
G01*
X15720775Y-8346760D02*
X15720775Y-8396760D01*
X39429510Y-8496839D02*
X39149990Y-8496839D01*
X39529837Y-8391129D02*
X39529837Y-8367980D01*
X39529837Y-8391129D02*
G75*
G02*
X39429510Y-8496839I-99837J-5711D01*
G01*
X14991346Y-8166757D02*
G75*
G02*
X15240935Y-8402471I4J-249993D01*
G01*
X38760000Y-15992121D02*
G75*
G02*
X38610000Y-16142120I-150000J1D01*
G01*
X46857881Y-15497655D02*
G75*
G02*
X46707879Y-15647661I-150011J5D01*
G01*
X39149990Y-8496839D02*
G75*
G02*
X39050000Y-8395536I10J100009D01*
G01*
X35950000Y-8194992D02*
X35950000Y-8231839D01*
X38760000Y-15992121D02*
X38760000Y-15797555D01*
X38870000Y-8166830D02*
G75*
G02*
X39050000Y-8346840I0J-180000D01*
G01*
X15620775Y-8496757D02*
X15620000Y-8496757D01*
X16940150Y-15646823D02*
X32999831Y-15646823D01*
X37390000Y-8191993D02*
G75*
G02*
X37414997Y-8166990I25000J4D01*
G01*
X15580000Y-8496757D02*
X15340770Y-8496757D01*
X33300151Y-16142121D02*
G75*
G02*
X33150000Y-15992545I-1J150151D01*
G01*
X35925004Y-8169992D02*
G75*
G02*
X35949998Y-8194992I-4J-24998D01*
G01*
X46707859Y-8166869D02*
G75*
G02*
X46857881Y-8316869I21J-150001D01*
G01*
X35925004Y-8169992D02*
X15900125Y-8166756D01*
X33149999Y-15796990D02*
X33150001Y-15992545D01*
X16590710Y-15316823D02*
G75*
G02*
X16690563Y-15411108I0J-100017D01*
G01*
X36702385Y-15910000D02*
G75*
G02*
X36450328Y-16142353I-249615J17890D01*
G01*
X15620000Y-8496757D02*
X15580000Y-8496757D01*
X15340770Y-8496757D02*
G75*
G02*
X15240937Y-8402471I0J99997D01*
G01*
X46857881Y-15497655D02*
X46857883Y-8316869D01*
X38870000Y-8166839D02*
X37414997Y-8166993D01*
X10072138Y-15646861D02*
G75*
G02*
X9842114Y-15418287I2J230031D01*
G01*
D11*
D10*
X10626639Y-11216562D02*
X10656639Y-11246562D01*
X10656639Y-11216562D02*
X10626639Y-11246562D01*
X11265000Y-7305000D02*
X11295000Y-7335000D01*
X11295000Y-7305000D02*
X11265000Y-7335000D01*
X11325000Y-7925000D02*
X11355000Y-7955000D01*
X11355000Y-7925000D02*
X11325000Y-7955000D01*
X11980537Y-11429873D02*
X12010537Y-11459873D01*
X12010537Y-11429873D02*
X11980537Y-11459873D01*
X12345000Y-8995000D02*
X12375000Y-9025000D01*
X12375000Y-8995000D02*
X12345000Y-9025000D01*
X12785000Y-14735000D02*
X12815000Y-14765000D01*
X12815000Y-14735000D02*
X12785000Y-14765000D01*
X12825000Y-10895000D02*
X12855000Y-10925000D01*
X12855000Y-10895000D02*
X12825000Y-10925000D01*
X12962812Y-11439598D02*
X12992812Y-11469598D01*
X12992812Y-11439598D02*
X12962812Y-11469598D01*
X13439051Y-9182570D02*
X13469051Y-9212570D01*
X13469051Y-9182570D02*
X13439051Y-9212570D01*
X13755000Y-12835000D02*
X13785000Y-12865000D01*
X13785000Y-12835000D02*
X13755000Y-12865000D01*
X14986875Y-11494375D02*
X15016875Y-11524375D01*
X15016875Y-11494375D02*
X14986875Y-11524375D01*
X16155000Y-8995000D02*
X16185000Y-9025000D01*
X16185000Y-8995000D02*
X16155000Y-9025000D01*
X16645000Y-10865000D02*
X16675000Y-10895000D01*
X16675000Y-10865000D02*
X16645000Y-10895000D01*
X16966073Y-11618614D02*
X16996073Y-11648614D01*
X16996073Y-11618614D02*
X16966073Y-11648614D01*
X17585000Y-12815000D02*
X17615000Y-12845000D01*
X17615000Y-12815000D02*
X17585000Y-12845000D01*
X18725000Y-14825000D02*
X18755000Y-14855000D01*
X18755000Y-14825000D02*
X18725000Y-14855000D01*
X18795622Y-11535316D02*
X18825622Y-11565316D01*
X18825622Y-11535316D02*
X18795622Y-11565316D01*
X19975000Y-8995000D02*
X20005000Y-9025000D01*
X20005000Y-8995000D02*
X19975000Y-9025000D01*
X20445000Y-10895000D02*
X20475000Y-10925000D01*
X20475000Y-10895000D02*
X20445000Y-10925000D01*
X20708625Y-11597812D02*
X20738625Y-11627812D01*
X20738625Y-11597812D02*
X20708625Y-11627812D01*
X21285000Y-15945000D02*
X21315000Y-15975000D01*
X21315000Y-15945000D02*
X21285000Y-15975000D01*
X21385000Y-12815000D02*
X21415000Y-12845000D01*
X21415000Y-12815000D02*
X21385000Y-12845000D01*
X22586389Y-11594236D02*
X22616389Y-11624236D01*
X22616389Y-11594236D02*
X22586389Y-11624236D01*
X23775000Y-8995000D02*
X23805000Y-9025000D01*
X23805000Y-8995000D02*
X23775000Y-9025000D01*
X24255000Y-10895000D02*
X24285000Y-10925000D01*
X24285000Y-10895000D02*
X24255000Y-10925000D01*
X24518625Y-11597812D02*
X24548625Y-11627812D01*
X24548625Y-11597812D02*
X24518625Y-11627812D01*
X25175000Y-12805000D02*
X25205000Y-12835000D01*
X25205000Y-12805000D02*
X25175000Y-12835000D01*
X26193611Y-14838034D02*
X26223611Y-14868034D01*
X26223611Y-14838034D02*
X26193611Y-14868034D01*
X26426555Y-11639331D02*
X26456555Y-11669331D01*
X26456555Y-11639331D02*
X26426555Y-11669331D01*
X26855000Y-14715000D02*
X26885000Y-14745000D01*
X26885000Y-14715000D02*
X26855000Y-14745000D01*
X27485000Y-15105000D02*
X27515000Y-15135000D01*
X27515000Y-15105000D02*
X27485000Y-15135000D01*
X27585000Y-8985000D02*
X27615000Y-9015000D01*
X27615000Y-8985000D02*
X27585000Y-9015000D01*
X28065000Y-10895000D02*
X28095000Y-10925000D01*
X28095000Y-10895000D02*
X28065000Y-10925000D01*
X28405660Y-11648715D02*
X28435660Y-11678715D01*
X28435660Y-11648715D02*
X28405660Y-11678715D01*
X28753452Y-18543852D02*
X28783452Y-18573852D01*
X28783452Y-18543852D02*
X28753452Y-18573852D01*
X29005000Y-12815000D02*
X29035000Y-12845000D01*
X29035000Y-12815000D02*
X29005000Y-12845000D01*
X30369089Y-11709349D02*
X30399089Y-11739349D01*
X30399089Y-11709349D02*
X30369089Y-11739349D01*
X31145000Y-14705000D02*
X31175000Y-14735000D01*
X31175000Y-14705000D02*
X31145000Y-14735000D01*
X31395000Y-8995000D02*
X31425000Y-9025000D01*
X31425000Y-8995000D02*
X31395000Y-9025000D01*
X31875000Y-10895000D02*
X31905000Y-10925000D01*
X31905000Y-10895000D02*
X31875000Y-10925000D01*
X31965000Y-8995000D02*
X31995000Y-9025000D01*
X31995000Y-8995000D02*
X31965000Y-9025000D01*
X32211250Y-12605625D02*
X32241250Y-12635625D01*
X32241250Y-12605625D02*
X32211250Y-12635625D01*
X32363157Y-11699655D02*
X32393157Y-11729655D01*
X32393157Y-11699655D02*
X32363157Y-11729655D01*
X32459270Y-11042920D02*
X32489270Y-11072920D01*
X32489270Y-11042920D02*
X32459270Y-11072920D01*
X32705000Y-13560000D02*
X32735000Y-13590000D01*
X32735000Y-13560000D02*
X32705000Y-13590000D01*
X32965285Y-11072686D02*
X32995285Y-11102686D01*
X32995285Y-11072686D02*
X32965285Y-11102686D01*
X33035000Y-12815000D02*
X33065000Y-12845000D01*
X33065000Y-12815000D02*
X33035000Y-12845000D01*
X33155000Y-9195000D02*
X33185000Y-9225000D01*
X33185000Y-9195000D02*
X33155000Y-9225000D01*
X33367120Y-12546083D02*
X33397120Y-12576083D01*
X33397120Y-12546083D02*
X33367120Y-12576083D01*
X33755000Y-15185000D02*
X33785000Y-15215000D01*
X33785000Y-15185000D02*
X33755000Y-15215000D01*
X33815000Y-9205000D02*
X33845000Y-9235000D01*
X33845000Y-9205000D02*
X33815000Y-9235000D01*
X33825000Y-13620000D02*
X33855000Y-13650000D01*
X33855000Y-13620000D02*
X33825000Y-13650000D01*
X34270000Y-12865000D02*
X34300000Y-12895000D01*
X34300000Y-12865000D02*
X34270000Y-12895000D01*
X34319620Y-11534053D02*
X34349620Y-11564053D01*
X34349620Y-11534053D02*
X34319620Y-11564053D01*
X34407716Y-12594284D02*
X34437716Y-12624284D01*
X34437716Y-12594284D02*
X34407716Y-12624284D01*
X34423799Y-11534053D02*
X34453799Y-11564053D01*
X34453799Y-11534053D02*
X34423799Y-11564053D01*
X34552813Y-12885000D02*
X34582813Y-12915000D01*
X34582813Y-12885000D02*
X34552813Y-12915000D01*
X34691690Y-12590732D02*
X34721690Y-12620732D01*
X34721690Y-12590732D02*
X34691690Y-12620732D01*
X34721455Y-11787060D02*
X34751455Y-11817060D01*
X34751455Y-11787060D02*
X34721455Y-11817060D01*
X34830563Y-8810563D02*
X34860563Y-8840563D01*
X34860563Y-8810563D02*
X34830563Y-8840563D01*
X34871000Y-14400000D02*
X34901000Y-14430000D01*
X34901000Y-14400000D02*
X34871000Y-14430000D01*
X34914932Y-12248427D02*
X34944932Y-12278427D01*
X34944932Y-12248427D02*
X34914932Y-12278427D01*
X34974463Y-10149952D02*
X35004463Y-10179952D01*
X35004463Y-10149952D02*
X34974463Y-10179952D01*
X35171875Y-11216562D02*
X35201875Y-11246562D01*
X35201875Y-11216562D02*
X35171875Y-11246562D01*
X35212588Y-11742412D02*
X35242588Y-11772412D01*
X35242588Y-11742412D02*
X35212588Y-11772412D01*
X35257236Y-12233544D02*
X35287236Y-12263544D01*
X35287236Y-12233544D02*
X35257236Y-12263544D01*
X35272119Y-11876357D02*
X35302119Y-11906357D01*
X35302119Y-11876357D02*
X35272119Y-11906357D01*
X35301884Y-11028038D02*
X35331884Y-11058038D01*
X35331884Y-11028038D02*
X35301884Y-11058038D01*
X35316767Y-10655968D02*
X35346767Y-10685968D01*
X35346767Y-10655968D02*
X35316767Y-10685968D01*
X35346533Y-12590732D02*
X35376533Y-12620732D01*
X35376533Y-12590732D02*
X35346533Y-12620732D01*
X35406064Y-10045773D02*
X35436064Y-10075773D01*
X35436064Y-10045773D02*
X35406064Y-10075773D01*
X35465595Y-11444756D02*
X35495595Y-11474756D01*
X35495595Y-11444756D02*
X35465595Y-11474756D01*
X35554892Y-12352607D02*
X35584892Y-12382607D01*
X35584892Y-12352607D02*
X35554892Y-12382607D01*
X35569775Y-10894092D02*
X35599775Y-10924092D01*
X35599775Y-10894092D02*
X35569775Y-10924092D01*
X35584658Y-11042920D02*
X35614658Y-11072920D01*
X35614658Y-11042920D02*
X35584658Y-11072920D01*
X35644189Y-10507140D02*
X35674189Y-10537140D01*
X35674189Y-10507140D02*
X35644189Y-10537140D01*
X35659072Y-11385225D02*
X35689072Y-11415225D01*
X35689072Y-11385225D02*
X35659072Y-11415225D01*
X35665000Y-15195000D02*
X35695000Y-15225000D01*
X35695000Y-15195000D02*
X35665000Y-15225000D01*
X35688837Y-10090421D02*
X35718837Y-10120421D01*
X35718837Y-10090421D02*
X35688837Y-10120421D01*
X35733486Y-9554640D02*
X35763486Y-9584640D01*
X35763486Y-9554640D02*
X35733486Y-9584640D01*
X35733486Y-11697764D02*
X35763486Y-11727764D01*
X35763486Y-11697764D02*
X35733486Y-11727764D01*
X36016259Y-11593584D02*
X36046259Y-11623584D01*
X36046259Y-11593584D02*
X36016259Y-11623584D01*
X36016259Y-12248427D02*
X36046259Y-12278427D01*
X36046259Y-12248427D02*
X36016259Y-12278427D01*
X36016259Y-12546083D02*
X36046259Y-12576083D01*
X36046259Y-12546083D02*
X36016259Y-12576083D01*
X36149973Y-8507601D02*
X36179973Y-8537601D01*
X36179973Y-8507601D02*
X36149973Y-8537601D01*
X36164856Y-11588340D02*
X36194856Y-11618340D01*
X36194856Y-11588340D02*
X36164856Y-11618340D01*
X36179970Y-8364016D02*
X36209970Y-8394016D01*
X36209970Y-8364016D02*
X36179970Y-8394016D01*
X36179970Y-11429873D02*
X36209970Y-11459873D01*
X36209970Y-11429873D02*
X36179970Y-11459873D01*
X36497500Y-12169062D02*
X36527500Y-12199062D01*
X36527500Y-12169062D02*
X36497500Y-12199062D01*
X36581805Y-17546704D02*
X36611805Y-17576704D01*
X36611805Y-17546704D02*
X36581805Y-17576704D01*
X36635139Y-11585820D02*
X36665139Y-11615820D01*
X36665139Y-11585820D02*
X36635139Y-11615820D01*
X36641731Y-8507150D02*
X36671731Y-8537150D01*
X36671731Y-8507150D02*
X36641731Y-8537150D01*
X37117586Y-8364016D02*
X37147586Y-8394016D01*
X37147586Y-8364016D02*
X37117586Y-8394016D01*
X37117586Y-11429873D02*
X37147586Y-11459873D01*
X37147586Y-11429873D02*
X37117586Y-11459873D01*
X37132469Y-11638232D02*
X37162469Y-11668232D01*
X37162469Y-11638232D02*
X37132469Y-11668232D01*
X37942125Y-12169062D02*
X37972125Y-12199062D01*
X37972125Y-12169062D02*
X37942125Y-12199062D01*
X39847125Y-12170000D02*
X39877125Y-12200000D01*
X39877125Y-12170000D02*
X39847125Y-12200000D01*
X39935000Y-9045000D02*
X39965000Y-9075000D01*
X39965000Y-9045000D02*
X39935000Y-9075000D01*
X40285000Y-13985000D02*
X40315000Y-14015000D01*
X40315000Y-13985000D02*
X40285000Y-14015000D01*
X41125000Y-14425000D02*
X41155000Y-14455000D01*
X41155000Y-14425000D02*
X41125000Y-14455000D01*
X41752125Y-12169062D02*
X41782125Y-12199062D01*
X41782125Y-12169062D02*
X41752125Y-12199062D01*
X41825000Y-9055000D02*
X41855000Y-9085000D01*
X41855000Y-9055000D02*
X41825000Y-9085000D01*
X42125000Y-14165000D02*
X42155000Y-14195000D01*
X42155000Y-14165000D02*
X42125000Y-14195000D01*
X43657125Y-12169062D02*
X43687125Y-12199062D01*
X43687125Y-12169062D02*
X43657125Y-12199062D01*
X44987573Y-11571324D02*
X45017573Y-11601324D01*
X45017573Y-11571324D02*
X44987573Y-11601324D01*
X45070000Y-11573750D02*
X45100000Y-11603750D01*
X45100000Y-11573750D02*
X45070000Y-11603750D01*
X35290000Y-9082500D02*
G75*
G02*
X35260000Y-9082500I-15000J0D01*
G01*
X35260000Y-9082500D02*
G75*
G02*
X35290000Y-9082500I15000J0D01*
G01*
X35340000Y-8982500D02*
G75*
G02*
X35310000Y-8982500I-15000J0D01*
G01*
X35310000Y-8982500D02*
G75*
G02*
X35340000Y-8982500I15000J0D01*
G01*
X35340000Y-9032500D02*
G75*
G02*
X35310000Y-9032500I-15000J0D01*
G01*
X35310000Y-9032500D02*
G75*
G02*
X35340000Y-9032500I15000J0D01*
G01*
X35340000Y-9082500D02*
G75*
G02*
X35310000Y-9082500I-15000J0D01*
G01*
X35310000Y-9082500D02*
G75*
G02*
X35340000Y-9082500I15000J0D01*
G01*
X35810000Y-8982500D02*
G75*
G02*
X35780000Y-8982500I-15000J0D01*
G01*
X35780000Y-8982500D02*
G75*
G02*
X35810000Y-8982500I15000J0D01*
G01*
X35810000Y-9032500D02*
G75*
G02*
X35780000Y-9032500I-15000J0D01*
G01*
X35780000Y-9032500D02*
G75*
G02*
X35810000Y-9032500I15000J0D01*
G01*
X35810000Y-9082500D02*
G75*
G02*
X35780000Y-9082500I-15000J0D01*
G01*
X35780000Y-9082500D02*
G75*
G02*
X35810000Y-9082500I15000J0D01*
G01*
X35860000Y-9082500D02*
G75*
G02*
X35830000Y-9082500I-15000J0D01*
G01*
X35830000Y-9082500D02*
G75*
G02*
X35860000Y-9082500I15000J0D01*
G01*
X35219658Y-8698586D02*
X35219658Y-8798586D01*
X35169658Y-8748586D02*
X35269658Y-8748586D01*
X35473658Y-8698586D02*
X35473658Y-8798586D01*
X35423658Y-8748586D02*
X35523658Y-8748586D01*
X35727658Y-8698586D02*
X35727658Y-8798586D01*
X35677658Y-8748586D02*
X35777658Y-8748586D01*
X35981658Y-8698586D02*
X35981658Y-8798586D01*
X35931658Y-8748586D02*
X36031658Y-8748586D01*
X45708125Y-8248750D02*
X45708125Y-8348750D01*
X45658125Y-8298750D02*
X45758125Y-8298750D01*
X45708125Y-9698750D02*
X45708125Y-9798750D01*
X45658125Y-9748750D02*
X45758125Y-9748750D01*
X45958125Y-8248750D02*
X45958125Y-8348750D01*
X45908125Y-8298750D02*
X46008125Y-8298750D01*
X46208125Y-8248750D02*
X46208125Y-8348750D01*
X46158125Y-8298750D02*
X46258125Y-8298750D01*
X46208125Y-9698750D02*
X46208125Y-9798750D01*
X46158125Y-9748750D02*
X46258125Y-9748750D01*
D12*
X45451158Y-9101784D02*
X45451158Y-8995717D01*
X45345091Y-8995717D01*
X45345091Y-9101784D01*
X45451158Y-9101784D01*
D10*
X45323125Y-8983750D02*
X45323125Y-9113750D01*
X45473125Y-9113750D02*
G75*
G02*
X45323125Y-9113750I-75000J0D01*
G01*
X45473125Y-9113750D02*
X45473125Y-8983750D01*
X45473125Y-8983750D02*
G75*
G03*
X45323125Y-8983750I-75000J0D01*
G01*
D12*
X46571158Y-9101784D02*
X46571158Y-8995717D01*
X46465091Y-8995717D01*
X46465091Y-9101784D01*
X46571158Y-9101784D01*
D10*
X46443125Y-8983750D02*
X46443125Y-9113750D01*
X46593125Y-9113750D02*
G75*
G02*
X46443125Y-9113750I-75000J0D01*
G01*
X46593125Y-9113750D02*
X46593125Y-8983750D01*
X46593125Y-8983750D02*
G75*
G03*
X46443125Y-8983750I-75000J0D01*
G01*
D13*
X10334625Y-8944750D02*
X10484625Y-8794750D01*
X10334625Y-8644750D01*
X10184625Y-8794750D01*
X10334625Y-8944750D01*
X10572750Y-10849750D02*
X10722750Y-10699750D01*
X10572750Y-10549750D01*
X10422750Y-10699750D01*
X10572750Y-10849750D01*
X10572750Y-14659750D02*
X10722750Y-14509750D01*
X10572750Y-14359750D01*
X10422750Y-14509750D01*
X10572750Y-14659750D01*
X10969625Y-8690750D02*
X11119625Y-8540750D01*
X10969625Y-8390750D01*
X10819625Y-8540750D01*
X10969625Y-8690750D01*
X11049000Y-12754750D02*
X11199000Y-12604750D01*
X11049000Y-12454750D01*
X10899000Y-12604750D01*
X11049000Y-12754750D01*
X11207750Y-10595750D02*
X11357750Y-10445750D01*
X11207750Y-10295750D01*
X11057750Y-10445750D01*
X11207750Y-10595750D01*
X11207750Y-14405750D02*
X11357750Y-14255750D01*
X11207750Y-14105750D01*
X11057750Y-14255750D01*
X11207750Y-14405750D01*
X11684000Y-12500750D02*
X11834000Y-12350750D01*
X11684000Y-12200750D01*
X11534000Y-12350750D01*
X11684000Y-12500750D01*
X12239614Y-8944742D02*
X12389614Y-8794742D01*
X12239614Y-8644742D01*
X12089614Y-8794742D01*
X12239614Y-8944742D01*
X12715875Y-10849750D02*
X12865875Y-10699750D01*
X12715875Y-10549750D01*
X12565875Y-10699750D01*
X12715875Y-10849750D01*
X12715875Y-14659750D02*
X12865875Y-14509750D01*
X12715875Y-14359750D01*
X12565875Y-14509750D01*
X12715875Y-14659750D01*
X12874614Y-8690742D02*
X13024614Y-8540742D01*
X12874614Y-8390742D01*
X12724614Y-8540742D01*
X12874614Y-8690742D01*
X13350875Y-10595750D02*
X13500875Y-10445750D01*
X13350875Y-10295750D01*
X13200875Y-10445750D01*
X13350875Y-10595750D01*
X13350875Y-14405750D02*
X13500875Y-14255750D01*
X13350875Y-14105750D01*
X13200875Y-14255750D01*
X13350875Y-14405750D01*
X13668375Y-12754750D02*
X13818375Y-12604750D01*
X13668375Y-12454750D01*
X13518375Y-12604750D01*
X13668375Y-12754750D01*
X14144625Y-8944750D02*
X14294625Y-8794750D01*
X14144625Y-8644750D01*
X13994625Y-8794750D01*
X14144625Y-8944750D01*
X14303375Y-12500750D02*
X14453375Y-12350750D01*
X14303375Y-12200750D01*
X14153375Y-12350750D01*
X14303375Y-12500750D01*
X14620875Y-10849750D02*
X14770875Y-10699750D01*
X14620875Y-10549750D01*
X14470875Y-10699750D01*
X14620875Y-10849750D01*
X14779625Y-8690750D02*
X14929625Y-8540750D01*
X14779625Y-8390750D01*
X14629625Y-8540750D01*
X14779625Y-8690750D01*
X14859000Y-14659750D02*
X15009000Y-14509750D01*
X14859000Y-14359750D01*
X14709000Y-14509750D01*
X14859000Y-14659750D01*
X15255875Y-10595750D02*
X15405875Y-10445750D01*
X15255875Y-10295750D01*
X15105875Y-10445750D01*
X15255875Y-10595750D01*
X15494000Y-14405750D02*
X15644000Y-14255750D01*
X15494000Y-14105750D01*
X15344000Y-14255750D01*
X15494000Y-14405750D01*
X15573375Y-12754750D02*
X15723375Y-12604750D01*
X15573375Y-12454750D01*
X15423375Y-12604750D01*
X15573375Y-12754750D01*
X16049625Y-8944750D02*
X16199625Y-8794750D01*
X16049625Y-8644750D01*
X15899625Y-8794750D01*
X16049625Y-8944750D01*
X16208375Y-12500750D02*
X16358375Y-12350750D01*
X16208375Y-12200750D01*
X16058375Y-12350750D01*
X16208375Y-12500750D01*
X16525875Y-10849750D02*
X16675875Y-10699750D01*
X16525875Y-10549750D01*
X16375875Y-10699750D01*
X16525875Y-10849750D01*
X16684625Y-8690750D02*
X16834625Y-8540750D01*
X16684625Y-8390750D01*
X16534625Y-8540750D01*
X16684625Y-8690750D01*
X17160875Y-10595750D02*
X17310875Y-10445750D01*
X17160875Y-10295750D01*
X17010875Y-10445750D01*
X17160875Y-10595750D01*
X17478375Y-12754750D02*
X17628375Y-12604750D01*
X17478375Y-12454750D01*
X17328375Y-12604750D01*
X17478375Y-12754750D01*
X17954625Y-8944750D02*
X18104625Y-8794750D01*
X17954625Y-8644750D01*
X17804625Y-8794750D01*
X17954625Y-8944750D01*
X18113375Y-12500750D02*
X18263375Y-12350750D01*
X18113375Y-12200750D01*
X17963375Y-12350750D01*
X18113375Y-12500750D01*
X18430875Y-10849750D02*
X18580875Y-10699750D01*
X18430875Y-10549750D01*
X18280875Y-10699750D01*
X18430875Y-10849750D01*
X18589625Y-8690750D02*
X18739625Y-8540750D01*
X18589625Y-8390750D01*
X18439625Y-8540750D01*
X18589625Y-8690750D01*
X18669000Y-14659750D02*
X18819000Y-14509750D01*
X18669000Y-14359750D01*
X18519000Y-14509750D01*
X18669000Y-14659750D01*
X19065875Y-10595750D02*
X19215875Y-10445750D01*
X19065875Y-10295750D01*
X18915875Y-10445750D01*
X19065875Y-10595750D01*
X19304000Y-14405750D02*
X19454000Y-14255750D01*
X19304000Y-14105750D01*
X19154000Y-14255750D01*
X19304000Y-14405750D01*
X19383375Y-12754750D02*
X19533375Y-12604750D01*
X19383375Y-12454750D01*
X19233375Y-12604750D01*
X19383375Y-12754750D01*
X19859625Y-8944750D02*
X20009625Y-8794750D01*
X19859625Y-8644750D01*
X19709625Y-8794750D01*
X19859625Y-8944750D01*
X20018375Y-12500750D02*
X20168375Y-12350750D01*
X20018375Y-12200750D01*
X19868375Y-12350750D01*
X20018375Y-12500750D01*
X20335875Y-10849750D02*
X20485875Y-10699750D01*
X20335875Y-10549750D01*
X20185875Y-10699750D01*
X20335875Y-10849750D01*
X20494625Y-8690750D02*
X20644625Y-8540750D01*
X20494625Y-8390750D01*
X20344625Y-8540750D01*
X20494625Y-8690750D01*
X20939125Y-15421750D02*
X21089125Y-15271750D01*
X20939125Y-15121750D01*
X20789125Y-15271750D01*
X20939125Y-15421750D01*
X20970875Y-10595750D02*
X21120875Y-10445750D01*
X20970875Y-10295750D01*
X20820875Y-10445750D01*
X20970875Y-10595750D01*
X21288375Y-12754750D02*
X21438375Y-12604750D01*
X21288375Y-12454750D01*
X21138375Y-12604750D01*
X21288375Y-12754750D01*
X21574125Y-15167750D02*
X21724125Y-15017750D01*
X21574125Y-14867750D01*
X21424125Y-15017750D01*
X21574125Y-15167750D01*
X21764625Y-8944750D02*
X21914625Y-8794750D01*
X21764625Y-8644750D01*
X21614625Y-8794750D01*
X21764625Y-8944750D01*
X21923375Y-12500750D02*
X22073375Y-12350750D01*
X21923375Y-12200750D01*
X21773375Y-12350750D01*
X21923375Y-12500750D01*
X22002750Y-14659750D02*
X22152750Y-14509750D01*
X22002750Y-14359750D01*
X21852750Y-14509750D01*
X22002750Y-14659750D01*
X22240875Y-10849750D02*
X22390875Y-10699750D01*
X22240875Y-10549750D01*
X22090875Y-10699750D01*
X22240875Y-10849750D01*
X22399625Y-8690750D02*
X22549625Y-8540750D01*
X22399625Y-8390750D01*
X22249625Y-8540750D01*
X22399625Y-8690750D01*
X22637750Y-14405750D02*
X22787750Y-14255750D01*
X22637750Y-14105750D01*
X22487750Y-14255750D01*
X22637750Y-14405750D01*
X22875875Y-10595750D02*
X23025875Y-10445750D01*
X22875875Y-10295750D01*
X22725875Y-10445750D01*
X22875875Y-10595750D01*
X23193375Y-12754750D02*
X23343375Y-12604750D01*
X23193375Y-12454750D01*
X23043375Y-12604750D01*
X23193375Y-12754750D01*
X23431500Y-14659750D02*
X23581500Y-14509750D01*
X23431500Y-14359750D01*
X23281500Y-14509750D01*
X23431500Y-14659750D01*
X23669625Y-8944750D02*
X23819625Y-8794750D01*
X23669625Y-8644750D01*
X23519625Y-8794750D01*
X23669625Y-8944750D01*
X23828375Y-12500750D02*
X23978375Y-12350750D01*
X23828375Y-12200750D01*
X23678375Y-12350750D01*
X23828375Y-12500750D01*
X24066500Y-14405750D02*
X24216500Y-14255750D01*
X24066500Y-14105750D01*
X23916500Y-14255750D01*
X24066500Y-14405750D01*
X24145875Y-10849750D02*
X24295875Y-10699750D01*
X24145875Y-10549750D01*
X23995875Y-10699750D01*
X24145875Y-10849750D01*
X24304625Y-8690750D02*
X24454625Y-8540750D01*
X24304625Y-8390750D01*
X24154625Y-8540750D01*
X24304625Y-8690750D01*
X24780875Y-10595750D02*
X24930875Y-10445750D01*
X24780875Y-10295750D01*
X24630875Y-10445750D01*
X24780875Y-10595750D01*
X25098375Y-12754750D02*
X25248375Y-12604750D01*
X25098375Y-12454750D01*
X24948375Y-12604750D01*
X25098375Y-12754750D01*
X25574625Y-8944750D02*
X25724625Y-8794750D01*
X25574625Y-8644750D01*
X25424625Y-8794750D01*
X25574625Y-8944750D01*
X25733375Y-12500750D02*
X25883375Y-12350750D01*
X25733375Y-12200750D01*
X25583375Y-12350750D01*
X25733375Y-12500750D01*
X26050875Y-10849750D02*
X26200875Y-10699750D01*
X26050875Y-10549750D01*
X25900875Y-10699750D01*
X26050875Y-10849750D01*
X26209625Y-8690750D02*
X26359625Y-8540750D01*
X26209625Y-8390750D01*
X26059625Y-8540750D01*
X26209625Y-8690750D01*
X26685875Y-10595750D02*
X26835875Y-10445750D01*
X26685875Y-10295750D01*
X26535875Y-10445750D01*
X26685875Y-10595750D01*
X26765250Y-14659750D02*
X26915250Y-14509750D01*
X26765250Y-14359750D01*
X26615250Y-14509750D01*
X26765250Y-14659750D01*
X27003375Y-12754750D02*
X27153375Y-12604750D01*
X27003375Y-12454750D01*
X26853375Y-12604750D01*
X27003375Y-12754750D01*
X27400250Y-14405750D02*
X27550250Y-14255750D01*
X27400250Y-14105750D01*
X27250250Y-14255750D01*
X27400250Y-14405750D01*
X27479625Y-8944750D02*
X27629625Y-8794750D01*
X27479625Y-8644750D01*
X27329625Y-8794750D01*
X27479625Y-8944750D01*
X27638375Y-12500750D02*
X27788375Y-12350750D01*
X27638375Y-12200750D01*
X27488375Y-12350750D01*
X27638375Y-12500750D01*
X27955875Y-10849750D02*
X28105875Y-10699750D01*
X27955875Y-10549750D01*
X27805875Y-10699750D01*
X27955875Y-10849750D01*
X28114625Y-8690750D02*
X28264625Y-8540750D01*
X28114625Y-8390750D01*
X27964625Y-8540750D01*
X28114625Y-8690750D01*
X28590875Y-10595750D02*
X28740875Y-10445750D01*
X28590875Y-10295750D01*
X28440875Y-10445750D01*
X28590875Y-10595750D01*
X28908375Y-12754750D02*
X29058375Y-12604750D01*
X28908375Y-12454750D01*
X28758375Y-12604750D01*
X28908375Y-12754750D01*
X28908375Y-14659750D02*
X29058375Y-14509750D01*
X28908375Y-14359750D01*
X28758375Y-14509750D01*
X28908375Y-14659750D01*
X29384625Y-8944750D02*
X29534625Y-8794750D01*
X29384625Y-8644750D01*
X29234625Y-8794750D01*
X29384625Y-8944750D01*
X29543375Y-12500750D02*
X29693375Y-12350750D01*
X29543375Y-12200750D01*
X29393375Y-12350750D01*
X29543375Y-12500750D01*
X29543375Y-14405750D02*
X29693375Y-14255750D01*
X29543375Y-14105750D01*
X29393375Y-14255750D01*
X29543375Y-14405750D01*
X29860875Y-10849750D02*
X30010875Y-10699750D01*
X29860875Y-10549750D01*
X29710875Y-10699750D01*
X29860875Y-10849750D01*
X30019625Y-8690750D02*
X30169625Y-8540750D01*
X30019625Y-8390750D01*
X29869625Y-8540750D01*
X30019625Y-8690750D01*
X30495875Y-10595750D02*
X30645875Y-10445750D01*
X30495875Y-10295750D01*
X30345875Y-10445750D01*
X30495875Y-10595750D01*
X30813375Y-12754750D02*
X30963375Y-12604750D01*
X30813375Y-12454750D01*
X30663375Y-12604750D01*
X30813375Y-12754750D01*
X31051500Y-14659750D02*
X31201500Y-14509750D01*
X31051500Y-14359750D01*
X30901500Y-14509750D01*
X31051500Y-14659750D01*
X31289625Y-8944750D02*
X31439625Y-8794750D01*
X31289625Y-8644750D01*
X31139625Y-8794750D01*
X31289625Y-8944750D01*
X31448375Y-12500750D02*
X31598375Y-12350750D01*
X31448375Y-12200750D01*
X31298375Y-12350750D01*
X31448375Y-12500750D01*
X31686500Y-14405750D02*
X31836500Y-14255750D01*
X31686500Y-14105750D01*
X31536500Y-14255750D01*
X31686500Y-14405750D01*
X31765875Y-10849750D02*
X31915875Y-10699750D01*
X31765875Y-10549750D01*
X31615875Y-10699750D01*
X31765875Y-10849750D01*
X31924625Y-8690750D02*
X32074625Y-8540750D01*
X31924625Y-8390750D01*
X31774625Y-8540750D01*
X31924625Y-8690750D01*
X32400875Y-10595750D02*
X32550875Y-10445750D01*
X32400875Y-10295750D01*
X32250875Y-10445750D01*
X32400875Y-10595750D01*
X32956500Y-12754750D02*
X33106500Y-12604750D01*
X32956500Y-12454750D01*
X32806500Y-12604750D01*
X32956500Y-12754750D01*
X33194625Y-8944750D02*
X33344625Y-8794750D01*
X33194625Y-8644750D01*
X33044625Y-8794750D01*
X33194625Y-8944750D01*
X33591500Y-12500750D02*
X33741500Y-12350750D01*
X33591500Y-12200750D01*
X33441500Y-12350750D01*
X33591500Y-12500750D01*
X33670875Y-15136000D02*
X33820875Y-14986000D01*
X33670875Y-14836000D01*
X33520875Y-14986000D01*
X33670875Y-15136000D01*
X33829625Y-8690750D02*
X33979625Y-8540750D01*
X33829625Y-8390750D01*
X33679625Y-8540750D01*
X33829625Y-8690750D01*
X34036000Y-9706750D02*
X34186000Y-9556750D01*
X34036000Y-9406750D01*
X33886000Y-9556750D01*
X34036000Y-9706750D01*
X34147125Y-10849750D02*
X34297125Y-10699750D01*
X34147125Y-10549750D01*
X33997125Y-10699750D01*
X34147125Y-10849750D01*
X34305875Y-14882000D02*
X34455875Y-14732000D01*
X34305875Y-14582000D01*
X34155875Y-14732000D01*
X34305875Y-14882000D01*
X34671000Y-9452750D02*
X34821000Y-9302750D01*
X34671000Y-9152750D01*
X34521000Y-9302750D01*
X34671000Y-9452750D01*
X34782125Y-10595750D02*
X34932125Y-10445750D01*
X34782125Y-10295750D01*
X34632125Y-10445750D01*
X34782125Y-10595750D01*
X35575875Y-13231000D02*
X35725875Y-13081000D01*
X35575875Y-12931000D01*
X35425875Y-13081000D01*
X35575875Y-13231000D01*
X35575875Y-15136000D02*
X35725875Y-14986000D01*
X35575875Y-14836000D01*
X35425875Y-14986000D01*
X35575875Y-15136000D01*
X36210875Y-12977000D02*
X36360875Y-12827000D01*
X36210875Y-12677000D01*
X36060875Y-12827000D01*
X36210875Y-12977000D01*
X36210875Y-14882000D02*
X36360875Y-14732000D01*
X36210875Y-14582000D01*
X36060875Y-14732000D01*
X36210875Y-14882000D01*
X37480875Y-15136000D02*
X37630875Y-14986000D01*
X37480875Y-14836000D01*
X37330875Y-14986000D01*
X37480875Y-15136000D01*
X37957125Y-8944750D02*
X38107125Y-8794750D01*
X37957125Y-8644750D01*
X37807125Y-8794750D01*
X37957125Y-8944750D01*
X37957125Y-10849750D02*
X38107125Y-10699750D01*
X37957125Y-10549750D01*
X37807125Y-10699750D01*
X37957125Y-10849750D01*
X37957125Y-12754750D02*
X38107125Y-12604750D01*
X37957125Y-12454750D01*
X37807125Y-12604750D01*
X37957125Y-12754750D01*
X38115875Y-14882000D02*
X38265875Y-14732000D01*
X38115875Y-14582000D01*
X37965875Y-14732000D01*
X38115875Y-14882000D01*
X38592125Y-8690750D02*
X38742125Y-8540750D01*
X38592125Y-8390750D01*
X38442125Y-8540750D01*
X38592125Y-8690750D01*
X38592125Y-10595750D02*
X38742125Y-10445750D01*
X38592125Y-10295750D01*
X38442125Y-10445750D01*
X38592125Y-10595750D01*
X38592125Y-12500750D02*
X38742125Y-12350750D01*
X38592125Y-12200750D01*
X38442125Y-12350750D01*
X38592125Y-12500750D01*
X39862125Y-8944750D02*
X40012125Y-8794750D01*
X39862125Y-8644750D01*
X39712125Y-8794750D01*
X39862125Y-8944750D01*
X39862125Y-10849750D02*
X40012125Y-10699750D01*
X39862125Y-10549750D01*
X39712125Y-10699750D01*
X39862125Y-10849750D01*
X39862125Y-12754750D02*
X40012125Y-12604750D01*
X39862125Y-12454750D01*
X39712125Y-12604750D01*
X39862125Y-12754750D01*
X39862125Y-14659750D02*
X40012125Y-14509750D01*
X39862125Y-14359750D01*
X39712125Y-14509750D01*
X39862125Y-14659750D01*
X40497125Y-8690750D02*
X40647125Y-8540750D01*
X40497125Y-8390750D01*
X40347125Y-8540750D01*
X40497125Y-8690750D01*
X40497125Y-10595750D02*
X40647125Y-10445750D01*
X40497125Y-10295750D01*
X40347125Y-10445750D01*
X40497125Y-10595750D01*
X40497125Y-12500750D02*
X40647125Y-12350750D01*
X40497125Y-12200750D01*
X40347125Y-12350750D01*
X40497125Y-12500750D01*
X40497125Y-14405750D02*
X40647125Y-14255750D01*
X40497125Y-14105750D01*
X40347125Y-14255750D01*
X40497125Y-14405750D01*
X40941625Y-15421750D02*
X41091625Y-15271750D01*
X40941625Y-15121750D01*
X40791625Y-15271750D01*
X40941625Y-15421750D01*
X41576625Y-15167750D02*
X41726625Y-15017750D01*
X41576625Y-14867750D01*
X41426625Y-15017750D01*
X41576625Y-15167750D01*
X41767125Y-8944750D02*
X41917125Y-8794750D01*
X41767125Y-8644750D01*
X41617125Y-8794750D01*
X41767125Y-8944750D01*
X41767125Y-10849750D02*
X41917125Y-10699750D01*
X41767125Y-10549750D01*
X41617125Y-10699750D01*
X41767125Y-10849750D01*
X41767125Y-12754750D02*
X41917125Y-12604750D01*
X41767125Y-12454750D01*
X41617125Y-12604750D01*
X41767125Y-12754750D01*
X41767125Y-14659750D02*
X41917125Y-14509750D01*
X41767125Y-14359750D01*
X41617125Y-14509750D01*
X41767125Y-14659750D01*
X42402125Y-8690750D02*
X42552125Y-8540750D01*
X42402125Y-8390750D01*
X42252125Y-8540750D01*
X42402125Y-8690750D01*
X42402125Y-10595750D02*
X42552125Y-10445750D01*
X42402125Y-10295750D01*
X42252125Y-10445750D01*
X42402125Y-10595750D01*
X42402125Y-12500750D02*
X42552125Y-12350750D01*
X42402125Y-12200750D01*
X42252125Y-12350750D01*
X42402125Y-12500750D01*
X42402125Y-14405750D02*
X42552125Y-14255750D01*
X42402125Y-14105750D01*
X42252125Y-14255750D01*
X42402125Y-14405750D01*
X43672125Y-8944750D02*
X43822125Y-8794750D01*
X43672125Y-8644750D01*
X43522125Y-8794750D01*
X43672125Y-8944750D01*
X43672125Y-10849750D02*
X43822125Y-10699750D01*
X43672125Y-10549750D01*
X43522125Y-10699750D01*
X43672125Y-10849750D01*
X43672125Y-12754750D02*
X43822125Y-12604750D01*
X43672125Y-12454750D01*
X43522125Y-12604750D01*
X43672125Y-12754750D01*
X43672125Y-14659750D02*
X43822125Y-14509750D01*
X43672125Y-14359750D01*
X43522125Y-14509750D01*
X43672125Y-14659750D01*
X44307125Y-8690750D02*
X44457125Y-8540750D01*
X44307125Y-8390750D01*
X44157125Y-8540750D01*
X44307125Y-8690750D01*
X44307125Y-10595750D02*
X44457125Y-10445750D01*
X44307125Y-10295750D01*
X44157125Y-10445750D01*
X44307125Y-10595750D01*
X44307125Y-12500750D02*
X44457125Y-12350750D01*
X44307125Y-12200750D01*
X44157125Y-12350750D01*
X44307125Y-12500750D01*
X44307125Y-14405750D02*
X44457125Y-14255750D01*
X44307125Y-14105750D01*
X44157125Y-14255750D01*
X44307125Y-14405750D01*
X45450125Y-12754750D02*
X45600125Y-12604750D01*
X45450125Y-12454750D01*
X45300125Y-12604750D01*
X45450125Y-12754750D01*
X45450125Y-14659750D02*
X45600125Y-14509750D01*
X45450125Y-14359750D01*
X45300125Y-14509750D01*
X45450125Y-14659750D01*
X45577125Y-10849750D02*
X45727125Y-10699750D01*
X45577125Y-10549750D01*
X45427125Y-10699750D01*
X45577125Y-10849750D01*
X45704125Y-13389750D02*
X45854125Y-13239750D01*
X45704125Y-13089750D01*
X45554125Y-13239750D01*
X45704125Y-13389750D01*
X45704125Y-15294750D02*
X45854125Y-15144750D01*
X45704125Y-14994750D01*
X45554125Y-15144750D01*
X45704125Y-15294750D01*
X46212125Y-10595750D02*
X46362125Y-10445750D01*
X46212125Y-10295750D01*
X46062125Y-10445750D01*
X46212125Y-10595750D01*
X46212125Y-13580250D02*
X46362125Y-13430250D01*
X46212125Y-13280250D01*
X46062125Y-13430250D01*
X46212125Y-13580250D01*
X46466125Y-14215250D02*
X46616125Y-14065250D01*
X46466125Y-13915250D01*
X46316125Y-14065250D01*
X46466125Y-14215250D01*
D14*
X17230725Y-15309850D02*
X17535525Y-15614650D01*
X17535525Y-15309850D02*
X17230725Y-15614650D01*
X17535525Y-15462250D02*
G75*
G02*
X17230725Y-15462250I-152400J0D01*
G01*
X17230725Y-15462250D02*
G75*
G02*
X17535525Y-15462250I152400J0D01*
G01*
X17706975Y-15309850D02*
X18011775Y-15614650D01*
X18011775Y-15309850D02*
X17706975Y-15614650D01*
X18011775Y-15462250D02*
G75*
G02*
X17706975Y-15462250I-152400J0D01*
G01*
X17706975Y-15462250D02*
G75*
G02*
X18011775Y-15462250I152400J0D01*
G01*
X20088225Y-15309850D02*
X20393025Y-15614650D01*
X20393025Y-15309850D02*
X20088225Y-15614650D01*
X20393025Y-15462250D02*
G75*
G02*
X20088225Y-15462250I-152400J0D01*
G01*
X20088225Y-15462250D02*
G75*
G02*
X20393025Y-15462250I152400J0D01*
G01*
X22469475Y-15309850D02*
X22774275Y-15614650D01*
X22774275Y-15309850D02*
X22469475Y-15614650D01*
X22774275Y-15462250D02*
G75*
G02*
X22469475Y-15462250I-152400J0D01*
G01*
X22469475Y-15462250D02*
G75*
G02*
X22774275Y-15462250I152400J0D01*
G01*
X24850725Y-15309850D02*
X25155525Y-15614650D01*
X25155525Y-15309850D02*
X24850725Y-15614650D01*
X25155525Y-15462250D02*
G75*
G02*
X24850725Y-15462250I-152400J0D01*
G01*
X24850725Y-15462250D02*
G75*
G02*
X25155525Y-15462250I152400J0D01*
G01*
X27231975Y-15309850D02*
X27536775Y-15614650D01*
X27536775Y-15309850D02*
X27231975Y-15614650D01*
X27536775Y-15462250D02*
G75*
G02*
X27231975Y-15462250I-152400J0D01*
G01*
X27231975Y-15462250D02*
G75*
G02*
X27536775Y-15462250I152400J0D01*
G01*
X39852600Y-15309850D02*
X40157400Y-15614650D01*
X40157400Y-15309850D02*
X39852600Y-15614650D01*
X40157400Y-15462250D02*
G75*
G02*
X39852600Y-15462250I-152400J0D01*
G01*
X39852600Y-15462250D02*
G75*
G02*
X40157400Y-15462250I152400J0D01*
G01*
X42233850Y-15309850D02*
X42538650Y-15614650D01*
X42538650Y-15309850D02*
X42233850Y-15614650D01*
X42538650Y-15462250D02*
G75*
G02*
X42233850Y-15462250I-152400J0D01*
G01*
X42233850Y-15462250D02*
G75*
G02*
X42538650Y-15462250I152400J0D01*
G01*
X46504225Y-12468225D02*
X46809025Y-12773025D01*
X46809025Y-12468225D02*
X46504225Y-12773025D01*
X46809025Y-12620625D02*
G75*
G02*
X46504225Y-12620625I-152400J0D01*
G01*
X46504225Y-12620625D02*
G75*
G02*
X46809025Y-12620625I152400J0D01*
G01*
X46504225Y-14849475D02*
X46809025Y-15154275D01*
X46809025Y-14849475D02*
X46504225Y-15154275D01*
X46809025Y-15001875D02*
G75*
G02*
X46504225Y-15001875I-152400J0D01*
G01*
X46504225Y-15001875D02*
G75*
G02*
X46809025Y-15001875I152400J0D01*
G01*
D11*
X10097896Y-16458849D02*
X10097896Y-16258849D01*
X10097896Y-16258849D02*
X10145515Y-16258849D01*
X10145515Y-16258849D02*
X10174087Y-16268373D01*
X10174087Y-16268373D02*
X10193134Y-16287420D01*
X10193134Y-16287420D02*
X10202658Y-16306468D01*
X10202658Y-16306468D02*
X10212182Y-16344563D01*
X10212182Y-16344563D02*
X10212182Y-16373134D01*
X10212182Y-16373134D02*
X10202658Y-16411230D01*
X10202658Y-16411230D02*
X10193134Y-16430277D01*
X10193134Y-16430277D02*
X10174087Y-16449325D01*
X10174087Y-16449325D02*
X10145515Y-16458849D01*
X10145515Y-16458849D02*
X10097896Y-16458849D01*
X10297896Y-16458849D02*
X10297896Y-16325515D01*
X10297896Y-16363611D02*
X10307420Y-16344563D01*
X10307420Y-16344563D02*
X10316944Y-16335039D01*
X10316944Y-16335039D02*
X10335992Y-16325515D01*
X10335992Y-16325515D02*
X10355039Y-16325515D01*
X10421706Y-16458849D02*
X10421706Y-16325515D01*
X10421706Y-16258849D02*
X10412182Y-16268373D01*
X10412182Y-16268373D02*
X10421706Y-16277896D01*
X10421706Y-16277896D02*
X10431230Y-16268373D01*
X10431230Y-16268373D02*
X10421706Y-16258849D01*
X10421706Y-16258849D02*
X10421706Y-16277896D01*
X10545515Y-16458849D02*
X10526468Y-16449325D01*
X10526468Y-16449325D02*
X10516944Y-16430277D01*
X10516944Y-16430277D02*
X10516944Y-16258849D01*
X10650277Y-16458849D02*
X10631230Y-16449325D01*
X10631230Y-16449325D02*
X10621706Y-16430277D01*
X10621706Y-16430277D02*
X10621706Y-16258849D01*
X10878849Y-16458849D02*
X10878849Y-16258849D01*
X10878849Y-16258849D02*
X10945515Y-16401706D01*
X10945515Y-16401706D02*
X11012182Y-16258849D01*
X11012182Y-16258849D02*
X11012182Y-16458849D01*
X11193134Y-16458849D02*
X11193134Y-16354087D01*
X11193134Y-16354087D02*
X11183611Y-16335039D01*
X11183611Y-16335039D02*
X11164563Y-16325515D01*
X11164563Y-16325515D02*
X11126468Y-16325515D01*
X11126468Y-16325515D02*
X11107420Y-16335039D01*
X11193134Y-16449325D02*
X11174087Y-16458849D01*
X11174087Y-16458849D02*
X11126468Y-16458849D01*
X11126468Y-16458849D02*
X11107420Y-16449325D01*
X11107420Y-16449325D02*
X11097896Y-16430277D01*
X11097896Y-16430277D02*
X11097896Y-16411230D01*
X11097896Y-16411230D02*
X11107420Y-16392182D01*
X11107420Y-16392182D02*
X11126468Y-16382658D01*
X11126468Y-16382658D02*
X11174087Y-16382658D01*
X11174087Y-16382658D02*
X11193134Y-16373134D01*
X11288372Y-16325515D02*
X11288372Y-16525515D01*
X11288372Y-16335039D02*
X11307420Y-16325515D01*
X11307420Y-16325515D02*
X11345515Y-16325515D01*
X11345515Y-16325515D02*
X11364563Y-16335039D01*
X11364563Y-16335039D02*
X11374087Y-16344563D01*
X11374087Y-16344563D02*
X11383611Y-16363611D01*
X11383611Y-16363611D02*
X11383611Y-16420753D01*
X11383611Y-16420753D02*
X11374087Y-16439801D01*
X11374087Y-16439801D02*
X11364563Y-16449325D01*
X11364563Y-16449325D02*
X11345515Y-16458849D01*
X11345515Y-16458849D02*
X11307420Y-16458849D01*
X11307420Y-16458849D02*
X11288372Y-16449325D01*
X11469325Y-16439801D02*
X11478849Y-16449325D01*
X11478849Y-16449325D02*
X11469325Y-16458849D01*
X11469325Y-16458849D02*
X11459801Y-16449325D01*
X11459801Y-16449325D02*
X11469325Y-16439801D01*
X11469325Y-16439801D02*
X11469325Y-16458849D01*
X11469325Y-16335039D02*
X11478849Y-16344563D01*
X11478849Y-16344563D02*
X11469325Y-16354087D01*
X11469325Y-16354087D02*
X11459801Y-16344563D01*
X11459801Y-16344563D02*
X11469325Y-16335039D01*
X11469325Y-16335039D02*
X11469325Y-16354087D01*
D10*
X9807120Y-16772365D02*
X9837120Y-16802365D01*
X9837120Y-16772365D02*
X9807120Y-16802365D01*
D11*
X10135992Y-16678849D02*
X10155039Y-16678849D01*
X10155039Y-16678849D02*
X10174087Y-16688373D01*
X10174087Y-16688373D02*
X10183611Y-16697896D01*
X10183611Y-16697896D02*
X10193134Y-16716944D01*
X10193134Y-16716944D02*
X10202658Y-16755039D01*
X10202658Y-16755039D02*
X10202658Y-16802658D01*
X10202658Y-16802658D02*
X10193134Y-16840754D01*
X10193134Y-16840754D02*
X10183611Y-16859801D01*
X10183611Y-16859801D02*
X10174087Y-16869325D01*
X10174087Y-16869325D02*
X10155039Y-16878849D01*
X10155039Y-16878849D02*
X10135992Y-16878849D01*
X10135992Y-16878849D02*
X10116944Y-16869325D01*
X10116944Y-16869325D02*
X10107420Y-16859801D01*
X10107420Y-16859801D02*
X10097896Y-16840754D01*
X10097896Y-16840754D02*
X10088373Y-16802658D01*
X10088373Y-16802658D02*
X10088373Y-16755039D01*
X10088373Y-16755039D02*
X10097896Y-16716944D01*
X10097896Y-16716944D02*
X10107420Y-16697896D01*
X10107420Y-16697896D02*
X10116944Y-16688373D01*
X10116944Y-16688373D02*
X10135992Y-16678849D01*
X10288373Y-16859801D02*
X10297896Y-16869325D01*
X10297896Y-16869325D02*
X10288373Y-16878849D01*
X10288373Y-16878849D02*
X10278849Y-16869325D01*
X10278849Y-16869325D02*
X10288373Y-16859801D01*
X10288373Y-16859801D02*
X10288373Y-16878849D01*
X10364563Y-16678849D02*
X10488373Y-16678849D01*
X10488373Y-16678849D02*
X10421706Y-16755039D01*
X10421706Y-16755039D02*
X10450277Y-16755039D01*
X10450277Y-16755039D02*
X10469325Y-16764563D01*
X10469325Y-16764563D02*
X10478849Y-16774087D01*
X10478849Y-16774087D02*
X10488373Y-16793135D01*
X10488373Y-16793135D02*
X10488373Y-16840754D01*
X10488373Y-16840754D02*
X10478849Y-16859801D01*
X10478849Y-16859801D02*
X10469325Y-16869325D01*
X10469325Y-16869325D02*
X10450277Y-16878849D01*
X10450277Y-16878849D02*
X10393134Y-16878849D01*
X10393134Y-16878849D02*
X10374087Y-16869325D01*
X10374087Y-16869325D02*
X10364563Y-16859801D01*
X10612182Y-16678849D02*
X10631230Y-16678849D01*
X10631230Y-16678849D02*
X10650277Y-16688373D01*
X10650277Y-16688373D02*
X10659801Y-16697896D01*
X10659801Y-16697896D02*
X10669325Y-16716944D01*
X10669325Y-16716944D02*
X10678849Y-16755039D01*
X10678849Y-16755039D02*
X10678849Y-16802658D01*
X10678849Y-16802658D02*
X10669325Y-16840754D01*
X10669325Y-16840754D02*
X10659801Y-16859801D01*
X10659801Y-16859801D02*
X10650277Y-16869325D01*
X10650277Y-16869325D02*
X10631230Y-16878849D01*
X10631230Y-16878849D02*
X10612182Y-16878849D01*
X10612182Y-16878849D02*
X10593134Y-16869325D01*
X10593134Y-16869325D02*
X10583611Y-16859801D01*
X10583611Y-16859801D02*
X10574087Y-16840754D01*
X10574087Y-16840754D02*
X10564563Y-16802658D01*
X10564563Y-16802658D02*
X10564563Y-16755039D01*
X10564563Y-16755039D02*
X10574087Y-16716944D01*
X10574087Y-16716944D02*
X10583611Y-16697896D01*
X10583611Y-16697896D02*
X10593134Y-16688373D01*
X10593134Y-16688373D02*
X10612182Y-16678849D01*
X10802658Y-16678849D02*
X10821706Y-16678849D01*
X10821706Y-16678849D02*
X10840754Y-16688373D01*
X10840754Y-16688373D02*
X10850277Y-16697896D01*
X10850277Y-16697896D02*
X10859801Y-16716944D01*
X10859801Y-16716944D02*
X10869325Y-16755039D01*
X10869325Y-16755039D02*
X10869325Y-16802658D01*
X10869325Y-16802658D02*
X10859801Y-16840754D01*
X10859801Y-16840754D02*
X10850277Y-16859801D01*
X10850277Y-16859801D02*
X10840754Y-16869325D01*
X10840754Y-16869325D02*
X10821706Y-16878849D01*
X10821706Y-16878849D02*
X10802658Y-16878849D01*
X10802658Y-16878849D02*
X10783611Y-16869325D01*
X10783611Y-16869325D02*
X10774087Y-16859801D01*
X10774087Y-16859801D02*
X10764563Y-16840754D01*
X10764563Y-16840754D02*
X10755039Y-16802658D01*
X10755039Y-16802658D02*
X10755039Y-16755039D01*
X10755039Y-16755039D02*
X10764563Y-16716944D01*
X10764563Y-16716944D02*
X10774087Y-16697896D01*
X10774087Y-16697896D02*
X10783611Y-16688373D01*
X10783611Y-16688373D02*
X10802658Y-16678849D01*
X10955039Y-16878849D02*
X10955039Y-16745515D01*
X10955039Y-16764563D02*
X10964563Y-16755039D01*
X10964563Y-16755039D02*
X10983611Y-16745515D01*
X10983611Y-16745515D02*
X11012182Y-16745515D01*
X11012182Y-16745515D02*
X11031230Y-16755039D01*
X11031230Y-16755039D02*
X11040754Y-16774087D01*
X11040754Y-16774087D02*
X11040754Y-16878849D01*
X11040754Y-16774087D02*
X11050277Y-16755039D01*
X11050277Y-16755039D02*
X11069325Y-16745515D01*
X11069325Y-16745515D02*
X11097896Y-16745515D01*
X11097896Y-16745515D02*
X11116944Y-16755039D01*
X11116944Y-16755039D02*
X11126468Y-16774087D01*
X11126468Y-16774087D02*
X11126468Y-16878849D01*
X11221706Y-16878849D02*
X11221706Y-16745515D01*
X11221706Y-16764563D02*
X11231230Y-16755039D01*
X11231230Y-16755039D02*
X11250277Y-16745515D01*
X11250277Y-16745515D02*
X11278849Y-16745515D01*
X11278849Y-16745515D02*
X11297896Y-16755039D01*
X11297896Y-16755039D02*
X11307420Y-16774087D01*
X11307420Y-16774087D02*
X11307420Y-16878849D01*
X11307420Y-16774087D02*
X11316944Y-16755039D01*
X11316944Y-16755039D02*
X11335992Y-16745515D01*
X11335992Y-16745515D02*
X11364563Y-16745515D01*
X11364563Y-16745515D02*
X11383611Y-16755039D01*
X11383611Y-16755039D02*
X11393134Y-16774087D01*
X11393134Y-16774087D02*
X11393134Y-16878849D01*
X11783611Y-16669325D02*
X11612182Y-16926468D01*
X12040754Y-16678849D02*
X12059801Y-16678849D01*
X12059801Y-16678849D02*
X12078849Y-16688373D01*
X12078849Y-16688373D02*
X12088373Y-16697896D01*
X12088373Y-16697896D02*
X12097896Y-16716944D01*
X12097896Y-16716944D02*
X12107420Y-16755039D01*
X12107420Y-16755039D02*
X12107420Y-16802658D01*
X12107420Y-16802658D02*
X12097896Y-16840754D01*
X12097896Y-16840754D02*
X12088373Y-16859801D01*
X12088373Y-16859801D02*
X12078849Y-16869325D01*
X12078849Y-16869325D02*
X12059801Y-16878849D01*
X12059801Y-16878849D02*
X12040754Y-16878849D01*
X12040754Y-16878849D02*
X12021706Y-16869325D01*
X12021706Y-16869325D02*
X12012182Y-16859801D01*
X12012182Y-16859801D02*
X12002658Y-16840754D01*
X12002658Y-16840754D02*
X11993135Y-16802658D01*
X11993135Y-16802658D02*
X11993135Y-16755039D01*
X11993135Y-16755039D02*
X12002658Y-16716944D01*
X12002658Y-16716944D02*
X12012182Y-16697896D01*
X12012182Y-16697896D02*
X12021706Y-16688373D01*
X12021706Y-16688373D02*
X12040754Y-16678849D01*
X12193135Y-16859801D02*
X12202658Y-16869325D01*
X12202658Y-16869325D02*
X12193135Y-16878849D01*
X12193135Y-16878849D02*
X12183611Y-16869325D01*
X12183611Y-16869325D02*
X12193135Y-16859801D01*
X12193135Y-16859801D02*
X12193135Y-16878849D01*
X12326468Y-16678849D02*
X12345516Y-16678849D01*
X12345516Y-16678849D02*
X12364563Y-16688373D01*
X12364563Y-16688373D02*
X12374087Y-16697896D01*
X12374087Y-16697896D02*
X12383611Y-16716944D01*
X12383611Y-16716944D02*
X12393135Y-16755039D01*
X12393135Y-16755039D02*
X12393135Y-16802658D01*
X12393135Y-16802658D02*
X12383611Y-16840754D01*
X12383611Y-16840754D02*
X12374087Y-16859801D01*
X12374087Y-16859801D02*
X12364563Y-16869325D01*
X12364563Y-16869325D02*
X12345516Y-16878849D01*
X12345516Y-16878849D02*
X12326468Y-16878849D01*
X12326468Y-16878849D02*
X12307420Y-16869325D01*
X12307420Y-16869325D02*
X12297896Y-16859801D01*
X12297896Y-16859801D02*
X12288373Y-16840754D01*
X12288373Y-16840754D02*
X12278849Y-16802658D01*
X12278849Y-16802658D02*
X12278849Y-16755039D01*
X12278849Y-16755039D02*
X12288373Y-16716944D01*
X12288373Y-16716944D02*
X12297896Y-16697896D01*
X12297896Y-16697896D02*
X12307420Y-16688373D01*
X12307420Y-16688373D02*
X12326468Y-16678849D01*
X12583611Y-16878849D02*
X12469325Y-16878849D01*
X12526468Y-16878849D02*
X12526468Y-16678849D01*
X12526468Y-16678849D02*
X12507420Y-16707420D01*
X12507420Y-16707420D02*
X12488373Y-16726468D01*
X12488373Y-16726468D02*
X12469325Y-16735992D01*
X12774087Y-16878849D02*
X12659801Y-16878849D01*
X12716944Y-16878849D02*
X12716944Y-16678849D01*
X12716944Y-16678849D02*
X12697896Y-16707420D01*
X12697896Y-16707420D02*
X12678849Y-16726468D01*
X12678849Y-16726468D02*
X12659801Y-16735992D01*
X12888373Y-16764563D02*
X12869325Y-16755039D01*
X12869325Y-16755039D02*
X12859801Y-16745515D01*
X12859801Y-16745515D02*
X12850277Y-16726468D01*
X12850277Y-16726468D02*
X12850277Y-16716944D01*
X12850277Y-16716944D02*
X12859801Y-16697896D01*
X12859801Y-16697896D02*
X12869325Y-16688373D01*
X12869325Y-16688373D02*
X12888373Y-16678849D01*
X12888373Y-16678849D02*
X12926468Y-16678849D01*
X12926468Y-16678849D02*
X12945516Y-16688373D01*
X12945516Y-16688373D02*
X12955039Y-16697896D01*
X12955039Y-16697896D02*
X12964563Y-16716944D01*
X12964563Y-16716944D02*
X12964563Y-16726468D01*
X12964563Y-16726468D02*
X12955039Y-16745515D01*
X12955039Y-16745515D02*
X12945516Y-16755039D01*
X12945516Y-16755039D02*
X12926468Y-16764563D01*
X12926468Y-16764563D02*
X12888373Y-16764563D01*
X12888373Y-16764563D02*
X12869325Y-16774087D01*
X12869325Y-16774087D02*
X12859801Y-16783611D01*
X12859801Y-16783611D02*
X12850277Y-16802658D01*
X12850277Y-16802658D02*
X12850277Y-16840754D01*
X12850277Y-16840754D02*
X12859801Y-16859801D01*
X12859801Y-16859801D02*
X12869325Y-16869325D01*
X12869325Y-16869325D02*
X12888373Y-16878849D01*
X12888373Y-16878849D02*
X12926468Y-16878849D01*
X12926468Y-16878849D02*
X12945516Y-16869325D01*
X12945516Y-16869325D02*
X12955039Y-16859801D01*
X12955039Y-16859801D02*
X12964563Y-16840754D01*
X12964563Y-16840754D02*
X12964563Y-16802658D01*
X12964563Y-16802658D02*
X12955039Y-16783611D01*
X12955039Y-16783611D02*
X12945516Y-16774087D01*
X12945516Y-16774087D02*
X12926468Y-16764563D01*
X13040754Y-16678849D02*
X13040754Y-16716944D01*
X13116944Y-16678849D02*
X13116944Y-16716944D01*
X13412182Y-16955039D02*
X13402658Y-16945515D01*
X13402658Y-16945515D02*
X13383611Y-16916944D01*
X13383611Y-16916944D02*
X13374087Y-16897896D01*
X13374087Y-16897896D02*
X13364563Y-16869325D01*
X13364563Y-16869325D02*
X13355039Y-16821706D01*
X13355039Y-16821706D02*
X13355039Y-16783611D01*
X13355039Y-16783611D02*
X13364563Y-16735992D01*
X13364563Y-16735992D02*
X13374087Y-16707420D01*
X13374087Y-16707420D02*
X13383611Y-16688373D01*
X13383611Y-16688373D02*
X13402658Y-16659801D01*
X13402658Y-16659801D02*
X13412182Y-16650277D01*
X13593135Y-16878849D02*
X13478849Y-16878849D01*
X13535992Y-16878849D02*
X13535992Y-16678849D01*
X13535992Y-16678849D02*
X13516944Y-16707420D01*
X13516944Y-16707420D02*
X13497897Y-16726468D01*
X13497897Y-16726468D02*
X13478849Y-16735992D01*
X13716944Y-16678849D02*
X13735992Y-16678849D01*
X13735992Y-16678849D02*
X13755039Y-16688373D01*
X13755039Y-16688373D02*
X13764563Y-16697896D01*
X13764563Y-16697896D02*
X13774087Y-16716944D01*
X13774087Y-16716944D02*
X13783611Y-16755039D01*
X13783611Y-16755039D02*
X13783611Y-16802658D01*
X13783611Y-16802658D02*
X13774087Y-16840754D01*
X13774087Y-16840754D02*
X13764563Y-16859801D01*
X13764563Y-16859801D02*
X13755039Y-16869325D01*
X13755039Y-16869325D02*
X13735992Y-16878849D01*
X13735992Y-16878849D02*
X13716944Y-16878849D01*
X13716944Y-16878849D02*
X13697897Y-16869325D01*
X13697897Y-16869325D02*
X13688373Y-16859801D01*
X13688373Y-16859801D02*
X13678849Y-16840754D01*
X13678849Y-16840754D02*
X13669325Y-16802658D01*
X13669325Y-16802658D02*
X13669325Y-16755039D01*
X13669325Y-16755039D02*
X13678849Y-16716944D01*
X13678849Y-16716944D02*
X13688373Y-16697896D01*
X13688373Y-16697896D02*
X13697897Y-16688373D01*
X13697897Y-16688373D02*
X13716944Y-16678849D01*
X13955039Y-16678849D02*
X13916944Y-16678849D01*
X13916944Y-16678849D02*
X13897897Y-16688373D01*
X13897897Y-16688373D02*
X13888373Y-16697896D01*
X13888373Y-16697896D02*
X13869325Y-16726468D01*
X13869325Y-16726468D02*
X13859801Y-16764563D01*
X13859801Y-16764563D02*
X13859801Y-16840754D01*
X13859801Y-16840754D02*
X13869325Y-16859801D01*
X13869325Y-16859801D02*
X13878849Y-16869325D01*
X13878849Y-16869325D02*
X13897897Y-16878849D01*
X13897897Y-16878849D02*
X13935992Y-16878849D01*
X13935992Y-16878849D02*
X13955039Y-16869325D01*
X13955039Y-16869325D02*
X13964563Y-16859801D01*
X13964563Y-16859801D02*
X13974087Y-16840754D01*
X13974087Y-16840754D02*
X13974087Y-16793135D01*
X13974087Y-16793135D02*
X13964563Y-16774087D01*
X13964563Y-16774087D02*
X13955039Y-16764563D01*
X13955039Y-16764563D02*
X13935992Y-16755039D01*
X13935992Y-16755039D02*
X13897897Y-16755039D01*
X13897897Y-16755039D02*
X13878849Y-16764563D01*
X13878849Y-16764563D02*
X13869325Y-16774087D01*
X13869325Y-16774087D02*
X13859801Y-16793135D01*
X14212182Y-16878849D02*
X14212182Y-16678849D01*
X14297897Y-16878849D02*
X14297897Y-16774087D01*
X14297897Y-16774087D02*
X14288373Y-16755039D01*
X14288373Y-16755039D02*
X14269325Y-16745515D01*
X14269325Y-16745515D02*
X14240754Y-16745515D01*
X14240754Y-16745515D02*
X14221706Y-16755039D01*
X14221706Y-16755039D02*
X14212182Y-16764563D01*
X14421706Y-16878849D02*
X14402659Y-16869325D01*
X14402659Y-16869325D02*
X14393135Y-16859801D01*
X14393135Y-16859801D02*
X14383611Y-16840754D01*
X14383611Y-16840754D02*
X14383611Y-16783611D01*
X14383611Y-16783611D02*
X14393135Y-16764563D01*
X14393135Y-16764563D02*
X14402659Y-16755039D01*
X14402659Y-16755039D02*
X14421706Y-16745515D01*
X14421706Y-16745515D02*
X14450278Y-16745515D01*
X14450278Y-16745515D02*
X14469325Y-16755039D01*
X14469325Y-16755039D02*
X14478849Y-16764563D01*
X14478849Y-16764563D02*
X14488373Y-16783611D01*
X14488373Y-16783611D02*
X14488373Y-16840754D01*
X14488373Y-16840754D02*
X14478849Y-16859801D01*
X14478849Y-16859801D02*
X14469325Y-16869325D01*
X14469325Y-16869325D02*
X14450278Y-16878849D01*
X14450278Y-16878849D02*
X14421706Y-16878849D01*
X14602659Y-16878849D02*
X14583611Y-16869325D01*
X14583611Y-16869325D02*
X14574087Y-16850277D01*
X14574087Y-16850277D02*
X14574087Y-16678849D01*
X14755040Y-16869325D02*
X14735992Y-16878849D01*
X14735992Y-16878849D02*
X14697897Y-16878849D01*
X14697897Y-16878849D02*
X14678849Y-16869325D01*
X14678849Y-16869325D02*
X14669325Y-16850277D01*
X14669325Y-16850277D02*
X14669325Y-16774087D01*
X14669325Y-16774087D02*
X14678849Y-16755039D01*
X14678849Y-16755039D02*
X14697897Y-16745515D01*
X14697897Y-16745515D02*
X14735992Y-16745515D01*
X14735992Y-16745515D02*
X14755040Y-16755039D01*
X14755040Y-16755039D02*
X14764563Y-16774087D01*
X14764563Y-16774087D02*
X14764563Y-16793135D01*
X14764563Y-16793135D02*
X14669325Y-16812182D01*
X14840754Y-16869325D02*
X14859801Y-16878849D01*
X14859801Y-16878849D02*
X14897897Y-16878849D01*
X14897897Y-16878849D02*
X14916944Y-16869325D01*
X14916944Y-16869325D02*
X14926468Y-16850277D01*
X14926468Y-16850277D02*
X14926468Y-16840754D01*
X14926468Y-16840754D02*
X14916944Y-16821706D01*
X14916944Y-16821706D02*
X14897897Y-16812182D01*
X14897897Y-16812182D02*
X14869325Y-16812182D01*
X14869325Y-16812182D02*
X14850278Y-16802658D01*
X14850278Y-16802658D02*
X14840754Y-16783611D01*
X14840754Y-16783611D02*
X14840754Y-16774087D01*
X14840754Y-16774087D02*
X14850278Y-16755039D01*
X14850278Y-16755039D02*
X14869325Y-16745515D01*
X14869325Y-16745515D02*
X14897897Y-16745515D01*
X14897897Y-16745515D02*
X14916944Y-16755039D01*
X14993135Y-16955039D02*
X15002659Y-16945515D01*
X15002659Y-16945515D02*
X15021706Y-16916944D01*
X15021706Y-16916944D02*
X15031230Y-16897896D01*
X15031230Y-16897896D02*
X15040754Y-16869325D01*
X15040754Y-16869325D02*
X15050278Y-16821706D01*
X15050278Y-16821706D02*
X15050278Y-16783611D01*
X15050278Y-16783611D02*
X15040754Y-16735992D01*
X15040754Y-16735992D02*
X15031230Y-16707420D01*
X15031230Y-16707420D02*
X15021706Y-16688373D01*
X15021706Y-16688373D02*
X15002659Y-16659801D01*
X15002659Y-16659801D02*
X14993135Y-16650277D01*
D10*
X9837120Y-17051365D02*
G75*
G02*
X9807120Y-17051365I-15000J0D01*
G01*
X9807120Y-17051365D02*
G75*
G02*
X9837120Y-17051365I15000J0D01*
G01*
D11*
X10135992Y-16942849D02*
X10155039Y-16942849D01*
X10155039Y-16942849D02*
X10174087Y-16952373D01*
X10174087Y-16952373D02*
X10183611Y-16961896D01*
X10183611Y-16961896D02*
X10193134Y-16980944D01*
X10193134Y-16980944D02*
X10202658Y-17019039D01*
X10202658Y-17019039D02*
X10202658Y-17066658D01*
X10202658Y-17066658D02*
X10193134Y-17104754D01*
X10193134Y-17104754D02*
X10183611Y-17123801D01*
X10183611Y-17123801D02*
X10174087Y-17133325D01*
X10174087Y-17133325D02*
X10155039Y-17142849D01*
X10155039Y-17142849D02*
X10135992Y-17142849D01*
X10135992Y-17142849D02*
X10116944Y-17133325D01*
X10116944Y-17133325D02*
X10107420Y-17123801D01*
X10107420Y-17123801D02*
X10097896Y-17104754D01*
X10097896Y-17104754D02*
X10088373Y-17066658D01*
X10088373Y-17066658D02*
X10088373Y-17019039D01*
X10088373Y-17019039D02*
X10097896Y-16980944D01*
X10097896Y-16980944D02*
X10107420Y-16961896D01*
X10107420Y-16961896D02*
X10116944Y-16952373D01*
X10116944Y-16952373D02*
X10135992Y-16942849D01*
X10288373Y-17123801D02*
X10297896Y-17133325D01*
X10297896Y-17133325D02*
X10288373Y-17142849D01*
X10288373Y-17142849D02*
X10278849Y-17133325D01*
X10278849Y-17133325D02*
X10288373Y-17123801D01*
X10288373Y-17123801D02*
X10288373Y-17142849D01*
X10364563Y-16942849D02*
X10488373Y-16942849D01*
X10488373Y-16942849D02*
X10421706Y-17019039D01*
X10421706Y-17019039D02*
X10450277Y-17019039D01*
X10450277Y-17019039D02*
X10469325Y-17028563D01*
X10469325Y-17028563D02*
X10478849Y-17038087D01*
X10478849Y-17038087D02*
X10488373Y-17057135D01*
X10488373Y-17057135D02*
X10488373Y-17104754D01*
X10488373Y-17104754D02*
X10478849Y-17123801D01*
X10478849Y-17123801D02*
X10469325Y-17133325D01*
X10469325Y-17133325D02*
X10450277Y-17142849D01*
X10450277Y-17142849D02*
X10393134Y-17142849D01*
X10393134Y-17142849D02*
X10374087Y-17133325D01*
X10374087Y-17133325D02*
X10364563Y-17123801D01*
X10612182Y-16942849D02*
X10631230Y-16942849D01*
X10631230Y-16942849D02*
X10650277Y-16952373D01*
X10650277Y-16952373D02*
X10659801Y-16961896D01*
X10659801Y-16961896D02*
X10669325Y-16980944D01*
X10669325Y-16980944D02*
X10678849Y-17019039D01*
X10678849Y-17019039D02*
X10678849Y-17066658D01*
X10678849Y-17066658D02*
X10669325Y-17104754D01*
X10669325Y-17104754D02*
X10659801Y-17123801D01*
X10659801Y-17123801D02*
X10650277Y-17133325D01*
X10650277Y-17133325D02*
X10631230Y-17142849D01*
X10631230Y-17142849D02*
X10612182Y-17142849D01*
X10612182Y-17142849D02*
X10593134Y-17133325D01*
X10593134Y-17133325D02*
X10583611Y-17123801D01*
X10583611Y-17123801D02*
X10574087Y-17104754D01*
X10574087Y-17104754D02*
X10564563Y-17066658D01*
X10564563Y-17066658D02*
X10564563Y-17019039D01*
X10564563Y-17019039D02*
X10574087Y-16980944D01*
X10574087Y-16980944D02*
X10583611Y-16961896D01*
X10583611Y-16961896D02*
X10593134Y-16952373D01*
X10593134Y-16952373D02*
X10612182Y-16942849D01*
X10802658Y-16942849D02*
X10821706Y-16942849D01*
X10821706Y-16942849D02*
X10840754Y-16952373D01*
X10840754Y-16952373D02*
X10850277Y-16961896D01*
X10850277Y-16961896D02*
X10859801Y-16980944D01*
X10859801Y-16980944D02*
X10869325Y-17019039D01*
X10869325Y-17019039D02*
X10869325Y-17066658D01*
X10869325Y-17066658D02*
X10859801Y-17104754D01*
X10859801Y-17104754D02*
X10850277Y-17123801D01*
X10850277Y-17123801D02*
X10840754Y-17133325D01*
X10840754Y-17133325D02*
X10821706Y-17142849D01*
X10821706Y-17142849D02*
X10802658Y-17142849D01*
X10802658Y-17142849D02*
X10783611Y-17133325D01*
X10783611Y-17133325D02*
X10774087Y-17123801D01*
X10774087Y-17123801D02*
X10764563Y-17104754D01*
X10764563Y-17104754D02*
X10755039Y-17066658D01*
X10755039Y-17066658D02*
X10755039Y-17019039D01*
X10755039Y-17019039D02*
X10764563Y-16980944D01*
X10764563Y-16980944D02*
X10774087Y-16961896D01*
X10774087Y-16961896D02*
X10783611Y-16952373D01*
X10783611Y-16952373D02*
X10802658Y-16942849D01*
X10955039Y-17142849D02*
X10955039Y-17009515D01*
X10955039Y-17028563D02*
X10964563Y-17019039D01*
X10964563Y-17019039D02*
X10983611Y-17009515D01*
X10983611Y-17009515D02*
X11012182Y-17009515D01*
X11012182Y-17009515D02*
X11031230Y-17019039D01*
X11031230Y-17019039D02*
X11040754Y-17038087D01*
X11040754Y-17038087D02*
X11040754Y-17142849D01*
X11040754Y-17038087D02*
X11050277Y-17019039D01*
X11050277Y-17019039D02*
X11069325Y-17009515D01*
X11069325Y-17009515D02*
X11097896Y-17009515D01*
X11097896Y-17009515D02*
X11116944Y-17019039D01*
X11116944Y-17019039D02*
X11126468Y-17038087D01*
X11126468Y-17038087D02*
X11126468Y-17142849D01*
X11221706Y-17142849D02*
X11221706Y-17009515D01*
X11221706Y-17028563D02*
X11231230Y-17019039D01*
X11231230Y-17019039D02*
X11250277Y-17009515D01*
X11250277Y-17009515D02*
X11278849Y-17009515D01*
X11278849Y-17009515D02*
X11297896Y-17019039D01*
X11297896Y-17019039D02*
X11307420Y-17038087D01*
X11307420Y-17038087D02*
X11307420Y-17142849D01*
X11307420Y-17038087D02*
X11316944Y-17019039D01*
X11316944Y-17019039D02*
X11335992Y-17009515D01*
X11335992Y-17009515D02*
X11364563Y-17009515D01*
X11364563Y-17009515D02*
X11383611Y-17019039D01*
X11383611Y-17019039D02*
X11393134Y-17038087D01*
X11393134Y-17038087D02*
X11393134Y-17142849D01*
X11783611Y-16933325D02*
X11612182Y-17190468D01*
X12040754Y-16942849D02*
X12059801Y-16942849D01*
X12059801Y-16942849D02*
X12078849Y-16952373D01*
X12078849Y-16952373D02*
X12088373Y-16961896D01*
X12088373Y-16961896D02*
X12097896Y-16980944D01*
X12097896Y-16980944D02*
X12107420Y-17019039D01*
X12107420Y-17019039D02*
X12107420Y-17066658D01*
X12107420Y-17066658D02*
X12097896Y-17104754D01*
X12097896Y-17104754D02*
X12088373Y-17123801D01*
X12088373Y-17123801D02*
X12078849Y-17133325D01*
X12078849Y-17133325D02*
X12059801Y-17142849D01*
X12059801Y-17142849D02*
X12040754Y-17142849D01*
X12040754Y-17142849D02*
X12021706Y-17133325D01*
X12021706Y-17133325D02*
X12012182Y-17123801D01*
X12012182Y-17123801D02*
X12002658Y-17104754D01*
X12002658Y-17104754D02*
X11993135Y-17066658D01*
X11993135Y-17066658D02*
X11993135Y-17019039D01*
X11993135Y-17019039D02*
X12002658Y-16980944D01*
X12002658Y-16980944D02*
X12012182Y-16961896D01*
X12012182Y-16961896D02*
X12021706Y-16952373D01*
X12021706Y-16952373D02*
X12040754Y-16942849D01*
X12193135Y-17123801D02*
X12202658Y-17133325D01*
X12202658Y-17133325D02*
X12193135Y-17142849D01*
X12193135Y-17142849D02*
X12183611Y-17133325D01*
X12183611Y-17133325D02*
X12193135Y-17123801D01*
X12193135Y-17123801D02*
X12193135Y-17142849D01*
X12326468Y-16942849D02*
X12345516Y-16942849D01*
X12345516Y-16942849D02*
X12364563Y-16952373D01*
X12364563Y-16952373D02*
X12374087Y-16961896D01*
X12374087Y-16961896D02*
X12383611Y-16980944D01*
X12383611Y-16980944D02*
X12393135Y-17019039D01*
X12393135Y-17019039D02*
X12393135Y-17066658D01*
X12393135Y-17066658D02*
X12383611Y-17104754D01*
X12383611Y-17104754D02*
X12374087Y-17123801D01*
X12374087Y-17123801D02*
X12364563Y-17133325D01*
X12364563Y-17133325D02*
X12345516Y-17142849D01*
X12345516Y-17142849D02*
X12326468Y-17142849D01*
X12326468Y-17142849D02*
X12307420Y-17133325D01*
X12307420Y-17133325D02*
X12297896Y-17123801D01*
X12297896Y-17123801D02*
X12288373Y-17104754D01*
X12288373Y-17104754D02*
X12278849Y-17066658D01*
X12278849Y-17066658D02*
X12278849Y-17019039D01*
X12278849Y-17019039D02*
X12288373Y-16980944D01*
X12288373Y-16980944D02*
X12297896Y-16961896D01*
X12297896Y-16961896D02*
X12307420Y-16952373D01*
X12307420Y-16952373D02*
X12326468Y-16942849D01*
X12583611Y-17142849D02*
X12469325Y-17142849D01*
X12526468Y-17142849D02*
X12526468Y-16942849D01*
X12526468Y-16942849D02*
X12507420Y-16971420D01*
X12507420Y-16971420D02*
X12488373Y-16990468D01*
X12488373Y-16990468D02*
X12469325Y-16999992D01*
X12774087Y-17142849D02*
X12659801Y-17142849D01*
X12716944Y-17142849D02*
X12716944Y-16942849D01*
X12716944Y-16942849D02*
X12697896Y-16971420D01*
X12697896Y-16971420D02*
X12678849Y-16990468D01*
X12678849Y-16990468D02*
X12659801Y-16999992D01*
X12888373Y-17028563D02*
X12869325Y-17019039D01*
X12869325Y-17019039D02*
X12859801Y-17009515D01*
X12859801Y-17009515D02*
X12850277Y-16990468D01*
X12850277Y-16990468D02*
X12850277Y-16980944D01*
X12850277Y-16980944D02*
X12859801Y-16961896D01*
X12859801Y-16961896D02*
X12869325Y-16952373D01*
X12869325Y-16952373D02*
X12888373Y-16942849D01*
X12888373Y-16942849D02*
X12926468Y-16942849D01*
X12926468Y-16942849D02*
X12945516Y-16952373D01*
X12945516Y-16952373D02*
X12955039Y-16961896D01*
X12955039Y-16961896D02*
X12964563Y-16980944D01*
X12964563Y-16980944D02*
X12964563Y-16990468D01*
X12964563Y-16990468D02*
X12955039Y-17009515D01*
X12955039Y-17009515D02*
X12945516Y-17019039D01*
X12945516Y-17019039D02*
X12926468Y-17028563D01*
X12926468Y-17028563D02*
X12888373Y-17028563D01*
X12888373Y-17028563D02*
X12869325Y-17038087D01*
X12869325Y-17038087D02*
X12859801Y-17047611D01*
X12859801Y-17047611D02*
X12850277Y-17066658D01*
X12850277Y-17066658D02*
X12850277Y-17104754D01*
X12850277Y-17104754D02*
X12859801Y-17123801D01*
X12859801Y-17123801D02*
X12869325Y-17133325D01*
X12869325Y-17133325D02*
X12888373Y-17142849D01*
X12888373Y-17142849D02*
X12926468Y-17142849D01*
X12926468Y-17142849D02*
X12945516Y-17133325D01*
X12945516Y-17133325D02*
X12955039Y-17123801D01*
X12955039Y-17123801D02*
X12964563Y-17104754D01*
X12964563Y-17104754D02*
X12964563Y-17066658D01*
X12964563Y-17066658D02*
X12955039Y-17047611D01*
X12955039Y-17047611D02*
X12945516Y-17038087D01*
X12945516Y-17038087D02*
X12926468Y-17028563D01*
X13040754Y-16942849D02*
X13040754Y-16980944D01*
X13116944Y-16942849D02*
X13116944Y-16980944D01*
X13412182Y-17219039D02*
X13402658Y-17209515D01*
X13402658Y-17209515D02*
X13383611Y-17180944D01*
X13383611Y-17180944D02*
X13374087Y-17161896D01*
X13374087Y-17161896D02*
X13364563Y-17133325D01*
X13364563Y-17133325D02*
X13355039Y-17085706D01*
X13355039Y-17085706D02*
X13355039Y-17047611D01*
X13355039Y-17047611D02*
X13364563Y-16999992D01*
X13364563Y-16999992D02*
X13374087Y-16971420D01*
X13374087Y-16971420D02*
X13383611Y-16952373D01*
X13383611Y-16952373D02*
X13402658Y-16923801D01*
X13402658Y-16923801D02*
X13412182Y-16914277D01*
X13516944Y-17028563D02*
X13497897Y-17019039D01*
X13497897Y-17019039D02*
X13488373Y-17009515D01*
X13488373Y-17009515D02*
X13478849Y-16990468D01*
X13478849Y-16990468D02*
X13478849Y-16980944D01*
X13478849Y-16980944D02*
X13488373Y-16961896D01*
X13488373Y-16961896D02*
X13497897Y-16952373D01*
X13497897Y-16952373D02*
X13516944Y-16942849D01*
X13516944Y-16942849D02*
X13555039Y-16942849D01*
X13555039Y-16942849D02*
X13574087Y-16952373D01*
X13574087Y-16952373D02*
X13583611Y-16961896D01*
X13583611Y-16961896D02*
X13593135Y-16980944D01*
X13593135Y-16980944D02*
X13593135Y-16990468D01*
X13593135Y-16990468D02*
X13583611Y-17009515D01*
X13583611Y-17009515D02*
X13574087Y-17019039D01*
X13574087Y-17019039D02*
X13555039Y-17028563D01*
X13555039Y-17028563D02*
X13516944Y-17028563D01*
X13516944Y-17028563D02*
X13497897Y-17038087D01*
X13497897Y-17038087D02*
X13488373Y-17047611D01*
X13488373Y-17047611D02*
X13478849Y-17066658D01*
X13478849Y-17066658D02*
X13478849Y-17104754D01*
X13478849Y-17104754D02*
X13488373Y-17123801D01*
X13488373Y-17123801D02*
X13497897Y-17133325D01*
X13497897Y-17133325D02*
X13516944Y-17142849D01*
X13516944Y-17142849D02*
X13555039Y-17142849D01*
X13555039Y-17142849D02*
X13574087Y-17133325D01*
X13574087Y-17133325D02*
X13583611Y-17123801D01*
X13583611Y-17123801D02*
X13593135Y-17104754D01*
X13593135Y-17104754D02*
X13593135Y-17066658D01*
X13593135Y-17066658D02*
X13583611Y-17047611D01*
X13583611Y-17047611D02*
X13574087Y-17038087D01*
X13574087Y-17038087D02*
X13555039Y-17028563D01*
X13831230Y-17142849D02*
X13831230Y-16942849D01*
X13916944Y-17142849D02*
X13916944Y-17038087D01*
X13916944Y-17038087D02*
X13907420Y-17019039D01*
X13907420Y-17019039D02*
X13888373Y-17009515D01*
X13888373Y-17009515D02*
X13859801Y-17009515D01*
X13859801Y-17009515D02*
X13840754Y-17019039D01*
X13840754Y-17019039D02*
X13831230Y-17028563D01*
X14040754Y-17142849D02*
X14021706Y-17133325D01*
X14021706Y-17133325D02*
X14012182Y-17123801D01*
X14012182Y-17123801D02*
X14002659Y-17104754D01*
X14002659Y-17104754D02*
X14002659Y-17047611D01*
X14002659Y-17047611D02*
X14012182Y-17028563D01*
X14012182Y-17028563D02*
X14021706Y-17019039D01*
X14021706Y-17019039D02*
X14040754Y-17009515D01*
X14040754Y-17009515D02*
X14069325Y-17009515D01*
X14069325Y-17009515D02*
X14088373Y-17019039D01*
X14088373Y-17019039D02*
X14097897Y-17028563D01*
X14097897Y-17028563D02*
X14107420Y-17047611D01*
X14107420Y-17047611D02*
X14107420Y-17104754D01*
X14107420Y-17104754D02*
X14097897Y-17123801D01*
X14097897Y-17123801D02*
X14088373Y-17133325D01*
X14088373Y-17133325D02*
X14069325Y-17142849D01*
X14069325Y-17142849D02*
X14040754Y-17142849D01*
X14221706Y-17142849D02*
X14202659Y-17133325D01*
X14202659Y-17133325D02*
X14193135Y-17114277D01*
X14193135Y-17114277D02*
X14193135Y-16942849D01*
X14374087Y-17133325D02*
X14355040Y-17142849D01*
X14355040Y-17142849D02*
X14316944Y-17142849D01*
X14316944Y-17142849D02*
X14297897Y-17133325D01*
X14297897Y-17133325D02*
X14288373Y-17114277D01*
X14288373Y-17114277D02*
X14288373Y-17038087D01*
X14288373Y-17038087D02*
X14297897Y-17019039D01*
X14297897Y-17019039D02*
X14316944Y-17009515D01*
X14316944Y-17009515D02*
X14355040Y-17009515D01*
X14355040Y-17009515D02*
X14374087Y-17019039D01*
X14374087Y-17019039D02*
X14383611Y-17038087D01*
X14383611Y-17038087D02*
X14383611Y-17057135D01*
X14383611Y-17057135D02*
X14288373Y-17076182D01*
X14459801Y-17133325D02*
X14478849Y-17142849D01*
X14478849Y-17142849D02*
X14516944Y-17142849D01*
X14516944Y-17142849D02*
X14535992Y-17133325D01*
X14535992Y-17133325D02*
X14545516Y-17114277D01*
X14545516Y-17114277D02*
X14545516Y-17104754D01*
X14545516Y-17104754D02*
X14535992Y-17085706D01*
X14535992Y-17085706D02*
X14516944Y-17076182D01*
X14516944Y-17076182D02*
X14488373Y-17076182D01*
X14488373Y-17076182D02*
X14469325Y-17066658D01*
X14469325Y-17066658D02*
X14459801Y-17047611D01*
X14459801Y-17047611D02*
X14459801Y-17038087D01*
X14459801Y-17038087D02*
X14469325Y-17019039D01*
X14469325Y-17019039D02*
X14488373Y-17009515D01*
X14488373Y-17009515D02*
X14516944Y-17009515D01*
X14516944Y-17009515D02*
X14535992Y-17019039D01*
X14612182Y-17219039D02*
X14621706Y-17209515D01*
X14621706Y-17209515D02*
X14640754Y-17180944D01*
X14640754Y-17180944D02*
X14650278Y-17161896D01*
X14650278Y-17161896D02*
X14659801Y-17133325D01*
X14659801Y-17133325D02*
X14669325Y-17085706D01*
X14669325Y-17085706D02*
X14669325Y-17047611D01*
X14669325Y-17047611D02*
X14659801Y-16999992D01*
X14659801Y-16999992D02*
X14650278Y-16971420D01*
X14650278Y-16971420D02*
X14640754Y-16952373D01*
X14640754Y-16952373D02*
X14621706Y-16923801D01*
X14621706Y-16923801D02*
X14612182Y-16914277D01*
D10*
X9787120Y-17265365D02*
X9787120Y-17365365D01*
X9737120Y-17315365D02*
X9837120Y-17315365D01*
D11*
X10202658Y-17406849D02*
X10088373Y-17406849D01*
X10145515Y-17406849D02*
X10145515Y-17206849D01*
X10145515Y-17206849D02*
X10126468Y-17235420D01*
X10126468Y-17235420D02*
X10107420Y-17254468D01*
X10107420Y-17254468D02*
X10088373Y-17263992D01*
X10288373Y-17387801D02*
X10297896Y-17397325D01*
X10297896Y-17397325D02*
X10288373Y-17406849D01*
X10288373Y-17406849D02*
X10278849Y-17397325D01*
X10278849Y-17397325D02*
X10288373Y-17387801D01*
X10288373Y-17387801D02*
X10288373Y-17406849D01*
X10421706Y-17206849D02*
X10440754Y-17206849D01*
X10440754Y-17206849D02*
X10459801Y-17216373D01*
X10459801Y-17216373D02*
X10469325Y-17225896D01*
X10469325Y-17225896D02*
X10478849Y-17244944D01*
X10478849Y-17244944D02*
X10488373Y-17283039D01*
X10488373Y-17283039D02*
X10488373Y-17330658D01*
X10488373Y-17330658D02*
X10478849Y-17368754D01*
X10478849Y-17368754D02*
X10469325Y-17387801D01*
X10469325Y-17387801D02*
X10459801Y-17397325D01*
X10459801Y-17397325D02*
X10440754Y-17406849D01*
X10440754Y-17406849D02*
X10421706Y-17406849D01*
X10421706Y-17406849D02*
X10402658Y-17397325D01*
X10402658Y-17397325D02*
X10393134Y-17387801D01*
X10393134Y-17387801D02*
X10383611Y-17368754D01*
X10383611Y-17368754D02*
X10374087Y-17330658D01*
X10374087Y-17330658D02*
X10374087Y-17283039D01*
X10374087Y-17283039D02*
X10383611Y-17244944D01*
X10383611Y-17244944D02*
X10393134Y-17225896D01*
X10393134Y-17225896D02*
X10402658Y-17216373D01*
X10402658Y-17216373D02*
X10421706Y-17206849D01*
X10612182Y-17206849D02*
X10631230Y-17206849D01*
X10631230Y-17206849D02*
X10650277Y-17216373D01*
X10650277Y-17216373D02*
X10659801Y-17225896D01*
X10659801Y-17225896D02*
X10669325Y-17244944D01*
X10669325Y-17244944D02*
X10678849Y-17283039D01*
X10678849Y-17283039D02*
X10678849Y-17330658D01*
X10678849Y-17330658D02*
X10669325Y-17368754D01*
X10669325Y-17368754D02*
X10659801Y-17387801D01*
X10659801Y-17387801D02*
X10650277Y-17397325D01*
X10650277Y-17397325D02*
X10631230Y-17406849D01*
X10631230Y-17406849D02*
X10612182Y-17406849D01*
X10612182Y-17406849D02*
X10593134Y-17397325D01*
X10593134Y-17397325D02*
X10583611Y-17387801D01*
X10583611Y-17387801D02*
X10574087Y-17368754D01*
X10574087Y-17368754D02*
X10564563Y-17330658D01*
X10564563Y-17330658D02*
X10564563Y-17283039D01*
X10564563Y-17283039D02*
X10574087Y-17244944D01*
X10574087Y-17244944D02*
X10583611Y-17225896D01*
X10583611Y-17225896D02*
X10593134Y-17216373D01*
X10593134Y-17216373D02*
X10612182Y-17206849D01*
X10802658Y-17206849D02*
X10821706Y-17206849D01*
X10821706Y-17206849D02*
X10840754Y-17216373D01*
X10840754Y-17216373D02*
X10850277Y-17225896D01*
X10850277Y-17225896D02*
X10859801Y-17244944D01*
X10859801Y-17244944D02*
X10869325Y-17283039D01*
X10869325Y-17283039D02*
X10869325Y-17330658D01*
X10869325Y-17330658D02*
X10859801Y-17368754D01*
X10859801Y-17368754D02*
X10850277Y-17387801D01*
X10850277Y-17387801D02*
X10840754Y-17397325D01*
X10840754Y-17397325D02*
X10821706Y-17406849D01*
X10821706Y-17406849D02*
X10802658Y-17406849D01*
X10802658Y-17406849D02*
X10783611Y-17397325D01*
X10783611Y-17397325D02*
X10774087Y-17387801D01*
X10774087Y-17387801D02*
X10764563Y-17368754D01*
X10764563Y-17368754D02*
X10755039Y-17330658D01*
X10755039Y-17330658D02*
X10755039Y-17283039D01*
X10755039Y-17283039D02*
X10764563Y-17244944D01*
X10764563Y-17244944D02*
X10774087Y-17225896D01*
X10774087Y-17225896D02*
X10783611Y-17216373D01*
X10783611Y-17216373D02*
X10802658Y-17206849D01*
X10955039Y-17406849D02*
X10955039Y-17273515D01*
X10955039Y-17292563D02*
X10964563Y-17283039D01*
X10964563Y-17283039D02*
X10983611Y-17273515D01*
X10983611Y-17273515D02*
X11012182Y-17273515D01*
X11012182Y-17273515D02*
X11031230Y-17283039D01*
X11031230Y-17283039D02*
X11040754Y-17302087D01*
X11040754Y-17302087D02*
X11040754Y-17406849D01*
X11040754Y-17302087D02*
X11050277Y-17283039D01*
X11050277Y-17283039D02*
X11069325Y-17273515D01*
X11069325Y-17273515D02*
X11097896Y-17273515D01*
X11097896Y-17273515D02*
X11116944Y-17283039D01*
X11116944Y-17283039D02*
X11126468Y-17302087D01*
X11126468Y-17302087D02*
X11126468Y-17406849D01*
X11221706Y-17406849D02*
X11221706Y-17273515D01*
X11221706Y-17292563D02*
X11231230Y-17283039D01*
X11231230Y-17283039D02*
X11250277Y-17273515D01*
X11250277Y-17273515D02*
X11278849Y-17273515D01*
X11278849Y-17273515D02*
X11297896Y-17283039D01*
X11297896Y-17283039D02*
X11307420Y-17302087D01*
X11307420Y-17302087D02*
X11307420Y-17406849D01*
X11307420Y-17302087D02*
X11316944Y-17283039D01*
X11316944Y-17283039D02*
X11335992Y-17273515D01*
X11335992Y-17273515D02*
X11364563Y-17273515D01*
X11364563Y-17273515D02*
X11383611Y-17283039D01*
X11383611Y-17283039D02*
X11393134Y-17302087D01*
X11393134Y-17302087D02*
X11393134Y-17406849D01*
X11783611Y-17197325D02*
X11612182Y-17454468D01*
X12040754Y-17206849D02*
X12059801Y-17206849D01*
X12059801Y-17206849D02*
X12078849Y-17216373D01*
X12078849Y-17216373D02*
X12088373Y-17225896D01*
X12088373Y-17225896D02*
X12097896Y-17244944D01*
X12097896Y-17244944D02*
X12107420Y-17283039D01*
X12107420Y-17283039D02*
X12107420Y-17330658D01*
X12107420Y-17330658D02*
X12097896Y-17368754D01*
X12097896Y-17368754D02*
X12088373Y-17387801D01*
X12088373Y-17387801D02*
X12078849Y-17397325D01*
X12078849Y-17397325D02*
X12059801Y-17406849D01*
X12059801Y-17406849D02*
X12040754Y-17406849D01*
X12040754Y-17406849D02*
X12021706Y-17397325D01*
X12021706Y-17397325D02*
X12012182Y-17387801D01*
X12012182Y-17387801D02*
X12002658Y-17368754D01*
X12002658Y-17368754D02*
X11993135Y-17330658D01*
X11993135Y-17330658D02*
X11993135Y-17283039D01*
X11993135Y-17283039D02*
X12002658Y-17244944D01*
X12002658Y-17244944D02*
X12012182Y-17225896D01*
X12012182Y-17225896D02*
X12021706Y-17216373D01*
X12021706Y-17216373D02*
X12040754Y-17206849D01*
X12193135Y-17387801D02*
X12202658Y-17397325D01*
X12202658Y-17397325D02*
X12193135Y-17406849D01*
X12193135Y-17406849D02*
X12183611Y-17397325D01*
X12183611Y-17397325D02*
X12193135Y-17387801D01*
X12193135Y-17387801D02*
X12193135Y-17406849D01*
X12326468Y-17206849D02*
X12345516Y-17206849D01*
X12345516Y-17206849D02*
X12364563Y-17216373D01*
X12364563Y-17216373D02*
X12374087Y-17225896D01*
X12374087Y-17225896D02*
X12383611Y-17244944D01*
X12383611Y-17244944D02*
X12393135Y-17283039D01*
X12393135Y-17283039D02*
X12393135Y-17330658D01*
X12393135Y-17330658D02*
X12383611Y-17368754D01*
X12383611Y-17368754D02*
X12374087Y-17387801D01*
X12374087Y-17387801D02*
X12364563Y-17397325D01*
X12364563Y-17397325D02*
X12345516Y-17406849D01*
X12345516Y-17406849D02*
X12326468Y-17406849D01*
X12326468Y-17406849D02*
X12307420Y-17397325D01*
X12307420Y-17397325D02*
X12297896Y-17387801D01*
X12297896Y-17387801D02*
X12288373Y-17368754D01*
X12288373Y-17368754D02*
X12278849Y-17330658D01*
X12278849Y-17330658D02*
X12278849Y-17283039D01*
X12278849Y-17283039D02*
X12288373Y-17244944D01*
X12288373Y-17244944D02*
X12297896Y-17225896D01*
X12297896Y-17225896D02*
X12307420Y-17216373D01*
X12307420Y-17216373D02*
X12326468Y-17206849D01*
X12459801Y-17206849D02*
X12583611Y-17206849D01*
X12583611Y-17206849D02*
X12516944Y-17283039D01*
X12516944Y-17283039D02*
X12545516Y-17283039D01*
X12545516Y-17283039D02*
X12564563Y-17292563D01*
X12564563Y-17292563D02*
X12574087Y-17302087D01*
X12574087Y-17302087D02*
X12583611Y-17321135D01*
X12583611Y-17321135D02*
X12583611Y-17368754D01*
X12583611Y-17368754D02*
X12574087Y-17387801D01*
X12574087Y-17387801D02*
X12564563Y-17397325D01*
X12564563Y-17397325D02*
X12545516Y-17406849D01*
X12545516Y-17406849D02*
X12488373Y-17406849D01*
X12488373Y-17406849D02*
X12469325Y-17397325D01*
X12469325Y-17397325D02*
X12459801Y-17387801D01*
X12678849Y-17406849D02*
X12716944Y-17406849D01*
X12716944Y-17406849D02*
X12735992Y-17397325D01*
X12735992Y-17397325D02*
X12745516Y-17387801D01*
X12745516Y-17387801D02*
X12764563Y-17359230D01*
X12764563Y-17359230D02*
X12774087Y-17321135D01*
X12774087Y-17321135D02*
X12774087Y-17244944D01*
X12774087Y-17244944D02*
X12764563Y-17225896D01*
X12764563Y-17225896D02*
X12755039Y-17216373D01*
X12755039Y-17216373D02*
X12735992Y-17206849D01*
X12735992Y-17206849D02*
X12697896Y-17206849D01*
X12697896Y-17206849D02*
X12678849Y-17216373D01*
X12678849Y-17216373D02*
X12669325Y-17225896D01*
X12669325Y-17225896D02*
X12659801Y-17244944D01*
X12659801Y-17244944D02*
X12659801Y-17292563D01*
X12659801Y-17292563D02*
X12669325Y-17311611D01*
X12669325Y-17311611D02*
X12678849Y-17321135D01*
X12678849Y-17321135D02*
X12697896Y-17330658D01*
X12697896Y-17330658D02*
X12735992Y-17330658D01*
X12735992Y-17330658D02*
X12755039Y-17321135D01*
X12755039Y-17321135D02*
X12764563Y-17311611D01*
X12764563Y-17311611D02*
X12774087Y-17292563D01*
X12945516Y-17273515D02*
X12945516Y-17406849D01*
X12897896Y-17197325D02*
X12850277Y-17340182D01*
X12850277Y-17340182D02*
X12974087Y-17340182D01*
X13040754Y-17206849D02*
X13040754Y-17244944D01*
X13116944Y-17206849D02*
X13116944Y-17244944D01*
X13412182Y-17483039D02*
X13402658Y-17473515D01*
X13402658Y-17473515D02*
X13383611Y-17444944D01*
X13383611Y-17444944D02*
X13374087Y-17425896D01*
X13374087Y-17425896D02*
X13364563Y-17397325D01*
X13364563Y-17397325D02*
X13355039Y-17349706D01*
X13355039Y-17349706D02*
X13355039Y-17311611D01*
X13355039Y-17311611D02*
X13364563Y-17263992D01*
X13364563Y-17263992D02*
X13374087Y-17235420D01*
X13374087Y-17235420D02*
X13383611Y-17216373D01*
X13383611Y-17216373D02*
X13402658Y-17187801D01*
X13402658Y-17187801D02*
X13412182Y-17178277D01*
X13497897Y-17406849D02*
X13535992Y-17406849D01*
X13535992Y-17406849D02*
X13555039Y-17397325D01*
X13555039Y-17397325D02*
X13564563Y-17387801D01*
X13564563Y-17387801D02*
X13583611Y-17359230D01*
X13583611Y-17359230D02*
X13593135Y-17321135D01*
X13593135Y-17321135D02*
X13593135Y-17244944D01*
X13593135Y-17244944D02*
X13583611Y-17225896D01*
X13583611Y-17225896D02*
X13574087Y-17216373D01*
X13574087Y-17216373D02*
X13555039Y-17206849D01*
X13555039Y-17206849D02*
X13516944Y-17206849D01*
X13516944Y-17206849D02*
X13497897Y-17216373D01*
X13497897Y-17216373D02*
X13488373Y-17225896D01*
X13488373Y-17225896D02*
X13478849Y-17244944D01*
X13478849Y-17244944D02*
X13478849Y-17292563D01*
X13478849Y-17292563D02*
X13488373Y-17311611D01*
X13488373Y-17311611D02*
X13497897Y-17321135D01*
X13497897Y-17321135D02*
X13516944Y-17330658D01*
X13516944Y-17330658D02*
X13555039Y-17330658D01*
X13555039Y-17330658D02*
X13574087Y-17321135D01*
X13574087Y-17321135D02*
X13583611Y-17311611D01*
X13583611Y-17311611D02*
X13593135Y-17292563D01*
X13831230Y-17406849D02*
X13831230Y-17206849D01*
X13916944Y-17406849D02*
X13916944Y-17302087D01*
X13916944Y-17302087D02*
X13907420Y-17283039D01*
X13907420Y-17283039D02*
X13888373Y-17273515D01*
X13888373Y-17273515D02*
X13859801Y-17273515D01*
X13859801Y-17273515D02*
X13840754Y-17283039D01*
X13840754Y-17283039D02*
X13831230Y-17292563D01*
X14040754Y-17406849D02*
X14021706Y-17397325D01*
X14021706Y-17397325D02*
X14012182Y-17387801D01*
X14012182Y-17387801D02*
X14002659Y-17368754D01*
X14002659Y-17368754D02*
X14002659Y-17311611D01*
X14002659Y-17311611D02*
X14012182Y-17292563D01*
X14012182Y-17292563D02*
X14021706Y-17283039D01*
X14021706Y-17283039D02*
X14040754Y-17273515D01*
X14040754Y-17273515D02*
X14069325Y-17273515D01*
X14069325Y-17273515D02*
X14088373Y-17283039D01*
X14088373Y-17283039D02*
X14097897Y-17292563D01*
X14097897Y-17292563D02*
X14107420Y-17311611D01*
X14107420Y-17311611D02*
X14107420Y-17368754D01*
X14107420Y-17368754D02*
X14097897Y-17387801D01*
X14097897Y-17387801D02*
X14088373Y-17397325D01*
X14088373Y-17397325D02*
X14069325Y-17406849D01*
X14069325Y-17406849D02*
X14040754Y-17406849D01*
X14221706Y-17406849D02*
X14202659Y-17397325D01*
X14202659Y-17397325D02*
X14193135Y-17378277D01*
X14193135Y-17378277D02*
X14193135Y-17206849D01*
X14374087Y-17397325D02*
X14355040Y-17406849D01*
X14355040Y-17406849D02*
X14316944Y-17406849D01*
X14316944Y-17406849D02*
X14297897Y-17397325D01*
X14297897Y-17397325D02*
X14288373Y-17378277D01*
X14288373Y-17378277D02*
X14288373Y-17302087D01*
X14288373Y-17302087D02*
X14297897Y-17283039D01*
X14297897Y-17283039D02*
X14316944Y-17273515D01*
X14316944Y-17273515D02*
X14355040Y-17273515D01*
X14355040Y-17273515D02*
X14374087Y-17283039D01*
X14374087Y-17283039D02*
X14383611Y-17302087D01*
X14383611Y-17302087D02*
X14383611Y-17321135D01*
X14383611Y-17321135D02*
X14288373Y-17340182D01*
X14459801Y-17397325D02*
X14478849Y-17406849D01*
X14478849Y-17406849D02*
X14516944Y-17406849D01*
X14516944Y-17406849D02*
X14535992Y-17397325D01*
X14535992Y-17397325D02*
X14545516Y-17378277D01*
X14545516Y-17378277D02*
X14545516Y-17368754D01*
X14545516Y-17368754D02*
X14535992Y-17349706D01*
X14535992Y-17349706D02*
X14516944Y-17340182D01*
X14516944Y-17340182D02*
X14488373Y-17340182D01*
X14488373Y-17340182D02*
X14469325Y-17330658D01*
X14469325Y-17330658D02*
X14459801Y-17311611D01*
X14459801Y-17311611D02*
X14459801Y-17302087D01*
X14459801Y-17302087D02*
X14469325Y-17283039D01*
X14469325Y-17283039D02*
X14488373Y-17273515D01*
X14488373Y-17273515D02*
X14516944Y-17273515D01*
X14516944Y-17273515D02*
X14535992Y-17283039D01*
X14612182Y-17483039D02*
X14621706Y-17473515D01*
X14621706Y-17473515D02*
X14640754Y-17444944D01*
X14640754Y-17444944D02*
X14650278Y-17425896D01*
X14650278Y-17425896D02*
X14659801Y-17397325D01*
X14659801Y-17397325D02*
X14669325Y-17349706D01*
X14669325Y-17349706D02*
X14669325Y-17311611D01*
X14669325Y-17311611D02*
X14659801Y-17263992D01*
X14659801Y-17263992D02*
X14650278Y-17235420D01*
X14650278Y-17235420D02*
X14640754Y-17216373D01*
X14640754Y-17216373D02*
X14621706Y-17187801D01*
X14621706Y-17187801D02*
X14612182Y-17178277D01*
D12*
X9815153Y-17632399D02*
X9815153Y-17526332D01*
X9709086Y-17526332D01*
X9709086Y-17632399D01*
X9815153Y-17632399D01*
D11*
X10202658Y-17670849D02*
X10088373Y-17670849D01*
X10145515Y-17670849D02*
X10145515Y-17470849D01*
X10145515Y-17470849D02*
X10126468Y-17499420D01*
X10126468Y-17499420D02*
X10107420Y-17518468D01*
X10107420Y-17518468D02*
X10088373Y-17527992D01*
X10288373Y-17651801D02*
X10297896Y-17661325D01*
X10297896Y-17661325D02*
X10288373Y-17670849D01*
X10288373Y-17670849D02*
X10278849Y-17661325D01*
X10278849Y-17661325D02*
X10288373Y-17651801D01*
X10288373Y-17651801D02*
X10288373Y-17670849D01*
X10478849Y-17470849D02*
X10383611Y-17470849D01*
X10383611Y-17470849D02*
X10374087Y-17566087D01*
X10374087Y-17566087D02*
X10383611Y-17556563D01*
X10383611Y-17556563D02*
X10402658Y-17547039D01*
X10402658Y-17547039D02*
X10450277Y-17547039D01*
X10450277Y-17547039D02*
X10469325Y-17556563D01*
X10469325Y-17556563D02*
X10478849Y-17566087D01*
X10478849Y-17566087D02*
X10488373Y-17585135D01*
X10488373Y-17585135D02*
X10488373Y-17632754D01*
X10488373Y-17632754D02*
X10478849Y-17651801D01*
X10478849Y-17651801D02*
X10469325Y-17661325D01*
X10469325Y-17661325D02*
X10450277Y-17670849D01*
X10450277Y-17670849D02*
X10402658Y-17670849D01*
X10402658Y-17670849D02*
X10383611Y-17661325D01*
X10383611Y-17661325D02*
X10374087Y-17651801D01*
X10612182Y-17470849D02*
X10631230Y-17470849D01*
X10631230Y-17470849D02*
X10650277Y-17480373D01*
X10650277Y-17480373D02*
X10659801Y-17489896D01*
X10659801Y-17489896D02*
X10669325Y-17508944D01*
X10669325Y-17508944D02*
X10678849Y-17547039D01*
X10678849Y-17547039D02*
X10678849Y-17594658D01*
X10678849Y-17594658D02*
X10669325Y-17632754D01*
X10669325Y-17632754D02*
X10659801Y-17651801D01*
X10659801Y-17651801D02*
X10650277Y-17661325D01*
X10650277Y-17661325D02*
X10631230Y-17670849D01*
X10631230Y-17670849D02*
X10612182Y-17670849D01*
X10612182Y-17670849D02*
X10593134Y-17661325D01*
X10593134Y-17661325D02*
X10583611Y-17651801D01*
X10583611Y-17651801D02*
X10574087Y-17632754D01*
X10574087Y-17632754D02*
X10564563Y-17594658D01*
X10564563Y-17594658D02*
X10564563Y-17547039D01*
X10564563Y-17547039D02*
X10574087Y-17508944D01*
X10574087Y-17508944D02*
X10583611Y-17489896D01*
X10583611Y-17489896D02*
X10593134Y-17480373D01*
X10593134Y-17480373D02*
X10612182Y-17470849D01*
X10802658Y-17470849D02*
X10821706Y-17470849D01*
X10821706Y-17470849D02*
X10840754Y-17480373D01*
X10840754Y-17480373D02*
X10850277Y-17489896D01*
X10850277Y-17489896D02*
X10859801Y-17508944D01*
X10859801Y-17508944D02*
X10869325Y-17547039D01*
X10869325Y-17547039D02*
X10869325Y-17594658D01*
X10869325Y-17594658D02*
X10859801Y-17632754D01*
X10859801Y-17632754D02*
X10850277Y-17651801D01*
X10850277Y-17651801D02*
X10840754Y-17661325D01*
X10840754Y-17661325D02*
X10821706Y-17670849D01*
X10821706Y-17670849D02*
X10802658Y-17670849D01*
X10802658Y-17670849D02*
X10783611Y-17661325D01*
X10783611Y-17661325D02*
X10774087Y-17651801D01*
X10774087Y-17651801D02*
X10764563Y-17632754D01*
X10764563Y-17632754D02*
X10755039Y-17594658D01*
X10755039Y-17594658D02*
X10755039Y-17547039D01*
X10755039Y-17547039D02*
X10764563Y-17508944D01*
X10764563Y-17508944D02*
X10774087Y-17489896D01*
X10774087Y-17489896D02*
X10783611Y-17480373D01*
X10783611Y-17480373D02*
X10802658Y-17470849D01*
X10955039Y-17670849D02*
X10955039Y-17537515D01*
X10955039Y-17556563D02*
X10964563Y-17547039D01*
X10964563Y-17547039D02*
X10983611Y-17537515D01*
X10983611Y-17537515D02*
X11012182Y-17537515D01*
X11012182Y-17537515D02*
X11031230Y-17547039D01*
X11031230Y-17547039D02*
X11040754Y-17566087D01*
X11040754Y-17566087D02*
X11040754Y-17670849D01*
X11040754Y-17566087D02*
X11050277Y-17547039D01*
X11050277Y-17547039D02*
X11069325Y-17537515D01*
X11069325Y-17537515D02*
X11097896Y-17537515D01*
X11097896Y-17537515D02*
X11116944Y-17547039D01*
X11116944Y-17547039D02*
X11126468Y-17566087D01*
X11126468Y-17566087D02*
X11126468Y-17670849D01*
X11221706Y-17670849D02*
X11221706Y-17537515D01*
X11221706Y-17556563D02*
X11231230Y-17547039D01*
X11231230Y-17547039D02*
X11250277Y-17537515D01*
X11250277Y-17537515D02*
X11278849Y-17537515D01*
X11278849Y-17537515D02*
X11297896Y-17547039D01*
X11297896Y-17547039D02*
X11307420Y-17566087D01*
X11307420Y-17566087D02*
X11307420Y-17670849D01*
X11307420Y-17566087D02*
X11316944Y-17547039D01*
X11316944Y-17547039D02*
X11335992Y-17537515D01*
X11335992Y-17537515D02*
X11364563Y-17537515D01*
X11364563Y-17537515D02*
X11383611Y-17547039D01*
X11383611Y-17547039D02*
X11393134Y-17566087D01*
X11393134Y-17566087D02*
X11393134Y-17670849D01*
X11783611Y-17461325D02*
X11612182Y-17718468D01*
X12040754Y-17470849D02*
X12059801Y-17470849D01*
X12059801Y-17470849D02*
X12078849Y-17480373D01*
X12078849Y-17480373D02*
X12088373Y-17489896D01*
X12088373Y-17489896D02*
X12097896Y-17508944D01*
X12097896Y-17508944D02*
X12107420Y-17547039D01*
X12107420Y-17547039D02*
X12107420Y-17594658D01*
X12107420Y-17594658D02*
X12097896Y-17632754D01*
X12097896Y-17632754D02*
X12088373Y-17651801D01*
X12088373Y-17651801D02*
X12078849Y-17661325D01*
X12078849Y-17661325D02*
X12059801Y-17670849D01*
X12059801Y-17670849D02*
X12040754Y-17670849D01*
X12040754Y-17670849D02*
X12021706Y-17661325D01*
X12021706Y-17661325D02*
X12012182Y-17651801D01*
X12012182Y-17651801D02*
X12002658Y-17632754D01*
X12002658Y-17632754D02*
X11993135Y-17594658D01*
X11993135Y-17594658D02*
X11993135Y-17547039D01*
X11993135Y-17547039D02*
X12002658Y-17508944D01*
X12002658Y-17508944D02*
X12012182Y-17489896D01*
X12012182Y-17489896D02*
X12021706Y-17480373D01*
X12021706Y-17480373D02*
X12040754Y-17470849D01*
X12193135Y-17651801D02*
X12202658Y-17661325D01*
X12202658Y-17661325D02*
X12193135Y-17670849D01*
X12193135Y-17670849D02*
X12183611Y-17661325D01*
X12183611Y-17661325D02*
X12193135Y-17651801D01*
X12193135Y-17651801D02*
X12193135Y-17670849D01*
X12326468Y-17470849D02*
X12345516Y-17470849D01*
X12345516Y-17470849D02*
X12364563Y-17480373D01*
X12364563Y-17480373D02*
X12374087Y-17489896D01*
X12374087Y-17489896D02*
X12383611Y-17508944D01*
X12383611Y-17508944D02*
X12393135Y-17547039D01*
X12393135Y-17547039D02*
X12393135Y-17594658D01*
X12393135Y-17594658D02*
X12383611Y-17632754D01*
X12383611Y-17632754D02*
X12374087Y-17651801D01*
X12374087Y-17651801D02*
X12364563Y-17661325D01*
X12364563Y-17661325D02*
X12345516Y-17670849D01*
X12345516Y-17670849D02*
X12326468Y-17670849D01*
X12326468Y-17670849D02*
X12307420Y-17661325D01*
X12307420Y-17661325D02*
X12297896Y-17651801D01*
X12297896Y-17651801D02*
X12288373Y-17632754D01*
X12288373Y-17632754D02*
X12278849Y-17594658D01*
X12278849Y-17594658D02*
X12278849Y-17547039D01*
X12278849Y-17547039D02*
X12288373Y-17508944D01*
X12288373Y-17508944D02*
X12297896Y-17489896D01*
X12297896Y-17489896D02*
X12307420Y-17480373D01*
X12307420Y-17480373D02*
X12326468Y-17470849D01*
X12574087Y-17470849D02*
X12478849Y-17470849D01*
X12478849Y-17470849D02*
X12469325Y-17566087D01*
X12469325Y-17566087D02*
X12478849Y-17556563D01*
X12478849Y-17556563D02*
X12497896Y-17547039D01*
X12497896Y-17547039D02*
X12545516Y-17547039D01*
X12545516Y-17547039D02*
X12564563Y-17556563D01*
X12564563Y-17556563D02*
X12574087Y-17566087D01*
X12574087Y-17566087D02*
X12583611Y-17585135D01*
X12583611Y-17585135D02*
X12583611Y-17632754D01*
X12583611Y-17632754D02*
X12574087Y-17651801D01*
X12574087Y-17651801D02*
X12564563Y-17661325D01*
X12564563Y-17661325D02*
X12545516Y-17670849D01*
X12545516Y-17670849D02*
X12497896Y-17670849D01*
X12497896Y-17670849D02*
X12478849Y-17661325D01*
X12478849Y-17661325D02*
X12469325Y-17651801D01*
X12678849Y-17670849D02*
X12716944Y-17670849D01*
X12716944Y-17670849D02*
X12735992Y-17661325D01*
X12735992Y-17661325D02*
X12745516Y-17651801D01*
X12745516Y-17651801D02*
X12764563Y-17623230D01*
X12764563Y-17623230D02*
X12774087Y-17585135D01*
X12774087Y-17585135D02*
X12774087Y-17508944D01*
X12774087Y-17508944D02*
X12764563Y-17489896D01*
X12764563Y-17489896D02*
X12755039Y-17480373D01*
X12755039Y-17480373D02*
X12735992Y-17470849D01*
X12735992Y-17470849D02*
X12697896Y-17470849D01*
X12697896Y-17470849D02*
X12678849Y-17480373D01*
X12678849Y-17480373D02*
X12669325Y-17489896D01*
X12669325Y-17489896D02*
X12659801Y-17508944D01*
X12659801Y-17508944D02*
X12659801Y-17556563D01*
X12659801Y-17556563D02*
X12669325Y-17575611D01*
X12669325Y-17575611D02*
X12678849Y-17585135D01*
X12678849Y-17585135D02*
X12697896Y-17594658D01*
X12697896Y-17594658D02*
X12735992Y-17594658D01*
X12735992Y-17594658D02*
X12755039Y-17585135D01*
X12755039Y-17585135D02*
X12764563Y-17575611D01*
X12764563Y-17575611D02*
X12774087Y-17556563D01*
X12964563Y-17670849D02*
X12850277Y-17670849D01*
X12907420Y-17670849D02*
X12907420Y-17470849D01*
X12907420Y-17470849D02*
X12888373Y-17499420D01*
X12888373Y-17499420D02*
X12869325Y-17518468D01*
X12869325Y-17518468D02*
X12850277Y-17527992D01*
X13040754Y-17470849D02*
X13040754Y-17508944D01*
X13116944Y-17470849D02*
X13116944Y-17508944D01*
X13412182Y-17747039D02*
X13402658Y-17737515D01*
X13402658Y-17737515D02*
X13383611Y-17708944D01*
X13383611Y-17708944D02*
X13374087Y-17689896D01*
X13374087Y-17689896D02*
X13364563Y-17661325D01*
X13364563Y-17661325D02*
X13355039Y-17613706D01*
X13355039Y-17613706D02*
X13355039Y-17575611D01*
X13355039Y-17575611D02*
X13364563Y-17527992D01*
X13364563Y-17527992D02*
X13374087Y-17499420D01*
X13374087Y-17499420D02*
X13383611Y-17480373D01*
X13383611Y-17480373D02*
X13402658Y-17451801D01*
X13402658Y-17451801D02*
X13412182Y-17442277D01*
X13526468Y-17470849D02*
X13545516Y-17470849D01*
X13545516Y-17470849D02*
X13564563Y-17480373D01*
X13564563Y-17480373D02*
X13574087Y-17489896D01*
X13574087Y-17489896D02*
X13583611Y-17508944D01*
X13583611Y-17508944D02*
X13593135Y-17547039D01*
X13593135Y-17547039D02*
X13593135Y-17594658D01*
X13593135Y-17594658D02*
X13583611Y-17632754D01*
X13583611Y-17632754D02*
X13574087Y-17651801D01*
X13574087Y-17651801D02*
X13564563Y-17661325D01*
X13564563Y-17661325D02*
X13545516Y-17670849D01*
X13545516Y-17670849D02*
X13526468Y-17670849D01*
X13526468Y-17670849D02*
X13507420Y-17661325D01*
X13507420Y-17661325D02*
X13497897Y-17651801D01*
X13497897Y-17651801D02*
X13488373Y-17632754D01*
X13488373Y-17632754D02*
X13478849Y-17594658D01*
X13478849Y-17594658D02*
X13478849Y-17547039D01*
X13478849Y-17547039D02*
X13488373Y-17508944D01*
X13488373Y-17508944D02*
X13497897Y-17489896D01*
X13497897Y-17489896D02*
X13507420Y-17480373D01*
X13507420Y-17480373D02*
X13526468Y-17470849D01*
X13831230Y-17670849D02*
X13831230Y-17470849D01*
X13916944Y-17670849D02*
X13916944Y-17566087D01*
X13916944Y-17566087D02*
X13907420Y-17547039D01*
X13907420Y-17547039D02*
X13888373Y-17537515D01*
X13888373Y-17537515D02*
X13859801Y-17537515D01*
X13859801Y-17537515D02*
X13840754Y-17547039D01*
X13840754Y-17547039D02*
X13831230Y-17556563D01*
X14040754Y-17670849D02*
X14021706Y-17661325D01*
X14021706Y-17661325D02*
X14012182Y-17651801D01*
X14012182Y-17651801D02*
X14002659Y-17632754D01*
X14002659Y-17632754D02*
X14002659Y-17575611D01*
X14002659Y-17575611D02*
X14012182Y-17556563D01*
X14012182Y-17556563D02*
X14021706Y-17547039D01*
X14021706Y-17547039D02*
X14040754Y-17537515D01*
X14040754Y-17537515D02*
X14069325Y-17537515D01*
X14069325Y-17537515D02*
X14088373Y-17547039D01*
X14088373Y-17547039D02*
X14097897Y-17556563D01*
X14097897Y-17556563D02*
X14107420Y-17575611D01*
X14107420Y-17575611D02*
X14107420Y-17632754D01*
X14107420Y-17632754D02*
X14097897Y-17651801D01*
X14097897Y-17651801D02*
X14088373Y-17661325D01*
X14088373Y-17661325D02*
X14069325Y-17670849D01*
X14069325Y-17670849D02*
X14040754Y-17670849D01*
X14221706Y-17670849D02*
X14202659Y-17661325D01*
X14202659Y-17661325D02*
X14193135Y-17642277D01*
X14193135Y-17642277D02*
X14193135Y-17470849D01*
X14374087Y-17661325D02*
X14355040Y-17670849D01*
X14355040Y-17670849D02*
X14316944Y-17670849D01*
X14316944Y-17670849D02*
X14297897Y-17661325D01*
X14297897Y-17661325D02*
X14288373Y-17642277D01*
X14288373Y-17642277D02*
X14288373Y-17566087D01*
X14288373Y-17566087D02*
X14297897Y-17547039D01*
X14297897Y-17547039D02*
X14316944Y-17537515D01*
X14316944Y-17537515D02*
X14355040Y-17537515D01*
X14355040Y-17537515D02*
X14374087Y-17547039D01*
X14374087Y-17547039D02*
X14383611Y-17566087D01*
X14383611Y-17566087D02*
X14383611Y-17585135D01*
X14383611Y-17585135D02*
X14288373Y-17604182D01*
X14459801Y-17661325D02*
X14478849Y-17670849D01*
X14478849Y-17670849D02*
X14516944Y-17670849D01*
X14516944Y-17670849D02*
X14535992Y-17661325D01*
X14535992Y-17661325D02*
X14545516Y-17642277D01*
X14545516Y-17642277D02*
X14545516Y-17632754D01*
X14545516Y-17632754D02*
X14535992Y-17613706D01*
X14535992Y-17613706D02*
X14516944Y-17604182D01*
X14516944Y-17604182D02*
X14488373Y-17604182D01*
X14488373Y-17604182D02*
X14469325Y-17594658D01*
X14469325Y-17594658D02*
X14459801Y-17575611D01*
X14459801Y-17575611D02*
X14459801Y-17566087D01*
X14459801Y-17566087D02*
X14469325Y-17547039D01*
X14469325Y-17547039D02*
X14488373Y-17537515D01*
X14488373Y-17537515D02*
X14516944Y-17537515D01*
X14516944Y-17537515D02*
X14535992Y-17547039D01*
X14783611Y-17594658D02*
X14935992Y-17594658D01*
X14859802Y-17670849D02*
X14859802Y-17518468D01*
X15174087Y-17489896D02*
X15183611Y-17480373D01*
X15183611Y-17480373D02*
X15202659Y-17470849D01*
X15202659Y-17470849D02*
X15250278Y-17470849D01*
X15250278Y-17470849D02*
X15269325Y-17480373D01*
X15269325Y-17480373D02*
X15278849Y-17489896D01*
X15278849Y-17489896D02*
X15288373Y-17508944D01*
X15288373Y-17508944D02*
X15288373Y-17527992D01*
X15288373Y-17527992D02*
X15278849Y-17556563D01*
X15278849Y-17556563D02*
X15164563Y-17670849D01*
X15164563Y-17670849D02*
X15288373Y-17670849D01*
X15516944Y-17661325D02*
X15535992Y-17670849D01*
X15535992Y-17670849D02*
X15574087Y-17670849D01*
X15574087Y-17670849D02*
X15593135Y-17661325D01*
X15593135Y-17661325D02*
X15602659Y-17642277D01*
X15602659Y-17642277D02*
X15602659Y-17632754D01*
X15602659Y-17632754D02*
X15593135Y-17613706D01*
X15593135Y-17613706D02*
X15574087Y-17604182D01*
X15574087Y-17604182D02*
X15545516Y-17604182D01*
X15545516Y-17604182D02*
X15526468Y-17594658D01*
X15526468Y-17594658D02*
X15516944Y-17575611D01*
X15516944Y-17575611D02*
X15516944Y-17566087D01*
X15516944Y-17566087D02*
X15526468Y-17547039D01*
X15526468Y-17547039D02*
X15545516Y-17537515D01*
X15545516Y-17537515D02*
X15574087Y-17537515D01*
X15574087Y-17537515D02*
X15593135Y-17547039D01*
X15716944Y-17670849D02*
X15697897Y-17661325D01*
X15697897Y-17661325D02*
X15688373Y-17642277D01*
X15688373Y-17642277D02*
X15688373Y-17470849D01*
X15821706Y-17670849D02*
X15802659Y-17661325D01*
X15802659Y-17661325D02*
X15793135Y-17651801D01*
X15793135Y-17651801D02*
X15783611Y-17632754D01*
X15783611Y-17632754D02*
X15783611Y-17575611D01*
X15783611Y-17575611D02*
X15793135Y-17556563D01*
X15793135Y-17556563D02*
X15802659Y-17547039D01*
X15802659Y-17547039D02*
X15821706Y-17537515D01*
X15821706Y-17537515D02*
X15850278Y-17537515D01*
X15850278Y-17537515D02*
X15869325Y-17547039D01*
X15869325Y-17547039D02*
X15878849Y-17556563D01*
X15878849Y-17556563D02*
X15888373Y-17575611D01*
X15888373Y-17575611D02*
X15888373Y-17632754D01*
X15888373Y-17632754D02*
X15878849Y-17651801D01*
X15878849Y-17651801D02*
X15869325Y-17661325D01*
X15869325Y-17661325D02*
X15850278Y-17670849D01*
X15850278Y-17670849D02*
X15821706Y-17670849D01*
X15945516Y-17537515D02*
X16021706Y-17537515D01*
X15974087Y-17470849D02*
X15974087Y-17642277D01*
X15974087Y-17642277D02*
X15983611Y-17661325D01*
X15983611Y-17661325D02*
X16002659Y-17670849D01*
X16002659Y-17670849D02*
X16021706Y-17670849D01*
X16078849Y-17661325D02*
X16097897Y-17670849D01*
X16097897Y-17670849D02*
X16135992Y-17670849D01*
X16135992Y-17670849D02*
X16155040Y-17661325D01*
X16155040Y-17661325D02*
X16164564Y-17642277D01*
X16164564Y-17642277D02*
X16164564Y-17632754D01*
X16164564Y-17632754D02*
X16155040Y-17613706D01*
X16155040Y-17613706D02*
X16135992Y-17604182D01*
X16135992Y-17604182D02*
X16107421Y-17604182D01*
X16107421Y-17604182D02*
X16088373Y-17594658D01*
X16088373Y-17594658D02*
X16078849Y-17575611D01*
X16078849Y-17575611D02*
X16078849Y-17566087D01*
X16078849Y-17566087D02*
X16088373Y-17547039D01*
X16088373Y-17547039D02*
X16107421Y-17537515D01*
X16107421Y-17537515D02*
X16135992Y-17537515D01*
X16135992Y-17537515D02*
X16155040Y-17547039D01*
X16231230Y-17747039D02*
X16240754Y-17737515D01*
X16240754Y-17737515D02*
X16259802Y-17708944D01*
X16259802Y-17708944D02*
X16269325Y-17689896D01*
X16269325Y-17689896D02*
X16278849Y-17661325D01*
X16278849Y-17661325D02*
X16288373Y-17613706D01*
X16288373Y-17613706D02*
X16288373Y-17575611D01*
X16288373Y-17575611D02*
X16278849Y-17527992D01*
X16278849Y-17527992D02*
X16269325Y-17499420D01*
X16269325Y-17499420D02*
X16259802Y-17480373D01*
X16259802Y-17480373D02*
X16240754Y-17451801D01*
X16240754Y-17451801D02*
X16231230Y-17442277D01*
X9737120Y-17949365D02*
X9837120Y-17849365D01*
X9737120Y-17749365D01*
X9637120Y-17849365D01*
X9737120Y-17949365D01*
X10078849Y-17740849D02*
X10202658Y-17740849D01*
X10202658Y-17740849D02*
X10135992Y-17817039D01*
X10135992Y-17817039D02*
X10164563Y-17817039D01*
X10164563Y-17817039D02*
X10183611Y-17826563D01*
X10183611Y-17826563D02*
X10193134Y-17836087D01*
X10193134Y-17836087D02*
X10202658Y-17855135D01*
X10202658Y-17855135D02*
X10202658Y-17902754D01*
X10202658Y-17902754D02*
X10193134Y-17921801D01*
X10193134Y-17921801D02*
X10183611Y-17931325D01*
X10183611Y-17931325D02*
X10164563Y-17940849D01*
X10164563Y-17940849D02*
X10107420Y-17940849D01*
X10107420Y-17940849D02*
X10088373Y-17931325D01*
X10088373Y-17931325D02*
X10078849Y-17921801D01*
X10288373Y-17921801D02*
X10297896Y-17931325D01*
X10297896Y-17931325D02*
X10288373Y-17940849D01*
X10288373Y-17940849D02*
X10278849Y-17931325D01*
X10278849Y-17931325D02*
X10288373Y-17921801D01*
X10288373Y-17921801D02*
X10288373Y-17940849D01*
X10421706Y-17740849D02*
X10440754Y-17740849D01*
X10440754Y-17740849D02*
X10459801Y-17750373D01*
X10459801Y-17750373D02*
X10469325Y-17759896D01*
X10469325Y-17759896D02*
X10478849Y-17778944D01*
X10478849Y-17778944D02*
X10488373Y-17817039D01*
X10488373Y-17817039D02*
X10488373Y-17864658D01*
X10488373Y-17864658D02*
X10478849Y-17902754D01*
X10478849Y-17902754D02*
X10469325Y-17921801D01*
X10469325Y-17921801D02*
X10459801Y-17931325D01*
X10459801Y-17931325D02*
X10440754Y-17940849D01*
X10440754Y-17940849D02*
X10421706Y-17940849D01*
X10421706Y-17940849D02*
X10402658Y-17931325D01*
X10402658Y-17931325D02*
X10393134Y-17921801D01*
X10393134Y-17921801D02*
X10383611Y-17902754D01*
X10383611Y-17902754D02*
X10374087Y-17864658D01*
X10374087Y-17864658D02*
X10374087Y-17817039D01*
X10374087Y-17817039D02*
X10383611Y-17778944D01*
X10383611Y-17778944D02*
X10393134Y-17759896D01*
X10393134Y-17759896D02*
X10402658Y-17750373D01*
X10402658Y-17750373D02*
X10421706Y-17740849D01*
X10612182Y-17740849D02*
X10631230Y-17740849D01*
X10631230Y-17740849D02*
X10650277Y-17750373D01*
X10650277Y-17750373D02*
X10659801Y-17759896D01*
X10659801Y-17759896D02*
X10669325Y-17778944D01*
X10669325Y-17778944D02*
X10678849Y-17817039D01*
X10678849Y-17817039D02*
X10678849Y-17864658D01*
X10678849Y-17864658D02*
X10669325Y-17902754D01*
X10669325Y-17902754D02*
X10659801Y-17921801D01*
X10659801Y-17921801D02*
X10650277Y-17931325D01*
X10650277Y-17931325D02*
X10631230Y-17940849D01*
X10631230Y-17940849D02*
X10612182Y-17940849D01*
X10612182Y-17940849D02*
X10593134Y-17931325D01*
X10593134Y-17931325D02*
X10583611Y-17921801D01*
X10583611Y-17921801D02*
X10574087Y-17902754D01*
X10574087Y-17902754D02*
X10564563Y-17864658D01*
X10564563Y-17864658D02*
X10564563Y-17817039D01*
X10564563Y-17817039D02*
X10574087Y-17778944D01*
X10574087Y-17778944D02*
X10583611Y-17759896D01*
X10583611Y-17759896D02*
X10593134Y-17750373D01*
X10593134Y-17750373D02*
X10612182Y-17740849D01*
X10802658Y-17740849D02*
X10821706Y-17740849D01*
X10821706Y-17740849D02*
X10840754Y-17750373D01*
X10840754Y-17750373D02*
X10850277Y-17759896D01*
X10850277Y-17759896D02*
X10859801Y-17778944D01*
X10859801Y-17778944D02*
X10869325Y-17817039D01*
X10869325Y-17817039D02*
X10869325Y-17864658D01*
X10869325Y-17864658D02*
X10859801Y-17902754D01*
X10859801Y-17902754D02*
X10850277Y-17921801D01*
X10850277Y-17921801D02*
X10840754Y-17931325D01*
X10840754Y-17931325D02*
X10821706Y-17940849D01*
X10821706Y-17940849D02*
X10802658Y-17940849D01*
X10802658Y-17940849D02*
X10783611Y-17931325D01*
X10783611Y-17931325D02*
X10774087Y-17921801D01*
X10774087Y-17921801D02*
X10764563Y-17902754D01*
X10764563Y-17902754D02*
X10755039Y-17864658D01*
X10755039Y-17864658D02*
X10755039Y-17817039D01*
X10755039Y-17817039D02*
X10764563Y-17778944D01*
X10764563Y-17778944D02*
X10774087Y-17759896D01*
X10774087Y-17759896D02*
X10783611Y-17750373D01*
X10783611Y-17750373D02*
X10802658Y-17740849D01*
X10955039Y-17940849D02*
X10955039Y-17807515D01*
X10955039Y-17826563D02*
X10964563Y-17817039D01*
X10964563Y-17817039D02*
X10983611Y-17807515D01*
X10983611Y-17807515D02*
X11012182Y-17807515D01*
X11012182Y-17807515D02*
X11031230Y-17817039D01*
X11031230Y-17817039D02*
X11040754Y-17836087D01*
X11040754Y-17836087D02*
X11040754Y-17940849D01*
X11040754Y-17836087D02*
X11050277Y-17817039D01*
X11050277Y-17817039D02*
X11069325Y-17807515D01*
X11069325Y-17807515D02*
X11097896Y-17807515D01*
X11097896Y-17807515D02*
X11116944Y-17817039D01*
X11116944Y-17817039D02*
X11126468Y-17836087D01*
X11126468Y-17836087D02*
X11126468Y-17940849D01*
X11221706Y-17940849D02*
X11221706Y-17807515D01*
X11221706Y-17826563D02*
X11231230Y-17817039D01*
X11231230Y-17817039D02*
X11250277Y-17807515D01*
X11250277Y-17807515D02*
X11278849Y-17807515D01*
X11278849Y-17807515D02*
X11297896Y-17817039D01*
X11297896Y-17817039D02*
X11307420Y-17836087D01*
X11307420Y-17836087D02*
X11307420Y-17940849D01*
X11307420Y-17836087D02*
X11316944Y-17817039D01*
X11316944Y-17817039D02*
X11335992Y-17807515D01*
X11335992Y-17807515D02*
X11364563Y-17807515D01*
X11364563Y-17807515D02*
X11383611Y-17817039D01*
X11383611Y-17817039D02*
X11393134Y-17836087D01*
X11393134Y-17836087D02*
X11393134Y-17940849D01*
X11783611Y-17731325D02*
X11612182Y-17988468D01*
X12040754Y-17740849D02*
X12059801Y-17740849D01*
X12059801Y-17740849D02*
X12078849Y-17750373D01*
X12078849Y-17750373D02*
X12088373Y-17759896D01*
X12088373Y-17759896D02*
X12097896Y-17778944D01*
X12097896Y-17778944D02*
X12107420Y-17817039D01*
X12107420Y-17817039D02*
X12107420Y-17864658D01*
X12107420Y-17864658D02*
X12097896Y-17902754D01*
X12097896Y-17902754D02*
X12088373Y-17921801D01*
X12088373Y-17921801D02*
X12078849Y-17931325D01*
X12078849Y-17931325D02*
X12059801Y-17940849D01*
X12059801Y-17940849D02*
X12040754Y-17940849D01*
X12040754Y-17940849D02*
X12021706Y-17931325D01*
X12021706Y-17931325D02*
X12012182Y-17921801D01*
X12012182Y-17921801D02*
X12002658Y-17902754D01*
X12002658Y-17902754D02*
X11993135Y-17864658D01*
X11993135Y-17864658D02*
X11993135Y-17817039D01*
X11993135Y-17817039D02*
X12002658Y-17778944D01*
X12002658Y-17778944D02*
X12012182Y-17759896D01*
X12012182Y-17759896D02*
X12021706Y-17750373D01*
X12021706Y-17750373D02*
X12040754Y-17740849D01*
X12193135Y-17921801D02*
X12202658Y-17931325D01*
X12202658Y-17931325D02*
X12193135Y-17940849D01*
X12193135Y-17940849D02*
X12183611Y-17931325D01*
X12183611Y-17931325D02*
X12193135Y-17921801D01*
X12193135Y-17921801D02*
X12193135Y-17940849D01*
X12393135Y-17940849D02*
X12278849Y-17940849D01*
X12335992Y-17940849D02*
X12335992Y-17740849D01*
X12335992Y-17740849D02*
X12316944Y-17769420D01*
X12316944Y-17769420D02*
X12297896Y-17788468D01*
X12297896Y-17788468D02*
X12278849Y-17797992D01*
X12583611Y-17940849D02*
X12469325Y-17940849D01*
X12526468Y-17940849D02*
X12526468Y-17740849D01*
X12526468Y-17740849D02*
X12507420Y-17769420D01*
X12507420Y-17769420D02*
X12488373Y-17788468D01*
X12488373Y-17788468D02*
X12469325Y-17797992D01*
X12697896Y-17826563D02*
X12678849Y-17817039D01*
X12678849Y-17817039D02*
X12669325Y-17807515D01*
X12669325Y-17807515D02*
X12659801Y-17788468D01*
X12659801Y-17788468D02*
X12659801Y-17778944D01*
X12659801Y-17778944D02*
X12669325Y-17759896D01*
X12669325Y-17759896D02*
X12678849Y-17750373D01*
X12678849Y-17750373D02*
X12697896Y-17740849D01*
X12697896Y-17740849D02*
X12735992Y-17740849D01*
X12735992Y-17740849D02*
X12755039Y-17750373D01*
X12755039Y-17750373D02*
X12764563Y-17759896D01*
X12764563Y-17759896D02*
X12774087Y-17778944D01*
X12774087Y-17778944D02*
X12774087Y-17788468D01*
X12774087Y-17788468D02*
X12764563Y-17807515D01*
X12764563Y-17807515D02*
X12755039Y-17817039D01*
X12755039Y-17817039D02*
X12735992Y-17826563D01*
X12735992Y-17826563D02*
X12697896Y-17826563D01*
X12697896Y-17826563D02*
X12678849Y-17836087D01*
X12678849Y-17836087D02*
X12669325Y-17845611D01*
X12669325Y-17845611D02*
X12659801Y-17864658D01*
X12659801Y-17864658D02*
X12659801Y-17902754D01*
X12659801Y-17902754D02*
X12669325Y-17921801D01*
X12669325Y-17921801D02*
X12678849Y-17931325D01*
X12678849Y-17931325D02*
X12697896Y-17940849D01*
X12697896Y-17940849D02*
X12735992Y-17940849D01*
X12735992Y-17940849D02*
X12755039Y-17931325D01*
X12755039Y-17931325D02*
X12764563Y-17921801D01*
X12764563Y-17921801D02*
X12774087Y-17902754D01*
X12774087Y-17902754D02*
X12774087Y-17864658D01*
X12774087Y-17864658D02*
X12764563Y-17845611D01*
X12764563Y-17845611D02*
X12755039Y-17836087D01*
X12755039Y-17836087D02*
X12735992Y-17826563D01*
X12964563Y-17940849D02*
X12850277Y-17940849D01*
X12907420Y-17940849D02*
X12907420Y-17740849D01*
X12907420Y-17740849D02*
X12888373Y-17769420D01*
X12888373Y-17769420D02*
X12869325Y-17788468D01*
X12869325Y-17788468D02*
X12850277Y-17797992D01*
X13040754Y-17740849D02*
X13040754Y-17778944D01*
X13116944Y-17740849D02*
X13116944Y-17778944D01*
X13412182Y-18017039D02*
X13402658Y-18007515D01*
X13402658Y-18007515D02*
X13383611Y-17978944D01*
X13383611Y-17978944D02*
X13374087Y-17959896D01*
X13374087Y-17959896D02*
X13364563Y-17931325D01*
X13364563Y-17931325D02*
X13355039Y-17883706D01*
X13355039Y-17883706D02*
X13355039Y-17845611D01*
X13355039Y-17845611D02*
X13364563Y-17797992D01*
X13364563Y-17797992D02*
X13374087Y-17769420D01*
X13374087Y-17769420D02*
X13383611Y-17750373D01*
X13383611Y-17750373D02*
X13402658Y-17721801D01*
X13402658Y-17721801D02*
X13412182Y-17712277D01*
X13593135Y-17940849D02*
X13478849Y-17940849D01*
X13535992Y-17940849D02*
X13535992Y-17740849D01*
X13535992Y-17740849D02*
X13516944Y-17769420D01*
X13516944Y-17769420D02*
X13497897Y-17788468D01*
X13497897Y-17788468D02*
X13478849Y-17797992D01*
X13764563Y-17807515D02*
X13764563Y-17940849D01*
X13716944Y-17731325D02*
X13669325Y-17874182D01*
X13669325Y-17874182D02*
X13793135Y-17874182D01*
X13955039Y-17740849D02*
X13916944Y-17740849D01*
X13916944Y-17740849D02*
X13897897Y-17750373D01*
X13897897Y-17750373D02*
X13888373Y-17759896D01*
X13888373Y-17759896D02*
X13869325Y-17788468D01*
X13869325Y-17788468D02*
X13859801Y-17826563D01*
X13859801Y-17826563D02*
X13859801Y-17902754D01*
X13859801Y-17902754D02*
X13869325Y-17921801D01*
X13869325Y-17921801D02*
X13878849Y-17931325D01*
X13878849Y-17931325D02*
X13897897Y-17940849D01*
X13897897Y-17940849D02*
X13935992Y-17940849D01*
X13935992Y-17940849D02*
X13955039Y-17931325D01*
X13955039Y-17931325D02*
X13964563Y-17921801D01*
X13964563Y-17921801D02*
X13974087Y-17902754D01*
X13974087Y-17902754D02*
X13974087Y-17855135D01*
X13974087Y-17855135D02*
X13964563Y-17836087D01*
X13964563Y-17836087D02*
X13955039Y-17826563D01*
X13955039Y-17826563D02*
X13935992Y-17817039D01*
X13935992Y-17817039D02*
X13897897Y-17817039D01*
X13897897Y-17817039D02*
X13878849Y-17826563D01*
X13878849Y-17826563D02*
X13869325Y-17836087D01*
X13869325Y-17836087D02*
X13859801Y-17855135D01*
X14212182Y-17940849D02*
X14212182Y-17740849D01*
X14297897Y-17940849D02*
X14297897Y-17836087D01*
X14297897Y-17836087D02*
X14288373Y-17817039D01*
X14288373Y-17817039D02*
X14269325Y-17807515D01*
X14269325Y-17807515D02*
X14240754Y-17807515D01*
X14240754Y-17807515D02*
X14221706Y-17817039D01*
X14221706Y-17817039D02*
X14212182Y-17826563D01*
X14421706Y-17940849D02*
X14402659Y-17931325D01*
X14402659Y-17931325D02*
X14393135Y-17921801D01*
X14393135Y-17921801D02*
X14383611Y-17902754D01*
X14383611Y-17902754D02*
X14383611Y-17845611D01*
X14383611Y-17845611D02*
X14393135Y-17826563D01*
X14393135Y-17826563D02*
X14402659Y-17817039D01*
X14402659Y-17817039D02*
X14421706Y-17807515D01*
X14421706Y-17807515D02*
X14450278Y-17807515D01*
X14450278Y-17807515D02*
X14469325Y-17817039D01*
X14469325Y-17817039D02*
X14478849Y-17826563D01*
X14478849Y-17826563D02*
X14488373Y-17845611D01*
X14488373Y-17845611D02*
X14488373Y-17902754D01*
X14488373Y-17902754D02*
X14478849Y-17921801D01*
X14478849Y-17921801D02*
X14469325Y-17931325D01*
X14469325Y-17931325D02*
X14450278Y-17940849D01*
X14450278Y-17940849D02*
X14421706Y-17940849D01*
X14602659Y-17940849D02*
X14583611Y-17931325D01*
X14583611Y-17931325D02*
X14574087Y-17912277D01*
X14574087Y-17912277D02*
X14574087Y-17740849D01*
X14755040Y-17931325D02*
X14735992Y-17940849D01*
X14735992Y-17940849D02*
X14697897Y-17940849D01*
X14697897Y-17940849D02*
X14678849Y-17931325D01*
X14678849Y-17931325D02*
X14669325Y-17912277D01*
X14669325Y-17912277D02*
X14669325Y-17836087D01*
X14669325Y-17836087D02*
X14678849Y-17817039D01*
X14678849Y-17817039D02*
X14697897Y-17807515D01*
X14697897Y-17807515D02*
X14735992Y-17807515D01*
X14735992Y-17807515D02*
X14755040Y-17817039D01*
X14755040Y-17817039D02*
X14764563Y-17836087D01*
X14764563Y-17836087D02*
X14764563Y-17855135D01*
X14764563Y-17855135D02*
X14669325Y-17874182D01*
X14840754Y-17931325D02*
X14859801Y-17940849D01*
X14859801Y-17940849D02*
X14897897Y-17940849D01*
X14897897Y-17940849D02*
X14916944Y-17931325D01*
X14916944Y-17931325D02*
X14926468Y-17912277D01*
X14926468Y-17912277D02*
X14926468Y-17902754D01*
X14926468Y-17902754D02*
X14916944Y-17883706D01*
X14916944Y-17883706D02*
X14897897Y-17874182D01*
X14897897Y-17874182D02*
X14869325Y-17874182D01*
X14869325Y-17874182D02*
X14850278Y-17864658D01*
X14850278Y-17864658D02*
X14840754Y-17845611D01*
X14840754Y-17845611D02*
X14840754Y-17836087D01*
X14840754Y-17836087D02*
X14850278Y-17817039D01*
X14850278Y-17817039D02*
X14869325Y-17807515D01*
X14869325Y-17807515D02*
X14897897Y-17807515D01*
X14897897Y-17807515D02*
X14916944Y-17817039D01*
X14993135Y-18017039D02*
X15002659Y-18007515D01*
X15002659Y-18007515D02*
X15021706Y-17978944D01*
X15021706Y-17978944D02*
X15031230Y-17959896D01*
X15031230Y-17959896D02*
X15040754Y-17931325D01*
X15040754Y-17931325D02*
X15050278Y-17883706D01*
X15050278Y-17883706D02*
X15050278Y-17845611D01*
X15050278Y-17845611D02*
X15040754Y-17797992D01*
X15040754Y-17797992D02*
X15031230Y-17769420D01*
X15031230Y-17769420D02*
X15021706Y-17750373D01*
X15021706Y-17750373D02*
X15002659Y-17721801D01*
X15002659Y-17721801D02*
X14993135Y-17712277D01*
X9637120Y-18069365D02*
X9837120Y-18269365D01*
X9837120Y-18069365D02*
X9637120Y-18269365D01*
X9837120Y-18169365D02*
G75*
G02*
X9637120Y-18169365I-100000J0D01*
G01*
X9637120Y-18169365D02*
G75*
G02*
X9837120Y-18169365I100000J0D01*
G01*
X10078849Y-18060849D02*
X10202658Y-18060849D01*
X10202658Y-18060849D02*
X10135992Y-18137039D01*
X10135992Y-18137039D02*
X10164563Y-18137039D01*
X10164563Y-18137039D02*
X10183611Y-18146563D01*
X10183611Y-18146563D02*
X10193134Y-18156087D01*
X10193134Y-18156087D02*
X10202658Y-18175135D01*
X10202658Y-18175135D02*
X10202658Y-18222754D01*
X10202658Y-18222754D02*
X10193134Y-18241801D01*
X10193134Y-18241801D02*
X10183611Y-18251325D01*
X10183611Y-18251325D02*
X10164563Y-18260849D01*
X10164563Y-18260849D02*
X10107420Y-18260849D01*
X10107420Y-18260849D02*
X10088373Y-18251325D01*
X10088373Y-18251325D02*
X10078849Y-18241801D01*
X10288373Y-18241801D02*
X10297896Y-18251325D01*
X10297896Y-18251325D02*
X10288373Y-18260849D01*
X10288373Y-18260849D02*
X10278849Y-18251325D01*
X10278849Y-18251325D02*
X10288373Y-18241801D01*
X10288373Y-18241801D02*
X10288373Y-18260849D01*
X10421706Y-18060849D02*
X10440754Y-18060849D01*
X10440754Y-18060849D02*
X10459801Y-18070373D01*
X10459801Y-18070373D02*
X10469325Y-18079896D01*
X10469325Y-18079896D02*
X10478849Y-18098944D01*
X10478849Y-18098944D02*
X10488373Y-18137039D01*
X10488373Y-18137039D02*
X10488373Y-18184658D01*
X10488373Y-18184658D02*
X10478849Y-18222754D01*
X10478849Y-18222754D02*
X10469325Y-18241801D01*
X10469325Y-18241801D02*
X10459801Y-18251325D01*
X10459801Y-18251325D02*
X10440754Y-18260849D01*
X10440754Y-18260849D02*
X10421706Y-18260849D01*
X10421706Y-18260849D02*
X10402658Y-18251325D01*
X10402658Y-18251325D02*
X10393134Y-18241801D01*
X10393134Y-18241801D02*
X10383611Y-18222754D01*
X10383611Y-18222754D02*
X10374087Y-18184658D01*
X10374087Y-18184658D02*
X10374087Y-18137039D01*
X10374087Y-18137039D02*
X10383611Y-18098944D01*
X10383611Y-18098944D02*
X10393134Y-18079896D01*
X10393134Y-18079896D02*
X10402658Y-18070373D01*
X10402658Y-18070373D02*
X10421706Y-18060849D01*
X10659801Y-18127515D02*
X10659801Y-18260849D01*
X10612182Y-18051325D02*
X10564563Y-18194182D01*
X10564563Y-18194182D02*
X10688373Y-18194182D01*
X10793134Y-18146563D02*
X10774087Y-18137039D01*
X10774087Y-18137039D02*
X10764563Y-18127515D01*
X10764563Y-18127515D02*
X10755039Y-18108468D01*
X10755039Y-18108468D02*
X10755039Y-18098944D01*
X10755039Y-18098944D02*
X10764563Y-18079896D01*
X10764563Y-18079896D02*
X10774087Y-18070373D01*
X10774087Y-18070373D02*
X10793134Y-18060849D01*
X10793134Y-18060849D02*
X10831230Y-18060849D01*
X10831230Y-18060849D02*
X10850277Y-18070373D01*
X10850277Y-18070373D02*
X10859801Y-18079896D01*
X10859801Y-18079896D02*
X10869325Y-18098944D01*
X10869325Y-18098944D02*
X10869325Y-18108468D01*
X10869325Y-18108468D02*
X10859801Y-18127515D01*
X10859801Y-18127515D02*
X10850277Y-18137039D01*
X10850277Y-18137039D02*
X10831230Y-18146563D01*
X10831230Y-18146563D02*
X10793134Y-18146563D01*
X10793134Y-18146563D02*
X10774087Y-18156087D01*
X10774087Y-18156087D02*
X10764563Y-18165611D01*
X10764563Y-18165611D02*
X10755039Y-18184658D01*
X10755039Y-18184658D02*
X10755039Y-18222754D01*
X10755039Y-18222754D02*
X10764563Y-18241801D01*
X10764563Y-18241801D02*
X10774087Y-18251325D01*
X10774087Y-18251325D02*
X10793134Y-18260849D01*
X10793134Y-18260849D02*
X10831230Y-18260849D01*
X10831230Y-18260849D02*
X10850277Y-18251325D01*
X10850277Y-18251325D02*
X10859801Y-18241801D01*
X10859801Y-18241801D02*
X10869325Y-18222754D01*
X10869325Y-18222754D02*
X10869325Y-18184658D01*
X10869325Y-18184658D02*
X10859801Y-18165611D01*
X10859801Y-18165611D02*
X10850277Y-18156087D01*
X10850277Y-18156087D02*
X10831230Y-18146563D01*
X10955039Y-18260849D02*
X10955039Y-18127515D01*
X10955039Y-18146563D02*
X10964563Y-18137039D01*
X10964563Y-18137039D02*
X10983611Y-18127515D01*
X10983611Y-18127515D02*
X11012182Y-18127515D01*
X11012182Y-18127515D02*
X11031230Y-18137039D01*
X11031230Y-18137039D02*
X11040754Y-18156087D01*
X11040754Y-18156087D02*
X11040754Y-18260849D01*
X11040754Y-18156087D02*
X11050277Y-18137039D01*
X11050277Y-18137039D02*
X11069325Y-18127515D01*
X11069325Y-18127515D02*
X11097896Y-18127515D01*
X11097896Y-18127515D02*
X11116944Y-18137039D01*
X11116944Y-18137039D02*
X11126468Y-18156087D01*
X11126468Y-18156087D02*
X11126468Y-18260849D01*
X11221706Y-18260849D02*
X11221706Y-18127515D01*
X11221706Y-18146563D02*
X11231230Y-18137039D01*
X11231230Y-18137039D02*
X11250277Y-18127515D01*
X11250277Y-18127515D02*
X11278849Y-18127515D01*
X11278849Y-18127515D02*
X11297896Y-18137039D01*
X11297896Y-18137039D02*
X11307420Y-18156087D01*
X11307420Y-18156087D02*
X11307420Y-18260849D01*
X11307420Y-18156087D02*
X11316944Y-18137039D01*
X11316944Y-18137039D02*
X11335992Y-18127515D01*
X11335992Y-18127515D02*
X11364563Y-18127515D01*
X11364563Y-18127515D02*
X11383611Y-18137039D01*
X11383611Y-18137039D02*
X11393134Y-18156087D01*
X11393134Y-18156087D02*
X11393134Y-18260849D01*
X11783611Y-18051325D02*
X11612182Y-18308468D01*
X12040754Y-18060849D02*
X12059801Y-18060849D01*
X12059801Y-18060849D02*
X12078849Y-18070373D01*
X12078849Y-18070373D02*
X12088373Y-18079896D01*
X12088373Y-18079896D02*
X12097896Y-18098944D01*
X12097896Y-18098944D02*
X12107420Y-18137039D01*
X12107420Y-18137039D02*
X12107420Y-18184658D01*
X12107420Y-18184658D02*
X12097896Y-18222754D01*
X12097896Y-18222754D02*
X12088373Y-18241801D01*
X12088373Y-18241801D02*
X12078849Y-18251325D01*
X12078849Y-18251325D02*
X12059801Y-18260849D01*
X12059801Y-18260849D02*
X12040754Y-18260849D01*
X12040754Y-18260849D02*
X12021706Y-18251325D01*
X12021706Y-18251325D02*
X12012182Y-18241801D01*
X12012182Y-18241801D02*
X12002658Y-18222754D01*
X12002658Y-18222754D02*
X11993135Y-18184658D01*
X11993135Y-18184658D02*
X11993135Y-18137039D01*
X11993135Y-18137039D02*
X12002658Y-18098944D01*
X12002658Y-18098944D02*
X12012182Y-18079896D01*
X12012182Y-18079896D02*
X12021706Y-18070373D01*
X12021706Y-18070373D02*
X12040754Y-18060849D01*
X12193135Y-18241801D02*
X12202658Y-18251325D01*
X12202658Y-18251325D02*
X12193135Y-18260849D01*
X12193135Y-18260849D02*
X12183611Y-18251325D01*
X12183611Y-18251325D02*
X12193135Y-18241801D01*
X12193135Y-18241801D02*
X12193135Y-18260849D01*
X12393135Y-18260849D02*
X12278849Y-18260849D01*
X12335992Y-18260849D02*
X12335992Y-18060849D01*
X12335992Y-18060849D02*
X12316944Y-18089420D01*
X12316944Y-18089420D02*
X12297896Y-18108468D01*
X12297896Y-18108468D02*
X12278849Y-18117992D01*
X12469325Y-18079896D02*
X12478849Y-18070373D01*
X12478849Y-18070373D02*
X12497896Y-18060849D01*
X12497896Y-18060849D02*
X12545516Y-18060849D01*
X12545516Y-18060849D02*
X12564563Y-18070373D01*
X12564563Y-18070373D02*
X12574087Y-18079896D01*
X12574087Y-18079896D02*
X12583611Y-18098944D01*
X12583611Y-18098944D02*
X12583611Y-18117992D01*
X12583611Y-18117992D02*
X12574087Y-18146563D01*
X12574087Y-18146563D02*
X12459801Y-18260849D01*
X12459801Y-18260849D02*
X12583611Y-18260849D01*
X12707420Y-18060849D02*
X12726468Y-18060849D01*
X12726468Y-18060849D02*
X12745516Y-18070373D01*
X12745516Y-18070373D02*
X12755039Y-18079896D01*
X12755039Y-18079896D02*
X12764563Y-18098944D01*
X12764563Y-18098944D02*
X12774087Y-18137039D01*
X12774087Y-18137039D02*
X12774087Y-18184658D01*
X12774087Y-18184658D02*
X12764563Y-18222754D01*
X12764563Y-18222754D02*
X12755039Y-18241801D01*
X12755039Y-18241801D02*
X12745516Y-18251325D01*
X12745516Y-18251325D02*
X12726468Y-18260849D01*
X12726468Y-18260849D02*
X12707420Y-18260849D01*
X12707420Y-18260849D02*
X12688373Y-18251325D01*
X12688373Y-18251325D02*
X12678849Y-18241801D01*
X12678849Y-18241801D02*
X12669325Y-18222754D01*
X12669325Y-18222754D02*
X12659801Y-18184658D01*
X12659801Y-18184658D02*
X12659801Y-18137039D01*
X12659801Y-18137039D02*
X12669325Y-18098944D01*
X12669325Y-18098944D02*
X12678849Y-18079896D01*
X12678849Y-18079896D02*
X12688373Y-18070373D01*
X12688373Y-18070373D02*
X12707420Y-18060849D01*
X12897896Y-18060849D02*
X12916944Y-18060849D01*
X12916944Y-18060849D02*
X12935992Y-18070373D01*
X12935992Y-18070373D02*
X12945516Y-18079896D01*
X12945516Y-18079896D02*
X12955039Y-18098944D01*
X12955039Y-18098944D02*
X12964563Y-18137039D01*
X12964563Y-18137039D02*
X12964563Y-18184658D01*
X12964563Y-18184658D02*
X12955039Y-18222754D01*
X12955039Y-18222754D02*
X12945516Y-18241801D01*
X12945516Y-18241801D02*
X12935992Y-18251325D01*
X12935992Y-18251325D02*
X12916944Y-18260849D01*
X12916944Y-18260849D02*
X12897896Y-18260849D01*
X12897896Y-18260849D02*
X12878849Y-18251325D01*
X12878849Y-18251325D02*
X12869325Y-18241801D01*
X12869325Y-18241801D02*
X12859801Y-18222754D01*
X12859801Y-18222754D02*
X12850277Y-18184658D01*
X12850277Y-18184658D02*
X12850277Y-18137039D01*
X12850277Y-18137039D02*
X12859801Y-18098944D01*
X12859801Y-18098944D02*
X12869325Y-18079896D01*
X12869325Y-18079896D02*
X12878849Y-18070373D01*
X12878849Y-18070373D02*
X12897896Y-18060849D01*
X13040754Y-18060849D02*
X13040754Y-18098944D01*
X13116944Y-18060849D02*
X13116944Y-18098944D01*
X13412182Y-18337039D02*
X13402658Y-18327515D01*
X13402658Y-18327515D02*
X13383611Y-18298944D01*
X13383611Y-18298944D02*
X13374087Y-18279896D01*
X13374087Y-18279896D02*
X13364563Y-18251325D01*
X13364563Y-18251325D02*
X13355039Y-18203706D01*
X13355039Y-18203706D02*
X13355039Y-18165611D01*
X13355039Y-18165611D02*
X13364563Y-18117992D01*
X13364563Y-18117992D02*
X13374087Y-18089420D01*
X13374087Y-18089420D02*
X13383611Y-18070373D01*
X13383611Y-18070373D02*
X13402658Y-18041801D01*
X13402658Y-18041801D02*
X13412182Y-18032277D01*
X13593135Y-18260849D02*
X13478849Y-18260849D01*
X13535992Y-18260849D02*
X13535992Y-18060849D01*
X13535992Y-18060849D02*
X13516944Y-18089420D01*
X13516944Y-18089420D02*
X13497897Y-18108468D01*
X13497897Y-18108468D02*
X13478849Y-18117992D01*
X13716944Y-18060849D02*
X13735992Y-18060849D01*
X13735992Y-18060849D02*
X13755039Y-18070373D01*
X13755039Y-18070373D02*
X13764563Y-18079896D01*
X13764563Y-18079896D02*
X13774087Y-18098944D01*
X13774087Y-18098944D02*
X13783611Y-18137039D01*
X13783611Y-18137039D02*
X13783611Y-18184658D01*
X13783611Y-18184658D02*
X13774087Y-18222754D01*
X13774087Y-18222754D02*
X13764563Y-18241801D01*
X13764563Y-18241801D02*
X13755039Y-18251325D01*
X13755039Y-18251325D02*
X13735992Y-18260849D01*
X13735992Y-18260849D02*
X13716944Y-18260849D01*
X13716944Y-18260849D02*
X13697897Y-18251325D01*
X13697897Y-18251325D02*
X13688373Y-18241801D01*
X13688373Y-18241801D02*
X13678849Y-18222754D01*
X13678849Y-18222754D02*
X13669325Y-18184658D01*
X13669325Y-18184658D02*
X13669325Y-18137039D01*
X13669325Y-18137039D02*
X13678849Y-18098944D01*
X13678849Y-18098944D02*
X13688373Y-18079896D01*
X13688373Y-18079896D02*
X13697897Y-18070373D01*
X13697897Y-18070373D02*
X13716944Y-18060849D01*
X14021706Y-18260849D02*
X14021706Y-18060849D01*
X14107420Y-18260849D02*
X14107420Y-18156087D01*
X14107420Y-18156087D02*
X14097897Y-18137039D01*
X14097897Y-18137039D02*
X14078849Y-18127515D01*
X14078849Y-18127515D02*
X14050278Y-18127515D01*
X14050278Y-18127515D02*
X14031230Y-18137039D01*
X14031230Y-18137039D02*
X14021706Y-18146563D01*
X14231230Y-18260849D02*
X14212182Y-18251325D01*
X14212182Y-18251325D02*
X14202659Y-18241801D01*
X14202659Y-18241801D02*
X14193135Y-18222754D01*
X14193135Y-18222754D02*
X14193135Y-18165611D01*
X14193135Y-18165611D02*
X14202659Y-18146563D01*
X14202659Y-18146563D02*
X14212182Y-18137039D01*
X14212182Y-18137039D02*
X14231230Y-18127515D01*
X14231230Y-18127515D02*
X14259801Y-18127515D01*
X14259801Y-18127515D02*
X14278849Y-18137039D01*
X14278849Y-18137039D02*
X14288373Y-18146563D01*
X14288373Y-18146563D02*
X14297897Y-18165611D01*
X14297897Y-18165611D02*
X14297897Y-18222754D01*
X14297897Y-18222754D02*
X14288373Y-18241801D01*
X14288373Y-18241801D02*
X14278849Y-18251325D01*
X14278849Y-18251325D02*
X14259801Y-18260849D01*
X14259801Y-18260849D02*
X14231230Y-18260849D01*
X14412182Y-18260849D02*
X14393135Y-18251325D01*
X14393135Y-18251325D02*
X14383611Y-18232277D01*
X14383611Y-18232277D02*
X14383611Y-18060849D01*
X14564563Y-18251325D02*
X14545516Y-18260849D01*
X14545516Y-18260849D02*
X14507420Y-18260849D01*
X14507420Y-18260849D02*
X14488373Y-18251325D01*
X14488373Y-18251325D02*
X14478849Y-18232277D01*
X14478849Y-18232277D02*
X14478849Y-18156087D01*
X14478849Y-18156087D02*
X14488373Y-18137039D01*
X14488373Y-18137039D02*
X14507420Y-18127515D01*
X14507420Y-18127515D02*
X14545516Y-18127515D01*
X14545516Y-18127515D02*
X14564563Y-18137039D01*
X14564563Y-18137039D02*
X14574087Y-18156087D01*
X14574087Y-18156087D02*
X14574087Y-18175135D01*
X14574087Y-18175135D02*
X14478849Y-18194182D01*
X14650278Y-18251325D02*
X14669325Y-18260849D01*
X14669325Y-18260849D02*
X14707420Y-18260849D01*
X14707420Y-18260849D02*
X14726468Y-18251325D01*
X14726468Y-18251325D02*
X14735992Y-18232277D01*
X14735992Y-18232277D02*
X14735992Y-18222754D01*
X14735992Y-18222754D02*
X14726468Y-18203706D01*
X14726468Y-18203706D02*
X14707420Y-18194182D01*
X14707420Y-18194182D02*
X14678849Y-18194182D01*
X14678849Y-18194182D02*
X14659801Y-18184658D01*
X14659801Y-18184658D02*
X14650278Y-18165611D01*
X14650278Y-18165611D02*
X14650278Y-18156087D01*
X14650278Y-18156087D02*
X14659801Y-18137039D01*
X14659801Y-18137039D02*
X14678849Y-18127515D01*
X14678849Y-18127515D02*
X14707420Y-18127515D01*
X14707420Y-18127515D02*
X14726468Y-18137039D01*
X14802659Y-18337039D02*
X14812182Y-18327515D01*
X14812182Y-18327515D02*
X14831230Y-18298944D01*
X14831230Y-18298944D02*
X14840754Y-18279896D01*
X14840754Y-18279896D02*
X14850278Y-18251325D01*
X14850278Y-18251325D02*
X14859801Y-18203706D01*
X14859801Y-18203706D02*
X14859801Y-18165611D01*
X14859801Y-18165611D02*
X14850278Y-18117992D01*
X14850278Y-18117992D02*
X14840754Y-18089420D01*
X14840754Y-18089420D02*
X14831230Y-18070373D01*
X14831230Y-18070373D02*
X14812182Y-18041801D01*
X14812182Y-18041801D02*
X14802659Y-18032277D01*
M02*
