<?xml version="1.0" encoding="UTF-8" standalone="no"?>
<svg
   version="1.1"
   width="594.0044mm"
   height="419.9890mm"
   viewBox="0.0000 0.0000 594.0044 419.9890"
   id="svg1310"
   sodipodi:docname="kastenwagen-1840-pcb-Edge_Cuts.svg"
   inkscape:version="1.3.2 (091e20e, 2023-11-25)"
   xmlns:inkscape="http://www.inkscape.org/namespaces/inkscape"
   xmlns:sodipodi="http://sodipodi.sourceforge.net/DTD/sodipodi-0.dtd"
   xmlns="http://www.w3.org/2000/svg"
   xmlns:svg="http://www.w3.org/2000/svg">
  <defs
     id="defs1310" />
  <sodipodi:namedview
     id="namedview1310"
     pagecolor="#505050"
     bordercolor="#eeeeee"
     borderopacity="1"
     inkscape:showpageshadow="0"
     inkscape:pageopacity="0"
     inkscape:pagecheckerboard="0"
     inkscape:deskcolor="#d1d1d1"
     inkscape:document-units="mm"
     inkscape:zoom="0.21157602"
     inkscape:cx="1122.528"
     inkscape:cy="413.56294"
     inkscape:window-width="3136"
     inkscape:window-height="1438"
     inkscape:window-x="0"
     inkscape:window-y="25"
     inkscape:window-maximized="0"
     inkscape:current-layer="svg1310" />
  <title
     id="title1">SVG Image created as kastenwagen-1840-pcb-Edge_Cuts.svg date 2024/08/23 13:52:57 </title>
  <desc
     id="desc1">Image generated by PCBNEW </desc>
  <g
     style="fill:none;  stroke:#000000; stroke-width:0.2000; stroke-opacity:1;  stroke-linecap:round; stroke-linejoin:round;"
     id="g1310">
    <path
       d="M100.4589 166.0686 A3.0000 3.0000 0.0 0 0 103.4589 169.0686"
       id="path1279" />
    <path
       d="M103.4589 92.8687 A3.0000 3.0000 0.0 0 0 100.4589 95.8687"
       id="path1280" />
    <path
       d="M452.9137 95.8687 A3.0000 3.0000 0.0 0 0 449.9137 92.8687"
       id="path1281" />
    <path
       d="M449.9141 169.0690 A3.0001 3.0001 0.0 0 0 452.9137 166.0690"
       id="path1282" />
    <path
       d="M335.2719 173.8312 L389.4640 173.8312 "
       id="path1283" />
    <path
       d="M100.4589 95.8687 L100.4589 166.0686 "
       id="path1284" />
    <path
       d="M103.4589 169.0686 L332.2719 169.0687 "
       id="path1285" />
    <path
       d="M392.4783 169.0757 A1.5001 1.5001 0.0 0 0 390.9783 170.5757"
       id="path1286" />
    <path
       d="M333.7719 172.3313 A1.5001 1.5001 0.0 0 0 335.2719 173.8312"
       id="path1287" />
    <path
       d="M103.4589 92.8687 L449.9137 92.8687 "
       id="path1288" />
    <path
       d="M333.7719 170.5687 L333.7719 172.3312 "
       id="path1289" />
    <path
       d="M452.9137 95.8687 L452.9137 166.0690 "
       id="path1290" />
    <path
       d="M389.4640 173.8312 A1.5001 1.5001 0.0 0 0 390.9640 172.3312"
       id="path1291" />
    <path
       d="M333.7720 170.5688 A1.5000 1.5000 0.0 0 0 332.2719 169.0687"
       id="path1292" />
    <path
       d="M449.9141 169.0690 L392.4783 169.0757 "
       id="path1293" />
    <path
       d="M390.9712 172.3312 L390.9712 170.5687 "
       id="path1294" />
    <path
       d="M100.4589 166.0686 A3.0000 3.0000 0.0 0 0 103.4589 169.0686"
       id="path1295" />
    <path
       d="M103.4589 92.8687 A3.0000 3.0000 0.0 0 0 100.4589 95.8687"
       id="path1296" />
    <path
       d="M452.9137 95.8687 A3.0000 3.0000 0.0 0 0 449.9137 92.8687"
       id="path1297" />
    <path
       d="M449.9141 169.0690 A3.0001 3.0001 0.0 0 0 452.9137 166.0690"
       id="path1298" />
    <path
       d="M335.2719 173.8312 L389.4640 173.8312 "
       id="path1299" />
    <path
       d="M100.4589 95.8687 L100.4589 166.0686 "
       id="path1300" />
    <path
       d="M103.4589 169.0686 L332.2719 169.0687 "
       id="path1301" />
    <path
       d="M392.4783 169.0757 A1.5001 1.5001 0.0 0 0 390.9783 170.5757"
       id="path1302" />
    <path
       d="M333.7719 172.3313 A1.5001 1.5001 0.0 0 0 335.2719 173.8312"
       id="path1303" />
    <path
       d="M103.4589 92.8687 L449.9137 92.8687 "
       id="path1304" />
    <path
       d="M333.7719 170.5687 L333.7719 172.3312 "
       id="path1305" />
    <path
       d="M452.9137 95.8687 L452.9137 166.0690 "
       id="path1306" />
    <path
       d="M389.4640 173.8312 A1.5001 1.5001 0.0 0 0 390.9640 172.3312"
       id="path1307" />
    <path
       d="M333.7720 170.5688 A1.5000 1.5000 0.0 0 0 332.2719 169.0687"
       id="path1308" />
    <path
       d="M449.9141 169.0690 L392.4783 169.0757 "
       id="path1309" />
    <path
       d="M390.9712 172.3312 L390.9712 170.5687 "
       id="path1310" />
  </g>
</svg>
