<?xml version="1.0" encoding="UTF-8" standalone="no"?>
<svg
   width="347.756mm"
   height="76.103mm"
   viewBox="0 0 347.756 76.103"
   version="1.1"
   id="svg1"
   sodipodi:docname="moin-kastenwagen-plate-raw.svg"
   inkscape:version="1.3.2 (091e20e, 2023-11-25)"
   xmlns:inkscape="http://www.inkscape.org/namespaces/inkscape"
   xmlns:sodipodi="http://sodipodi.sourceforge.net/DTD/sodipodi-0.dtd"
   xmlns="http://www.w3.org/2000/svg"
   xmlns:svg="http://www.w3.org/2000/svg">
  <defs
     id="defs1" />
  <sodipodi:namedview
     id="namedview1"
     pagecolor="#505050"
     bordercolor="#eeeeee"
     borderopacity="1"
     inkscape:showpageshadow="0"
     inkscape:pageopacity="0"
     inkscape:pagecheckerboard="0"
     inkscape:deskcolor="#d1d1d1"
     inkscape:document-units="mm"
     inkscape:zoom="1.4455777"
     inkscape:cx="694.18614"
     inkscape:cy="41.85178"
     inkscape:window-width="3040"
     inkscape:window-height="1450"
     inkscape:window-x="0"
     inkscape:window-y="25"
     inkscape:window-maximized="0"
     inkscape:current-layer="svg1" />
  <g
     id="svgGroup"
     stroke-linecap="round"
     fill-rule="evenodd"
     font-size="9pt"
     stroke="#000"
     stroke-width="0.25mm"
     fill="none"
     style="stroke:#000;stroke-width:0.26458333;fill:none;stroke-dasharray:none;vector-effect:non-scaling-stroke;-inkscape-stroke:hairline">
    <path
       d="M 204.7875 51.6 A 0.5 0.5 0 0 0 205.2875 52.1 L 208.75575 52.1 L 214.75575 52.1 L 217.19375 52.1 L 218.2875 52.1 L 226.71875 52.1 L 230.19375 52.1 L 232.63175 52.1 L 238.63175 52.1 L 239.71875 52.1 A 0.5 0.5 0 0 0 240.21875 51.6 L 240.21875 38.6 A 0.5 0.5 0 0 0 239.71875 38.1 L 239.13175 38.1 L 239.13175 37.6 A 0.5 0.5 0 0 0 238.63175 37.1 L 232.63175 37.1 A 0.5 0.5 0 0 0 232.13175 37.6 L 232.13175 38.1 L 230.19375 38.1 L 226.71875 38.1 L 218.2875 38.1 L 217.19375 38.1 L 215.25575 38.1 L 215.25575 37.6 A 0.5 0.5 0 0 0 214.75575 37.1 L 208.75575 37.1 A 0.5 0.5 0 0 0 208.25575 37.6 L 208.25575 38.1 L 205.2875 38.1 A 0.5 0.5 0 0 0 204.7875 38.6 L 204.7875 51.6 Z M 305.3 71.15 L 309.156 71.15 L 315.206 71.15 L 318.3 71.15 L 320.238 71.15 L 320.238 71.65 A 0.5 0.5 0 0 0 320.738 72.15 L 326.738 72.15 A 0.5 0.5 0 0 0 327.238 71.65 L 327.238 71.15 L 328.206 71.15 A 0.5 0.5 0 0 0 328.706 70.65 L 328.706 57.65 A 0.5 0.5 0 0 0 328.206 57.15 L 326.738 57.15 L 320.738 57.15 L 318.3 57.15 L 315.206 57.15 L 309.156 57.15 L 305.3 57.15 L 302.862 57.15 L 296.862 57.15 L 296.156 57.15 A 0.5 0.5 0 0 0 295.656 57.65 L 295.656 70.65 A 0.5 0.5 0 0 0 296.156 71.15 L 296.362 71.15 L 296.362 71.65 A 0.5 0.5 0 0 0 296.862 72.15 L 302.862 72.15 A 0.5 0.5 0 0 0 303.362 71.65 L 303.362 71.15 L 305.3 71.15 Z M 347.756 38.6 A 0.5 0.5 0 0 0 347.256 38.1 L 334.256 38.1 A 0.5 0.5 0 0 0 333.756 38.6 L 333.756 39.187 L 333.256 39.187 A 0.5 0.5 0 0 0 332.756 39.687 L 332.756 45.687 A 0.5 0.5 0 0 0 333.256 46.187 L 333.756 46.187 L 333.756 48.125 L 333.756 51.6 L 333.756 57.65 L 333.756 61.125 L 333.756 63.063 L 333.256 63.063 A 0.5 0.5 0 0 0 332.756 63.563 L 332.756 69.563 A 0.5 0.5 0 0 0 333.256 70.063 L 333.756 70.063 L 333.756 70.65 A 0.5 0.5 0 0 0 334.256 71.15 L 347.256 71.15 A 0.5 0.5 0 0 0 347.756 70.65 L 347.756 69.563 L 347.756 63.563 L 347.756 61.125 L 347.756 57.65 L 347.756 51.6 L 347.756 48.125 L 347.756 45.687 L 347.756 39.687 L 347.756 38.6 Z M 104.775 70.65 A 0.5 0.5 0 0 0 105.275 71.15 L 112.41875 71.15 L 117.18125 71.15 L 118.275 71.15 L 125.41875 71.15 L 130.18125 71.15 A 0.5 0.5 0 0 0 130.68125 70.65 L 130.68125 57.65 A 0.5 0.5 0 0 0 130.18125 57.15 L 125.41875 57.15 L 118.275 57.15 L 117.18125 57.15 L 112.41875 57.15 L 105.275 57.15 A 0.5 0.5 0 0 0 104.775 57.65 L 104.775 70.65 Z M 48.6 56.65 A 0.5 0.5 0 0 0 48.1 56.15 L 42.1 56.15 A 0.5 0.5 0 0 0 41.6 56.65 L 41.6 70.65 A 0.5 0.5 0 0 0 42.1 71.15 L 45.74375 71.15 L 48.1 71.15 L 51.625 71.15 L 57.625 71.15 L 58.74375 71.15 A 0.5 0.5 0 0 0 59.24375 70.65 L 59.24375 57.65 A 0.5 0.5 0 0 0 58.74375 57.15 L 58.125 57.15 L 58.125 56.65 A 0.5 0.5 0 0 0 57.625 56.15 L 51.625 56.15 A 0.5 0.5 0 0 0 51.125 56.65 L 51.125 57.15 L 48.6 57.15 L 48.6 56.65 Z M 181.95 56.65 A 0.5 0.5 0 0 0 181.45 56.15 L 176.68125 56.15 L 175.45 56.15 L 171.95675 56.15 L 171.925 56.15 L 170.68125 56.15 L 165.95675 56.15 L 165.925 56.15 A 0.5 0.5 0 0 0 165.425 56.65 L 165.425 70.65 A 0.5 0.5 0 0 0 165.925 71.15 L 165.95675 71.15 L 170.68125 71.15 L 171.925 71.15 L 171.95675 71.15 L 175.45 71.15 L 176.68125 71.15 L 181.45 71.15 A 0.5 0.5 0 0 0 181.95 70.65 L 181.95 56.65 Z M 19.05 13.5 A 0.5 0.5 0 0 0 19.55 14 L 32.55 14 A 0.5 0.5 0 0 0 33.05 13.5 L 33.05 0.5 A 0.5 0.5 0 0 0 32.55 0 L 19.55 0 A 0.5 0.5 0 0 0 19.05 0.5 L 19.05 13.5 Z M 38.1 13.5 A 0.5 0.5 0 0 0 38.6 14 L 51.6 14 A 0.5 0.5 0 0 0 52.1 13.5 L 52.1 0.5 A 0.5 0.5 0 0 0 51.6 0 L 38.6 0 A 0.5 0.5 0 0 0 38.1 0.5 L 38.1 13.5 Z M 57.15 13.5 A 0.5 0.5 0 0 0 57.65 14 L 70.65 14 A 0.5 0.5 0 0 0 71.15 13.5 L 71.15 0.5 A 0.5 0.5 0 0 0 70.65 0 L 57.65 0 A 0.5 0.5 0 0 0 57.15 0.5 L 57.15 13.5 Z M 76.2 13.5 A 0.5 0.5 0 0 0 76.7 14 L 89.7 14 A 0.5 0.5 0 0 0 90.2 13.5 L 90.2 0.5 A 0.5 0.5 0 0 0 89.7 0 L 76.7 0 A 0.5 0.5 0 0 0 76.2 0.5 L 76.2 13.5 Z M 95.25 13.5 A 0.5 0.5 0 0 0 95.75 14 L 108.75 14 A 0.5 0.5 0 0 0 109.25 13.5 L 109.25 0.5 A 0.5 0.5 0 0 0 108.75 0 L 95.75 0 A 0.5 0.5 0 0 0 95.25 0.5 L 95.25 13.5 Z M 133.35 13.5 A 0.5 0.5 0 0 0 133.85 14 L 146.85 14 A 0.5 0.5 0 0 0 147.35 13.5 L 147.35 0.5 A 0.5 0.5 0 0 0 146.85 0 L 133.85 0 A 0.5 0.5 0 0 0 133.35 0.5 L 133.35 13.5 Z M 152.4 13.5 A 0.5 0.5 0 0 0 152.9 14 L 165.9 14 A 0.5 0.5 0 0 0 166.4 13.5 L 166.4 0.5 A 0.5 0.5 0 0 0 165.9 0 L 152.9 0 A 0.5 0.5 0 0 0 152.4 0.5 L 152.4 13.5 Z M 171.45 13.5 A 0.5 0.5 0 0 0 171.95 14 L 184.95 14 A 0.5 0.5 0 0 0 185.45 13.5 L 185.45 0.5 A 0.5 0.5 0 0 0 184.95 0 L 171.95 0 A 0.5 0.5 0 0 0 171.45 0.5 L 171.45 13.5 Z M 190.5 13.5 A 0.5 0.5 0 0 0 191 14 L 204 14 A 0.5 0.5 0 0 0 204.5 13.5 L 204.5 0.5 A 0.5 0.5 0 0 0 204 0 L 191 0 A 0.5 0.5 0 0 0 190.5 0.5 L 190.5 13.5 Z M 209.55 13.5 A 0.5 0.5 0 0 0 210.05 14 L 223.05 14 A 0.5 0.5 0 0 0 223.55 13.5 L 223.55 0.5 A 0.5 0.5 0 0 0 223.05 0 L 210.05 0 A 0.5 0.5 0 0 0 209.55 0.5 L 209.55 13.5 Z M 235.74375 13.5 A 0.5 0.5 0 0 0 236.24375 14 L 249.24375 14 A 0.5 0.5 0 0 0 249.74375 13.5 L 249.74375 0.5 A 0.5 0.5 0 0 0 249.24375 0 L 236.24375 0 A 0.5 0.5 0 0 0 235.74375 0.5 L 235.74375 13.5 Z M 276.606 13.5 A 0.5 0.5 0 0 0 277.106 14 L 290.106 14 A 0.5 0.5 0 0 0 290.606 13.5 L 290.606 0.5 A 0.5 0.5 0 0 0 290.106 0 L 277.106 0 A 0.5 0.5 0 0 0 276.606 0.5 L 276.606 13.5 Z M 295.656 13.5 A 0.5 0.5 0 0 0 296.156 14 L 309.156 14 A 0.5 0.5 0 0 0 309.656 13.5 L 309.656 0.5 A 0.5 0.5 0 0 0 309.156 0 L 296.156 0 A 0.5 0.5 0 0 0 295.656 0.5 L 295.656 13.5 Z M 314.706 13.5 A 0.5 0.5 0 0 0 315.206 14 L 328.206 14 A 0.5 0.5 0 0 0 328.706 13.5 L 328.706 0.5 A 0.5 0.5 0 0 0 328.206 0 L 315.206 0 A 0.5 0.5 0 0 0 314.706 0.5 L 314.706 13.5 Z M 333.756 13.5 A 0.5 0.5 0 0 0 334.256 14 L 347.256 14 A 0.5 0.5 0 0 0 347.756 13.5 L 347.756 0.5 A 0.5 0.5 0 0 0 347.256 0 L 334.256 0 A 0.5 0.5 0 0 0 333.756 0.5 L 333.756 13.5 Z M 2.38125 32.55 A 0.5 0.5 0 0 0 2.88125 33.05 L 15.88125 33.05 A 0.5 0.5 0 0 0 16.38125 32.55 L 16.38125 19.55 A 0.5 0.5 0 0 0 15.88125 19.05 L 2.88125 19.05 A 0.5 0.5 0 0 0 2.38125 19.55 L 2.38125 32.55 Z M 23.8125 32.55 A 0.5 0.5 0 0 0 24.3125 33.05 L 37.3125 33.05 A 0.5 0.5 0 0 0 37.8125 32.55 L 37.8125 19.55 A 0.5 0.5 0 0 0 37.3125 19.05 L 24.3125 19.05 A 0.5 0.5 0 0 0 23.8125 19.55 L 23.8125 32.55 Z M 42.8625 32.55 A 0.5 0.5 0 0 0 43.3625 33.05 L 56.3625 33.05 A 0.5 0.5 0 0 0 56.8625 32.55 L 56.8625 19.55 A 0.5 0.5 0 0 0 56.3625 19.05 L 43.3625 19.05 A 0.5 0.5 0 0 0 42.8625 19.55 L 42.8625 32.55 Z M 61.9125 32.55 A 0.5 0.5 0 0 0 62.4125 33.05 L 75.4125 33.05 A 0.5 0.5 0 0 0 75.9125 32.55 L 75.9125 19.55 A 0.5 0.5 0 0 0 75.4125 19.05 L 62.4125 19.05 A 0.5 0.5 0 0 0 61.9125 19.55 L 61.9125 32.55 Z M 80.9625 32.55 A 0.5 0.5 0 0 0 81.4625 33.05 L 94.4625 33.05 A 0.5 0.5 0 0 0 94.9625 32.55 L 94.9625 19.55 A 0.5 0.5 0 0 0 94.4625 19.05 L 81.4625 19.05 A 0.5 0.5 0 0 0 80.9625 19.55 L 80.9625 32.55 Z M 100.0125 32.55 A 0.5 0.5 0 0 0 100.5125 33.05 L 113.5125 33.05 A 0.5 0.5 0 0 0 114.0125 32.55 L 114.0125 19.55 A 0.5 0.5 0 0 0 113.5125 19.05 L 100.5125 19.05 A 0.5 0.5 0 0 0 100.0125 19.55 L 100.0125 32.55 Z M 119.0625 32.55 A 0.5 0.5 0 0 0 119.5625 33.05 L 132.5625 33.05 A 0.5 0.5 0 0 0 133.0625 32.55 L 133.0625 19.55 A 0.5 0.5 0 0 0 132.5625 19.05 L 119.5625 19.05 A 0.5 0.5 0 0 0 119.0625 19.55 L 119.0625 32.55 Z M 138.1125 32.55 A 0.5 0.5 0 0 0 138.6125 33.05 L 151.6125 33.05 A 0.5 0.5 0 0 0 152.1125 32.55 L 152.1125 19.55 A 0.5 0.5 0 0 0 151.6125 19.05 L 138.6125 19.05 A 0.5 0.5 0 0 0 138.1125 19.55 L 138.1125 32.55 Z M 157.1625 32.55 A 0.5 0.5 0 0 0 157.6625 33.05 L 170.6625 33.05 A 0.5 0.5 0 0 0 171.1625 32.55 L 171.1625 19.55 A 0.5 0.5 0 0 0 170.6625 19.05 L 157.6625 19.05 A 0.5 0.5 0 0 0 157.1625 19.55 L 157.1625 32.55 Z M 176.2125 32.55 A 0.5 0.5 0 0 0 176.7125 33.05 L 189.7125 33.05 A 0.5 0.5 0 0 0 190.2125 32.55 L 190.2125 19.55 A 0.5 0.5 0 0 0 189.7125 19.05 L 176.7125 19.05 A 0.5 0.5 0 0 0 176.2125 19.55 L 176.2125 32.55 Z M 195.2625 32.55 A 0.5 0.5 0 0 0 195.7625 33.05 L 208.7625 33.05 A 0.5 0.5 0 0 0 209.2625 32.55 L 209.2625 19.55 A 0.5 0.5 0 0 0 208.7625 19.05 L 195.7625 19.05 A 0.5 0.5 0 0 0 195.2625 19.55 L 195.2625 32.55 Z M 214.3125 32.55 A 0.5 0.5 0 0 0 214.8125 33.05 L 227.8125 33.05 A 0.5 0.5 0 0 0 228.3125 32.55 L 228.3125 19.55 A 0.5 0.5 0 0 0 227.8125 19.05 L 214.8125 19.05 A 0.5 0.5 0 0 0 214.3125 19.55 L 214.3125 32.55 Z M 238.125 32.55 A 0.5 0.5 0 0 0 238.625 33.05 L 251.625 33.05 A 0.5 0.5 0 0 0 252.125 32.55 L 252.125 19.55 A 0.5 0.5 0 0 0 251.625 19.05 L 238.625 19.05 A 0.5 0.5 0 0 0 238.125 19.55 L 238.125 32.55 Z M 276.606 32.55 A 0.5 0.5 0 0 0 277.106 33.05 L 290.106 33.05 A 0.5 0.5 0 0 0 290.606 32.55 L 290.606 19.55 A 0.5 0.5 0 0 0 290.106 19.05 L 277.106 19.05 A 0.5 0.5 0 0 0 276.606 19.55 L 276.606 32.55 Z M 295.656 32.55 A 0.5 0.5 0 0 0 296.156 33.05 L 309.156 33.05 A 0.5 0.5 0 0 0 309.656 32.55 L 309.656 19.55 A 0.5 0.5 0 0 0 309.156 19.05 L 296.156 19.05 A 0.5 0.5 0 0 0 295.656 19.55 L 295.656 32.55 Z M 314.706 32.55 A 0.5 0.5 0 0 0 315.206 33.05 L 328.206 33.05 A 0.5 0.5 0 0 0 328.706 32.55 L 328.706 19.55 A 0.5 0.5 0 0 0 328.206 19.05 L 315.206 19.05 A 0.5 0.5 0 0 0 314.706 19.55 L 314.706 32.55 Z M 333.756 32.55 A 0.5 0.5 0 0 0 334.256 33.05 L 347.256 33.05 A 0.5 0.5 0 0 0 347.756 32.55 L 347.756 19.55 A 0.5 0.5 0 0 0 347.256 19.05 L 334.256 19.05 A 0.5 0.5 0 0 0 333.756 19.55 L 333.756 32.55 Z M 7.14375 51.6 A 0.5 0.5 0 0 0 7.64375 52.1 L 20.64375 52.1 A 0.5 0.5 0 0 0 21.14375 51.6 L 21.14375 38.6 A 0.5 0.5 0 0 0 20.64375 38.1 L 7.64375 38.1 A 0.5 0.5 0 0 0 7.14375 38.6 L 7.14375 51.6 Z M 33.3375 51.6 A 0.5 0.5 0 0 0 33.8375 52.1 L 46.8375 52.1 A 0.5 0.5 0 0 0 47.3375 51.6 L 47.3375 38.6 A 0.5 0.5 0 0 0 46.8375 38.1 L 33.8375 38.1 A 0.5 0.5 0 0 0 33.3375 38.6 L 33.3375 51.6 Z M 71.4375 51.6 A 0.5 0.5 0 0 0 71.9375 52.1 L 84.9375 52.1 A 0.5 0.5 0 0 0 85.4375 51.6 L 85.4375 38.6 A 0.5 0.5 0 0 0 84.9375 38.1 L 71.9375 38.1 A 0.5 0.5 0 0 0 71.4375 38.6 L 71.4375 51.6 Z M 90.4875 51.6 A 0.5 0.5 0 0 0 90.9875 52.1 L 103.9875 52.1 A 0.5 0.5 0 0 0 104.4875 51.6 L 104.4875 38.6 A 0.5 0.5 0 0 0 103.9875 38.1 L 90.9875 38.1 A 0.5 0.5 0 0 0 90.4875 38.6 L 90.4875 51.6 Z M 109.5375 51.6 A 0.5 0.5 0 0 0 110.0375 52.1 L 123.0375 52.1 A 0.5 0.5 0 0 0 123.5375 51.6 L 123.5375 38.6 A 0.5 0.5 0 0 0 123.0375 38.1 L 110.0375 38.1 A 0.5 0.5 0 0 0 109.5375 38.6 L 109.5375 51.6 Z M 128.5875 51.6 A 0.5 0.5 0 0 0 129.0875 52.1 L 142.0875 52.1 A 0.5 0.5 0 0 0 142.5875 51.6 L 142.5875 38.6 A 0.5 0.5 0 0 0 142.0875 38.1 L 129.0875 38.1 A 0.5 0.5 0 0 0 128.5875 38.6 L 128.5875 51.6 Z M 147.6375 51.6 A 0.5 0.5 0 0 0 148.1375 52.1 L 161.1375 52.1 A 0.5 0.5 0 0 0 161.6375 51.6 L 161.6375 38.6 A 0.5 0.5 0 0 0 161.1375 38.1 L 148.1375 38.1 A 0.5 0.5 0 0 0 147.6375 38.6 L 147.6375 51.6 Z M 166.6875 51.6 A 0.5 0.5 0 0 0 167.1875 52.1 L 180.1875 52.1 A 0.5 0.5 0 0 0 180.6875 51.6 L 180.6875 38.6 A 0.5 0.5 0 0 0 180.1875 38.1 L 167.1875 38.1 A 0.5 0.5 0 0 0 166.6875 38.6 L 166.6875 51.6 Z M 185.7375 51.6 A 0.5 0.5 0 0 0 186.2375 52.1 L 199.2375 52.1 A 0.5 0.5 0 0 0 199.7375 51.6 L 199.7375 38.6 A 0.5 0.5 0 0 0 199.2375 38.1 L 186.2375 38.1 A 0.5 0.5 0 0 0 185.7375 38.6 L 185.7375 51.6 Z M 276.606 51.6 A 0.5 0.5 0 0 0 277.106 52.1 L 290.106 52.1 A 0.5 0.5 0 0 0 290.606 51.6 L 290.606 38.6 A 0.5 0.5 0 0 0 290.106 38.1 L 277.106 38.1 A 0.5 0.5 0 0 0 276.606 38.6 L 276.606 51.6 Z M 295.656 51.6 A 0.5 0.5 0 0 0 296.156 52.1 L 309.156 52.1 A 0.5 0.5 0 0 0 309.656 51.6 L 309.656 38.6 A 0.5 0.5 0 0 0 309.156 38.1 L 296.156 38.1 A 0.5 0.5 0 0 0 295.656 38.6 L 295.656 51.6 Z M 314.706 51.6 A 0.5 0.5 0 0 0 315.206 52.1 L 328.206 52.1 A 0.5 0.5 0 0 0 328.706 51.6 L 328.706 38.6 A 0.5 0.5 0 0 0 328.206 38.1 L 315.206 38.1 A 0.5 0.5 0 0 0 314.706 38.6 L 314.706 51.6 Z M 252.603 56.553 A 0.5 0.5 0 0 0 253.103 57.053 L 266.103 57.053 A 0.5 0.5 0 0 0 266.603 56.553 L 266.603 43.553 A 0.5 0.5 0 0 0 266.103 43.053 L 253.103 43.053 A 0.5 0.5 0 0 0 252.603 43.553 L 252.603 56.553 Z M 78.58125 70.65 A 0.5 0.5 0 0 0 79.08125 71.15 L 92.08125 71.15 A 0.5 0.5 0 0 0 92.58125 70.65 L 92.58125 57.65 A 0.5 0.5 0 0 0 92.08125 57.15 L 79.08125 57.15 A 0.5 0.5 0 0 0 78.58125 57.65 L 78.58125 70.65 Z M 150.01875 70.65 A 0.5 0.5 0 0 0 150.51875 71.15 L 163.51875 71.15 A 0.5 0.5 0 0 0 164.01875 70.65 L 164.01875 57.65 A 0.5 0.5 0 0 0 163.51875 57.15 L 150.51875 57.15 A 0.5 0.5 0 0 0 150.01875 57.65 L 150.01875 70.65 Z M 188.11875 70.65 A 0.5 0.5 0 0 0 188.61875 71.15 L 201.61875 71.15 A 0.5 0.5 0 0 0 202.11875 70.65 L 202.11875 57.65 A 0.5 0.5 0 0 0 201.61875 57.15 L 188.61875 57.15 A 0.5 0.5 0 0 0 188.11875 57.65 L 188.11875 70.65 Z M 209.55 70.65 A 0.5 0.5 0 0 0 210.05 71.15 L 223.05 71.15 A 0.5 0.5 0 0 0 223.55 70.65 L 223.55 57.65 A 0.5 0.5 0 0 0 223.05 57.15 L 210.05 57.15 A 0.5 0.5 0 0 0 209.55 57.65 L 209.55 70.65 Z M 233.553 75.603 A 0.5 0.5 0 0 0 234.053 76.103 L 247.053 76.103 A 0.5 0.5 0 0 0 247.553 75.603 L 247.553 62.603 A 0.5 0.5 0 0 0 247.053 62.103 L 234.053 62.103 A 0.5 0.5 0 0 0 233.553 62.603 L 233.553 75.603 Z M 252.603 75.603 A 0.5 0.5 0 0 0 253.103 76.103 L 266.103 76.103 A 0.5 0.5 0 0 0 266.603 75.603 L 266.603 62.603 A 0.5 0.5 0 0 0 266.103 62.103 L 253.103 62.103 A 0.5 0.5 0 0 0 252.603 62.603 L 252.603 75.603 Z M 272.034 75.603 A 0.5 0.5 0 0 0 272.534 76.103 L 285.534 76.103 A 0.5 0.5 0 0 0 286.034 75.603 L 286.034 62.603 A 0.5 0.5 0 0 0 285.534 62.103 L 272.534 62.103 A 0.5 0.5 0 0 0 272.034 62.603 L 272.034 75.603 Z M 0 13.5 A 0.5 0.5 0 0 0 0.5 14 L 13.5 14 A 0.5 0.5 0 0 0 14 13.5 L 14 0.5 A 0.5 0.5 0 0 0 13.5 0 L 0.5 0 A 0.5 0.5 0 0 0 0 0.5 L 0 13.5 Z M 0 70.65 A 0.5 0.5 0 0 0 0.5 71.15 L 13.5 71.15 A 0.5 0.5 0 0 0 14 70.65 L 14 57.65 A 0.5 0.5 0 0 0 13.5 57.15 L 0.5 57.15 A 0.5 0.5 0 0 0 0 57.65 L 0 70.65 Z M 52.3875 51.6 A 0.5 0.5 0 0 0 52.8875 52.1 L 65.8875 52.1 A 0.5 0.5 0 0 0 66.3875 51.6 L 66.3875 38.6 A 0.5 0.5 0 0 0 65.8875 38.1 L 52.8875 38.1 A 0.5 0.5 0 0 0 52.3875 38.6 L 52.3875 51.6 Z M 21.43125 70.65 A 0.5 0.5 0 0 0 21.93125 71.15 L 34.93125 71.15 A 0.5 0.5 0 0 0 35.43125 70.65 L 35.43125 57.65 A 0.5 0.5 0 0 0 34.93125 57.15 L 21.93125 57.15 A 0.5 0.5 0 0 0 21.43125 57.65 L 21.43125 70.65 Z M 114.3 13.5 A 0.5 0.5 0 0 0 114.8 14 L 127.8 14 A 0.5 0.5 0 0 0 128.3 13.5 L 128.3 0.5 A 0.5 0.5 0 0 0 127.8 0 L 114.8 0 A 0.5 0.5 0 0 0 114.3 0.5 L 114.3 13.5 Z M 77.18125 56.65 A 0.5 0.5 0 0 0 76.68125 56.15 L 76.64325 56.15 L 70.68125 56.15 L 70.64325 56.15 A 0.5 0.5 0 0 0 70.14325 56.65 L 70.14325 70.65 A 0.5 0.5 0 0 0 70.64325 71.15 L 70.68125 71.15 L 76.64325 71.15 L 76.68125 71.15 A 0.5 0.5 0 0 0 77.18125 70.65 L 77.18125 56.65 Z M 101.01925 56.65 A 0.5 0.5 0 0 0 100.51925 56.15 L 94.51925 56.15 A 0.5 0.5 0 0 0 94.01925 56.65 L 94.01925 70.65 A 0.5 0.5 0 0 0 94.51925 71.15 L 100.51925 71.15 A 0.5 0.5 0 0 0 101.01925 70.65 L 101.01925 56.65 Z M 148.58075 56.65 A 0.5 0.5 0 0 0 148.08075 56.15 L 142.08075 56.15 A 0.5 0.5 0 0 0 141.58075 56.65 L 141.58075 70.65 A 0.5 0.5 0 0 0 142.08075 71.15 L 148.08075 71.15 A 0.5 0.5 0 0 0 148.58075 70.65 L 148.58075 56.65 Z"
       vector-effect="non-scaling-stroke"
       id="path1"
       style="stroke-width:0.26458333;stroke-dasharray:none;vector-effect:non-scaling-stroke;-inkscape-stroke:hairline" />
  </g>
</svg>
