0
SECTION
2
HEADER
9
$INSUNITS
70
4
9
$ACADVER
1
AC1014
9
$HANDSEED
5
FFFF
0
ENDSEC
0
SECTION
2
TABLES
0
TABLE
2
VPORT
5
8
100
AcDbSymbolTable
0
ENDTAB
0
TABLE
2
LTYPE
5
5
100
AcDbSymbolTable
0
LTYPE
5
14
100
AcDbSymbolTableRecord
100
AcDbLinetypeTableRecord
2
BYBLOCK
70
0
0
LTYPE
5
15
100
AcDbSymbolTableRecord
100
AcDbLinetypeTableRecord
2
BYLAYER
70
0
0
LTYPE
5
16
100
AcDbSymbolTableRecord
100
AcDbLinetypeTableRecord
2
DASHED
70
0
3
Dashed __ __ __ __ __ __ __ __ __ __ __ __ __ _
72
65
73
2
40
0.75
49
0.5
74
0
49
-0.25
74
0
0
ENDTAB
0
TABLE
2
LAYER
5
2
100
AcDbSymbolTable
70
2
0
LAYER
5
50
100
AcDbSymbolTableRecord
100
AcDbLayerTableRecord
2
0
70
0
62
7
6
CONTINUOUS
0
ENDTAB
0
TABLE
2
STYLE
5
3
100
AcDbSymbolTable
70
1
0
STYLE
5
11
100
AcDbSymbolTableRecord
100
AcDbTextStyleTableRecord
2
STANDARD
70
0
0
ENDTAB
0
TABLE
2
VIEW
5
6
100
AcDbSymbolTable
70
0
0
ENDTAB
0
TABLE
2
UCS
5
7
100
AcDbSymbolTable
70
0
0
ENDTAB
0
TABLE
2
APPID
5
9
100
AcDbSymbolTable
70
2
0
APPID
5
12
100
AcDbSymbolTableRecord
100
AcDbRegAppTableRecord
2
ACAD
70
0
0
ENDTAB
0
TABLE
2
DIMSTYLE
5
A
100
AcDbSymbolTable
70
1
0
ENDTAB
0
TABLE
2
BLOCK_RECORD
5
1
100
AcDbSymbolTable
70
1
0
BLOCK_RECORD
5
1F
100
AcDbSymbolTableRecord
100
AcDbBlockTableRecord
2
*MODEL_SPACE
0
BLOCK_RECORD
5
1B
100
AcDbSymbolTableRecord
100
AcDbBlockTableRecord
2
*PAPER_SPACE
0
ENDTAB
0
ENDSEC
0
SECTION
2
BLOCKS
0
BLOCK
5
20
100
AcDbEntity
100
AcDbBlockBegin
2
*MODEL_SPACE
0
ENDBLK
5
21
100
AcDbEntity
100
AcDbBlockEnd
0
BLOCK
5
1C
100
AcDbEntity
100
AcDbBlockBegin
2
*PAPER_SPACE
0
ENDBLK
5
1D
100
AcDbEntity
100
AcDbBlockEnd
0
ENDSEC
0
SECTION
2
ENTITIES
0
LWPOLYLINE
5
100
100
AcDbEntity
8
0
100
AcDbPolyline
90
111
70
1
43
0.0
10
-274.9353469904492
20
-4.9673148966132423
42
0.15041333687840119
10
-269.87455679778373
20
-6.5249763779874748
10
-263.56803885589801
20
-6.5249763779874961
42
0.15041333687841044
10
-258.5072486632323
20
-4.9673148966131624
10
-256.17684125550994
20
-3.3826378593618713
42
-0.1504133368784111
10
-251.11605106284426
20
-1.8249763779875272
10
-182.63702362201289
20
-1.8249763779877026
42
-0.4142135623730932
10
-180.63702362201292
20
-3.8249763779876833
10
-180.63702362201286
20
-7.3749763779871671
42
0.41421356237313944
10
-180.0370236220129
20
-7.9749763779872449
10
-177.31282122379105
20
-7.9749763779872449
42
0.74569331779869386
10
-177.23078883301352
20
-7.6993949827652841
42
-3.3684553894044638
10
-175.04817576735422
20
-7.7025968208250575
42
0.7468352910066306
10
-174.96651166976716
20
-7.9784200714875482
10
-172.23702362201283
20
-7.978420071479805
42
0.41421356237307982
10
-171.63702362201289
20
-7.3784200714798089
10
-171.63702362201292
20
-3.8249763779877415
42
-0.41421356237309687
10
-169.63702362201292
20
-1.8249763779877293
10
-58.975135470238982
20
-1.8249763779880013
42
0.41421356237309176
10
-56.675135470238978
20
0.47502362201199433
42
-0.41421356237309492
10
-55.675135470238985
20
1.4750236220119906
10
-53.57513547023899
20
1.4750236220119879
42
-0.41421356237309553
10
-52.57513547023899
20
0.47502362201198967
42
0.4142135623730957
10
-50.275135470239
20
-1.8249763779880288
10
-11.975023622013126
20
-1.8249763779878307
42
-0.41421356237309342
10
-9.975023622012861
20
-3.8249763779881341
10
-9.9750236220128485
20
-7.3749763779871547
42
0.41421356237309293
10
-9.375023622012856
20
-7.9749763779871454
10
-6.6508212236433195
20
-7.9749763779871419
42
0.74569331781477433
10
-6.5687888328319062
20
-7.6993949826383092
42
-3.3594217189442488
10
-4.3812584111937998
20
-7.6993949826383057
42
0.74569331781481241
10
-4.2992260203823722
20
-7.9749763779871463
10
-1.57502362201285
20
-7.9749763779871419
42
0.41421356237309154
10
-0.97502362201285775
20
-7.374976377987144
10
-0.97502362201285875
20
-3.5548647139091205
42
-0.31330332951147932
10
0.32730195938248896
20
-1.6804980460384322
42
0.31330332951147999
10
1.8249763779871424
20
0.47502362201286452
10
1.8249763779871131
20
70.674865229526191
42
0.31330332951148193
10
0.32730195938246276
20
72.830386897577512
42
-0.31330332951148243
10
-0.97502362201290604
20
74.7047535654482
10
-0.97502362201264958
20
78.524865229524906
42
0.41421356237309936
10
-1.5750236220126417
20
79.124865229524914
10
-4.2992260203821431
20
79.124865229524929
42
0.74569331781483816
10
-4.3812584111935831
20
78.849283834176092
42
-3.3594217189442461
10
-6.5687888328316895
20
78.849283834176106
42
0.74569331781480652
10
-6.6508212236431197
20
79.124865229524943
10
-9.3750236220126482
20
79.124865229524957
42
0.41421356237309176
10
-9.975023622012646
20
78.524865229524949
10
-9.975023622012662
20
74.974865229526188
42
-0.41421356237309243
10
-11.975023622012664
20
72.974865229526202
10
-60.343378734225013
20
72.974865229526202
42
0.41421356237309276
10
-62.643378734224989
20
70.674865229526191
42
-0.41421356237309509
10
-63.643378734224989
20
69.674865229526205
10
-65.743378734225004
20
69.674865229526205
42
-0.41421356237309243
10
-66.74337873422499
20
70.674865229526191
42
0.41421356237309509
10
-69.043378734224987
20
72.974865229526216
10
-219.42763879132201
20
72.974865229526216
42
-0.41421356237307683
10
-221.42763879132195
20
74.974865229526188
10
-221.42763879132193
20
78.524865229524906
42
0.41421356237308204
10
-222.02763879132192
20
79.124865229524943
10
-224.75184118969145
20
79.124865229524886
42
0.74569331781476444
10
-224.83387358050291
20
78.849283834176049
42
-3.3594217189442954
10
-227.02140400214097
20
78.849283834176035
42
0.74569331781494641
10
-227.10343639295243
20
79.124865229524858
10
-229.2276425018517
20
79.124865229524858
42
0.26756435941935147
10
-230.26601010197606
20
78.526357313439433
42
-0.26756435941933787
10
-231.30437770210051
20
77.927849397353995
10
-264.58723394237245
20
77.927849397353995
42
0.41421356237309848
10
-266.88723394237252
20
75.627849397354026
42
-0.4142135623731002
10
-267.88723394237246
20
74.627849397354012
10
-269.98723394237243
20
74.627849397353984
42
-0.41421356237309759
10
-270.98723394237248
20
75.627849397354012
42
0.41421356237309509
10
-273.2872339423725
20
77.927849397354009
10
-286.13575075687413
20
77.927849397353995
42
0.41217177426313595
10
-287.63581367221025
20
76.438214782914116
10
-287.64957238081928
20
74.465991451359344
42
-0.41217177426311002
10
-289.15113734566012
20
72.974865229526202
10
-354.89962529178217
20
72.974865229526173
42
-0.41421356237309243
10
-356.89962529178217
20
74.974865229526188
10
-356.89962529178217
20
78.524865229524949
42
0.41421356237309509
10
-357.49962529178219
20
79.124865229524971
10
-360.22382769015172
20
79.124865229524943
42
0.74569331781486692
10
-360.30586008096316
20
78.849283834176077
42
-3.359421718944219
10
-362.49339050260124
20
78.849283834176077
42
0.7456933178147126
10
-362.57542289341274
20
79.124865229524957
10
-365.29962529178221
20
79.124865229524914
42
0.41421356237309936
10
-365.89962529178223
20
78.524865229524906
10
-365.899625291782
20
74.974865229526358
42
-0.3133033295115023
10
-367.20195087317734
20
73.100498561655513
42
0.31330332951148848
10
-368.69962529178196
20
70.944976893604235
10
-368.69962529178196
20
0.20491195793473693
42
0.31330332951148854
10
-367.20195087317734
20
-1.9506097101165092
42
-0.31330332951148304
10
-365.89962529178194
20
-3.824976377987233
10
-365.89962529178194
20
-7.374976377987144
42
0.41421356237309509
10
-365.29962529178198
20
-7.9749763779870957
10
-362.57542289341245
20
-7.9749763779871463
42
0.74569331781487957
10
-362.49339050260107
20
-7.6993949826383048
42
-3.359421718944227
10
-360.30586008096293
20
-7.6993949826383101
42
0.74569331781485759
10
-360.22382769015155
20
-7.9749763779871339
10
-357.49962529178197
20
-7.9749763779871454
42
0.41421356237309614
10
-356.89962529178194
20
-7.3749763779871458
10
-356.89962529178172
20
-3.8249763779881341
42
-0.41421356237309703
10
-354.89962529178172
20
-1.8249763779881258
10
-297.09971038486458
20
-1.8249763779874111
42
0.4142135623731002
10
-294.79971038486457
20
0.47502362201258885
42
-0.41421356237309309
10
-293.79971038486457
20
1.4750236220125823
10
-291.6997103848646
20
1.4750236220125965
42
-0.41421356237309959
10
-290.6997103848646
20
0.4750236220125667
42
0.41421356237308887
10
-288.39971038486459
20
-1.8249763779874599
10
-282.32654459083756
20
-1.8249763779874462
42
-0.15041333687840405
10
-277.26575439817208
20
-3.382637859361691
0
LWPOLYLINE
5
101
100
AcDbEntity
8
0
100
AcDbPolyline
90
12
70
1
43
0.0
10
-274.22129782684084
20
-1.2956790613610059
10
-274.22129782684073
20
40.175023622012503
42
-0.41421356237309509
10
-273.22129782684078
20
41.175023622012503
10
-260.22129782684078
20
41.175023622012539
42
-0.41421356237309509
10
-259.22129782684078
20
40.175023622012525
10
-259.22129782684084
20
-1.2956790613610103
42
-0.24832855115580788
10
-259.65898780543353
20
-2.1226055634305192
10
-261.21225812704529
20
-3.1788293821265432
42
-0.15041333687840738
10
-262.33687816985986
20
-3.5249763779874965
10
-271.10571748382176
20
-3.5249763779874757
42
-0.15041333687840269
10
-272.23033752663633
20
-3.1788293821265428
10
-273.7836078482481
20
-2.122605563430549
42
-0.24832855115581834
0
LWPOLYLINE
5
102
100
AcDbEntity
8
0
100
AcDbPolyline
90
13
70
1
43
0.0
10
-87.724910699219748
20
57.14994498785866
42
0.236067873057454
10
-89.324910224359456
20
56.349945621005446
42
-0.23606787305746693
10
-89.724909709927815
20
56.149945977150324
10
-95.724903774177818
20
56.149945977150324
42
-0.26447311517442074
10
-96.154633608632011
20
56.394344671210035
42
0.15359326358803405
10
-97.049634121001205
20
57.19434403806325
42
-0.29465724290094564
10
-97.343653698639358
20
57.649944493212821
10
-97.343653698639358
20
70.649931632421158
42
-0.41421356237308465
10
-96.843654193285161
20
71.149931137775326
10
-83.84366705407686
20
71.149931137775326
42
-0.41421356237307944
10
-83.343667548722664
20
70.649931632421158
10
-83.343667548722664
20
57.649944493212828
42
-0.41421356237311063
10
-83.843667054076846
20
57.14994498785866
0
LWPOLYLINE
5
103
100
AcDbEntity
8
0
100
AcDbPolyline
90
17
70
1
43
0.0
10
-105.68164887124603
20
56.349945621005453
42
0.23606787305745405
10
-107.28164839638573
20
57.14994498785866
10
-121.03062573596065
20
57.14994498785866
42
0.23606787305745405
10
-122.63062526110036
20
56.34994562100546
42
-0.23606787305745008
10
-123.03062474666875
20
56.149945977150324
10
-133.82486455628796
20
56.149945977150331
42
-0.23606787305745944
10
-134.22486404185631
20
56.349945621005453
42
0.23606787305745311
10
-135.82486356699602
20
57.149944987858667
10
-144.46860707826957
20
57.149944987858674
42
-0.41421356237308982
10
-144.96860658362374
20
57.649944493212821
10
-144.96860658362374
20
70.649931632421158
42
-0.41421356237311585
10
-144.46860707826957
20
71.149931137775326
10
-99.281655321427635
20
71.149931137775326
42
-0.41421356237305862
10
-98.781655816073481
20
70.649931632421158
10
-98.781655816073481
20
56.649945482504492
42
-0.41421356237311063
10
-99.28165532142765
20
56.149945977150324
10
-105.28164938567767
20
56.149945977150331
42
-0.23606787305745944
0
LWPOLYLINE
5
104
100
AcDbEntity
8
0
100
AcDbPolyline
90
13
70
1
43
0.0
10
-168.68107603224411
20
57.14994498785866
42
0.23606787305743901
10
-170.28107555738382
20
56.349945621005482
42
-0.2360678730574782
10
-170.68107504295216
20
56.149945977150338
10
-176.68106910720215
20
56.149945977150317
42
-0.26399479609689841
10
-177.11034113556872
20
56.393576547146736
42
0.15409389531976994
10
-178.01034042327859
20
57.193575913999965
42
-0.29567496335204302
10
-178.30606749960324
20
57.649944493212821
10
-178.30606749960324
20
70.649931632421158
42
-0.41421356237310542
10
-177.80606799424902
20
71.149931137775312
10
-164.8060808550407
20
71.149931137775312
42
-0.41421356237313667
10
-164.30608134968654
20
70.649931632421158
10
-164.30608134968651
20
57.649944493212828
42
-0.41421356237310542
10
-164.80608085504073
20
57.149944987858674
0
LWPOLYLINE
5
105
100
AcDbEntity
8
0
100
AcDbPolyline
90
18
70
1
43
0.0
10
-295.55998924379338
20
57.198393562413315
42
0.15107263657514786
10
-296.42959304774678
20
56.398394195560115
42
-0.26698833214286738
10
-296.86170582861655
20
56.149945977150338
10
-302.86169989286657
20
56.149945977150352
42
-0.23606787305744445
10
-303.26169937843491
20
56.349945621005453
42
0.23606787305744273
10
-304.86169890357462
20
57.14994498785866
10
-318.73769027765172
20
57.14994498785866
42
0.23606787305745686
10
-320.33768980279143
20
56.349945621005482
42
-0.2360678730574482
10
-320.73768928835983
20
56.149945977150338
10
-326.73768335260979
20
56.149945977150296
42
-0.26698833214289197
10
-327.16979613347962
20
56.398394195560101
42
0.15107263657518891
10
-328.03939993743307
20
57.198393562413337
42
-0.2894339658729409
10
-328.3246873978328
20
57.649944493212821
10
-328.3246873978328
20
70.649931632421158
42
-0.41421356237306384
10
-327.82468789247855
20
71.149931137775312
10
-295.77470128874774
20
71.149931137775312
42
-0.41421356237313667
10
-295.2747017833936
20
70.649931632421158
10
-295.2747017833936
20
57.649944493212828
42
-0.2894339658730184
0
LWPOLYLINE
5
106
100
AcDbEntity
8
0
100
AcDbPolyline
90
18
70
1
43
0.0
10
-351.67308885120093
20
39.254847939747513
42
0.15107233601386169
10
-352.4730882180541
20
38.385247187549531
42
-0.2894333328675191
10
-352.92463864721947
20
38.099960782110124
10
-365.92462578642778
20
38.099960782110116
42
-0.4142135623731002
10
-366.42462529178198
20
38.599960287464278
10
-366.42462529178198
20
70.649931632421158
42
-0.4142135623731002
10
-365.92462578642778
20
71.149931137775312
10
-352.92463864721947
20
71.149931137775326
42
-0.28943269986074505
10
-352.47308871969199
20
70.864645787297633
42
0.1510720354530645
10
-351.67308935283876
20
69.99504808685505
42
-0.2669889539639197
10
-351.42464013115699
20
69.562934721939371
10
-351.42464013115699
20
63.562936842995875
42
-0.23606787305756258
10
-351.6246397750121
20
63.162937357427509
42
0.23606787305743079
10
-352.42463914186533
20
61.562937832287815
10
-352.42463914186533
20
47.686954087597641
42
0.23606787305743154
10
-351.6246397750121
20
46.086954562457933
42
-0.23606787305753069
10
-351.42464013115699
20
45.686955076889568
10
-351.42464013115699
20
39.686961012639564
42
-0.26698864305228637
0
LWPOLYLINE
5
107
100
AcDbEntity
8
0
100
AcDbPolyline
90
8
70
1
43
0.0
10
-249.74349682707978
20
0.49999950535416721
42
0.41421356237311052
10
-249.24349732172561
20
-1.3253287356462806e-14
10
-229.09977945678884
20
1.2836953722228372e-14
42
0.41421356237310158
10
-228.59977995143464
20
0.49999950535416282
10
-228.59977995143464
20
13.499986644562503
42
0.41421356237311191
10
-229.09977945678878
20
13.999986149916674
10
-249.24349732172561
20
13.999986149916657
42
0.41421356237313273
10
-249.74349682707978
20
13.499986644562503
0
LWPOLYLINE
5
108
100
AcDbEntity
8
0
100
AcDbPolyline
90
8
70
1
43
0.0
10
-33.049966540971724
20
0.49999950535416721
42
0.41421356237309109
10
-32.549967035617556
20
-2.2898349882893854e-15
10
-19.549979896409223
20
-4.163336342344337e-16
42
0.41421356237309087
10
-19.049980391055072
20
0.49999950535416282
10
-19.049980391055055
20
13.499986644562503
42
0.41421356237309509
10
-19.549979896409226
20
13.999986149916674
10
-32.549967035617556
20
13.999986149916669
42
0.41421356237308982
10
-33.049966540971738
20
13.499986644562503
0
LWPOLYLINE
5
109
100
AcDbEntity
8
0
100
AcDbPolyline
90
8
70
1
43
0.0
10
-52.099946932026775
20
0.49999950535416721
42
0.41421356237308959
10
-51.599947426672614
20
-4.0245584642661925e-15
10
-38.599960287464278
20
-4.8572257327350599e-16
42
0.41421356237308737
10
-38.099960782110109
20
0.49999950535416282
10
-38.099960782110109
20
13.499986644562503
42
0.41421356237308071
10
-38.599960287464263
20
13.999986149916674
10
-51.599947426672614
20
13.999986149916666
42
0.41421356237308982
10
-52.099946932026775
20
13.499986644562503
0
LWPOLYLINE
5
110
100
AcDbEntity
8
0
100
AcDbPolyline
90
8
70
1
43
0.0
10
-71.149931137775326
20
0.49999950535416721
42
0.41421356237309748
10
-70.649931632421158
20
2.7755575615628914e-16
10
-57.649944493212821
20
3.9551695252271202e-15
42
0.41421356237308538
10
-57.149944987858667
20
0.49999950535416282
10
-57.149944987858667
20
13.499986644562503
42
0.41421356237308327
10
-57.649944493212821
20
13.999986149916674
10
-70.649931632421158
20
13.999986149916666
42
0.41421356237310281
10
-71.149931137775326
20
13.499986644562503
0
LWPOLYLINE
5
111
100
AcDbEntity
8
0
100
AcDbPolyline
90
8
70
1
43
0.0
10
-90.199907714136899
20
0.49999950535416721
42
0.41421356237311224
10
-89.69990820878273
20
1.5959455978986625e-15
10
-76.699921069574387
20
3.9551695252271202e-15
42
0.41421356237310025
10
-76.199921564220219
20
0.49999950535416282
10
-76.199921564220219
20
13.499986644562503
42
0.41421356237308327
10
-76.699921069574373
20
13.999986149916674
10
-89.69990820878273
20
13.999986149916674
42
0.4142135623731002
10
-90.199907714136884
20
13.499986644562503
0
LWPOLYLINE
5
112
100
AcDbEntity
8
0
100
AcDbPolyline
90
8
70
1
43
0.0
10
-109.24989191988544
20
0.49999950535416721
42
0.41421356237310702
10
-108.74989241453127
20
1.0547118733938987e-14
10
-95.749905275322931
20
-4.9266146717741321e-15
42
0.41421356237309898
10
-95.249905769968777
20
0.49999950535416282
10
-95.249905769968763
20
13.499986644562503
42
0.41421356237311319
10
-95.749905275322931
20
13.999986149916674
10
-108.74989241453127
20
13.999986149916674
42
0.41421356237309509
10
-109.24989191988544
20
13.499986644562503
0
LWPOLYLINE
5
113
100
AcDbEntity
8
0
100
AcDbPolyline
90
8
70
1
43
0.0
10
-147.34986033138253
20
0.49999950535416721
42
0.41421356237311224
10
-146.84986082602836
20
1.5959455978986625e-15
10
-133.84987368682002
20
-4.9266146717741321e-15
42
0.41421356237309381
10
-133.34987418146585
20
0.49999950535416282
10
-133.34987418146585
20
13.499986644562503
42
0.41421356237310802
10
-133.84987368682002
20
13.999986149916674
10
-146.84986082602836
20
13.999986149916674
42
0.4142135623731002
10
-147.34986033138253
20
13.499986644562503
0
LWPOLYLINE
5
114
100
AcDbEntity
8
0
100
AcDbPolyline
90
8
70
1
43
0.0
10
-166.39982927835712
20
0.49999950535416721
42
0.41421356237311052
10
-165.89982977300295
20
-1.3253287356462806e-14
10
-152.89984263379461
20
-4.9266146717741321e-15
42
0.41421356237309381
10
-152.39984312844044
20
0.49999950535416282
10
-152.39984312844044
20
13.499986644562503
42
0.41421356237310802
10
-152.89984263379461
20
13.999986149916674
10
-165.89982977300295
20
13.999986149916657
42
0.41421356237313273
10
-166.39982927835712
20
13.499986644562503
0
LWPOLYLINE
5
115
100
AcDbEntity
8
0
100
AcDbPolyline
90
8
70
1
43
0.0
10
-185.44981348410568
20
0.49999950535416721
42
0.41421356237311052
10
-184.94981397875151
20
-1.3253287356462806e-14
10
-171.94982683954319
20
1.2836953722228372e-14
42
0.41421356237311202
10
-171.449827334189
20
0.49999950535416282
10
-171.449827334189
20
13.499986644562503
42
0.41421356237311191
10
-171.94982683954316
20
13.999986149916674
10
-184.94981397875148
20
13.999986149916657
42
0.41421356237311319
10
-185.44981348410568
20
13.499986644562503
0
LWPOLYLINE
5
116
100
AcDbEntity
8
0
100
AcDbPolyline
90
8
70
1
43
0.0
10
-204.49979768985418
20
0.49999950535416721
42
0.41421356237311052
10
-203.99979818450004
20
-1.3253287356462806e-14
10
-190.99981104529172
20
1.2836953722228372e-14
42
0.41421356237312984
10
-190.49981153993755
20
0.49999950535416282
10
-190.49981153993755
20
13.499986644562503
42
0.41421356237311191
10
-190.99981104529172
20
13.999986149916674
10
-203.99979818450004
20
13.999986149916657
42
0.41421356237313273
10
-204.49979768985418
20
13.499986644562503
0
LWPOLYLINE
5
117
100
AcDbEntity
8
0
100
AcDbPolyline
90
8
70
1
43
0.0
10
-223.54978189560273
20
0.49999950535416721
42
0.41421356237311052
10
-223.04978239024859
20
-1.3253287356462806e-14
10
-210.04979525104028
20
1.2836953722228372e-14
42
0.41421356237312984
10
-209.54979574568611
20
0.49999950535416282
10
-209.54979574568611
20
13.499986644562503
42
0.41421356237311191
10
-210.04979525104028
20
13.999986149916674
10
-223.04978239024859
20
13.999986149916657
42
0.41421356237313273
10
-223.54978189560273
20
13.499986644562503
0
LWPOLYLINE
5
118
100
AcDbEntity
8
0
100
AcDbPolyline
90
8
70
1
43
0.0
10
-290.22471898633569
20
0.49999950535416721
42
0.41421356237311052
10
-289.72471948098155
20
-1.3253287356462806e-14
10
-276.72473234177323
20
1.2836953722228372e-14
42
0.41421356237311202
10
-276.22473283641904
20
0.49999950535416282
10
-276.22473283641904
20
13.499986644562503
42
0.41421356237311191
10
-276.72473234177318
20
13.999986149916674
10
-289.72471948098149
20
13.999986149916657
42
0.41421356237311319
10
-290.22471898633569
20
13.499986644562503
0
LWPOLYLINE
5
119
100
AcDbEntity
8
0
100
AcDbPolyline
90
8
70
1
43
0.0
10
-309.27468793331025
20
0.49999950535416721
42
0.41421356237311052
10
-308.77468842795611
20
-1.3253287356462806e-14
10
-295.77470128874779
20
1.2836953722228372e-14
42
0.41421356237310158
10
-295.2747017833936
20
0.49999950535416282
10
-295.2747017833936
20
13.499986644562503
42
0.41421356237311191
10
-295.77470128874774
20
13.999986149916674
10
-308.77468842795611
20
13.999986149916657
42
0.41421356237310281
10
-309.27468793331025
20
13.499986644562503
0
LWPOLYLINE
5
120
100
AcDbEntity
8
0
100
AcDbPolyline
90
8
70
1
43
0.0
10
-328.3246873978328
20
0.49999950535416721
42
0.41421356237312096
10
-327.82468789247866
20
-3.1016855750465311e-14
10
-314.82470075327035
20
1.2836953722228372e-14
42
0.41421356237311202
10
-314.32470124791615
20
0.49999950535416282
10
-314.32470124791615
20
13.499986644562503
42
0.41421356237311191
10
-314.82470075327029
20
13.999986149916674
10
-327.82468789247866
20
13.999986149916657
42
0.41421356237316398
10
-328.3246873978328
20
13.499986644562503
0
LWPOLYLINE
5
121
100
AcDbEntity
8
0
100
AcDbPolyline
90
8
70
1
43
0.0
10
-347.37465634480736
20
0.49999950535416721
42
0.4142135623731002
10
-346.87465683945322
20
4.4408920985006262e-15
10
-333.87466970024485
20
1.2836953722228372e-14
42
0.41421356237311946
10
-333.37467019489065
20
0.49999950535416282
10
-333.37467019489065
20
13.499986644562503
42
0.41421356237312235
10
-333.87466970024485
20
13.999986149916674
10
-346.87465683945322
20
13.999986149916657
42
0.41421356237310153
10
-347.37465634480736
20
13.499986644562503
0
LWPOLYLINE
5
122
100
AcDbEntity
8
0
100
AcDbPolyline
90
8
70
1
43
0.0
10
-366.42462529178198
20
0.49999950535416721
42
0.4142135623731002
10
-365.92462578642778
20
4.4408920985006262e-15
10
-352.92463864721947
20
1.2836953722228372e-14
42
0.41421356237311946
10
-352.42463914186533
20
0.49999950535416282
10
-352.42463914186533
20
13.499986644562503
42
0.41421356237312235
10
-352.92463864721947
20
13.999986149916674
10
-365.92462578642778
20
13.999986149916657
42
0.41421356237310153
10
-366.42462529178198
20
13.499986644562503
0
LWPOLYLINE
5
123
100
AcDbEntity
8
0
100
AcDbPolyline
90
8
70
1
43
0.0
10
-16.381234175635239
20
19.549979896409223
42
0.41421356237309243
10
-15.881234670281072
20
19.049980391055055
10
-2.8812470542360491
20
19.049980391055055
42
0.41421356237309209
10
-2.3812475488818663
20
19.549979896409219
10
-2.3812475488818814
20
32.549967035617556
42
0.4142135623730947
10
-2.8812470542360558
20
33.049966540971731
10
-15.881234670281072
20
33.049966540971724
42
0.41421356237308982
10
-16.381234175635235
20
32.549967035617556
0
LWPOLYLINE
5
124
100
AcDbEntity
8
0
100
AcDbPolyline
90
8
70
1
43
0.0
10
-37.812462592408863
20
19.549979896409223
42
0.41421356237308982
10
-37.312463087054695
20
19.049980391055055
10
-24.312475947846362
20
19.049980391055055
42
0.41421356237308593
10
-23.812476442492212
20
19.549979896409219
10
-23.812476442492194
20
32.549967035617556
42
0.41421356237308982
10
-24.312475947846366
20
33.049966540971731
10
-37.312463087054695
20
33.049966540971724
42
0.41421356237308982
10
-37.812462592408878
20
32.549967035617556
0
LWPOLYLINE
5
125
100
AcDbEntity
8
0
100
AcDbPolyline
90
8
70
1
43
0.0
10
-56.862442983463914
20
19.549979896409223
42
0.41421356237308854
10
-56.362443478109753
20
19.049980391055051
10
-43.362456338901424
20
19.049980391055058
42
0.41421356237310675
10
-42.862456833547249
20
19.549979896409219
10
-42.862456833547249
20
32.549967035617556
42
0.41421356237308465
10
-43.362456338901403
20
33.049966540971731
10
-56.362443478109739
20
33.049966540971724
42
0.41421356237310281
10
-56.862442983463914
20
32.549967035617556
0
LWPOLYLINE
5
126
100
AcDbEntity
8
0
100
AcDbPolyline
90
8
70
1
43
0.0
10
-75.912423374518966
20
19.549979896409223
42
0.41421356237308854
10
-75.412423869164812
20
19.049980391055051
10
-62.412436729956475
20
19.049980391055058
42
0.4142135623731002
10
-61.912437224602321
20
19.549979896409219
10
-61.9124372246023
20
32.549967035617556
42
0.4142135623731002
10
-62.412436729956475
20
33.049966540971731
10
-75.412423869164812
20
33.049966540971724
42
0.41421356237307944
10
-75.912423374518951
20
32.549967035617556
0
LWPOLYLINE
5
127
100
AcDbEntity
8
0
100
AcDbPolyline
90
8
70
1
43
0.0
10
-94.962407580267524
20
19.549979896409223
42
0.41421356237311319
10
-94.462408074913355
20
19.049980391055055
10
-81.462420935705012
20
19.049980391055051
42
0.41421356237309243
10
-80.962421430350844
20
19.549979896409219
10
-80.962421430350844
20
32.549967035617556
42
0.41421356237309759
10
-81.462420935704998
20
33.049966540971731
10
-94.462408074913355
20
33.049966540971731
42
0.41421356237310281
10
-94.962407580267509
20
32.549967035617556
0
LWPOLYLINE
5
128
100
AcDbEntity
8
0
100
AcDbPolyline
90
8
70
1
43
0.0
10
-114.0123841566291
20
19.549979896409223
42
0.41421356237310802
10
-113.51238465127493
20
19.049980391055065
10
-100.51239751206658
20
19.049980391055051
42
0.41421356237309759
10
-100.01239800671243
20
19.549979896409219
10
-100.01239800671242
20
32.549967035617556
42
0.41421356237311319
10
-100.51239751206658
20
33.049966540971731
10
-113.51238465127493
20
33.049966540971731
42
0.41421356237309759
10
-114.0123841566291
20
32.549967035617556
0
LWPOLYLINE
5
129
100
AcDbEntity
8
0
100
AcDbPolyline
90
8
70
1
43
0.0
10
-133.06236836237764
20
19.549979896409223
42
0.41421356237311319
10
-132.56236885702347
20
19.049980391055055
10
-119.56238171781513
20
19.049980391055051
42
0.41421356237309243
10
-119.06238221246096
20
19.549979896409219
10
-119.06238221246096
20
32.549967035617556
42
0.41421356237310802
10
-119.56238171781513
20
33.049966540971731
10
-132.56236885702347
20
33.049966540971731
42
0.41421356237310281
10
-133.06236836237764
20
32.549967035617556
0
LWPOLYLINE
5
130
100
AcDbEntity
8
0
100
AcDbPolyline
90
8
70
1
43
0.0
10
-152.1123525681262
20
19.549979896409223
42
0.41421356237311319
10
-151.61235306277203
20
19.049980391055055
10
-138.61236592356369
20
19.049980391055051
42
0.41421356237309243
10
-138.11236641820952
20
19.549979896409219
10
-138.11236641820952
20
32.549967035617556
42
0.41421356237310802
10
-138.61236592356369
20
33.049966540971731
10
-151.61235306277203
20
33.049966540971731
42
0.41421356237310281
10
-152.1123525681262
20
32.549967035617556
0
LWPOLYLINE
5
131
100
AcDbEntity
8
0
100
AcDbPolyline
90
8
70
1
43
0.0
10
-171.1623367738747
20
19.549979896409223
42
0.41421356237311191
10
-170.66233726852056
20
19.04998039105504
10
-157.66235012931222
20
19.049980391055051
42
0.414213562373069
10
-157.16235062395805
20
19.549979896409219
10
-157.16235062395805
20
32.549967035617556
42
0.41421356237311319
10
-157.66235012931222
20
33.049966540971731
10
-170.66233726852056
20
33.04996654097171
42
0.41421356237313145
10
-171.1623367738747
20
32.549967035617556
0
LWPOLYLINE
5
132
100
AcDbEntity
8
0
100
AcDbPolyline
90
8
70
1
43
0.0
10
-190.21230572084929
20
19.549979896409223
42
0.41421356237311191
10
-189.71230621549512
20
19.04998039105504
10
-176.7123190762868
20
19.049980391055069
42
0.41421356237313012
10
-176.21231957093266
20
19.549979896409219
10
-176.21231957093266
20
32.549967035617556
42
0.41421356237310802
10
-176.7123190762868
20
33.049966540971731
10
-189.71230621549512
20
33.04996654097171
42
0.41421356237313145
10
-190.21230572084929
20
32.549967035617556
0
LWPOLYLINE
5
133
100
AcDbEntity
8
0
100
AcDbPolyline
90
8
70
1
43
0.0
10
-209.26228992659784
20
19.549979896409223
42
0.41421356237311191
10
-208.76229042124368
20
19.04998039105504
10
-195.76230328203536
20
19.049980391055069
42
0.41421356237313012
10
-195.26230377668122
20
19.549979896409219
10
-195.26230377668122
20
32.549967035617556
42
0.41421356237310802
10
-195.76230328203536
20
33.049966540971731
10
-208.76229042124368
20
33.04996654097171
42
0.41421356237313145
10
-209.26228992659784
20
32.549967035617556
0
LWPOLYLINE
5
134
100
AcDbEntity
8
0
100
AcDbPolyline
90
8
70
1
43
0.0
10
-228.3122741323464
20
19.549979896409223
42
0.41421356237311191
10
-227.81227462699223
20
19.04998039105504
10
-214.81228748778392
20
19.049980391055069
42
0.4142135623731002
10
-214.31228798242972
20
19.549979896409219
10
-214.31228798242972
20
32.549967035617556
42
0.41421356237310802
10
-214.81228748778389
20
33.049966540971731
10
-227.81227462699221
20
33.04996654097171
42
0.41421356237310542
10
-228.3122741323464
20
32.549967035617556
0
LWPOLYLINE
5
135
100
AcDbEntity
8
0
100
AcDbPolyline
90
8
70
1
43
0.0
10
-252.12475057483857
20
19.549979896409223
42
0.41421356237311191
10
-251.62475106948443
20
19.04998039105504
10
-238.62476393027609
20
19.049980391055069
42
0.41421356237313012
10
-238.12476442492195
20
19.549979896409219
10
-238.12476442492195
20
32.549967035617556
42
0.41421356237310802
10
-238.62476393027609
20
33.049966540971731
10
-251.62475106948443
20
33.04996654097171
42
0.41421356237313145
10
-252.12475057483857
20
32.549967035617556
0
LWPOLYLINE
5
136
100
AcDbEntity
8
0
100
AcDbPolyline
90
8
70
1
43
0.0
10
-290.22471898633569
20
19.549979896409223
42
0.41421356237311191
10
-289.72471948098155
20
19.04998039105504
10
-276.72473234177323
20
19.049980391055069
42
0.41421356237311063
10
-276.22473283641904
20
19.549979896409219
10
-276.22473283641904
20
32.549967035617556
42
0.41421356237310802
10
-276.72473234177318
20
33.049966540971731
10
-289.72471948098149
20
33.04996654097171
42
0.41421356237311585
10
-290.22471898633569
20
32.549967035617556
0
LWPOLYLINE
5
137
100
AcDbEntity
8
0
100
AcDbPolyline
90
8
70
1
43
0.0
10
-309.27468793331025
20
19.549979896409223
42
0.41421356237311191
10
-308.77468842795611
20
19.04998039105504
10
-295.77470128874779
20
19.049980391055069
42
0.4142135623731002
10
-295.2747017833936
20
19.549979896409219
10
-295.2747017833936
20
32.549967035617556
42
0.41421356237310802
10
-295.77470128874774
20
33.049966540971731
10
-308.77468842795611
20
33.04996654097171
42
0.41421356237310542
10
-309.27468793331025
20
32.549967035617556
0
LWPOLYLINE
5
138
100
AcDbEntity
8
0
100
AcDbPolyline
90
8
70
1
43
0.0
10
-328.3246873978328
20
19.549979896409223
42
0.41421356237312235
10
-327.82468789247866
20
19.049980391055023
10
-314.82470075327035
20
19.049980391055069
42
0.41421356237311063
10
-314.32470124791615
20
19.549979896409219
10
-314.32470124791615
20
32.549967035617556
42
0.41421356237310802
10
-314.82470075327029
20
33.049966540971731
10
-327.82468789247866
20
33.04996654097171
42
0.41421356237312101
10
-328.3246873978328
20
32.549967035617556
0
LWPOLYLINE
5
139
100
AcDbEntity
8
0
100
AcDbPolyline
90
8
70
1
43
0.0
10
-347.37465634480736
20
19.549979896409223
42
0.41421356237310153
10
-346.87465683945322
20
19.049980391055058
10
-333.87466970024485
20
19.049980391055069
42
0.41421356237316137
10
-333.37467019489065
20
19.549979896409219
10
-333.37467019489065
20
32.549967035617556
42
0.41421356237311846
10
-333.87466970024485
20
33.049966540971731
10
-346.87465683945322
20
33.04996654097171
42
0.4142135623731002
10
-347.37465634480736
20
32.549967035617556
0
LWPOLYLINE
5
140
100
AcDbEntity
8
0
100
AcDbPolyline
90
8
70
1
43
0.0
10
-366.42462529178198
20
19.549979896409223
42
0.41421356237310153
10
-365.92462578642778
20
19.049980391055058
10
-352.92463864721947
20
19.049980391055069
42
0.41421356237316137
10
-352.42463914186533
20
19.549979896409219
10
-352.42463914186533
20
32.549967035617556
42
0.41421356237311846
10
-352.92463864721947
20
33.049966540971731
10
-365.92462578642778
20
33.04996654097171
42
0.4142135623731002
10
-366.42462529178198
20
32.549967035617556
0
LWPOLYLINE
5
141
100
AcDbEntity
8
0
100
AcDbPolyline
90
8
70
1
43
0.0
10
-21.143728319725628
20
38.599960287464278
42
0.41421356237308726
10
-20.64372881437146
20
38.099960782110102
10
-7.6437426288364962
20
38.099960782110109
42
0.41421356237309176
10
-7.1437431234823379
20
38.599960287464278
10
-7.143743123482337
20
51.599947426672614
42
0.41421356237308982
10
-7.6437426288364918
20
52.099946932026775
10
-20.643728814371464
20
52.099946932026775
42
0.41421356237308726
10
-21.143728319725632
20
51.599947426672614
0
LWPOLYLINE
5
142
100
AcDbEntity
8
0
100
AcDbPolyline
90
8
70
1
43
0.0
10
-47.337454695283142
20
38.599960287464278
42
0.41421356237309243
10
-46.837455189928967
20
38.099960782110109
10
-33.837468050720631
20
38.099960782110109
42
0.41421356237308465
10
-33.337468545366455
20
38.599960287464278
10
-33.33746854536647
20
51.599947426672614
42
0.41421356237310281
10
-33.837468050720645
20
52.099946932026775
10
-46.837455189928967
20
52.099946932026775
42
0.4142135623731002
10
-47.337454695283121
20
51.599947426672614
0
LWPOLYLINE
5
143
100
AcDbEntity
8
0
100
AcDbPolyline
90
8
70
1
43
0.0
10
-85.437415477393245
20
38.599960287464278
42
0.41421356237311063
10
-84.937415972039076
20
38.099960782110116
10
-71.937428832830733
20
38.099960782110116
42
0.41421356237308982
10
-71.437429327476565
20
38.599960287464278
10
-71.437429327476579
20
51.599947426672614
42
0.4142135623731002
10
-71.937428832830761
20
52.099946932026775
10
-84.937415972039076
20
52.099946932026782
42
0.41421356237311585
10
-85.43741547739323
20
51.599947426672614
0
LWPOLYLINE
5
144
100
AcDbEntity
8
0
100
AcDbPolyline
90
8
70
1
43
0.0
10
-104.4873996831418
20
38.599960287464278
42
0.41421356237311063
10
-103.98740017778763
20
38.099960782110116
10
-90.987413038579291
20
38.099960782110102
42
0.41421356237309509
10
-90.487413533225123
20
38.599960287464278
10
-90.487413533225123
20
51.599947426672614
42
0.41421356237304296
10
-90.987413038579277
20
52.099946932026775
10
-103.98740017778763
20
52.099946932026782
42
0.41421356237311585
10
-104.48739968314179
20
51.599947426672614
0
LWPOLYLINE
5
145
100
AcDbEntity
8
0
100
AcDbPolyline
90
8
70
1
43
0.0
10
-123.53737625950336
20
38.599960287464278
42
0.41421356237311063
10
-123.03737675414919
20
38.099960782110116
10
-110.03738961494085
20
38.099960782110102
42
0.41421356237307161
10
-109.53739010958671
20
38.599960287464278
10
-109.53739010958671
20
51.599947426672614
42
0.41421356237312101
10
-110.03738961494086
20
52.099946932026775
10
-123.03737675414921
20
52.099946932026782
42
0.414213562373069
10
-123.53737625950336
20
51.599947426672614
0
LWPOLYLINE
5
146
100
AcDbEntity
8
0
100
AcDbPolyline
90
8
70
1
43
0.0
10
-142.58735283586492
20
38.599960287464278
42
0.41421356237310542
10
-142.08735333051075
20
38.099960782110124
10
-129.08736619130241
20
38.099960782110102
42
0.4142135623731002
10
-128.58736668594824
20
38.599960287464278
10
-128.58736668594827
20
51.599947426672614
42
0.41421356237312101
10
-129.08736619130241
20
52.099946932026775
10
-142.08735333051075
20
52.099946932026782
42
0.41421356237311063
10
-142.58735283586492
20
51.599947426672614
0
LWPOLYLINE
5
147
100
AcDbEntity
8
0
100
AcDbPolyline
90
8
70
1
43
0.0
10
-161.63733704161345
20
38.599960287464278
42
0.41421356237311063
10
-161.13733753625928
20
38.099960782110095
10
-148.13735039705097
20
38.099960782110102
42
0.41421356237307161
10
-147.6373508916968
20
38.599960287464278
10
-147.63735089169683
20
51.599947426672614
42
0.41421356237312101
10
-148.13735039705097
20
52.099946932026775
10
-161.13733753625928
20
52.099946932026768
42
0.41421356237313145
10
-161.63733704161345
20
51.599947426672614
0
LWPOLYLINE
5
148
100
AcDbEntity
8
0
100
AcDbPolyline
90
8
70
1
43
0.0
10
-180.68732124736201
20
38.599960287464278
42
0.41421356237311063
10
-180.18732174200784
20
38.099960782110095
10
-167.18733460279952
20
38.099960782110124
42
0.41421356237313145
10
-166.68733509744538
20
38.599960287464278
10
-166.68733509744538
20
51.599947426672614
42
0.41421356237313145
10
-167.18733460279952
20
52.099946932026775
10
-180.18732174200784
20
52.099946932026768
42
0.41421356237313145
10
-180.68732124736201
20
51.599947426672614
0
LWPOLYLINE
5
149
100
AcDbEntity
8
0
100
AcDbPolyline
90
8
70
1
43
0.0
10
-199.73730545311057
20
38.599960287464278
42
0.41421356237311063
10
-199.2373059477564
20
38.099960782110095
10
-186.23731880854808
20
38.099960782110124
42
0.41421356237311319
10
-185.73731930319389
20
38.599960287464278
10
-185.73731930319389
20
51.599947426672614
42
0.41421356237313145
10
-186.23731880854805
20
52.099946932026775
10
-199.23730594775637
20
52.099946932026768
42
0.41421356237311585
10
-199.73730545311057
20
51.599947426672614
0
LWPOLYLINE
5
150
100
AcDbEntity
8
0
100
AcDbPolyline
90
8
70
1
43
0.0
10
-218.78728965885909
20
38.599960287464278
42
0.41421356237311063
10
-218.28729015350493
20
38.099960782110095
10
-205.28730301429661
20
38.099960782110124
42
0.41421356237313145
10
-204.78730350894244
20
38.599960287464278
10
-204.78730350894244
20
51.599947426672614
42
0.41421356237313145
10
-205.28730301429661
20
52.099946932026775
10
-218.28729015350493
20
52.099946932026768
42
0.41421356237313145
10
-218.78728965885909
20
51.599947426672614
0
LWPOLYLINE
5
151
100
AcDbEntity
8
0
100
AcDbPolyline
90
8
70
1
43
0.0
10
-240.2185123535925
20
38.599960287464278
42
0.41421356237311063
10
-239.71851284823833
20
38.099960782110095
10
-226.71852570903002
20
38.099960782110124
42
0.41421356237311319
10
-226.21852620367582
20
38.599960287464278
10
-226.21852620367582
20
51.599947426672614
42
0.41421356237313145
10
-226.71852570902999
20
52.099946932026775
10
-239.7185128482383
20
52.099946932026768
42
0.41421356237311585
10
-240.2185123535925
20
51.599947426672614
0
LWPOLYLINE
5
152
100
AcDbEntity
8
0
100
AcDbPolyline
90
8
70
1
43
0.0
10
-290.22471898633569
20
38.599960287464278
42
0.41421356237311063
10
-289.72471948098155
20
38.099960782110095
10
-276.72473234177323
20
38.099960782110124
42
0.41421356237311319
10
-276.22473283641904
20
38.599960287464278
10
-276.22473283641904
20
51.599947426672614
42
0.41421356237313145
10
-276.72473234177318
20
52.099946932026775
10
-289.72471948098149
20
52.099946932026768
42
0.41421356237311585
10
-290.22471898633569
20
51.599947426672614
0
LWPOLYLINE
5
153
100
AcDbEntity
8
0
100
AcDbPolyline
90
8
70
1
43
0.0
10
-309.27468793331025
20
38.599960287464278
42
0.41421356237311063
10
-308.77468842795611
20
38.099960782110095
10
-295.77470128874779
20
38.099960782110124
42
0.41421356237310281
10
-295.2747017833936
20
38.599960287464278
10
-295.2747017833936
20
51.599947426672614
42
0.41421356237313145
10
-295.77470128874774
20
52.099946932026775
10
-308.77468842795611
20
52.099946932026768
42
0.41421356237310542
10
-309.27468793331025
20
51.599947426672614
0
LWPOLYLINE
5
154
100
AcDbEntity
8
0
100
AcDbPolyline
90
8
70
1
43
0.0
10
-328.3246873978328
20
38.599960287464278
42
0.41421356237312101
10
-327.82468789247866
20
38.099960782110081
10
-314.82470075327035
20
38.099960782110124
42
0.41421356237311319
10
-314.32470124791615
20
38.599960287464278
10
-314.32470124791615
20
51.599947426672614
42
0.41421356237313145
10
-314.82470075327029
20
52.099946932026775
10
-327.82468789247866
20
52.099946932026768
42
0.41421356237312101
10
-328.3246873978328
20
51.599947426672614
0
LWPOLYLINE
5
155
100
AcDbEntity
8
0
100
AcDbPolyline
90
8
70
1
43
0.0
10
-347.37465634480736
20
38.599960287464278
42
0.4142135623731002
10
-346.87465683945322
20
38.099960782110116
10
-333.87466970024485
20
38.099960782110124
42
0.41421356237312101
10
-333.37467019489065
20
38.599960287464278
10
-333.37467019489065
20
51.599947426672614
42
0.41421356237312101
10
-333.87466970024485
20
52.099946932026775
10
-346.87465683945322
20
52.099946932026768
42
0.4142135623731002
10
-347.37465634480736
20
51.599947426672614
0
LWPOLYLINE
5
156
100
AcDbEntity
8
0
100
AcDbPolyline
90
8
70
1
43
0.0
10
-266.41224254384349
20
43.362456338901424
42
0.41421356237311585
10
-265.91224303848935
20
42.862456833547228
10
-252.91225589928101
20
42.862456833547256
42
0.41421356237313145
10
-252.41225639392684
20
43.36245633890141
10
-252.41225639392684
20
56.362443478109753
42
0.41421356237313145
10
-252.91225589928101
20
56.862442983463914
10
-265.91224303848935
20
56.862442983463907
42
0.41421356237313145
10
-266.41224254384349
20
56.362443478109753
0
LWPOLYLINE
5
157
100
AcDbEntity
8
0
100
AcDbPolyline
90
8
70
1
43
0.0
10
-16.381234175635235
20
57.649944493212821
42
0.41421356237308726
10
-15.881234670281072
20
57.149944987858667
10
-2.8812470542360491
20
57.149944987858667
42
0.41421356237308915
10
-2.3812475488818663
20
57.649944493212828
10
-2.3812475488818858
20
70.649931632421158
42
0.41421356237310702
10
-2.8812470542360558
20
71.149931137775326
10
-15.881234670281072
20
71.149931137775326
42
0.4142135623730937
10
-16.381234175635235
20
70.649931632421158
0
LWPOLYLINE
5
158
100
AcDbEntity
8
0
100
AcDbPolyline
90
8
70
1
43
0.0
10
-37.812462592408863
20
57.649944493212821
42
0.41421356237307944
10
-37.312463087054695
20
57.149944987858667
10
-24.312475947846362
20
57.149944987858667
42
0.41421356237308982
10
-23.812476442492212
20
57.649944493212828
10
-23.812476442492198
20
70.649931632421158
42
0.41421356237310542
10
-24.312475947846366
20
71.149931137775326
10
-37.312463087054695
20
71.149931137775326
42
0.4142135623731002
10
-37.812462592408878
20
70.649931632421158
0
LWPOLYLINE
5
159
100
AcDbEntity
8
0
100
AcDbPolyline
90
8
70
1
43
0.0
10
-59.243692916529227
20
57.649944493212821
42
0.41421356237308982
10
-58.743693411175066
20
57.149944987858667
10
-45.74370627196673
20
57.149944987858667
42
0.4142135623731002
10
-45.243706766612561
20
57.649944493212828
10
-45.243706766612569
20
70.649931632421158
42
0.41421356237309509
10
-45.743706271966715
20
71.149931137775326
10
-58.743693411175073
20
71.149931137775326
42
0.4142135623731002
10
-59.243692916529227
20
70.649931632421158
0
LWPOLYLINE
5
160
100
AcDbEntity
8
0
100
AcDbPolyline
90
8
70
1
43
0.0
10
-199.73730545311057
20
57.649944493212821
42
0.41421356237313145
10
-199.2373059477564
20
57.149944987858674
10
-186.23731880854808
20
57.149944987858674
42
0.41421356237311585
10
-185.73731930319389
20
57.649944493212828
10
-185.73731930319389
20
70.649931632421158
42
0.41421356237313667
10
-186.23731880854805
20
71.149931137775326
10
-199.23730594775637
20
71.149931137775312
42
0.41421356237311585
10
-199.73730545311057
20
70.649931632421158
0
LWPOLYLINE
5
161
100
AcDbEntity
8
0
100
AcDbPolyline
90
8
70
1
43
0.0
10
-221.16852814784394
20
57.649944493212821
42
0.41421356237313145
10
-220.66852864248978
20
57.149944987858674
10
-207.66854150328146
20
57.149944987858674
42
0.41421356237313145
10
-207.16854199792732
20
57.649944493212828
10
-207.16854199792732
20
70.649931632421158
42
0.41421356237313667
10
-207.66854150328146
20
71.149931137775326
10
-220.66852864248978
20
71.149931137775312
42
0.41421356237313145
10
-221.16852814784394
20
70.649931632421158
0
LWPOLYLINE
5
162
100
AcDbEntity
8
0
100
AcDbPolyline
90
8
70
1
43
0.0
10
-347.37465634480736
20
57.649944493212821
42
0.4142135623731002
10
-346.87465683945322
20
57.14994498785866
10
-333.87466970024485
20
57.149944987858674
42
0.41421356237312101
10
-333.37467019489065
20
57.649944493212828
10
-333.37467019489065
20
70.649931632421158
42
0.41421356237312629
10
-333.87466970024485
20
71.149931137775326
10
-346.87465683945322
20
71.149931137775312
42
0.4142135623731002
10
-347.37465634480736
20
70.649931632421158
0
LWPOLYLINE
5
163
100
AcDbEntity
8
0
100
AcDbPolyline
90
8
70
1
43
0.0
10
-247.36225833809496
20
62.412436729956475
42
0.41421356237313667
10
-246.86225883274079
20
61.912437224602321
10
-233.86227169353248
20
61.912437224602321
42
0.41421356237310542
10
-233.36227218817828
20
62.412436729956475
10
-233.36227218817828
20
75.412423869164812
42
0.41421356237313145
10
-233.86227169353245
20
75.912423374518966
10
-246.86225883274076
20
75.912423374518966
42
0.41421356237310542
10
-247.36225833809496
20
75.412423869164812
0
LWPOLYLINE
5
164
100
AcDbEntity
8
0
100
AcDbPolyline
90
8
70
1
43
0.0
10
-266.41224254384349
20
62.412436729956475
42
0.41421356237313667
10
-265.91224303848935
20
61.912437224602321
10
-252.91225589928101
20
61.912437224602321
42
0.41421356237313145
10
-252.41225639392684
20
62.412436729956475
10
-252.41225639392684
20
75.412423869164812
42
0.41421356237313145
10
-252.91225589928101
20
75.912423374518966
10
-265.91224303848935
20
75.912423374518966
42
0.41421356237313145
10
-266.41224254384349
20
75.412423869164812
0
LWPOLYLINE
5
165
100
AcDbEntity
8
0
100
AcDbPolyline
90
8
70
1
43
0.0
10
-285.46221149081805
20
62.412436729956475
42
0.41421356237313667
10
-284.96221198546391
20
61.912437224602321
10
-271.96222484625559
20
61.912437224602321
42
0.41421356237313145
10
-271.46222534090145
20
62.412436729956475
10
-271.46222534090145
20
75.412423869164812
42
0.41421356237313145
10
-271.96222484625559
20
75.912423374518966
10
-284.96221198546391
20
75.912423374518966
42
0.41421356237313145
10
-285.46221149081805
20
75.412423869164812
0
LWPOLYLINE
5
166
100
AcDbEntity
8
0
100
AcDbPolyline
90
8
70
1
43
0.0
10
-13.999986149916669
20
0.49999950535416721
42
0.4142135623730947
10
-13.499986644562503
20
4.8572257327350599e-16
10
-0.49999950535416721
20
0
42
0.41421356237309331
10
0
20
0.49999950535416282
10
4.163336342344337e-16
20
13.499986644562503
42
0.41421356237308571
10
-0.49999950535415394
20
13.999986149916674
10
-13.499986644562503
20
13.999986149916669
42
0.41421356237309243
10
-13.999986149916666
20
13.499986644562503
0
LWPOLYLINE
5
167
100
AcDbEntity
8
0
100
AcDbPolyline
90
8
70
1
43
0.0
10
-66.387431271644715
20
38.599960287464278
42
0.41421356237309243
10
-65.887431766290533
20
38.099960782110109
10
-52.887448441775689
20
38.099960782110116
42
0.41421356237309509
10
-52.387448936421528
20
38.599960287464278
10
-52.387448936421528
20
51.599947426672614
42
0.41421356237308982
10
-52.887448441775682
20
52.099946932026775
10
-65.887431766290533
20
52.099946932026775
42
0.4142135623731002
10
-66.387431271644715
20
51.599947426672614
0
LWPOLYLINE
5
168
100
AcDbEntity
8
0
100
AcDbPolyline
90
8
70
1
43
0.0
10
-128.299876125634
20
0.49999950535416721
42
0.41421356237310702
10
-127.79987662027983
20
1.0547118733938987e-14
10
-114.79988948107149
20
-4.9266146717741321e-15
42
0.41421356237309898
10
-114.29988997571732
20
0.49999950535416282
10
-114.29988997571732
20
13.499986644562503
42
0.41421356237311319
10
-114.79988948107149
20
13.999986149916674
10
-127.79987662027983
20
13.999986149916674
42
0.41421356237309509
10
-128.299876125634
20
13.499986644562503
0
LWPOLYLINE
5
169
100
AcDbEntity
8
0
100
AcDbPolyline
90
8
70
1
43
0.0
10
-70.181182096151645
20
70.649931632421158
42
0.4142135623731002
10
-70.681181601505799
20
71.149931137775326
10
-81.405665925934372
20
71.149931137775326
42
0.41421356237311585
10
-81.905665431288526
20
70.649931632421158
10
-81.905665431288526
20
56.649945482504492
42
0.41421356237313667
10
-81.405665925934372
20
56.149945977150331
10
-70.681181601505799
20
56.149945977150331
42
0.4142135623731002
10
-70.181182096151645
20
56.649945482504492
0
LWPOLYLINE
5
170
100
AcDbEntity
8
0
100
AcDbPolyline
90
8
70
1
43
0.0
10
-146.40660870105788
20
70.649931632421158
42
0.41421356237305862
10
-146.90660820641202
20
71.149931137775326
10
-152.90660227066206
20
71.149931137775326
42
0.41421356237311585
10
-153.40660177601623
20
70.649931632421158
10
-153.4066017760162
20
56.649945482504492
42
0.41421356237313667
10
-152.90660227066206
20
56.149945977150331
10
-146.90660820641205
20
56.149945977150324
42
0.41421356237311063
10
-146.40660870105788
20
56.649945482504492
0
ENDSEC
0
SECTION
2
OBJECTS
0
DICTIONARY
5
C
100
AcDbDictionary
3
ACAD_GROUP
350
D
3
ACAD_MLINESTYLE
350
17
0
DICTIONARY
5
D
100
AcDbDictionary
0
DICTIONARY
5
1A
330
C
100
AcDbDictionary
0
DICTIONARY
5
17
100
AcDbDictionary
0
ENDSEC
0
EOF
