0
SECTION
2
HEADER
9
$INSUNITS
70
4
9
$ACADVER
1
AC1014
9
$HANDSEED
5
FFFF
0
ENDSEC
0
SECTION
2
TABLES
0
TABLE
2
VPORT
5
8
100
AcDbSymbolTable
0
ENDTAB
0
TABLE
2
LTYPE
5
5
100
AcDbSymbolTable
0
LTYPE
5
14
100
AcDbSymbolTableRecord
100
AcDbLinetypeTableRecord
2
BYBLOCK
70
0
0
LTYPE
5
15
100
AcDbSymbolTableRecord
100
AcDbLinetypeTableRecord
2
BYLAYER
70
0
0
ENDTAB
0
TABLE
2
LAYER
5
2
100
AcDbSymbolTable
70
2
0
LAYER
5
50
100
AcDbSymbolTableRecord
100
AcDbLayerTableRecord
2
0
70
0
6
CONTINUOUS
0
ENDTAB
0
TABLE
2
STYLE
5
3
100
AcDbSymbolTable
70
1
0
STYLE
5
11
100
AcDbSymbolTableRecord
100
AcDbTextStyleTableRecord
2
STANDARD
70
0
0
ENDTAB
0
TABLE
2
VIEW
5
6
100
AcDbSymbolTable
70
0
0
ENDTAB
0
TABLE
2
UCS
5
7
100
AcDbSymbolTable
70
0
0
ENDTAB
0
TABLE
2
APPID
5
9
100
AcDbSymbolTable
70
2
0
APPID
5
12
100
AcDbSymbolTableRecord
100
AcDbRegAppTableRecord
2
ACAD
70
0
0
ENDTAB
0
TABLE
2
DIMSTYLE
5
A
100
AcDbSymbolTable
70
1
0
ENDTAB
0
TABLE
2
BLOCK_RECORD
5
1
100
AcDbSymbolTable
70
1
0
BLOCK_RECORD
5
1F
100
AcDbSymbolTableRecord
100
AcDbBlockTableRecord
2
*MODEL_SPACE
0
BLOCK_RECORD
5
1B
100
AcDbSymbolTableRecord
100
AcDbBlockTableRecord
2
*PAPER_SPACE
0
ENDTAB
0
ENDSEC
0
SECTION
2
BLOCKS
0
BLOCK
5
20
100
AcDbEntity
100
AcDbBlockBegin
2
*MODEL_SPACE
0
ENDBLK
5
21
100
AcDbEntity
100
AcDbBlockEnd
0
BLOCK
5
1C
100
AcDbEntity
100
AcDbBlockBegin
2
*PAPER_SPACE
0
ENDBLK
5
1D
100
AcDbEntity
100
AcDbBlockEnd
0
ENDSEC
0
SECTION
2
ENTITIES
0
LWPOLYLINE
5
100
100
AcDbEntity
8
0
100
AcDbPolyline
90
32
70
1
43
0.0
10
205.28706831664945
20
-52.099904994989565
42
-0.41421356237309509
10
204.78706944046084
20
-51.599906118800966
10
204.78706944046084
20
-38.599935337897342
42
-0.41421356237309509
10
205.28706831664945
20
-38.099936461708744
10
208.25530810511196
20
-38.099936461708744
10
208.25530810511196
20
-37.599937585520145
42
-0.41421356237311585
10
208.75530698130061
20
-37.099938709331539
10
214.75529349556379
20
-37.099938709331539
42
-0.41421356237309509
10
215.25529237175238
20
-37.599937585520145
10
215.25529237175235
20
-38.099936461708744
10
217.19329155589051
20
-38.099936461708744
10
218.28703909755305
20
-38.099936461708744
10
226.7182640437814
20
-38.099936461708744
10
230.19326233679411
20
-38.099936461708744
10
232.13124626217748
20
-38.099936461708744
10
232.13124626217748
20
-37.599937585520145
42
-0.41421356237309509
10
232.63124513836607
20
-37.099938709331539
10
238.63123165262925
20
-37.099938709331539
42
-0.41421356237309509
10
239.13123052881787
20
-37.599937585520145
10
239.13123052881787
20
-38.099936461708744
10
239.71823482468506
20
-38.099936461708744
42
-0.41421356237309509
10
240.21823370087364
20
-38.599935337897342
10
240.21823370087364
20
-51.599906118800966
42
-0.41421356237309509
10
239.71823482468506
20
-52.099904994989565
10
238.63123165262925
20
-52.099904994989565
10
232.63124513836607
20
-52.099904994989565
10
230.19326233679411
20
-52.099904994989565
10
226.7182640437814
20
-52.099904994989565
10
218.28703909755305
20
-52.099904994989565
10
217.19329155589051
20
-52.099904994989565
10
214.75529349556376
20
-52.099904994989565
10
208.75530698130058
20
-52.099904994989565
0
LWPOLYLINE
5
101
100
AcDbEntity
8
0
100
AcDbPolyline
90
32
70
1
43
0.0
10
305.29932521576859
20
-71.149865229526199
10
309.15533461530072
20
-71.149865229526199
10
315.20530881017896
20
-71.149865229526199
10
318.29929599667219
20
-71.149865229526199
10
320.23731043956502
20
-71.149865229526199
10
320.23731043956502
20
-71.649864105714812
42
0.41421356237308982
10
320.73730931575363
20
-72.149862981903397
10
326.73729583001688
20
-72.149862981903397
42
0.41421356237309509
10
327.23729470620549
20
-71.649864105714798
10
327.23729470620549
20
-71.149865229526185
10
328.20527959108256
20
-71.149865229526199
42
0.41421356237309509
10
328.70527846727111
20
-70.6498663533376
10
328.70527846727111
20
-57.649895572433991
42
0.41421356237309509
10
328.20527959108256
20
-57.149896696245378
10
326.73729583001688
20
-57.149896696245378
10
320.73730931575363
20
-57.149896696245378
10
318.29929599667219
20
-57.149896696245378
10
315.20530881017896
20
-57.149896696245378
10
309.15533461530066
20
-57.149896696245378
10
305.29932521576853
20
-57.149896696245378
10
302.86134241419666
20
-57.149896696245378
10
296.86135589993341
20
-57.149896696245378
10
296.15536383439706
20
-57.149896696245392
42
0.41421356237307427
10
295.65536495820845
20
-57.649895572433991
10
295.65536495820851
20
-70.6498663533376
42
0.41421356237309509
10
296.15536383439712
20
-71.149865229526199
10
296.3613570237448
20
-71.149865229526199
10
296.3613570237448
20
-71.649864105714812
42
0.41421356237308982
10
296.86135589993336
20
-72.149862981903397
10
302.8613424141966
20
-72.149862981903397
42
0.41421356237311585
10
303.36134129038521
20
-71.649864105714798
10
303.36134129038521
20
-71.149865229526185
0
LWPOLYLINE
5
102
100
AcDbEntity
8
0
100
AcDbPolyline
90
32
70
1
43
0.0
10
347.25525508437397
20
-38.099936461708744
42
-0.41421356237309509
10
347.75525396056258
20
-38.599935337897342
10
347.75525396056258
20
-39.686934695264419
10
347.75525396056258
20
-45.686921209527625
10
347.75525396056258
20
-48.124915455165663
10
347.75525396056258
20
-51.599906118800973
10
347.75525396056258
20
-57.649895572433991
10
347.75525396056258
20
-61.12488623606928
10
347.75525396056258
20
-63.562880481707317
10
347.75525396056258
20
-69.56287081065922
10
347.75525396056258
20
-70.6498663533376
42
-0.41421356237313667
10
347.25525508437391
20
-71.149865229526199
10
334.25528430347038
20
-71.149865229526199
42
-0.41421356237309509
10
333.75528542728176
20
-70.6498663533376
10
333.75528542728176
20
-70.062869686847819
10
333.25528655109315
20
-70.062869686847819
42
-0.41421356237309509
10
332.75528767490448
20
-69.56287081065922
10
332.75528767490459
20
-63.562880481707317
42
-0.41421356237309509
10
333.25528655109315
20
-63.062881605518719
10
333.75528542728176
20
-63.062881605518719
10
333.75528542728176
20
-61.12488623606928
10
333.75528542728176
20
-57.649895572433991
10
333.75528542728176
20
-51.599906118800966
10
333.75528542728176
20
-48.124915455165663
10
333.75528542728176
20
-46.186920085716238
10
333.25528655109315
20
-46.186920085716224
42
-0.41421356237309509
10
332.75528767490448
20
-45.686921209527625
10
332.75528767490459
20
-39.686934695264419
42
-0.41421356237309509
10
333.25528655109315
20
-39.186935819075828
10
333.75528542728176
20
-39.186935819075821
10
333.75528542728176
20
-38.599935337897342
42
-0.41421356237313667
10
334.25528430347043
20
-38.099936461708744
0
LWPOLYLINE
5
103
100
AcDbEntity
8
0
100
AcDbPolyline
90
16
70
1
43
0.0
10
105.27478852939819
20
-71.149865229526199
42
-0.41421356237309509
10
104.77478965320958
20
-70.6498663533376
10
104.77478965320958
20
-57.649895572433991
42
-0.41421356237309509
10
105.27478852939819
20
-57.149896696245378
10
112.41851789531637
20
-57.149896696245378
10
117.18101176863925
20
-57.149896696245378
10
118.27475931030179
20
-57.149896696245378
10
125.41848867622002
20
-57.149896696245378
10
130.18097492016548
20
-57.149896696245392
42
-0.41421356237309509
10
130.68097379635407
20
-57.649895572433991
10
130.68097379635407
20
-70.6498663533376
42
-0.41421356237310542
10
130.18097492016545
20
-71.149865229526199
10
125.41848867622002
20
-71.149865229526199
10
118.27475931030179
20
-71.149865229526199
10
117.18101176863925
20
-71.149865229526199
10
112.41851789531638
20
-71.149865229526199
0
LWPOLYLINE
5
104
100
AcDbEntity
8
0
100
AcDbPolyline
90
21
70
1
43
0.0
10
48.099913985480768
20
-56.14989894386818
42
-0.41421356237309509
10
48.599912861669367
20
-56.649897820056779
10
48.599912861669367
20
-57.149896696245378
10
51.12490871229727
20
-57.149896696245378
10
51.124908712297277
20
-56.649897820056779
42
-0.41421356237308982
10
51.624907588485868
20
-56.14989894386818
10
57.624894102749082
20
-56.14989894386818
42
-0.41421356237309509
10
58.12489297893768
20
-56.649897820056779
10
58.12489297893768
20
-57.149896696245378
10
58.743643114096557
20
-57.149896696245392
42
-0.41421356237309509
10
59.243641990285155
20
-57.649895572433991
10
59.243641990285155
20
-70.6498663533376
42
-0.4142135623731002
10
58.743643114096542
20
-71.149865229526199
10
57.624894102749089
20
-71.149865229526199
10
51.624907588485875
20
-71.149865229526199
10
48.099913985480768
20
-71.149865229526199
10
45.743672333192933
20
-71.149865229526199
10
42.099927471217555
20
-71.149865229526199
42
-0.41421356237309509
10
41.599928595028956
20
-70.6498663533376
10
41.599928595028956
20
-56.649897820056779
42
-0.41421356237309509
10
42.099927471217555
20
-56.14989894386818
0
LWPOLYLINE
5
105
100
AcDbEntity
8
0
100
AcDbPolyline
90
20
70
1
43
0.0
10
181.44961273910502
20
-56.14989894386818
42
-0.41421356237309509
10
181.94961161529363
20
-56.649897820056779
10
181.94961161529363
20
-70.6498663533376
42
-0.41421356237309509
10
181.44961273910502
20
-71.149865229526199
10
176.68087040570532
20
-71.149865229526199
10
175.44962622484184
20
-71.149865229526199
10
171.95639371988321
20
-71.149865229526199
10
171.92464025121413
20
-71.149865229526199
10
170.68088389144211
20
-71.149865229526199
10
165.95640720562002
20
-71.149865229526199
10
165.92465373695092
20
-71.149865229526199
42
-0.41421356237309509
10
165.4246548607623
20
-70.6498663533376
10
165.4246548607623
20
-56.649897820056779
42
-0.41421356237307427
10
165.92465373695089
20
-56.14989894386818
10
165.95640720562
20
-56.14989894386818
10
170.68088389144211
20
-56.14989894386818
10
171.92464025121413
20
-56.14989894386818
10
171.95639371988321
20
-56.14989894386818
10
175.44962622484181
20
-56.14989894386818
10
176.68087040570529
20
-56.14989894386818
0
LWPOLYLINE
5
106
100
AcDbEntity
8
0
100
AcDbPolyline
90
8
70
1
43
0.0
10
19.549978918049401
20
-13.999992155293675
42
-0.41421356237309509
10
19.049980041860803
20
-13.499993279105073
10
19.049980041860803
20
-0.50002249820145839
42
-0.41421356237309509
10
19.549978918049401
20
-2.3622012857785202e-05
10
32.549949698953014
20
-2.3622012857785202e-05
42
-0.41421356237309598
10
33.049948575141613
20
-0.50002249820146005
10
33.049948575141613
20
-13.499993279105073
42
-0.41421356237309509
10
32.549949698953014
20
-13.999992155293672
0
ARC
5
107
100
AcDbEntity
8
0
100
AcDbCircle
10
-38.599935337897342
20
-13.499993279105073
30
0
40
0.49999887618860006
210
-0
220
-0
230
-1
100
AcDbArc
50
-90
51
0
0
LINE
5
108
100
AcDbEntity
8
0
100
AcDbLine
10
38.599935337897342
20
-13.999992155293672
30
0
11
51.599906118800966
21
-13.999992155293672
31
0
0
ARC
5
109
100
AcDbEntity
8
0
100
AcDbCircle
10
-51.599906118800966
20
-13.499993279105073
30
0
40
0.49999887618860228
210
0
220
0
230
-1
100
AcDbArc
50
180
51
270
0
LINE
5
110
100
AcDbEntity
8
0
100
AcDbLine
10
52.099904994989565
20
-13.499993279105073
30
0
11
52.099904994989565
21
-0.50002249820146005
31
0
0
ARC
5
111
100
AcDbEntity
8
0
100
AcDbCircle
10
-51.599906118800966
20
-0.50002249820145839
30
0
40
0.49999887618860062
210
0
220
0
230
-1
100
AcDbArc
50
90
51
180
0
ARC
5
112
100
AcDbEntity
8
0
100
AcDbCircle
10
-38.599935337897342
20
-0.50002249820145839
30
0
40
0.49999887618860228
210
0
220
0
230
-1
100
AcDbArc
50
0
51
90
0
LINE
5
113
100
AcDbEntity
8
0
100
AcDbLine
10
38.099936461708744
20
-0.50002249820145839
30
0
11
38.099936461708744
21
-13.499993279105073
31
0
0
LWPOLYLINE
5
114
100
AcDbEntity
8
0
100
AcDbPolyline
90
8
70
1
43
0.0
10
57.649895572433991
20
-13.999992155293675
42
-0.41421356237309509
10
57.149896696245378
20
-13.499993279105073
10
57.149896696245392
20
-0.50002249820145839
42
-0.41421356237309509
10
57.649895572433991
20
-2.3622012857785202e-05
10
70.6498663533376
20
-2.3622012857785202e-05
42
-0.41421356237309598
10
71.149865229526199
20
-0.50002249820146005
10
71.149865229526199
20
-13.499993279105073
42
-0.41421356237309509
10
70.6498663533376
20
-13.999992155293672
0
LWPOLYLINE
5
115
100
AcDbEntity
8
0
100
AcDbPolyline
90
8
70
1
43
0.0
10
76.699848177593239
20
-13.999992155293675
42
-0.41421356237309509
10
76.19984930140464
20
-13.499993279105073
10
76.19984930140464
20
-0.50002249820145839
42
-0.41421356237309509
10
76.699848177593239
20
-2.3622012857785202e-05
10
89.699818958496849
20
-2.3622012857785202e-05
42
-0.41421356237309598
10
90.199817834685462
20
-0.50002249820146005
10
90.199817834685447
20
-13.499993279105073
42
-0.41421356237309509
10
89.699818958496849
20
-13.999992155293672
0
LWPOLYLINE
5
116
100
AcDbEntity
8
0
100
AcDbPolyline
90
8
70
1
43
0.0
10
95.74980841212988
20
-13.999992155293675
42
-0.41421356237309509
10
95.249809535941267
20
-13.499993279105073
10
95.249809535941267
20
-0.50002249820145839
42
-0.41421356237309509
10
95.74980841212988
20
-2.3622012857785202e-05
10
108.74977919303349
20
-2.3622012857785202e-05
42
-0.41421356237309598
10
109.24977806922209
20
-0.50002249820146005
10
109.24977806922209
20
-13.499993279105073
42
-0.41421356237309509
10
108.74977919303349
20
-13.999992155293672
0
LWPOLYLINE
5
117
100
AcDbEntity
8
0
100
AcDbPolyline
90
8
70
1
43
0.0
10
133.84972888120313
20
-13.999992155293675
42
-0.41421356237309509
10
133.34973000501455
20
-13.499993279105073
10
133.34973000501455
20
-0.50002249820145839
42
-0.41421356237309509
10
133.84972888120313
20
-2.3622012857785202e-05
10
146.84969966210676
20
-2.3622012857785202e-05
42
-0.41421356237309598
10
147.34969853829537
20
-0.50002249820146005
10
147.34969853829534
20
-13.499993279105073
42
-0.41421356237308465
10
146.84969966210676
20
-13.999992155293672
0
LWPOLYLINE
5
118
100
AcDbEntity
8
0
100
AcDbPolyline
90
8
70
1
43
0.0
10
152.899673856985
20
-13.999992155293675
42
-0.41421356237309509
10
152.39967498079642
20
-13.499993279105073
10
152.39967498079642
20
-0.50002249820145839
42
-0.41421356237308465
10
152.899673856985
20
-2.3622012857785202e-05
10
165.89964463788863
20
-2.3622012857785202e-05
42
-0.41421356237309598
10
166.39964351407724
20
-0.50002249820146005
10
166.39964351407724
20
-13.499993279105073
42
-0.41421356237309509
10
165.89964463788863
20
-13.999992155293672
0
LWPOLYLINE
5
119
100
AcDbEntity
8
0
100
AcDbPolyline
90
8
70
1
43
0.0
10
171.94963409152163
20
-13.999992155293675
42
-0.41421356237309509
10
171.44963521533302
20
-13.499993279105073
10
171.44963521533302
20
-0.50002249820145839
42
-0.41421356237309509
10
171.94963409152163
20
-2.3622012857785202e-05
10
184.94960487242525
20
-2.3622012857785202e-05
42
-0.41421356237309598
10
185.44960374861387
20
-0.50002249820146005
10
185.44960374861387
20
-13.499993279105073
42
-0.41421356237309509
10
184.94960487242525
20
-13.999992155293672
0
LWPOLYLINE
5
120
100
AcDbEntity
8
0
100
AcDbPolyline
90
8
70
1
43
0.0
10
190.99959432605829
20
-13.999992155293675
42
-0.41421356237309509
10
190.49959544986967
20
-13.499993279105073
10
190.49959544986967
20
-0.50002249820145839
42
-0.41421356237309509
10
190.99959432605829
20
-2.3622012857785202e-05
10
203.99956510696188
20
-2.3622012857785202e-05
42
-0.41421356237309598
10
204.49956398315049
20
-0.50002249820146005
10
204.49956398315049
20
-13.499993279105073
42
-0.41421356237309509
10
203.99956510696188
20
-13.999992155293672
0
LWPOLYLINE
5
121
100
AcDbEntity
8
0
100
AcDbPolyline
90
8
70
1
43
0.0
10
210.04955456059491
20
-13.999992155293675
42
-0.41421356237309509
10
209.5495556844063
20
-13.499993279105073
10
209.5495556844063
20
-0.50002249820145839
42
-0.41421356237309509
10
210.04955456059491
20
-2.3622012857785202e-05
10
223.04952534149857
20
-2.3622012857785202e-05
42
-0.41421356237309598
10
223.54952421768715
20
-0.50002249820146005
10
223.54952421768715
20
-13.499993279105073
42
-0.41421356237309509
10
223.04952534149857
20
-13.999992155293672
0
LWPOLYLINE
5
122
100
AcDbEntity
8
0
100
AcDbPolyline
90
8
70
1
43
0.0
10
236.24323653167238
20
-13.999992155293675
42
-0.41421356237309509
10
235.74323765548377
20
-13.499993279105073
10
235.74323765548377
20
-0.50002249820145839
42
-0.41421356237307427
10
236.24323653167235
20
-2.3622012857785202e-05
10
249.24320731257598
20
-2.3622012857785202e-05
42
-0.41421356237309598
10
249.74320618876459
20
-0.50002249820146005
10
249.74320618876459
20
-13.499993279105073
42
-0.41421356237307427
10
249.24320731257603
20
-13.999992155293672
0
LWPOLYLINE
5
123
100
AcDbEntity
8
0
100
AcDbPolyline
90
8
70
1
43
0.0
10
277.10538834110565
20
-13.999992155293675
42
-0.41421356237309509
10
276.60538946491704
20
-13.499993279105073
10
276.60538946491704
20
-0.50002249820145839
42
-0.41421356237309509
10
277.10538834110565
20
-2.3622012857785202e-05
10
290.1053591220093
20
-2.3622012857785202e-05
42
-0.41421356237309598
10
290.60535799819786
20
-0.50002249820146005
10
290.60535799819786
20
-13.499993279105073
42
-0.41421356237309509
10
290.1053591220093
20
-13.999992155293672
0
LWPOLYLINE
5
124
100
AcDbEntity
8
0
100
AcDbPolyline
90
8
70
1
43
0.0
10
296.15536383439712
20
-13.999992155293675
42
-0.41421356237309509
10
295.65536495820845
20
-13.499993279105073
10
295.65536495820851
20
-0.50002249820145839
42
-0.41421356237307427
10
296.15536383439706
20
-2.3622012857785202e-05
10
309.15533461530066
20
-2.3622012857785202e-05
42
-0.41421356237309598
10
309.65533349148927
20
-0.50002249820146005
10
309.65533349148927
20
-13.499993279105073
42
-0.41421356237307427
10
309.15533461530072
20
-13.999992155293672
0
LWPOLYLINE
5
125
100
AcDbEntity
8
0
100
AcDbPolyline
90
8
70
1
43
0.0
10
315.20530881017896
20
-13.999992155293675
42
-0.41421356237309509
10
314.70530993399035
20
-13.499993279105073
10
314.70530993399035
20
-0.50002249820145839
42
-0.41421356237309509
10
315.20530881017896
20
-2.3622012857785202e-05
10
328.20527959108256
20
-2.3622012857785202e-05
42
-0.41421356237309598
10
328.70527846727111
20
-0.50002249820146005
10
328.70527846727111
20
-13.499993279105073
42
-0.41421356237309509
10
328.20527959108256
20
-13.999992155293672
0
LWPOLYLINE
5
126
100
AcDbEntity
8
0
100
AcDbPolyline
90
8
70
1
43
0.0
10
334.25528430347038
20
-13.999992155293675
42
-0.41421356237309509
10
333.75528542728176
20
-13.499993279105073
10
333.75528542728176
20
-0.50002249820145839
42
-0.41421356237313667
10
334.25528430347043
20
-2.3622012857785202e-05
10
347.25525508437397
20
-2.3622012857785202e-05
42
-0.41421356237309598
10
347.75525396056258
20
-0.50002249820146005
10
347.75525396056258
20
-13.499993279105073
42
-0.41421356237313667
10
347.25525508437391
20
-13.999992155293672
0
LWPOLYLINE
5
127
100
AcDbEntity
8
0
100
AcDbPolyline
90
8
70
1
43
0.0
10
2.8812670506824514
20
-33.049948575141613
42
-0.41421356237309509
10
2.3812681744938504
20
-32.549949698953014
10
2.3812681744938504
20
-19.549978918049401
42
-0.41421356237309598
10
2.8812670506824523
20
-19.049980041860803
10
15.881238308422152
20
-19.049980041860803
42
-0.41421356237309509
10
16.381237184610754
20
-19.549978918049401
10
16.381237184610754
20
-32.549949698953014
42
-0.41421356237309637
10
15.88123830842215
20
-33.049948575141613
0
LWPOLYLINE
5
128
100
AcDbEntity
8
0
100
AcDbPolyline
90
8
70
1
43
0.0
10
24.312468976683558
20
-33.049948575141613
42
-0.41421356237309509
10
23.812470100494959
20
-32.549949698953014
10
23.812470100494956
20
-19.549978918049401
42
-0.41421356237309509
10
24.312468976683558
20
-19.049980041860803
10
37.312439757587171
20
-19.049980041860803
42
-0.41421356237309509
10
37.812438633775777
20
-19.549978918049401
10
37.812438633775777
20
-32.549949698953014
42
-0.41421356237309509
10
37.312439757587171
20
-33.049948575141613
0
LWPOLYLINE
5
129
100
AcDbEntity
8
0
100
AcDbPolyline
90
8
70
1
43
0.0
10
43.362425396531506
20
-33.049948575141613
42
-0.41421356237309509
10
42.8624265203429
20
-32.549949698953014
10
42.862426520342908
20
-19.549978918049401
42
-0.41421356237309509
10
43.362425396531506
20
-19.049980041860803
10
56.362396177435123
20
-19.049980041860803
42
-0.41421356237309509
10
56.862395053623722
20
-19.549978918049401
10
56.862395053623722
20
-32.549949698953014
42
-0.41421356237309509
10
56.362396177435123
20
-33.049948575141613
0
LWPOLYLINE
5
130
100
AcDbEntity
8
0
100
AcDbPolyline
90
8
70
1
43
0.0
10
62.412381816379451
20
-33.049948575141613
42
-0.41421356237309509
10
61.912382940190852
20
-32.549949698953014
10
61.912382940190852
20
-19.549978918049401
42
-0.41421356237309509
10
62.412381816379451
20
-19.049980041860803
10
75.412352597283075
20
-19.049980041860803
42
-0.41421356237309509
10
75.912351473471659
20
-19.549978918049401
10
75.912351473471659
20
-32.549949698953014
42
-0.41421356237309509
10
75.412352597283075
20
-33.049948575141613
0
LWPOLYLINE
5
131
100
AcDbEntity
8
0
100
AcDbPolyline
90
8
70
1
43
0.0
10
81.462342050916092
20
-33.049948575141613
42
-0.41421356237309509
10
80.962343174727494
20
-32.549949698953014
10
80.962343174727494
20
-19.549978918049401
42
-0.41421356237308465
10
81.462342050916078
20
-19.049980041860803
10
94.462312831819702
20
-19.049980041860803
42
-0.41421356237309509
10
94.962311708008286
20
-19.549978918049401
10
94.962311708008286
20
-32.549949698953014
42
-0.41421356237309509
10
94.462312831819702
20
-33.049948575141613
0
LWPOLYLINE
5
132
100
AcDbEntity
8
0
100
AcDbPolyline
90
8
70
1
43
0.0
10
100.51229465607534
20
-33.049948575141613
42
-0.41421356237309509
10
100.01229577988673
20
-32.549949698953014
10
100.01229577988674
20
-19.549978918049401
42
-0.41421356237310542
10
100.51229465607535
20
-19.049980041860803
10
113.51226543697896
20
-19.049980041860803
42
-0.41421356237309509
10
114.01226431316756
20
-19.549978918049401
10
114.01226431316756
20
-32.549949698953014
42
-0.41421356237310542
10
113.51226543697894
20
-33.049948575141613
0
LWPOLYLINE
5
133
100
AcDbEntity
8
0
100
AcDbPolyline
90
8
70
1
43
0.0
10
119.56225489061197
20
-33.049948575141613
42
-0.41421356237309509
10
119.06225601442337
20
-32.549949698953014
10
119.06225601442337
20
-19.549978918049401
42
-0.41421356237310542
10
119.56225489061198
20
-19.049980041860803
10
132.56222567151559
20
-19.049980041860803
42
-0.41421356237309509
10
133.0622245477042
20
-19.549978918049401
10
133.06222454770418
20
-32.549949698953014
42
-0.41421356237310542
10
132.56222567151556
20
-33.049948575141613
0
LWPOLYLINE
5
134
100
AcDbEntity
8
0
100
AcDbPolyline
90
8
70
1
43
0.0
10
138.61221512514862
20
-33.049948575141613
42
-0.41421356237309509
10
138.11221624896001
20
-32.549949698953014
10
138.11221624896001
20
-19.549978918049401
42
-0.41421356237308465
10
138.61221512514859
20
-19.049980041860803
10
151.61218590605222
20
-19.049980041860803
42
-0.41421356237309509
10
152.1121847822408
20
-19.549978918049401
10
152.1121847822408
20
-32.549949698953014
42
-0.41421356237309509
10
151.61218590605222
20
-33.049948575141613
0
LWPOLYLINE
5
135
100
AcDbEntity
8
0
100
AcDbPolyline
90
8
70
1
43
0.0
10
157.66217535968525
20
-33.049948575141613
42
-0.41421356237309509
10
157.16217648349664
20
-32.549949698953014
10
157.16217648349667
20
-19.549978918049401
42
-0.41421356237308465
10
157.66217535968525
20
-19.049980041860803
10
170.66214614058885
20
-19.049980041860803
42
-0.41421356237309509
10
171.16214501677746
20
-19.549978918049401
10
171.16214501677746
20
-32.549949698953014
42
-0.41421356237309509
10
170.66214614058885
20
-33.049948575141613
0
LWPOLYLINE
5
136
100
AcDbEntity
8
0
100
AcDbPolyline
90
8
70
1
43
0.0
10
176.71212033546712
20
-33.049948575141613
42
-0.41421356237309509
10
176.21212145927853
20
-32.549949698953014
10
176.21212145927853
20
-19.549978918049401
42
-0.41421356237309509
10
176.71212033546712
20
-19.049980041860803
10
189.71209111637074
20
-19.049980041860803
42
-0.41421356237309509
10
190.21208999255936
20
-19.549978918049401
10
190.21208999255933
20
-32.549949698953014
42
-0.41421356237309509
10
189.71209111637074
20
-33.049948575141613
0
LWPOLYLINE
5
137
100
AcDbEntity
8
0
100
AcDbPolyline
90
8
70
1
43
0.0
10
195.76208057000375
20
-33.049948575141613
42
-0.41421356237309509
10
195.26208169381516
20
-32.549949698953014
10
195.26208169381516
20
-19.549978918049401
42
-0.41421356237307427
10
195.76208057000372
20
-19.049980041860803
10
208.76205135090737
20
-19.049980041860803
42
-0.41421356237309509
10
209.26205022709595
20
-19.549978918049401
10
209.26205022709595
20
-32.549949698953014
42
-0.41421356237307427
10
208.7620513509074
20
-33.049948575141613
0
LWPOLYLINE
5
138
100
AcDbEntity
8
0
100
AcDbPolyline
90
8
70
1
43
0.0
10
214.8120408045404
20
-33.049948575141613
42
-0.41421356237309509
10
214.31204192835179
20
-32.549949698953014
10
214.31204192835182
20
-19.549978918049401
42
-0.41421356237307427
10
214.81204080454037
20
-19.049980041860803
10
227.812011585444
20
-19.049980041860803
42
-0.41421356237309509
10
228.31201046163258
20
-19.549978918049401
10
228.31201046163258
20
-32.549949698953014
42
-0.41421356237307427
10
227.81201158544403
20
-33.049948575141613
0
LWPOLYLINE
5
139
100
AcDbEntity
8
0
100
AcDbPolyline
90
8
70
1
43
0.0
10
238.62448728302246
20
-33.049948575141613
42
-0.41421356237309509
10
238.12448840683388
20
-32.549949698953014
10
238.12448840683388
20
-19.549978918049401
42
-0.41421356237309509
10
238.62448728302246
20
-19.049980041860803
10
251.62445806392611
20
-19.049980041860803
42
-0.41421356237309509
10
252.12445694011473
20
-19.549978918049401
10
252.12445694011473
20
-32.549949698953014
42
-0.41421356237309509
10
251.62445806392611
20
-33.049948575141613
0
LWPOLYLINE
5
140
100
AcDbEntity
8
0
100
AcDbPolyline
90
8
70
1
43
0.0
10
277.10538834110565
20
-33.049948575141613
42
-0.41421356237309509
10
276.60538946491704
20
-32.549949698953014
10
276.60538946491704
20
-19.549978918049401
42
-0.41421356237309509
10
277.10538834110565
20
-19.049980041860803
10
290.1053591220093
20
-19.049980041860803
42
-0.41421356237309509
10
290.60535799819786
20
-19.549978918049401
10
290.60535799819786
20
-32.549949698953014
42
-0.41421356237309509
10
290.1053591220093
20
-33.049948575141613
0
LWPOLYLINE
5
141
100
AcDbEntity
8
0
100
AcDbPolyline
90
8
70
1
43
0.0
10
296.15536383439712
20
-33.049948575141613
42
-0.41421356237309509
10
295.65536495820845
20
-32.549949698953014
10
295.65536495820851
20
-19.549978918049401
42
-0.41421356237307427
10
296.15536383439706
20
-19.049980041860803
10
309.15533461530066
20
-19.049980041860803
42
-0.41421356237309509
10
309.65533349148927
20
-19.549978918049401
10
309.65533349148927
20
-32.549949698953014
42
-0.41421356237307427
10
309.15533461530072
20
-33.049948575141613
0
LWPOLYLINE
5
142
100
AcDbEntity
8
0
100
AcDbPolyline
90
8
70
1
43
0.0
10
315.20530881017896
20
-33.049948575141613
42
-0.41421356237309509
10
314.70530993399035
20
-32.549949698953014
10
314.70530993399035
20
-19.549978918049401
42
-0.41421356237309509
10
315.20530881017896
20
-19.049980041860803
10
328.20527959108256
20
-19.049980041860803
42
-0.41421356237309509
10
328.70527846727111
20
-19.549978918049401
10
328.70527846727111
20
-32.549949698953014
42
-0.41421356237309509
10
328.20527959108256
20
-33.049948575141613
0
LWPOLYLINE
5
143
100
AcDbEntity
8
0
100
AcDbPolyline
90
8
70
1
43
0.0
10
334.25528430347038
20
-33.049948575141613
42
-0.41421356237309509
10
333.75528542728176
20
-32.549949698953014
10
333.75528542728176
20
-19.549978918049401
42
-0.41421356237313667
10
334.25528430347043
20
-19.049980041860803
10
347.25525508437397
20
-19.049980041860803
42
-0.41421356237309509
10
347.75525396056258
20
-19.549978918049401
10
347.75525396056258
20
-32.549949698953014
42
-0.41421356237313667
10
347.25525508437391
20
-33.049948575141613
0
LWPOLYLINE
5
144
100
AcDbEntity
8
0
100
AcDbPolyline
90
8
70
1
43
0.0
10
7.6437566324805237
20
-52.099904994989565
42
-0.41421356237309509
10
7.1437577562919232
20
-51.599906118800966
10
7.1437577562919241
20
-38.599935337897342
42
-0.41421356237309509
10
7.6437566324805228
20
-38.099936461708744
10
20.643726459711967
20
-38.099936461708744
42
-0.41421356237309509
10
21.143725335900566
20
-38.599935337897342
10
21.143725335900569
20
-51.599906118800966
42
-0.41421356237309509
10
20.643726459711967
20
-52.099904994989565
0
LWPOLYLINE
5
145
100
AcDbEntity
8
0
100
AcDbPolyline
90
8
70
1
43
0.0
10
33.837449093951875
20
-52.099904994989565
42
-0.41421356237309509
10
33.337450217763276
20
-51.599906118800966
10
33.337450217763276
20
-38.599935337897342
42
-0.41421356237309759
10
33.837449093951882
20
-38.099936461708744
10
46.837419874855499
20
-38.099936461708744
42
-0.41421356237309509
10
47.337418751044105
20
-38.599935337897342
10
47.337418751044098
20
-51.599906118800966
42
-0.4142135623731002
10
46.837419874855485
20
-52.099904994989565
0
LWPOLYLINE
5
146
100
AcDbEntity
8
0
100
AcDbPolyline
90
8
70
1
43
0.0
10
71.937361933647765
20
-52.099904994989565
42
-0.41421356237309509
10
71.437363057459166
20
-51.599906118800966
10
71.437363057459166
20
-38.599935337897342
42
-0.4142135623731002
10
71.937361933647779
20
-38.099936461708744
10
84.937332714551403
20
-38.099936461708744
42
-0.41421356237309509
10
85.437331590739973
20
-38.599935337897342
10
85.437331590740001
20
-51.599906118800966
42
-0.41421356237310542
10
84.937332714551388
20
-52.099904994989565
0
LWPOLYLINE
5
147
100
AcDbEntity
8
0
100
AcDbPolyline
90
8
70
1
43
0.0
10
90.987322168184406
20
-52.099904994989565
42
-0.41421356237309509
10
90.487323291995807
20
-51.599906118800966
10
90.487323291995807
20
-38.599935337897342
42
-0.41421356237308465
10
90.987322168184392
20
-38.099936461708744
10
103.98729294908802
20
-38.099936461708744
42
-0.41421356237309509
10
104.4872918252766
20
-38.599935337897342
10
104.4872918252766
20
-51.599906118800966
42
-0.41421356237309509
10
103.98729294908802
20
-52.099904994989565
0
LWPOLYLINE
5
148
100
AcDbEntity
8
0
100
AcDbPolyline
90
8
70
1
43
0.0
10
110.03727477334365
20
-52.099904994989565
42
-0.41421356237309509
10
109.53727589715506
20
-51.599906118800966
10
109.53727589715506
20
-38.599935337897342
42
-0.41421356237310542
10
110.03727477334367
20
-38.099936461708744
10
123.03724555424728
20
-38.099936461708744
42
-0.41421356237309509
10
123.53724443043588
20
-38.599935337897342
10
123.53724443043588
20
-51.599906118800966
42
-0.41421356237310542
10
123.03724555424725
20
-52.099904994989565
0
LWPOLYLINE
5
149
100
AcDbEntity
8
0
100
AcDbPolyline
90
8
70
1
43
0.0
10
129.08722737850292
20
-52.099904994989565
42
-0.41421356237309509
10
128.58722850231433
20
-51.599906118800966
10
128.58722850231433
20
-38.599935337897342
42
-0.41421356237309509
10
129.08722737850292
20
-38.099936461708744
10
142.08719815940651
20
-38.099936461708744
42
-0.41421356237309509
10
142.58719703559512
20
-38.599935337897342
10
142.58719703559512
20
-51.599906118800966
42
-0.41421356237308465
10
142.08719815940654
20
-52.099904994989565
0
LWPOLYLINE
5
150
100
AcDbEntity
8
0
100
AcDbPolyline
90
8
70
1
43
0.0
10
148.13718761303954
20
-52.099904994989565
42
-0.41421356237309509
10
147.63718873685093
20
-51.599906118800966
10
147.63718873685093
20
-38.599935337897342
42
-0.41421356237308465
10
148.13718761303952
20
-38.099936461708744
10
161.13715839394314
20
-38.099936461708744
42
-0.41421356237309509
10
161.63715727013172
20
-38.599935337897342
10
161.63715727013172
20
-51.599906118800966
42
-0.41421356237309509
10
161.13715839394314
20
-52.099904994989565
0
LWPOLYLINE
5
151
100
AcDbEntity
8
0
100
AcDbPolyline
90
8
70
1
43
0.0
10
167.1871478475762
20
-52.099904994989565
42
-0.41421356237309509
10
166.68714897138759
20
-51.599906118800966
10
166.68714897138759
20
-38.599935337897342
42
-0.41421356237307427
10
167.18714784757617
20
-38.099936461708744
10
180.18711862847979
20
-38.099936461708744
42
-0.41421356237309509
10
180.68711750466838
20
-38.599935337897342
10
180.68711750466838
20
-51.599906118800966
42
-0.41421356237307427
10
180.18711862847982
20
-52.099904994989565
0
LWPOLYLINE
5
152
100
AcDbEntity
8
0
100
AcDbPolyline
90
8
70
1
43
0.0
10
186.2371080821128
20
-52.099904994989565
42
-0.41421356237309509
10
185.73710920592418
20
-51.599906118800966
10
185.73710920592418
20
-38.599935337897342
42
-0.41421356237309509
10
186.2371080821128
20
-38.099936461708744
10
199.23707886301642
20
-38.099936461708744
42
-0.41421356237309509
10
199.73707773920501
20
-38.599935337897342
10
199.73707773920501
20
-51.599906118800966
42
-0.41421356237309509
10
199.23707886301642
20
-52.099904994989565
0
LWPOLYLINE
5
153
100
AcDbEntity
8
0
100
AcDbPolyline
90
8
70
1
43
0.0
10
277.10538834110565
20
-52.099904994989565
42
-0.41421356237309509
10
276.60538946491704
20
-51.599906118800966
10
276.60538946491704
20
-38.599935337897342
42
-0.41421356237309509
10
277.10538834110565
20
-38.099936461708744
10
290.1053591220093
20
-38.099936461708744
42
-0.41421356237309509
10
290.60535799819786
20
-38.599935337897342
10
290.60535799819786
20
-51.599906118800966
42
-0.41421356237309509
10
290.1053591220093
20
-52.099904994989565
0
LWPOLYLINE
5
154
100
AcDbEntity
8
0
100
AcDbPolyline
90
8
70
1
43
0.0
10
296.15536383439712
20
-52.099904994989565
42
-0.41421356237309509
10
295.65536495820845
20
-51.599906118800966
10
295.65536495820851
20
-38.599935337897342
42
-0.41421356237307427
10
296.15536383439706
20
-38.099936461708744
10
309.15533461530066
20
-38.099936461708744
42
-0.41421356237309509
10
309.65533349148927
20
-38.599935337897342
10
309.65533349148927
20
-51.599906118800966
42
-0.41421356237307427
10
309.15533461530072
20
-52.099904994989565
0
LWPOLYLINE
5
155
100
AcDbEntity
8
0
100
AcDbPolyline
90
8
70
1
43
0.0
10
315.20530881017896
20
-52.099904994989565
42
-0.41421356237309509
10
314.70530993399035
20
-51.599906118800966
10
314.70530993399035
20
-38.599935337897342
42
-0.41421356237309509
10
315.20530881017896
20
-38.099936461708744
10
328.20527959108256
20
-38.099936461708744
42
-0.41421356237309509
10
328.70527846727111
20
-38.599935337897342
10
328.70527846727111
20
-51.599906118800966
42
-0.41421356237309509
10
328.20527959108256
20
-52.099904994989565
0
LWPOLYLINE
5
156
100
AcDbEntity
8
0
100
AcDbPolyline
90
8
70
1
43
0.0
10
253.10245156811862
20
-57.052896792194758
42
-0.41421356237309509
10
252.60245269193004
20
-56.55289791600616
10
252.60245269193004
20
-43.552927135102536
42
-0.41421356237307427
10
253.1024515681186
20
-43.052928258913937
10
266.10242234902222
20
-43.052928258913937
42
-0.41421356237309509
10
266.60242122521083
20
-43.552927135102536
10
266.60242122521083
20
-56.55289791600616
42
-0.41421356237307427
10
266.10242234902228
20
-57.052896792194758
0
LWPOLYLINE
5
157
100
AcDbEntity
8
0
100
AcDbPolyline
90
8
70
1
43
0.0
10
79.081098928943362
20
-71.149865229526199
42
-0.41421356237309509
10
78.581100052754749
20
-70.6498663533376
10
78.581100052754763
20
-57.649895572433991
42
-0.41421356237309509
10
79.081098928943362
20
-57.149896696245378
10
92.081069709846986
20
-57.149896696245392
42
-0.41421356237309509
10
92.58106858603557
20
-57.649895572433991
10
92.58106858603557
20
-70.6498663533376
42
-0.41421356237309509
10
92.081069709846986
20
-71.149865229526199
0
LWPOLYLINE
5
158
100
AcDbEntity
8
0
100
AcDbPolyline
90
8
70
1
43
0.0
10
150.51843836438965
20
-71.149865229526199
42
-0.41421356237309509
10
150.01843948820107
20
-70.6498663533376
10
150.01843948820107
20
-57.649895572433991
42
-0.41421356237309509
10
150.51843836438965
20
-57.149896696245378
10
163.51840914529328
20
-57.149896696245392
42
-0.41421356237309509
10
164.01840802148189
20
-57.649895572433991
10
164.01840802148186
20
-70.6498663533376
42
-0.41421356237309509
10
163.51840914529328
20
-71.149865229526199
0
LWPOLYLINE
5
159
100
AcDbEntity
8
0
100
AcDbPolyline
90
8
70
1
43
0.0
10
188.61834357470821
20
-71.149865229526199
42
-0.41421356237309509
10
188.11834469851959
20
-70.6498663533376
10
188.11834469851959
20
-57.649895572433991
42
-0.41421356237307427
10
188.61834357470815
20
-57.149896696245378
10
201.61831435561174
20
-57.149896696245392
42
-0.41421356237309509
10
202.11831323180036
20
-57.649895572433991
10
202.11831323180036
20
-70.6498663533376
42
-0.41421356237307427
10
201.6183143556118
20
-71.149865229526199
0
LWPOLYLINE
5
160
100
AcDbEntity
8
0
100
AcDbPolyline
90
8
70
1
43
0.0
10
210.04955456059491
20
-71.149865229526199
42
-0.41421356237309509
10
209.5495556844063
20
-70.6498663533376
10
209.5495556844063
20
-57.649895572433991
42
-0.41421356237309509
10
210.04955456059491
20
-57.149896696245378
10
223.04952534149857
20
-57.149896696245392
42
-0.41421356237309509
10
223.54952421768715
20
-57.649895572433991
10
223.54952421768715
20
-70.6498663533376
42
-0.41421356237309509
10
223.04952534149857
20
-71.149865229526199
0
LWPOLYLINE
5
161
100
AcDbEntity
8
0
100
AcDbPolyline
90
8
70
1
43
0.0
10
234.052491333582
20
-76.102849397354007
42
-0.41421356237309509
10
233.55249245739341
20
-75.602850521165408
10
233.55249245739341
20
-62.602883554950488
42
-0.41421356237307427
10
234.05249133358197
20
-62.102884678761882
10
247.05246211448556
20
-62.102884678761889
42
-0.41421356237309509
10
247.55246099067418
20
-62.602883554950488
10
247.55246099067418
20
-75.602850521165408
42
-0.41421356237307427
10
247.05246211448559
20
-76.102849397354021
0
LWPOLYLINE
5
162
100
AcDbEntity
8
0
100
AcDbPolyline
90
8
70
1
43
0.0
10
253.10245156811862
20
-76.102849397354007
42
-0.41421356237309509
10
252.60245269193004
20
-75.602850521165408
10
252.60245269193004
20
-62.602883554950488
42
-0.41421356237307427
10
253.1024515681186
20
-62.102884678761882
10
266.10242234902222
20
-62.102884678761889
42
-0.41421356237309509
10
266.60242122521083
20
-62.602883554950488
10
266.60242122521083
20
-75.602850521165408
42
-0.41421356237307427
10
266.10242234902228
20
-76.102849397354021
0
LWPOLYLINE
5
163
100
AcDbEntity
8
0
100
AcDbPolyline
90
8
70
1
43
0.0
10
272.53340765041992
20
-76.102849397354007
42
-0.41421356237309509
10
272.03340877423136
20
-75.602850521165408
10
272.03340877423136
20
-62.602883554950488
42
-0.41421356237309509
10
272.53340765041992
20
-62.102884678761882
10
285.53337843132351
20
-62.102884678761889
42
-0.41421356237309509
10
286.03337730751213
20
-62.602883554950488
10
286.03337730751213
20
-75.602850521165408
42
-0.41421356237309509
10
285.53337843132351
20
-76.102849397354021
0
LWPOLYLINE
5
164
100
AcDbEntity
8
0
100
AcDbPolyline
90
8
70
1
43
0.0
10
0.50002249820145839
20
-13.999992155293675
42
-0.41421356237309509
10
2.3622012857785202e-05
20
-13.499993279105073
10
2.3622012857785202e-05
20
-0.50002249820145839
42
-0.41421356237309598
10
0.50002249820146005
20
-2.3622012857785202e-05
10
13.499993279105073
20
-2.3622012857785202e-05
42
-0.41421356237309598
10
13.999992155293672
20
-0.50002249820146005
10
13.999992155293675
20
-13.499993279105073
42
-0.41421356237309637
10
13.499993279105071
20
-13.999992155293672
0
LWPOLYLINE
5
165
100
AcDbEntity
8
0
100
AcDbPolyline
90
8
70
1
43
0.0
10
0.50002249820145839
20
-71.149865229526199
42
-0.41421356237309509
10
2.3622012857785202e-05
20
-70.6498663533376
10
2.3622012857785202e-05
20
-57.649895572433991
42
-0.41421356237309598
10
0.50002249820146005
20
-57.149896696245378
10
13.499993279105073
20
-57.149896696245392
42
-0.41421356237309509
10
13.999992155293672
20
-57.649895572433991
10
13.999992155293675
20
-70.6498663533376
42
-0.41421356237309637
10
13.499993279105071
20
-71.149865229526199
0
LWPOLYLINE
5
166
100
AcDbEntity
8
0
100
AcDbPolyline
90
8
70
1
43
0.0
10
52.88740551379982
20
-52.099904994989565
42
-0.41421356237309509
10
52.387406637611221
20
-51.599906118800966
10
52.387406637611221
20
-38.599935337897342
42
-0.41421356237309509
10
52.88740551379982
20
-38.099936461708744
10
65.887372480014761
20
-38.099936461708744
42
-0.41421356237309509
10
66.387371356203346
20
-38.599935337897342
10
66.387371356203346
20
-51.599906118800966
42
-0.41421356237309509
10
65.887372480014761
20
-52.099904994989565
0
LWPOLYLINE
5
167
100
AcDbEntity
8
0
100
AcDbPolyline
90
8
70
1
43
0.0
10
21.93122394736648
20
-71.149865229526199
42
-0.41421356237309509
10
21.431225071177877
20
-70.6498663533376
10
21.431225071177877
20
-57.649895572433991
42
-0.41421356237309509
10
21.93122394736648
20
-57.149896696245378
10
34.931196635614448
20
-57.149896696245392
42
-0.41421356237309509
10
35.43119551180304
20
-57.649895572433991
10
35.431195511803047
20
-70.6498663533376
42
-0.41421356237309509
10
34.931196635614448
20
-71.149865229526199
0
LWPOLYLINE
5
168
100
AcDbEntity
8
0
100
AcDbPolyline
90
8
70
1
43
0.0
10
114.79976864666652
20
-13.999992155293675
42
-0.41421356237309509
10
114.29976977047789
20
-13.499993279105073
10
114.29976977047792
20
-0.50002249820145839
42
-0.41421356237309509
10
114.79976864666652
20
-2.3622012857785202e-05
10
127.79973942757012
20
-2.3622012857785202e-05
42
-0.41421356237309598
10
128.29973830375872
20
-0.50002249820146005
10
128.29973830375872
20
-13.499993279105073
42
-0.41421356237308465
10
127.79973942757013
20
-13.999992155293672
0
LWPOLYLINE
5
169
100
AcDbEntity
8
0
100
AcDbPolyline
90
12
70
1
43
0.0
10
76.681102797362598
20
-56.14989894386818
42
-0.41421356237309509
10
77.181101673551197
20
-56.649897820056779
10
77.181101673551197
20
-70.6498663533376
42
-0.41421356237309509
10
76.681102797362598
20
-71.149865229526199
10
76.643100868616628
20
-71.149865229526199
10
70.681116283099385
20
-71.149865229526199
10
70.643114354353429
20
-71.149865229526199
42
-0.41421356237309509
10
70.143115478164816
20
-70.6498663533376
10
70.14311547816483
20
-56.649897820056779
42
-0.41421356237309509
10
70.643114354353429
20
-56.14989894386818
10
70.681116283099385
20
-56.14989894386818
10
76.643100868616628
20
-56.14989894386818
0
LWPOLYLINE
5
170
100
AcDbEntity
8
0
100
AcDbPolyline
90
8
70
1
43
0.0
10
100.51904665505951
20
-56.14989894386818
42
-0.41421356237309509
10
101.01904553124811
20
-56.649897820056779
10
101.01904553124811
20
-70.6498663533376
42
-0.41421356237309509
10
100.51904665505951
20
-71.149865229526199
10
94.519060140796313
20
-71.149865229526199
42
-0.41421356237309509
10
94.0190612646077
20
-70.6498663533376
10
94.019061264607714
20
-56.649897820056779
42
-0.41421356237309509
10
94.519060140796313
20
-56.14989894386818
0
LWPOLYLINE
5
171
100
AcDbEntity
8
0
100
AcDbPolyline
90
8
70
1
43
0.0
10
148.08044030406293
20
-56.14989894386818
42
-0.41421356237309509
10
148.58043918025152
20
-56.649897820056779
10
148.58043918025152
20
-70.6498663533376
42
-0.41421356237308465
10
148.08044030406296
20
-71.149865229526199
10
142.08045378979975
20
-71.149865229526199
42
-0.41421356237309509
10
141.58045491361113
20
-70.6498663533376
10
141.58045491361116
20
-56.649897820056779
42
-0.41421356237308465
10
142.08045378979972
20
-56.14989894386818
0
LWPOLYLINE
5
172
100
AcDbEntity
8
0
100
AcDbPolyline
90
6
70
1
43
0.0
10
347.28065270932888
20
2.5249763779872847
42
-0.41819517609553153
10
350.28025396063049
20
-0.5154977824718231
10
350.28025396063049
20
-70.720942582113906
42
-0.40951903097100956
10
347.28104881959143
20
-73.674865229526262
42
0.40951903097100328
10
350.28025396063049
20
-70.720942582113906
10
350.2802539606306
20
-0.51549778247182443
42
0.41819517609553691
0
LWPOLYLINE
5
173
100
AcDbEntity
8
0
100
AcDbPolyline
90
4
70
1
43
0.0
10
232.58766715461493
20
-78.627849397353998
10
286.82992187958911
20
-78.627849397353998
42
0.41439354918710297
10
288.33101980326308
20
-77.127827048031477
42
-0.41439354918710297
10
286.82992187958911
20
-78.627849397353998
0
LINE
5
174
100
AcDbEntity
8
0
100
AcDbLine
10
-2.5249763779871421
20
-0.47502362201286064
30
0
11
-2.5249763779871062
21
-70.674865229526191
31
0
0
LWPOLYLINE
5
175
100
AcDbEntity
8
0
100
AcDbPolyline
90
2
70
1
43
0.0
10
288.34461594178413
20
-75.178907104137423
42
-0.41450751927295088
10
289.84528169736757
20
-73.674865229526262
42
0.41450751927357504
0
LWPOLYLINE
5
176
100
AcDbEntity
8
0
100
AcDbPolyline
90
6
70
1
43
0.0
10
232.58766715461493
20
-78.627849397353998
42
-0.40439611430938599
10
231.13779909201415
20
-77.128806065969698
10
231.1493932339292
20
-75.191483096400432
42
0.41747132334211573
10
229.6493022053572
20
-73.674865229526205
42
-0.41747132334211573
10
231.14939323392923
20
-75.191483096400432
10
231.13779909201415
20
-77.128806065969698
42
0.40439611430938599
0
LINE
5
177
100
AcDbEntity
8
0
100
AcDbLine
10
-2.5249763779871421
20
-0.47502362201286064
30
0
11
-2.5249763779871062
21
-70.674865229526191
31
0
0
ARC
5
178
100
AcDbEntity
8
0
100
AcDbCircle
10
0.47502362201285953
20
-0.47502362201285953
30
0
40
3.0000000000000018
210
0
220
0
230
1
100
AcDbArc
50
90.000000000000057
51
180
0
ARC
5
179
100
AcDbEntity
8
0
100
AcDbCircle
10
0.47502362201288184
20
-70.674865229526219
30
0
40
2.9999999999999876
210
0
220
0
230
1
100
AcDbArc
50
180
51
270.00000000000023
0
LINE
5
180
100
AcDbEntity
8
0
100
AcDbLine
10
45.475023622012856
20
-74.674865229526205
30
0
11
45.475023622012856
21
-77.874865229526222
31
0
0
LINE
5
181
100
AcDbEntity
8
0
100
AcDbLine
10
43.27502362201286
20
-80.07486522952621
30
0
11
7.6750236220128576
21
-80.07486522952621
31
0
0
LINE
5
182
100
AcDbEntity
8
0
100
AcDbLine
10
5.4750236220128565
20
-77.874865229526222
30
0
11
5.4750236220128574
21
-74.674865229526205
31
0
0
LINE
5
183
100
AcDbEntity
8
0
100
AcDbLine
10
45.475023622012841
20
3.5249763779871444
30
0
11
45.475023622012841
21
6.7249763779871436
31
0
0
LINE
5
184
100
AcDbEntity
8
0
100
AcDbLine
10
43.275023622012839
20
8.9249763779871429
30
0
11
7.6750236220128576
21
8.9249763779871429
31
0
0
LINE
5
185
100
AcDbEntity
8
0
100
AcDbLine
10
5.4750236220128574
20
6.7249763779871436
30
0
11
5.4750236220128574
21
3.5249763779871444
31
0
0
LINE
5
186
100
AcDbEntity
8
0
100
AcDbLine
10
302.28025396048281
20
3.5249763779872816
30
0
11
302.28025396048281
21
6.7249763779872769
31
0
0
LINE
5
187
100
AcDbEntity
8
0
100
AcDbLine
10
304.4802539604828
20
8.9249763779872779
30
0
11
340.08025396048282
21
8.9249763779872779
31
0
0
LINE
5
188
100
AcDbEntity
8
0
100
AcDbLine
10
342.28025396048281
20
6.7249763779872769
30
0
11
342.28025396048281
21
3.524976377987282
31
0
0
LINE
5
189
100
AcDbEntity
8
0
100
AcDbLine
10
302.28025396048281
20
-74.674865229526247
30
0
11
302.28025396048281
21
-77.87486522952625
31
0
0
LINE
5
190
100
AcDbEntity
8
0
100
AcDbLine
10
304.4802539604828
20
-80.074865229526253
30
0
11
340.08025396048282
21
-80.074865229526253
31
0
0
LINE
5
191
100
AcDbEntity
8
0
100
AcDbLine
10
342.28025396048281
20
-77.87486522952625
30
0
11
342.28025396048281
21
-74.674865229526247
31
0
0
LINE
5
192
100
AcDbEntity
8
0
100
AcDbLine
10
153.87783816567088
20
-74.674865229526205
30
0
11
153.87783816567088
21
-77.874865229526222
31
0
0
LINE
5
193
100
AcDbEntity
8
0
100
AcDbLine
10
156.07783816567087
20
-80.07486522952621
30
0
11
191.67783816567089
21
-80.07486522952621
31
0
0
LINE
5
194
100
AcDbEntity
8
0
100
AcDbLine
10
193.87783816567088
20
-77.874865229526222
30
0
11
193.87783816567088
21
-74.674865229526205
31
0
0
LINE
5
195
100
AcDbEntity
8
0
100
AcDbLine
10
193.87783816567088
20
3.5249763779872012
30
0
11
193.87783816567088
21
6.7249763779871952
31
0
0
LINE
5
196
100
AcDbEntity
8
0
100
AcDbLine
10
191.67783816567089
20
8.9249763779871945
30
0
11
156.07783816567087
21
8.9249763779871945
31
0
0
LINE
5
197
100
AcDbEntity
8
0
100
AcDbLine
10
153.87783816567088
20
6.7249763779871952
30
0
11
153.87783816567088
21
3.5249763779867771
31
0
0
LINE
5
198
100
AcDbEntity
8
0
100
AcDbLine
10
347.28104881959143
20
-73.674865229526262
30
0
11
343.28025396048281
21
-73.674865229526262
31
0
0
LINE
5
199
100
AcDbEntity
8
0
100
AcDbLine
10
301.28025396048281
20
-73.674865229526262
30
0
11
289.84528169736751
21
-73.674865229526262
31
0
0
LINE
5
200
100
AcDbEntity
8
0
100
AcDbLine
10
347.28104881959143
20
-73.674865229526262
30
0
11
342.28025396048281
21
-73.674865229526262
31
0
0
LINE
5
201
100
AcDbEntity
8
0
100
AcDbLine
10
302.28025396048281
20
-73.674865229526262
30
0
11
289.84528169736751
21
-73.674865229526262
31
0
0
LINE
5
202
100
AcDbEntity
8
0
100
AcDbLine
10
342.28025396048281
20
2.5249763779872825
30
0
11
347.28065270932888
21
2.5249763779872842
31
0
0
LINE
5
203
100
AcDbEntity
8
0
100
AcDbLine
10
343.28025396048281
20
2.5249763779872829
30
0
11
347.28065270932888
21
2.5249763779872842
31
0
0
LWPOLYLINE
5
204
100
AcDbEntity
8
0
100
AcDbPolyline
90
2
70
1
43
0.0
10
194.87783816567088
20
-73.674865229526205
10
229.6493022053572
20
-73.674865229526205
0
LINE
5
205
100
AcDbEntity
8
0
100
AcDbLine
10
194.87783816567088
20
2.5249763779872008
30
0
11
301.28025396048281
21
2.5249763779872851
31
0
0
LINE
5
206
100
AcDbEntity
8
0
100
AcDbLine
10
193.87783816567088
20
2.5249763779872003
30
0
11
302.28025396048281
21
2.524976377987282
31
0
0
LINE
5
207
100
AcDbEntity
8
0
100
AcDbLine
10
0.47502362201285686
20
2.5249763779871421
30
0
11
4.4750236220128583
21
2.524976377987143
31
0
0
LINE
5
208
100
AcDbEntity
8
0
100
AcDbLine
10
46.475023622012834
20
2.5249763779871421
30
0
11
152.87783816567088
21
2.5249763779871999
31
0
0
LINE
5
209
100
AcDbEntity
8
0
100
AcDbLine
10
0.47502362201285686
20
2.5249763779871421
30
0
11
5.4750236220128574
21
2.5249763779871435
31
0
0
LINE
5
210
100
AcDbEntity
8
0
100
AcDbLine
10
46.475023622012834
20
2.5249763779871421
30
0
11
153.87783816567088
21
2.5249763779872003
31
0
0
LINE
5
211
100
AcDbEntity
8
0
100
AcDbLine
10
0
20
-73.674865229526205
30
0
11
4.4750236220128574
21
-73.674865229526205
31
0
0
LINE
5
212
100
AcDbEntity
8
0
100
AcDbLine
10
46.475023622012856
20
-73.674865229526205
30
0
11
152.87783816567088
21
-73.674865229526205
31
0
0
LINE
5
213
100
AcDbEntity
8
0
100
AcDbLine
10
0.47502362201289328
20
-73.674865229526205
30
0
11
4.4750236220128574
21
-73.674865229526205
31
0
0
LINE
5
214
100
AcDbEntity
8
0
100
AcDbLine
10
46.475023622012856
20
-73.674865229526205
30
0
11
152.87783816567088
21
-73.674865229526205
31
0
0
ARC
5
215
100
AcDbEntity
8
0
100
AcDbCircle
10
46.475023622012856
20
-74.674865229526205
30
0
40
0.99999999999999645
210
0
220
-0
230
1
100
AcDbArc
50
90
51
180
0
ARC
5
216
100
AcDbEntity
8
0
100
AcDbCircle
10
43.27502362201286
20
-77.874865229526222
30
0
40
2.1999999999999975
210
-0
220
0
230
1
100
AcDbArc
50
-90
51
0
0
ARC
5
217
100
AcDbEntity
8
0
100
AcDbCircle
10
7.6750236220128576
20
-77.874865229526222
30
0
40
2.2000000000000011
210
0
220
0
230
1
100
AcDbArc
50
180
51
270
0
ARC
5
218
100
AcDbEntity
8
0
100
AcDbCircle
10
4.4750236220128397
20
-74.674865229526219
30
0
40
1.0000000000000182
210
0
220
-0
230
1
100
AcDbArc
50
0
51
89.999999999998991
0
ARC
5
219
100
AcDbEntity
8
0
100
AcDbCircle
10
4.4750236220128574
20
3.5249763779871439
30
0
40
1.0000000000000009
210
-0
220
0
230
1
100
AcDbArc
50
-89.999999999999943
51
0
0
ARC
5
220
100
AcDbEntity
8
0
100
AcDbCircle
10
7.6750236220128576
20
6.7249763779871436
30
0
40
2.1999999999999997
210
0
220
-0
230
1
100
AcDbArc
50
90
51
180
0
ARC
5
221
100
AcDbEntity
8
0
100
AcDbCircle
10
43.275023622012839
20
6.7249763779871436
30
0
40
2.1999999999999975
210
0
220
0
230
1
100
AcDbArc
50
0
51
90
0
ARC
5
222
100
AcDbEntity
8
0
100
AcDbCircle
10
46.475023622012834
20
3.5249763779871386
30
0
40
0.99999999999999645
210
0
220
0
230
1
100
AcDbArc
50
180
51
270
0
ARC
5
223
100
AcDbEntity
8
0
100
AcDbCircle
10
152.87783816567159
20
3.5249763779864907
30
0
40
0.9999999999992909
210
0
220
0
230
1
100
AcDbArc
50
-90.000000000040714
51
0
0
ARC
5
224
100
AcDbEntity
8
0
100
AcDbCircle
10
156.07783816567087
20
6.7249763779871952
30
0
40
2.1999999999999997
210
0
220
-0
230
1
100
AcDbArc
50
90
51
180
0
ARC
5
225
100
AcDbEntity
8
0
100
AcDbCircle
10
191.67783816567089
20
6.7249763779871952
30
0
40
2.1999999999999886
210
0
220
-0
230
1
100
AcDbArc
50
0
51
90
0
ARC
5
226
100
AcDbEntity
8
0
100
AcDbCircle
10
194.87783816567088
20
3.5249763779872185
30
0
40
1.0000000000000142
210
0
220
0
230
1
100
AcDbArc
50
180
51
270
0
ARC
5
227
100
AcDbEntity
8
0
100
AcDbCircle
10
301.28025396048281
20
3.5249763779872993
30
0
40
1.0000000000000142
210
-0
220
0
230
1
100
AcDbArc
50
270
51
360
0
ARC
5
228
100
AcDbEntity
8
0
100
AcDbCircle
10
304.4802539604828
20
6.7249763779872769
30
0
40
2.1999999999999997
210
0
220
-0
230
1
100
AcDbArc
50
90
51
180
0
ARC
5
229
100
AcDbEntity
8
0
100
AcDbCircle
10
343.28025396048275
20
3.5249763779872376
30
0
40
0.99999999999994316
210
0
220
0
230
1
100
AcDbArc
50
180
51
270.00000000000324
0
ARC
5
230
100
AcDbEntity
8
0
100
AcDbCircle
10
340.08025396048282
20
6.7249763779872769
30
0
40
2.1999999999999886
210
-0
220
0
230
1
100
AcDbArc
50
0
51
90
0
ARC
5
231
100
AcDbEntity
8
0
100
AcDbCircle
10
343.28025396048275
20
-74.674865229526233
30
0
40
0.9999999999999698
210
0
220
-0
230
1
100
AcDbArc
50
89.999999999996746
51
180
0
ARC
5
232
100
AcDbEntity
8
0
100
AcDbCircle
10
340.08025396048282
20
-77.87486522952625
30
0
40
2.1999999999999975
210
0
220
0
230
1
100
AcDbArc
50
-90
51
0
0
ARC
5
233
100
AcDbEntity
8
0
100
AcDbCircle
10
304.4802539604828
20
-77.87486522952625
30
0
40
2.1999999999999886
210
0
220
0
230
1
100
AcDbArc
50
180
51
270
0
ARC
5
234
100
AcDbEntity
8
0
100
AcDbCircle
10
301.28025396048281
20
-74.674865229526276
30
0
40
1.0000000000000142
210
0
220
-0
230
1
100
AcDbArc
50
0
51
90
0
ARC
5
235
100
AcDbEntity
8
0
100
AcDbCircle
10
194.87783816567088
20
-74.674865229526233
30
0
40
1.0000000000000142
210
0
220
-0
230
1
100
AcDbArc
50
90
51
180
0
ARC
5
236
100
AcDbEntity
8
0
100
AcDbCircle
10
191.67783816567089
20
-77.874865229526222
30
0
40
2.1999999999999975
210
0
220
0
230
1
100
AcDbArc
50
-90
51
0
0
ARC
5
237
100
AcDbEntity
8
0
100
AcDbCircle
10
156.07783816567087
20
-77.874865229526222
30
0
40
2.2000000000000064
210
0
220
0
230
1
100
AcDbArc
50
180
51
270
0
ARC
5
238
100
AcDbEntity
8
0
100
AcDbCircle
10
152.87783816567085
20
-74.674865229526219
30
0
40
1.0000000000000142
210
0
220
-0
230
1
100
AcDbArc
50
0
51
89.99999999999838
0
LINE
5
239
100
AcDbEntity
8
0
100
AcDbLine
10
38.599935337897342
20
-2.3622012857785202e-05
30
0
11
51.599906118800966
21
-2.3622012857785202e-05
31
0
0
LINE
5
240
100
AcDbEntity
8
0
100
AcDbLine
10
288.34461594178413
20
-75.178907104137423
30
0
11
288.33101980326308
21
-77.127827048031477
31
0
0
ENDSEC
0
SECTION
2
OBJECTS
0
DICTIONARY
5
C
100
AcDbDictionary
3
ACAD_GROUP
350
D
3
ACAD_MLINESTYLE
350
17
0
DICTIONARY
5
D
100
AcDbDictionary
0
DICTIONARY
5
1A
330
C
100
AcDbDictionary
0
DICTIONARY
5
17
100
AcDbDictionary
0
ENDSEC
0
EOF
