  0
SECTION
  2
HEADER
  9
$ANGBASE
  50
0.0
  9
$ANGDIR
  70
1
  9
$MEASUREMENT
  70
0
  0
ENDSEC
  0
SECTION
  2
TABLES
  0
TABLE
  2
LTYPE
  70
4
  0
LTYPE
  5
40F
  2
CONTINUOUS
  70
0
  3
Solid line
  72
65
  73
0
  40
0.0
  0
LTYPE
  5
410
  2
DASHDOT
 70
0
  3
Dash Dot ____ _ ____ _
 72
65
 73
4
 40
2.0
 49
1.25
 49
-0.25
 49
0.25
 49
-0.25
  0
LTYPE
  5
411
  2
DASHED
 70
0
  3
Dashed __ __ __ __ __
 72
65
 73
2
 40
0.75
 49
0.5
 49
-0.25
  0
LTYPE
  5
43B
  2
DOTTED
 70
0
  3
Dotted .  .  .  .
 72
65
 73
2
 40
0.2
 49
0.0
 49
-0.2
  0
ENDTAB
  0
TABLE
  2
STYLE
  70
4
  0
STYLE
  2
KICAD
  70
0
  40
0
  41
1
  42
1
  50
0
  71
0
  3
isocp.shx
  0
STYLE
  2
KICADB
  70
0
  40
0
  41
1
  42
1
  50
0
  71
0
  3
isocp.shx
  0
STYLE
  2
KICADI
  70
0
  40
0
  41
1
  42
1
  50
15
  71
0
  3
isocp.shx
  0
STYLE
  2
KICADBI
  70
0
  40
0
  41
1
  42
1
  50
15
  71
0
  3
isocp.shx
  0
ENDTAB
  0
TABLE
  2
LAYER
  70
1
  0
LAYER
  2
BLACK
  70
0
  62
7
  6
CONTINUOUS
  0
ENDTAB
  0
ENDSEC
  0
SECTION
  2
ENTITIES
0
LINE
8
BLACK
6
CONTINUOUS
10
14.1437026771653542
20
-3.2145637401574803
11
14.1473519685039371
21
-3.2151422834645667
0
LINE
8
BLACK
6
CONTINUOUS
10
14.1473519685039371
20
-3.2151422834645667
11
14.1506438976377957
21
-3.2168201968503936
0
LINE
8
BLACK
6
CONTINUOUS
10
14.1506438976377957
20
-3.2168201968503936
11
14.1532562598425198
21
-3.2194331496062993
0
LINE
8
BLACK
6
CONTINUOUS
10
14.1532562598425198
20
-3.2194331496062993
11
14.1549333464566924
21
-3.2227254724409446
0
LINE
8
BLACK
6
CONTINUOUS
10
14.1549333464566924
20
-3.2227254724409446
11
14.1555079921259832
21
-3.2263557086614174
0
LINE
8
BLACK
6
CONTINUOUS
10
14.1555079921259832
20
-3.2263557086614174
11
14.1555118110236222
21
-3.2263747637795275
0
LINE
8
BLACK
6
CONTINUOUS
10
14.1555118110236222
20
-3.2263747637795275
11
14.1555118110236222
21
-3.2408813779527557
0
LINE
8
BLACK
6
CONTINUOUS
10
14.1555118110236222
20
-3.2408813779527557
11
14.1555117716535435
21
-3.2408814173228344
0
LINE
8
BLACK
6
CONTINUOUS
10
14.1555117716535435
20
-3.2408814173228344
11
14.1555118110236222
21
-3.2408814960629919
0
LINE
8
BLACK
6
CONTINUOUS
10
14.1555118110236222
20
-3.2408814960629919
11
14.155512322834646
21
-3.2408814960629919
0
LINE
8
BLACK
6
CONTINUOUS
10
14.155512322834646
20
-3.2408814960629919
11
14.1555122440944885
21
-3.2421285433070866
0
LINE
8
BLACK
6
CONTINUOUS
10
14.1555122440944885
20
-3.2421285433070866
11
14.1562829133858266
21
-3.2445006692913383
0
LINE
8
BLACK
6
CONTINUOUS
10
14.1562829133858266
20
-3.2445006692913383
11
14.1577488582677162
21
-3.2465185433070864
0
LINE
8
BLACK
6
CONTINUOUS
10
14.1577488582677162
20
-3.2465185433070864
11
14.159766653543306
21
-3.2479846062992124
0
LINE
8
BLACK
6
CONTINUOUS
10
14.159766653543306
20
-3.2479846062992124
11
14.162138700787402
21
-3.2487553937007871
0
LINE
8
BLACK
6
CONTINUOUS
10
14.162138700787402
20
-3.2487553937007871
11
14.1633857874015749
21
-3.2487553937007871
0
LINE
8
BLACK
6
CONTINUOUS
10
14.1633857874015749
20
-3.2487553937007871
11
14.7106298818897638
21
-3.2487574409448818
0
LINE
8
BLACK
6
CONTINUOUS
10
14.7106298818897638
20
-3.2487574409448818
11
14.7106298818897638
21
-3.2487559055118109
0
LINE
8
BLACK
6
CONTINUOUS
10
14.7106298818897638
20
-3.2487559055118109
11
14.7118768897637793
21
-3.2487559448818897
0
LINE
8
BLACK
6
CONTINUOUS
10
14.7118768897637793
20
-3.2487559448818897
11
14.714248858267716
21
-3.2479853149606299
0
LINE
8
BLACK
6
CONTINUOUS
10
14.714248858267716
20
-3.2479853149606299
11
14.7162666535433075
21
-3.2465195275590553
0
LINE
8
BLACK
6
CONTINUOUS
10
14.7162666535433075
20
-3.2465195275590553
11
14.7177327559055122
21
-3.2445019685039371
0
LINE
8
BLACK
6
CONTINUOUS
10
14.7177327559055122
20
-3.2445019685039371
11
14.7185037795275591
21
-3.2421301181102362
0
LINE
8
BLACK
6
CONTINUOUS
10
14.7185037795275591
20
-3.2421301181102362
11
14.7185039370078741
21
-3.2408831102362203
0
LINE
8
BLACK
6
CONTINUOUS
10
14.7185039370078741
20
-3.2408831102362203
11
14.7185039370078741
21
-3.2251942913385827
0
LINE
8
BLACK
6
CONTINUOUS
10
14.7185039370078741
20
-3.2251942913385827
11
14.7185041338582678
21
-3.2251931889763781
0
LINE
8
BLACK
6
CONTINUOUS
10
14.7185041338582678
20
-3.2251931889763781
11
14.7190815354330713
21
-3.2215446062992124
0
LINE
8
BLACK
6
CONTINUOUS
10
14.7190815354330713
20
-3.2215446062992124
11
14.7207587401574802
21
-3.2182517716535433
0
LINE
8
BLACK
6
CONTINUOUS
10
14.7207587401574802
20
-3.2182517716535433
11
14.723371456692913
21
-3.2156384251968504
0
LINE
8
BLACK
6
CONTINUOUS
10
14.723371456692913
20
-3.2156384251968504
11
14.7266638582677167
21
-3.2139603937007872
0
LINE
8
BLACK
6
CONTINUOUS
10
14.7266638582677167
20
-3.2139603937007872
11
14.7303137007874021
21
-3.2133818897637796
0
LINE
8
BLACK
6
CONTINUOUS
10
14.7303137007874021
20
-3.2133818897637796
11
14.7303137007874021
21
-3.2133832677165355
0
LINE
8
BLACK
6
CONTINUOUS
10
14.7303137007874021
20
-3.2133832677165355
11
15.3031391732283453
21
-3.2133222834645667
0
LINE
8
BLACK
6
CONTINUOUS
10
15.3031391732283453
20
-3.2133222834645667
11
15.3031496062992129
21
-3.2133188976377953
0
LINE
8
BLACK
6
CONTINUOUS
10
15.3031496062992129
20
-3.2133188976377953
11
15.3126567716535433
21
-3.2139420472440943
0
LINE
8
BLACK
6
CONTINUOUS
10
15.3126567716535433
20
-3.2139420472440943
11
15.3220012598425193
21
-3.2158008661417323
0
LINE
8
BLACK
6
CONTINUOUS
10
15.3220012598425193
20
-3.2158008661417323
11
15.331023149606299
21
-3.2188635039370079
0
LINE
8
BLACK
6
CONTINUOUS
10
15.331023149606299
20
-3.2188635039370079
11
15.33956811023622
21
-3.2230775590551182
0
LINE
8
BLACK
6
CONTINUOUS
10
15.33956811023622
20
-3.2230775590551182
11
15.3474898818897643
21
-3.2283709448818896
0
LINE
8
BLACK
6
CONTINUOUS
10
15.3474898818897643
20
-3.2283709448818896
11
15.3546529133858272
21
-3.2346531102362204
0
LINE
8
BLACK
6
CONTINUOUS
10
15.3546529133858272
20
-3.2346531102362204
11
15.3609346456692908
21
-3.241816496062992
0
LINE
8
BLACK
6
CONTINUOUS
10
15.3609346456692908
20
-3.241816496062992
11
15.3662275984251959
21
-3.2497385433070867
0
LINE
8
BLACK
6
CONTINUOUS
10
15.3662275984251959
20
-3.2497385433070867
11
15.3704412204724399
21
-3.2582837401574802
0
LINE
8
BLACK
6
CONTINUOUS
10
15.3704412204724399
20
-3.2582837401574802
11
15.3735033464566921
21
-3.2673057874015745
0
LINE
8
BLACK
6
CONTINUOUS
10
15.3735033464566921
20
-3.2673057874015745
11
15.3753616141732277
21
-3.2766503937007871
0
LINE
8
BLACK
6
CONTINUOUS
10
15.3753616141732277
20
-3.2766503937007871
11
15.375984212598425
21
-3.286157401574803
0
LINE
8
BLACK
6
CONTINUOUS
10
15.375984212598425
20
-3.286157401574803
11
15.3759842519685037
21
-3.2861574803149605
0
LINE
8
BLACK
6
CONTINUOUS
10
15.3759842519685037
20
-3.2861574803149605
11
15.3759842519685037
21
-3.305329212598425
0
LINE
8
BLACK
6
CONTINUOUS
10
15.3759842519685037
20
-3.305329212598425
11
15.3759810629921247
21
-3.3053450393700787
0
LINE
8
BLACK
6
CONTINUOUS
10
15.3759810629921247
20
-3.3053450393700787
11
15.3759840944881887
21
-3.30535468503937
0
LINE
8
BLACK
6
CONTINUOUS
10
15.3759840944881887
20
-3.30535468503937
11
15.3759840157480312
21
-3.30535468503937
0
LINE
8
BLACK
6
CONTINUOUS
10
15.3759840157480312
20
-3.30535468503937
11
15.3759436614173222
21
-3.308653622047244
0
LINE
8
BLACK
6
CONTINUOUS
10
15.3759436614173222
20
-3.308653622047244
11
15.3770145669291338
21
-3.3151644881889761
0
LINE
8
BLACK
6
CONTINUOUS
10
15.3770145669291338
20
-3.3151644881889761
11
15.3792087007874017
21
-3.3213874015748033
0
LINE
8
BLACK
6
CONTINUOUS
10
15.3792087007874017
20
-3.3213874015748033
11
15.3824583070866137
21
-3.3271300787401574
0
LINE
8
BLACK
6
CONTINUOUS
10
15.3824583070866137
20
-3.3271300787401574
11
15.3866629921259843
21
-3.332215275590551
0
LINE
8
BLACK
6
CONTINUOUS
10
15.3866629921259843
20
-3.332215275590551
11
15.3916929133858265
21
-3.336485905511811
0
LINE
8
BLACK
6
CONTINUOUS
10
15.3916929133858265
20
-3.336485905511811
11
15.3973927952755894
21
-3.3398100787401575
0
LINE
8
BLACK
6
CONTINUOUS
10
15.3973927952755894
20
-3.3398100787401575
11
15.403586535433071
21
-3.342085157480315
0
LINE
8
BLACK
6
CONTINUOUS
10
15.403586535433071
20
-3.342085157480315
11
15.4100829133858266
21
-3.3432408661417323
0
LINE
8
BLACK
6
CONTINUOUS
10
15.4100829133858266
20
-3.3432408661417323
11
15.4133820866141722
21
-3.3432435433070866
0
LINE
8
BLACK
6
CONTINUOUS
10
15.4133820866141722
20
-3.3432435433070866
11
15.5234292125984243
21
-3.3432435433070866
0
LINE
8
BLACK
6
CONTINUOUS
10
15.5234292125984243
20
-3.3432435433070866
11
15.523435196850393
21
-3.3432447244094488
0
LINE
8
BLACK
6
CONTINUOUS
10
15.523435196850393
20
-3.3432447244094488
11
15.523438858267717
21
-3.3432435826771654
0
LINE
8
BLACK
6
CONTINUOUS
10
15.523438858267717
20
-3.3432435826771654
11
15.523438858267717
21
-3.3432435433070866
0
LINE
8
BLACK
6
CONTINUOUS
10
15.523438858267717
20
-3.3432435433070866
11
15.5268406692913388
21
-3.3432569685039368
0
LINE
8
BLACK
6
CONTINUOUS
10
15.5268406692913388
20
-3.3432569685039368
11
15.533538622047244
21
-3.3420621653543305
0
LINE
8
BLACK
6
CONTINUOUS
10
15.533538622047244
20
-3.3420621653543305
11
15.5399110629921253
21
-3.3396784251968503
0
LINE
8
BLACK
6
CONTINUOUS
10
15.5399110629921253
20
-3.3396784251968503
11
15.5457488188976374
21
-3.3361840157480316
0
LINE
8
BLACK
6
CONTINUOUS
10
15.5457488188976374
20
-3.3361840157480316
11
15.5508602362204726
21
-3.3316936614173227
0
LINE
8
BLACK
6
CONTINUOUS
10
15.5508602362204726
20
-3.3316936614173227
11
15.5550775590551176
21
-3.3263547244094487
0
LINE
8
BLACK
6
CONTINUOUS
10
15.5550775590551176
20
-3.3263547244094487
11
15.558262362204724
21
-3.3203424803149604
0
LINE
8
BLACK
6
CONTINUOUS
10
15.558262362204724
20
-3.3203424803149604
11
15.5603100787401569
21
-3.3138542519685039
0
LINE
8
BLACK
6
CONTINUOUS
10
15.5603100787401569
20
-3.3138542519685039
11
15.5611535039370068
21
-3.3071030708661415
0
LINE
8
BLACK
6
CONTINUOUS
10
15.5611535039370068
20
-3.3071030708661415
11
15.5609624803149611
21
-3.3037065748031496
0
LINE
8
BLACK
6
CONTINUOUS
10
15.5609624803149611
20
-3.3037065748031496
11
15.5609625196850399
21
-3.3037065748031496
0
LINE
8
BLACK
6
CONTINUOUS
10
15.5609625196850399
20
-3.3037065748031496
11
15.560973385826772
21
-3.3036651181102363
0
LINE
8
BLACK
6
CONTINUOUS
10
15.560973385826772
20
-3.3036651181102363
11
15.5609592913385821
21
-3.3035941732283463
0
LINE
8
BLACK
6
CONTINUOUS
10
15.5609592913385821
20
-3.3035941732283463
11
15.5609592913385821
21
-3.2944804330708659
0
LINE
8
BLACK
6
CONTINUOUS
10
15.5609592913385821
20
-3.2944804330708659
11
15.5616496062992127
21
-3.2839470472440944
0
LINE
8
BLACK
6
CONTINUOUS
10
15.5616496062992127
20
-3.2839470472440944
11
15.5637088188976378
21
-3.2735938188976377
0
LINE
8
BLACK
6
CONTINUOUS
10
15.5637088188976378
20
-3.2735938188976377
11
15.5671016535433075
21
-3.2635979133858268
0
LINE
8
BLACK
6
CONTINUOUS
10
15.5671016535433075
20
-3.2635979133858268
11
15.5717700787401565
21
-3.2541303543307087
0
LINE
8
BLACK
6
CONTINUOUS
10
15.5717700787401565
20
-3.2541303543307087
11
15.5776342519685027
21
-3.2453530708661416
0
LINE
8
BLACK
6
CONTINUOUS
10
15.5776342519685027
20
-3.2453530708661416
11
15.5845938188976376
21
-3.2374162204724408
0
LINE
8
BLACK
6
CONTINUOUS
10
15.5845938188976376
20
-3.2374162204724408
11
15.5925297637795275
21
-3.2304556299212597
0
LINE
8
BLACK
6
CONTINUOUS
10
15.5925297637795275
20
-3.2304556299212597
11
15.6013062598425201
21
-3.2245903149606296
0
LINE
8
BLACK
6
CONTINUOUS
10
15.6013062598425201
20
-3.2245903149606296
11
15.6107732283464564
21
-3.2199206299212597
0
LINE
8
BLACK
6
CONTINUOUS
10
15.6107732283464564
20
-3.2199206299212597
11
15.6207687007874014
21
-3.216526496062992
0
LINE
8
BLACK
6
CONTINUOUS
10
15.6207687007874014
20
-3.216526496062992
11
15.6311216141732281
21
-3.2144659448818897
0
LINE
8
BLACK
6
CONTINUOUS
10
15.6311216141732281
20
-3.2144659448818897
11
15.6416362204724404
21
-3.2137754724409446
0
LINE
8
BLACK
6
CONTINUOUS
10
15.6416362204724404
20
-3.2137754724409446
11
15.6416548818897638
21
-3.2137717716535432
0
LINE
8
BLACK
6
CONTINUOUS
10
15.6416548818897638
20
-3.2137717716535432
11
18.3889205905511801
21
-3.2133342125984252
0
LINE
8
BLACK
6
CONTINUOUS
10
18.3889205905511801
20
-3.2133342125984252
11
18.3889206299212589
21
-3.2133342125984252
0
LINE
8
BLACK
6
CONTINUOUS
10
18.3889206299212589
20
-3.2133342125984252
11
18.397606062992125
21
-3.213954251968504
0
LINE
8
BLACK
6
CONTINUOUS
10
18.397606062992125
20
-3.213954251968504
11
18.4061148425196848
21
-3.2158041338582675
0
LINE
8
BLACK
6
CONTINUOUS
10
18.4061148425196848
20
-3.2158041338582675
11
18.4142737007874011
21
-3.2188462204724408
0
LINE
8
BLACK
6
CONTINUOUS
10
18.4142737007874011
20
-3.2188462204724408
11
18.4219165354330698
21
-3.2230185433070866
0
LINE
8
BLACK
6
CONTINUOUS
10
18.4219165354330698
20
-3.2230185433070866
11
18.4288877165354315
21
-3.2282361811023623
0
LINE
8
BLACK
6
CONTINUOUS
10
18.4288877165354315
20
-3.2282361811023623
11
18.4350453543307076
21
-3.2343929133858267
0
LINE
8
BLACK
6
CONTINUOUS
10
18.4350453543307076
20
-3.2343929133858267
11
18.4402640157480313
21
-3.2413633464566929
0
LINE
8
BLACK
6
CONTINUOUS
10
18.4402640157480313
20
-3.2413633464566929
11
18.44443748031496
21
-3.2490055511811025
0
LINE
8
BLACK
6
CONTINUOUS
10
18.44443748031496
20
-3.2490055511811025
11
18.4474807480314951
21
-3.2571639763779525
0
LINE
8
BLACK
6
CONTINUOUS
10
18.4474807480314951
20
-3.2571639763779525
11
18.4493318897637799
21
-3.2656724803149606
0
LINE
8
BLACK
6
CONTINUOUS
10
18.4493318897637799
20
-3.2656724803149606
11
18.4499527559055103
21
-3.2743519291338581
0
LINE
8
BLACK
6
CONTINUOUS
10
18.4499527559055103
20
-3.2743519291338581
11
18.4499539370078729
21
-3.2743578346456692
0
LINE
8
BLACK
6
CONTINUOUS
10
18.4499539370078729
20
-3.2743578346456692
11
18.4499532677165341
21
-6.1014389370078739
0
LINE
8
BLACK
6
CONTINUOUS
10
18.4499532677165341
20
-6.1014389370078739
11
18.4499532283464553
21
-6.1014389763779526
0
LINE
8
BLACK
6
CONTINUOUS
10
18.4499532283464553
20
-6.1014389763779526
11
18.4499532677165341
21
-6.1014390157480314
0
LINE
8
BLACK
6
CONTINUOUS
10
18.4499532677165341
20
-6.1014390157480314
11
18.4493318897637799
21
-6.1101236614173224
0
LINE
8
BLACK
6
CONTINUOUS
10
18.4493318897637799
20
-6.1101236614173224
11
18.4474809448818888
21
-6.1186314960629922
0
LINE
8
BLACK
6
CONTINUOUS
10
18.4474809448818888
20
-6.1186314960629922
11
18.44443811023622
21
-6.1267893700787397
0
LINE
8
BLACK
6
CONTINUOUS
10
18.44443811023622
20
-6.1267893700787397
11
18.4402653543307089
21
-6.1344311811023617
0
LINE
8
BLACK
6
CONTINUOUS
10
18.4402653543307089
20
-6.1344311811023617
11
18.4350475590551177
21
-6.1414014173228342
0
LINE
8
BLACK
6
CONTINUOUS
10
18.4350475590551177
20
-6.1414014173228342
11
18.4288909842519679
21
-6.1475581889763777
0
LINE
8
BLACK
6
CONTINUOUS
10
18.4288909842519679
20
-6.1475581889763777
11
18.4219209055118114
21
-6.1527761811023618
0
LINE
8
BLACK
6
CONTINUOUS
10
18.4219209055118114
20
-6.1527761811023618
11
18.4142792125984265
21
-6.1569491732283463
0
LINE
8
BLACK
6
CONTINUOUS
10
18.4142792125984265
20
-6.1569491732283463
11
18.4061214566929117
21
-6.1599922440944876
0
LINE
8
BLACK
6
CONTINUOUS
10
18.4061214566929117
20
-6.1599922440944876
11
18.3976136614173207
21
-6.1618434251968504
0
LINE
8
BLACK
6
CONTINUOUS
10
18.3976136614173207
20
-6.1618434251968504
11
18.3889290157480296
21
-6.1624650787401576
0
LINE
8
BLACK
6
CONTINUOUS
10
18.3889290157480296
20
-6.1624650787401576
11
18.3889290157480296
21
-6.1624625590551183
0
LINE
8
BLACK
6
CONTINUOUS
10
18.3889290157480296
20
-6.1624625590551183
11
18.3889289370078721
21
-6.1624625196850396
0
LINE
8
BLACK
6
CONTINUOUS
10
18.3889289370078721
20
-6.1624625196850396
11
18.3889288582677146
21
-6.1624625590551183
0
LINE
8
BLACK
6
CONTINUOUS
10
18.3889288582677146
20
-6.1624625590551183
11
15.3188908267716535
21
-6.1624232283464568
0
LINE
8
BLACK
6
CONTINUOUS
10
15.3188908267716535
20
-6.1624232283464568
11
15.3188809055118114
21
-6.1624212598425192
0
LINE
8
BLACK
6
CONTINUOUS
10
15.3188809055118114
20
-6.1624212598425192
11
15.3143987007874021
21
-6.1624220078740155
0
LINE
8
BLACK
6
CONTINUOUS
10
15.3143987007874021
20
-6.1624220078740155
11
15.3055245275590543
21
-6.1638290157480311
0
LINE
8
BLACK
6
CONTINUOUS
10
15.3055245275590543
20
-6.1638290157480311
11
15.2969796456692908
21
-6.1666067322834648
0
LINE
8
BLACK
6
CONTINUOUS
10
15.2969796456692908
20
-6.1666067322834648
11
15.2889744094488194
21
-6.1706867716535427
0
LINE
8
BLACK
6
CONTINUOUS
10
15.2889744094488194
20
-6.1706867716535427
11
15.2817059055118101
21
-6.1759687401574803
0
LINE
8
BLACK
6
CONTINUOUS
10
15.2817059055118101
20
-6.1759687401574803
11
15.2753529921259847
21
-6.1823225590551178
0
LINE
8
BLACK
6
CONTINUOUS
10
15.2753529921259847
20
-6.1823225590551178
11
15.2700720866141726
21
-6.1895918897637792
0
LINE
8
BLACK
6
CONTINUOUS
10
15.2700720866141726
20
-6.1895918897637792
11
15.2659932283464563
21
-6.1975977165354328
0
LINE
8
BLACK
6
CONTINUOUS
10
15.2659932283464563
20
-6.1975977165354328
11
15.2632168110236215
21
-6.2061430314960626
0
LINE
8
BLACK
6
CONTINUOUS
10
15.2632168110236215
20
-6.2061430314960626
11
15.2618111417322826
21
-6.2150174015748032
0
LINE
8
BLACK
6
CONTINUOUS
10
15.2618111417322826
20
-6.2150174015748032
11
15.2618110236220463
21
-6.2195097637795271
0
LINE
8
BLACK
6
CONTINUOUS
10
15.2618110236220463
20
-6.2195097637795271
11
15.2618110236220463
21
-6.2195098425196846
0
LINE
8
BLACK
6
CONTINUOUS
10
15.2618110236220463
20
-6.2195098425196846
11
15.2618110236220463
21
-6.2961107086614172
0
LINE
8
BLACK
6
CONTINUOUS
10
15.2618110236220463
20
-6.2961107086614172
11
15.2611898425196841
21
-6.304795236220472
0
LINE
8
BLACK
6
CONTINUOUS
10
15.2611898425196841
20
-6.304795236220472
11
15.2593390157480311
21
-6.3133029527559055
0
LINE
8
BLACK
6
CONTINUOUS
10
15.2593390157480311
20
-6.3133029527559055
11
15.2562962992125986
21
-6.3214606692913389
0
LINE
8
BLACK
6
CONTINUOUS
10
15.2562962992125986
20
-6.3214606692913389
11
15.2521235826771644
21
-6.3291023622047247
0
LINE
8
BLACK
6
CONTINUOUS
10
15.2521235826771644
20
-6.3291023622047247
11
15.246905787401575
21
-6.3360724015748033
0
LINE
8
BLACK
6
CONTINUOUS
10
15.246905787401575
20
-6.3360724015748033
11
15.2407492125984252
21
-6.3422289763779522
0
LINE
8
BLACK
6
CONTINUOUS
10
15.2407492125984252
20
-6.3422289763779522
11
15.2337790944881881
21
-6.3474466535433072
0
LINE
8
BLACK
6
CONTINUOUS
10
15.2337790944881881
20
-6.3474466535433072
11
15.2261374015748032
21
-6.3516193307086617
0
LINE
8
BLACK
6
CONTINUOUS
10
15.2261374015748032
20
-6.3516193307086617
11
15.2179796456692902
21
-6.3546620078740155
0
LINE
8
BLACK
6
CONTINUOUS
10
15.2179796456692902
20
-6.3546620078740155
11
15.2094719291338585
21
-6.3565127165354331
0
LINE
8
BLACK
6
CONTINUOUS
10
15.2094719291338585
20
-6.3565127165354331
11
15.2007911023622047
21
-6.3571335826771653
0
LINE
8
BLACK
6
CONTINUOUS
10
15.2007911023622047
20
-6.3571335826771653
11
15.2007874015748037
21
-6.3571343307086616
0
LINE
8
BLACK
6
CONTINUOUS
10
15.2007874015748037
20
-6.3571343307086616
11
14.7093110236220461
21
-6.3571343307086616
0
LINE
8
BLACK
6
CONTINUOUS
10
14.7093110236220461
20
-6.3571343307086616
11
14.6976483070866131
21
-6.3564546062992129
0
LINE
8
BLACK
6
CONTINUOUS
10
14.6976483070866131
20
-6.3564546062992129
11
14.6861435433070859
21
-6.3544246456692912
0
LINE
8
BLACK
6
CONTINUOUS
10
14.6861435433070859
20
-6.3544246456692912
11
14.6749524803149605
21
-6.3510718897637792
0
LINE
8
BLACK
6
CONTINUOUS
10
14.6749524803149605
20
-6.3510718897637792
11
14.6642266535433059
21
-6.346441811023622
0
LINE
8
BLACK
6
CONTINUOUS
10
14.6642266535433059
20
-6.346441811023622
11
14.6541113385826769
21
-6.3405970866141734
0
LINE
8
BLACK
6
CONTINUOUS
10
14.6541113385826769
20
-6.3405970866141734
11
14.644743464566929
21
-6.3336168110236217
0
LINE
8
BLACK
6
CONTINUOUS
10
14.644743464566929
20
-6.3336168110236217
11
14.6362499212598429
21
-6.3255955511811024
0
LINE
8
BLACK
6
CONTINUOUS
10
14.6362499212598429
20
-6.3255955511811024
11
14.6287457086614161
21
-6.3166419291338585
0
LINE
8
BLACK
6
CONTINUOUS
10
14.6287457086614161
20
-6.3166419291338585
11
14.6223324409448807
21
-6.3068771653543303
0
LINE
8
BLACK
6
CONTINUOUS
10
14.6223324409448807
20
-6.3068771653543303
11
14.6170969685039367
21
-6.2964334645669293
0
LINE
8
BLACK
6
CONTINUOUS
10
14.6170969685039367
20
-6.2964334645669293
11
14.6131101574803139
21
-6.2854522834645667
0
LINE
8
BLACK
6
CONTINUOUS
10
14.6131101574803139
20
-6.2854522834645667
11
14.6104260236220469
21
-6.2740823228346452
0
LINE
8
BLACK
6
CONTINUOUS
10
14.6104260236220469
20
-6.2740823228346452
11
14.60908090551181
21
-6.2624775196850395
0
LINE
8
BLACK
6
CONTINUOUS
10
14.60908090551181
20
-6.2624775196850395
11
14.6090825590551177
21
-6.2624774015748033
0
LINE
8
BLACK
6
CONTINUOUS
10
14.6090825590551177
20
-6.2624774015748033
11
14.6090825590551177
21
-6.2624773622047245
0
LINE
8
BLACK
6
CONTINUOUS
10
14.6090825590551177
20
-6.2624773622047245
11
14.6090801968503925
21
-6.2624775196850395
0
LINE
8
BLACK
6
CONTINUOUS
10
14.6090801968503925
20
-6.2624775196850395
11
14.6088795275590542
21
-6.2589341732283463
0
LINE
8
BLACK
6
CONTINUOUS
10
14.6088795275590542
20
-6.2589341732283463
11
14.6071484645669294
21
-6.2520504330708659
0
LINE
8
BLACK
6
CONTINUOUS
10
14.6071484645669294
20
-6.2520504330708659
11
14.6041536220472441
21
-6.2456151181102362
0
LINE
8
BLACK
6
CONTINUOUS
10
14.6041536220472441
20
-6.2456151181102362
11
14.6000018897637798
21
-6.2398579133858263
0
LINE
8
BLACK
6
CONTINUOUS
10
14.6000018897637798
20
-6.2398579133858263
11
14.5948414173228347
21
-6.2349843307086612
0
LINE
8
BLACK
6
CONTINUOUS
10
14.5948414173228347
20
-6.2349843307086612
11
14.5888564566929126
21
-6.2311682677165354
0
LINE
8
BLACK
6
CONTINUOUS
10
14.5888564566929126
20
-6.2311682677165354
11
14.5822605511811023
21
-6.2285459448818896
0
LINE
8
BLACK
6
CONTINUOUS
10
14.5822605511811023
20
-6.2285459448818896
11
14.5752891732283469
21
-6.2272109448818895
0
LINE
8
BLACK
6
CONTINUOUS
10
14.5752891732283469
20
-6.2272109448818895
11
14.5717401574803151
21
-6.2272130708661413
0
LINE
8
BLACK
6
CONTINUOUS
10
14.5717401574803151
20
-6.2272130708661413
11
14.4898400787401567
21
-6.2272130708661413
0
LINE
8
BLACK
6
CONTINUOUS
10
14.4898400787401567
20
-6.2272130708661413
11
14.4894094881889757
21
-6.2273372047244093
0
LINE
8
BLACK
6
CONTINUOUS
10
14.4894094881889757
20
-6.2273372047244093
11
14.48615279527559
21
-6.2272260629921261
0
LINE
8
BLACK
6
CONTINUOUS
10
14.48615279527559
20
-6.2272260629921261
11
14.4797037401574809
21
-6.2281662992125986
0
LINE
8
BLACK
6
CONTINUOUS
10
14.4797037401574809
20
-6.2281662992125986
11
14.4735235826771653
21
-6.2302351181102358
0
LINE
8
BLACK
6
CONTINUOUS
10
14.4735235826771653
20
-6.2302351181102358
11
14.4678081889763774
21
-6.2333669685039368
0
LINE
8
BLACK
6
CONTINUOUS
10
14.4678081889763774
20
-6.2333669685039368
11
14.4627386614173226
21
-6.2374625590551176
0
LINE
8
BLACK
6
CONTINUOUS
10
14.4627386614173226
20
-6.2374625590551176
11
14.4584756692913388
21
-6.2423921653543308
0
LINE
8
BLACK
6
CONTINUOUS
10
14.4584756692913388
20
-6.2423921653543308
11
14.4551542519685032
21
-6.2479995275590552
0
LINE
8
BLACK
6
CONTINUOUS
10
14.4551542519685032
20
-6.2479995275590552
11
14.4528797244094491
21
-6.2541069685039368
0
LINE
8
BLACK
6
CONTINUOUS
10
14.4528797244094491
20
-6.2541069685039368
11
14.4517241732283459
21
-6.260520905511811
0
LINE
8
BLACK
6
CONTINUOUS
10
14.4517241732283459
20
-6.260520905511811
11
14.451726220472441
21
-6.2637795275590546
0
LINE
8
BLACK
6
CONTINUOUS
10
14.451726220472441
20
-6.2637795275590546
11
14.4517035826771654
21
-6.2638490944881893
0
LINE
8
BLACK
6
CONTINUOUS
10
14.4517035826771654
20
-6.2638490944881893
11
14.4517212204724412
21
-6.2639202362204722
0
LINE
8
BLACK
6
CONTINUOUS
10
14.4517212204724412
20
-6.2639202362204722
11
14.4517211811023625
21
-6.2639202362204722
0
LINE
8
BLACK
6
CONTINUOUS
10
14.4517211811023625
20
-6.2639202362204722
11
14.4502146456692913
21
-6.2754810236220475
0
LINE
8
BLACK
6
CONTINUOUS
10
14.4502146456692913
20
-6.2754810236220475
11
14.4473792519685045
21
-6.2867895275590548
0
LINE
8
BLACK
6
CONTINUOUS
10
14.4473792519685045
20
-6.2867895275590548
11
14.4432532677165355
21
-6.2976935433070862
0
LINE
8
BLACK
6
CONTINUOUS
10
14.4432532677165355
20
-6.2976935433070862
11
14.4378921653543308
21
-6.3080463385826766
0
LINE
8
BLACK
6
CONTINUOUS
10
14.4378921653543308
20
-6.3080463385826766
11
14.431368110236221
21
-6.3177085433070861
0
LINE
8
BLACK
6
CONTINUOUS
10
14.431368110236221
20
-6.3177085433070861
11
14.423768937007873
21
-6.3265501181102364
0
LINE
8
BLACK
6
CONTINUOUS
10
14.423768937007873
20
-6.3265501181102364
11
14.415196889763779
21
-6.3344520866141734
0
LINE
8
BLACK
6
CONTINUOUS
10
14.415196889763779
20
-6.3344520866141734
11
14.4057673228346452
21
-6.3413081102362208
0
LINE
8
BLACK
6
CONTINUOUS
10
14.4057673228346452
20
-6.3413081102362208
11
14.3956071653543312
21
-6.347025866141732
0
LINE
8
BLACK
6
CONTINUOUS
10
14.3956071653543312
20
-6.347025866141732
11
14.3848531889763773
21
-6.351528464566929
0
LINE
8
BLACK
6
CONTINUOUS
10
14.3848531889763773
20
-6.351528464566929
11
14.3736501181102359
21
-6.3547552362204724
0
LINE
8
BLACK
6
CONTINUOUS
10
14.3736501181102359
20
-6.3547552362204724
11
14.3621487007874009
21
-6.3566628346456691
0
LINE
8
BLACK
6
CONTINUOUS
10
14.3621487007874009
20
-6.3566628346456691
11
14.35050374015748
21
-6.3572255118110235
0
LINE
8
BLACK
6
CONTINUOUS
10
14.35050374015748
20
-6.3572255118110235
11
14.35050374015748
21
-6.3572255511811022
0
LINE
8
BLACK
6
CONTINUOUS
10
14.35050374015748
20
-6.3572255511811022
11
14.350232047244095
21
-6.3571343307086616
0
LINE
8
BLACK
6
CONTINUOUS
10
14.350232047244095
20
-6.3571343307086616
11
13.1102958267716527
21
-6.3571343307086616
0
LINE
8
BLACK
6
CONTINUOUS
10
13.1102958267716527
20
-6.3571343307086616
11
13.101623779527559
21
-6.3565156692913387
0
LINE
8
BLACK
6
CONTINUOUS
10
13.101623779527559
20
-6.3565156692913387
11
13.0931274015748027
21
-6.3546721259842522
0
LINE
8
BLACK
6
CONTINUOUS
10
13.0931274015748027
20
-6.3546721259842522
11
13.0849788188976373
21
-6.3516409842519685
0
LINE
8
BLACK
6
CONTINUOUS
10
13.0849788188976373
20
-6.3516409842519685
11
13.0773430708661422
21
-6.3474837007874019
0
LINE
8
BLACK
6
CONTINUOUS
10
13.0773430708661422
20
-6.3474837007874019
11
13.0703749212598428
21
-6.3422844881889766
0
LINE
8
BLACK
6
CONTINUOUS
10
13.0703749212598428
20
-6.3422844881889766
11
13.0642155118110228
21
-6.3361486220472436
0
LINE
8
BLACK
6
CONTINUOUS
10
13.0642155118110228
20
-6.3361486220472436
11
13.0589895669291334
21
-6.3292004724409443
0
LINE
8
BLACK
6
CONTINUOUS
10
13.0589895669291334
20
-6.3292004724409443
11
13.0548029921259836
21
-6.3215807480314963
0
LINE
8
BLACK
6
CONTINUOUS
10
13.0548029921259836
20
-6.3215807480314963
11
13.0517406299212588
21
-6.3134438582677168
0
LINE
8
BLACK
6
CONTINUOUS
10
13.0517406299212588
20
-6.3134438582677168
11
13.0498644881889767
21
-6.3049546062992121
0
LINE
8
BLACK
6
CONTINUOUS
10
13.0498644881889767
20
-6.3049546062992121
11
13.0492125590551176
21
-6.2962849606299214
0
LINE
8
BLACK
6
CONTINUOUS
10
13.0492125590551176
20
-6.2962849606299214
11
13.0492131496062989
21
-6.2962849606299214
0
LINE
8
BLACK
6
CONTINUOUS
10
13.0492131496062989
20
-6.2962849606299214
11
13.0492140551181102
21
-6.2962820866141733
0
LINE
8
BLACK
6
CONTINUOUS
10
13.0492140551181102
20
-6.2962820866141733
11
13.0492131496062989
21
-6.2962774803149602
0
LINE
8
BLACK
6
CONTINUOUS
10
13.0492131496062989
20
-6.2962774803149602
11
13.0492120472440938
21
-6.219287440944882
0
LINE
8
BLACK
6
CONTINUOUS
10
13.0492120472440938
20
-6.219287440944882
11
13.0492120472440938
21
-6.2192874015748032
0
LINE
8
BLACK
6
CONTINUOUS
10
13.0492120472440938
20
-6.2192874015748032
11
13.0492114960629912
21
-6.2192874015748032
0
LINE
8
BLACK
6
CONTINUOUS
10
13.0492114960629912
20
-6.2192874015748032
11
13.0492114960629912
21
-6.2147894488188973
0
LINE
8
BLACK
6
CONTINUOUS
10
13.0492114960629912
20
-6.2147894488188973
11
13.047804251968504
21
-6.2059042519685041
0
LINE
8
BLACK
6
CONTINUOUS
10
13.047804251968504
20
-6.2059042519685041
11
13.0450243700787407
21
-6.197348582677165
0
LINE
8
BLACK
6
CONTINUOUS
10
13.0450243700787407
20
-6.197348582677165
11
13.0409403149606291
21
-6.1893331496062993
0
LINE
8
BLACK
6
CONTINUOUS
10
13.0409403149606291
20
-6.1893331496062993
11
13.0356526377952751
21
-6.1820552755905513
0
LINE
8
BLACK
6
CONTINUOUS
10
13.0356526377952751
20
-6.1820552755905513
11
13.0292916141732285
21
-6.1756941338582676
0
LINE
8
BLACK
6
CONTINUOUS
10
13.0292916141732285
20
-6.1756941338582676
11
13.0220137795275583
21
-6.1704064173228348
0
LINE
8
BLACK
6
CONTINUOUS
10
13.0220137795275583
20
-6.1704064173228348
11
13.0139983464566917
21
-6.1663223228346453
0
LINE
8
BLACK
6
CONTINUOUS
10
13.0139983464566917
20
-6.1663223228346453
11
13.0054427165354323
21
-6.1635423622047245
0
LINE
8
BLACK
6
CONTINUOUS
10
13.0054427165354323
20
-6.1635423622047245
11
12.9965575590551179
21
-6.1621350000000001
0
LINE
8
BLACK
6
CONTINUOUS
10
12.9965575590551179
20
-6.1621350000000001
11
12.9920596062992129
21
-6.1621349606299214
0
LINE
8
BLACK
6
CONTINUOUS
10
12.9920596062992129
20
-6.1621349606299214
11
6.6693503937007872
21
-6.1621349606299214
0
LINE
8
BLACK
6
CONTINUOUS
10
6.6693503937007872
20
-6.1621349606299214
11
6.6576877952755904
21
-6.1614552362204726
0
LINE
8
BLACK
6
CONTINUOUS
10
6.6576877952755904
20
-6.1614552362204726
11
6.6461831496062986
21
-6.1594252362204722
0
LINE
8
BLACK
6
CONTINUOUS
10
6.6461831496062986
20
-6.1594252362204722
11
6.6349922440944882
21
-6.1560724803149602
0
LINE
8
BLACK
6
CONTINUOUS
10
6.6349922440944882
20
-6.1560724803149602
11
6.6242665748031495
21
-6.1514423228346455
0
LINE
8
BLACK
6
CONTINUOUS
10
6.6242665748031495
20
-6.1514423228346455
11
6.6141514173228346
21
-6.1455975196850394
0
LINE
8
BLACK
6
CONTINUOUS
10
6.6141514173228346
20
-6.1455975196850394
11
6.6047837795275592
21
-6.138617204724409
0
LINE
8
BLACK
6
CONTINUOUS
10
6.6047837795275592
20
-6.138617204724409
11
6.596290433070866
21
-6.1305959055118109
0
LINE
8
BLACK
6
CONTINUOUS
10
6.596290433070866
20
-6.1305959055118109
11
6.5887864960629923
21
-6.1216422047244095
0
LINE
8
BLACK
6
CONTINUOUS
10
6.5887864960629923
20
-6.1216422047244095
11
6.5823735039370082
21
-6.1118774015748034
0
LINE
8
BLACK
6
CONTINUOUS
10
6.5823735039370082
20
-6.1118774015748034
11
6.5771383464566924
21
-6.1014337007874015
0
LINE
8
BLACK
6
CONTINUOUS
10
6.5771383464566924
20
-6.1014337007874015
11
6.5731518897637793
21
-6.090452519685039
0
LINE
8
BLACK
6
CONTINUOUS
10
6.5731518897637793
20
-6.090452519685039
11
6.5704681102362201
21
-6.079082598425197
0
LINE
8
BLACK
6
CONTINUOUS
10
6.5704681102362201
20
-6.079082598425197
11
6.5691243307086609
21
-6.0674862992125984
0
LINE
8
BLACK
6
CONTINUOUS
10
6.5691243307086609
20
-6.0674862992125984
11
6.5691212598425199
21
-6.067478346456693
0
LINE
8
BLACK
6
CONTINUOUS
10
6.5691212598425199
20
-6.067478346456693
11
6.5691224409448816
21
-6.0674783070866143
0
LINE
8
BLACK
6
CONTINUOUS
10
6.5691224409448816
20
-6.0674783070866143
11
6.5691224015748029
21
-6.0674779133858268
0
LINE
8
BLACK
6
CONTINUOUS
10
6.5691224015748029
20
-6.0674779133858268
11
6.5691212598425199
21
-6.0674779921259843
0
LINE
8
BLACK
6
CONTINUOUS
10
6.5691212598425199
20
-6.0674779921259843
11
6.5691222047244091
21
-6.0674743307086612
0
LINE
8
BLACK
6
CONTINUOUS
10
6.5691222047244091
20
-6.0674743307086612
11
6.5689212204724408
21
-6.0639347244094486
0
LINE
8
BLACK
6
CONTINUOUS
10
6.5689212204724408
20
-6.0639347244094486
11
6.5671889370078738
21
-6.0570507086614169
0
LINE
8
BLACK
6
CONTINUOUS
10
6.5671889370078738
20
-6.0570507086614169
11
6.5641929921259843
21
-6.0506153149606297
0
LINE
8
BLACK
6
CONTINUOUS
10
6.5641929921259843
20
-6.0506153149606297
11
6.5600403149606299
21
-6.0448581496062994
0
LINE
8
BLACK
6
CONTINUOUS
10
6.5600403149606299
20
-6.0448581496062994
11
6.554879015748031
21
-6.0399846456692909
0
LINE
8
BLACK
6
CONTINUOUS
10
6.554879015748031
20
-6.0399846456692909
11
6.5488933464566932
21
-6.0361687007874014
0
LINE
8
BLACK
6
CONTINUOUS
10
6.5488933464566932
20
-6.0361687007874014
11
6.5422968110236219
21
-6.0335464566929131
0
LINE
8
BLACK
6
CONTINUOUS
10
6.5422968110236219
20
-6.0335464566929131
11
6.535324881889764
21
-6.0322115354330705
0
LINE
8
BLACK
6
CONTINUOUS
10
6.535324881889764
20
-6.0322115354330705
11
6.531775590551181
21
-6.032213700787401
0
LINE
8
BLACK
6
CONTINUOUS
10
6.531775590551181
20
-6.032213700787401
11
6.4491062992125983
21
-6.032213700787401
0
LINE
8
BLACK
6
CONTINUOUS
10
6.4491062992125983
20
-6.032213700787401
11
6.4455571653543302
21
-6.0322115354330705
0
LINE
8
BLACK
6
CONTINUOUS
10
6.4455571653543302
20
-6.0322115354330705
11
6.4385855118110236
21
-6.0335464960629919
0
LINE
8
BLACK
6
CONTINUOUS
10
6.4385855118110236
20
-6.0335464960629919
11
6.4319893307086611
21
-6.0361687795275589
0
LINE
8
BLACK
6
CONTINUOUS
10
6.4319893307086611
20
-6.0361687795275589
11
6.4260040551181099
21
-6.039984803149606
0
LINE
8
BLACK
6
CONTINUOUS
10
6.4260040551181099
20
-6.039984803149606
11
6.4208432283464569
21
-6.0448583464566932
0
LINE
8
BLACK
6
CONTINUOUS
10
6.4208432283464569
20
-6.0448583464566932
11
6.4166910236220467
21
-6.0506155118110234
0
LINE
8
BLACK
6
CONTINUOUS
10
6.4166910236220467
20
-6.0506155118110234
11
6.4136956692913385
21
-6.0570508661417319
0
LINE
8
BLACK
6
CONTINUOUS
10
6.4136956692913385
20
-6.0570508661417319
11
6.4119640551181103
21
-6.0639347244094486
0
LINE
8
BLACK
6
CONTINUOUS
10
6.4119640551181103
20
-6.0639347244094486
11
6.4117631496062995
21
-6.067478188976378
0
LINE
8
BLACK
6
CONTINUOUS
10
6.4117631496062995
20
-6.067478188976378
11
6.4117630708661419
21
-6.067478346456693
0
LINE
8
BLACK
6
CONTINUOUS
10
6.4117630708661419
20
-6.067478346456693
11
6.4104234251968499
21
-6.0790538976377952
0
LINE
8
BLACK
6
CONTINUOUS
10
6.4104234251968499
20
-6.0790538976377952
11
6.4077513385826768
21
-6.090396614173228
0
LINE
8
BLACK
6
CONTINUOUS
10
6.4077513385826768
20
-6.090396614173228
11
6.4037828346456696
21
-6.1013532677165356
0
LINE
8
BLACK
6
CONTINUOUS
10
6.4037828346456696
20
-6.1013532677165356
11
6.3985713779527558
21
-6.1117762204724411
0
LINE
8
BLACK
6
CONTINUOUS
10
6.3985713779527558
20
-6.1117762204724411
11
6.3921872047244097
21
-6.1215250393700789
0
LINE
8
BLACK
6
CONTINUOUS
10
6.3921872047244097
20
-6.1215250393700789
11
6.3847163385826766
21
-6.1304683464566931
0
LINE
8
BLACK
6
CONTINUOUS
10
6.3847163385826766
20
-6.1304683464566931
11
6.376259409448819
21
-6.1384857086614169
0
LINE
8
BLACK
6
CONTINUOUS
10
6.376259409448819
20
-6.1384857086614169
11
6.3669304330708663
21
-6.1454690157480316
0
LINE
8
BLACK
6
CONTINUOUS
10
6.3669304330708663
20
-6.1454690157480316
11
6.3568550393700782
21
-6.1513242519685036
0
LINE
8
BLACK
6
CONTINUOUS
10
6.3568550393700782
20
-6.1513242519685036
11
6.3461690157480311
21
-6.1559724409448817
0
LINE
8
BLACK
6
CONTINUOUS
10
6.3461690157480311
20
-6.1559724409448817
11
6.335016338582677
21
-6.1593510236220474
0
LINE
8
BLACK
6
CONTINUOUS
10
6.335016338582677
20
-6.1593510236220474
11
6.323547283464567
21
-6.1614144881889761
0
LINE
8
BLACK
6
CONTINUOUS
10
6.323547283464567
20
-6.1614144881889761
11
6.3119163779527554
21
-6.1621349606299214
0
LINE
8
BLACK
6
CONTINUOUS
10
6.3119163779527554
20
-6.1621349606299214
11
6.3119135039370073
21
-6.1621340157480313
0
LINE
8
BLACK
6
CONTINUOUS
10
6.3119135039370073
20
-6.1621340157480313
11
6.3119088976377951
21
-6.1621349606299214
0
LINE
8
BLACK
6
CONTINUOUS
10
6.3119088976377951
20
-6.1621349606299214
11
3.9654094488188973
21
-6.1621498818897633
0
LINE
8
BLACK
6
CONTINUOUS
10
3.9654094488188973
20
-6.1621498818897633
11
3.9654088582677165
21
-6.1621497637795271
0
LINE
8
BLACK
6
CONTINUOUS
10
3.9654088582677165
20
-6.1621497637795271
11
3.9654085433070865
21
-6.1621498818897633
0
LINE
8
BLACK
6
CONTINUOUS
10
3.9654085433070865
20
-6.1621498818897633
11
3.9542998818897637
21
-6.1614805511811026
0
LINE
8
BLACK
6
CONTINUOUS
10
3.9542998818897637
20
-6.1614805511811026
11
3.9433519291338581
21
-6.1594824015748033
0
LINE
8
BLACK
6
CONTINUOUS
10
3.9433519291338581
20
-6.1594824015748033
11
3.9327230314960628
21
-6.1561844094488185
0
LINE
8
BLACK
6
CONTINUOUS
10
3.9327230314960628
20
-6.1561844094488185
11
3.9225669291338581
21
-6.1516342519685034
0
LINE
8
BLACK
6
CONTINUOUS
10
3.9225669291338581
20
-6.1516342519685034
11
3.9130305511811021
21
-6.1458977559055112
0
LINE
8
BLACK
6
CONTINUOUS
10
3.9130305511811021
20
-6.1458977559055112
11
3.9042518503937007
21
-6.1390578346456692
0
LINE
8
BLACK
6
CONTINUOUS
10
3.9042518503937007
20
-6.1390578346456692
11
3.8963577559055116
21
-6.1312135039370075
0
LINE
8
BLACK
6
CONTINUOUS
10
3.8963577559055116
20
-6.1312135039370075
11
3.8894625196850394
21
-6.1224782283464565
0
LINE
8
BLACK
6
CONTINUOUS
10
3.8894625196850394
20
-6.1224782283464565
11
3.8836657874015748
21
-6.1129783070866139
0
LINE
8
BLACK
6
CONTINUOUS
10
3.8836657874015748
20
-6.1129783070866139
11
3.8790515354330708
21
-6.1028511811023618
0
LINE
8
BLACK
6
CONTINUOUS
10
3.8790515354330708
20
-6.1028511811023618
11
3.8756863779527557
21
-6.0922433464566925
0
LINE
8
BLACK
6
CONTINUOUS
10
3.8756863779527557
20
-6.0922433464566925
11
3.873619094488189
21
-6.0813082677165351
0
LINE
8
BLACK
6
CONTINUOUS
10
3.873619094488189
20
-6.0813082677165351
11
3.8728795275590548
21
-6.0702040551181105
0
LINE
8
BLACK
6
CONTINUOUS
10
3.8728795275590548
20
-6.0702040551181105
11
3.8728817322834646
21
-6.0702040551181105
0
LINE
8
BLACK
6
CONTINUOUS
10
3.8728817322834646
20
-6.0702040551181105
11
3.8728842913385826
21
-6.0701959448818892
0
LINE
8
BLACK
6
CONTINUOUS
10
3.8728842913385826
20
-6.0701959448818892
11
3.8728834251968505
21
-6.0701915354330707
0
LINE
8
BLACK
6
CONTINUOUS
10
3.8728834251968505
20
-6.0701915354330707
11
3.8729365354330709
21
-3.3335497244094485
0
LINE
8
BLACK
6
CONTINUOUS
10
3.8729365354330709
20
-3.3335497244094485
11
3.8728877952755907
21
-3.3333996456692914
0
LINE
8
BLACK
6
CONTINUOUS
10
3.8728877952755907
20
-3.3333996456692914
11
3.8735453937007871
21
-3.3208481496062991
0
LINE
8
BLACK
6
CONTINUOUS
10
3.8735453937007871
20
-3.3208481496062991
11
3.8755113385826769
21
-3.3084341732283464
0
LINE
8
BLACK
6
CONTINUOUS
10
3.8755113385826769
20
-3.3084341732283464
11
3.8787641732283462
21
-3.2962937007874014
0
LINE
8
BLACK
6
CONTINUOUS
10
3.8787641732283462
20
-3.2962937007874014
11
3.8832681889763778
21
-3.2845597637795274
0
LINE
8
BLACK
6
CONTINUOUS
10
3.8832681889763778
20
-3.2845597637795274
11
3.888974094488189
21
-3.2733608661417324
0
LINE
8
BLACK
6
CONTINUOUS
10
3.888974094488189
20
-3.2733608661417324
11
3.8958193307086613
21
-3.2628198031496063
0
LINE
8
BLACK
6
CONTINUOUS
10
3.8958193307086613
20
-3.2628198031496063
11
3.9037288976377953
21
-3.2530519685039367
0
LINE
8
BLACK
6
CONTINUOUS
10
3.9037288976377953
20
-3.2530519685039367
11
3.9126161811023623
21
-3.2441644094488189
0
LINE
8
BLACK
6
CONTINUOUS
10
3.9126161811023623
20
-3.2441644094488189
11
3.9223837795275589
21
-3.2362545275590548
0
LINE
8
BLACK
6
CONTINUOUS
10
3.9223837795275589
20
-3.2362545275590548
11
3.9329246456692912
21
-3.2294089763779525
0
LINE
8
BLACK
6
CONTINUOUS
10
3.9329246456692912
20
-3.2294089763779525
11
3.9441233464566929
21
-3.2237027559055118
0
LINE
8
BLACK
6
CONTINUOUS
10
3.9441233464566929
20
-3.2237027559055118
11
3.9558571653543306
21
-3.2191983858267714
0
LINE
8
BLACK
6
CONTINUOUS
10
3.9558571653543306
20
-3.2191983858267714
11
3.9679975590551182
21
-3.2159451968503938
0
LINE
8
BLACK
6
CONTINUOUS
10
3.9679975590551182
20
-3.2159451968503938
11
3.9804114566929134
21
-3.2139788188976377
0
LINE
8
BLACK
6
CONTINUOUS
10
3.9804114566929134
20
-3.2139788188976377
11
3.9926272440944879
21
-3.2133384251968504
0
LINE
8
BLACK
6
CONTINUOUS
10
3.9926272440944879
20
-3.2133384251968504
11
3.992708188976378
21
-3.2133223622047242
0
LINE
8
BLACK
6
CONTINUOUS
10
3.992708188976378
20
-3.2133223622047242
11
3.9929344094488188
21
-3.2133223228346455
0
LINE
8
BLACK
6
CONTINUOUS
10
3.9929344094488188
20
-3.2133223228346455
11
3.9929629133858269
21
-3.2133208661417321
0
LINE
8
BLACK
6
CONTINUOUS
10
3.9929629133858269
20
-3.2133208661417321
11
3.9929629133858269
21
-3.2133222834645667
0
LINE
8
BLACK
6
CONTINUOUS
10
3.9929629133858269
20
-3.2133222834645667
11
3.9929631102362202
21
-3.2133223228346455
0
LINE
8
BLACK
6
CONTINUOUS
10
3.9929631102362202
20
-3.2133223228346455
11
5.9021045275590547
21
-3.2132899999999998
0
LINE
8
BLACK
6
CONTINUOUS
10
5.9021045275590547
20
-3.2132899999999998
11
5.9137672834645665
21
-3.2139695275590552
0
LINE
8
BLACK
6
CONTINUOUS
10
5.9137672834645665
20
-3.2139695275590552
11
5.9252720866141733
21
-3.2159993700787401
0
LINE
8
BLACK
6
CONTINUOUS
10
5.9252720866141733
20
-3.2159993700787401
11
5.9364632283464562
21
-3.2193520078740159
0
LINE
8
BLACK
6
CONTINUOUS
10
5.9364632283464562
20
-3.2193520078740159
11
5.9471890551181099
21
-3.2239820472440943
0
LINE
8
BLACK
6
CONTINUOUS
10
5.9471890551181099
20
-3.2239820472440943
11
5.9573044094488186
21
-3.2298268110236221
0
LINE
8
BLACK
6
CONTINUOUS
10
5.9573044094488186
20
-3.2298268110236221
11
5.9666722440944877
21
-3.2368071259842517
0
LINE
8
BLACK
6
CONTINUOUS
10
5.9666722440944877
20
-3.2368071259842517
11
5.9751657480314959
21
-3.2448284251968502
0
LINE
8
BLACK
6
CONTINUOUS
10
5.9751657480314959
20
-3.2448284251968502
11
5.9826698818897635
21
-3.2537821653543308
0
LINE
8
BLACK
6
CONTINUOUS
10
5.9826698818897635
20
-3.2537821653543308
11
5.9890830314960626
21
-3.2635470472440944
0
LINE
8
BLACK
6
CONTINUOUS
10
5.9890830314960626
20
-3.2635470472440944
11
5.9943183070866137
21
-3.2739908661417321
0
LINE
8
BLACK
6
CONTINUOUS
10
5.9943183070866137
20
-3.2739908661417321
11
5.998304881889764
21
-3.2849721259842517
0
LINE
8
BLACK
6
CONTINUOUS
10
5.998304881889764
20
-3.2849721259842517
11
6.0009887401574797
21
-3.2963422047244095
0
LINE
8
BLACK
6
CONTINUOUS
10
6.0009887401574797
20
-3.2963422047244095
11
6.0023329133858265
21
-3.3079421653543308
0
LINE
8
BLACK
6
CONTINUOUS
10
6.0023329133858265
20
-3.3079421653543308
11
6.0023348031496058
21
-3.3079469685039369
0
LINE
8
BLACK
6
CONTINUOUS
10
6.0023348031496058
20
-3.3079469685039369
11
6.0023341732283466
21
-3.3079492913385824
0
LINE
8
BLACK
6
CONTINUOUS
10
6.0023341732283466
20
-3.3079492913385824
11
6.0025346062992124
21
-3.3114903543307084
0
LINE
8
BLACK
6
CONTINUOUS
10
6.0025346062992124
20
-3.3114903543307084
11
6.0042655511811018
21
-3.3183740157480313
0
LINE
8
BLACK
6
CONTINUOUS
10
6.0042655511811018
20
-3.3183740157480313
11
6.0072603149606296
21
-3.324809251968504
0
LINE
8
BLACK
6
CONTINUOUS
10
6.0072603149606296
20
-3.324809251968504
11
6.0114119291338577
21
-3.3305664566929134
0
LINE
8
BLACK
6
CONTINUOUS
10
6.0114119291338577
20
-3.3305664566929134
11
6.0165722834645665
21
-3.3354400393700785
0
LINE
8
BLACK
6
CONTINUOUS
10
6.0165722834645665
20
-3.3354400393700785
11
6.0225571653543302
21
-3.339256062992126
0
LINE
8
BLACK
6
CONTINUOUS
10
6.0225571653543302
20
-3.339256062992126
11
6.0291529527559051
21
-3.3418783858267718
0
LINE
8
BLACK
6
CONTINUOUS
10
6.0291529527559051
20
-3.3418783858267718
11
6.0361242519685039
21
-3.3432133858267714
0
LINE
8
BLACK
6
CONTINUOUS
10
6.0361242519685039
20
-3.3432133858267714
11
6.0396732283464569
21
-3.3432112598425197
0
LINE
8
BLACK
6
CONTINUOUS
10
6.0396732283464569
20
-3.3432112598425197
11
6.1338582677165352
21
-3.3432112598425197
0
LINE
8
BLACK
6
CONTINUOUS
10
6.1338582677165352
20
-3.3432112598425197
11
6.1496062992125982
21
-3.3432112598425197
0
LINE
8
BLACK
6
CONTINUOUS
10
6.1496062992125982
20
-3.3432112598425197
11
6.1499114960629919
21
-3.3432112598425197
0
LINE
8
BLACK
6
CONTINUOUS
10
6.1499114960629919
20
-3.3432112598425197
11
6.1499115354330707
21
-3.3432112598425197
0
LINE
8
BLACK
6
CONTINUOUS
10
6.1499115354330707
20
-3.3432112598425197
11
6.1499115748031494
21
-3.3432112598425197
0
LINE
8
BLACK
6
CONTINUOUS
10
6.1499115748031494
20
-3.3432112598425197
11
6.1499115748031494
21
-3.3432107086614171
0
LINE
8
BLACK
6
CONTINUOUS
10
6.1499115748031494
20
-3.3432107086614171
11
6.1531837401574805
21
-3.3432108661417321
0
LINE
8
BLACK
6
CONTINUOUS
10
6.1531837401574805
20
-3.3432108661417321
11
6.1596286614173223
21
-3.3420747244094486
0
LINE
8
BLACK
6
CONTINUOUS
10
6.1596286614173223
20
-3.3420747244094486
11
6.1657783858267718
21
-3.3398366929133858
0
LINE
8
BLACK
6
CONTINUOUS
10
6.1657783858267718
20
-3.3398366929133858
11
6.171446023622047
21
-3.336564724409449
0
LINE
8
BLACK
6
CONTINUOUS
10
6.171446023622047
20
-3.336564724409449
11
6.1764593307086617
21
-3.3323582677165353
0
LINE
8
BLACK
6
CONTINUOUS
10
6.1764593307086617
20
-3.3323582677165353
11
6.1806660629921257
21
-3.327345118110236
0
LINE
8
BLACK
6
CONTINUOUS
10
6.1806660629921257
20
-3.327345118110236
11
6.1839383070866143
21
-3.3216776377952755
0
LINE
8
BLACK
6
CONTINUOUS
10
6.1839383070866143
20
-3.3216776377952755
11
6.1861766535433071
21
-3.3155280314960631
0
LINE
8
BLACK
6
CONTINUOUS
10
6.1861766535433071
20
-3.3155280314960631
11
6.1873130708661419
21
-3.3090831889763779
0
LINE
8
BLACK
6
CONTINUOUS
10
6.1873130708661419
20
-3.3090831889763779
11
6.1873130708661419
21
-3.3058110236220473
0
LINE
8
BLACK
6
CONTINUOUS
10
6.1873130708661419
20
-3.3058110236220473
11
6.1873130708661419
21
-3.2861259842519686
0
LINE
8
BLACK
6
CONTINUOUS
10
6.1873130708661419
20
-3.2861259842519686
11
6.187933307086614
21
-3.2766407874015746
0
LINE
8
BLACK
6
CONTINUOUS
10
6.187933307086614
20
-3.2766407874015746
11
6.1897835039370079
21
-3.2673171653543305
0
LINE
8
BLACK
6
CONTINUOUS
10
6.1897835039370079
20
-3.2673171653543305
11
6.1928320866141728
21
-3.2583138582677162
0
LINE
8
BLACK
6
CONTINUOUS
10
6.1928320866141728
20
-3.2583138582677162
11
6.1970272047244093
21
-3.2497842125984251
0
LINE
8
BLACK
6
CONTINUOUS
10
6.1970272047244093
20
-3.2497842125984251
11
6.2022973622047246
21
-3.2418735433070864
0
LINE
8
BLACK
6
CONTINUOUS
10
6.2022973622047246
20
-3.2418735433070864
11
6.2085528346456691
21
-3.2347165354330709
0
LINE
8
BLACK
6
CONTINUOUS
10
6.2085528346456691
20
-3.2347165354330709
11
6.2156870472440939
21
-3.2284350787401572
0
LINE
8
BLACK
6
CONTINUOUS
10
6.2156870472440939
20
-3.2284350787401572
11
6.2235785039370075
21
-3.2231361811023622
0
LINE
8
BLACK
6
CONTINUOUS
10
6.2235785039370075
20
-3.2231361811023622
11
6.23209279527559
21
-3.2189100787401572
0
LINE
8
BLACK
6
CONTINUOUS
10
6.23209279527559
20
-3.2189100787401572
11
6.2410849606299212
21
-3.2158287401574803
0
LINE
8
BLACK
6
CONTINUOUS
10
6.2410849606299212
20
-3.2158287401574803
11
6.2504018110236217
21
-3.2139446850393698
0
LINE
8
BLACK
6
CONTINUOUS
10
6.2504018110236217
20
-3.2139446850393698
11
6.2598846850393697
21
-3.2132899212598423
0
LINE
8
BLACK
6
CONTINUOUS
10
6.2598846850393697
20
-3.2132899212598423
11
6.259887519685039
21
-3.2132908267716536
0
LINE
8
BLACK
6
CONTINUOUS
10
6.259887519685039
20
-3.2132908267716536
11
6.2598921653543309
21
-3.2132899212598423
0
LINE
8
BLACK
6
CONTINUOUS
10
6.2598921653543309
20
-3.2132899212598423
11
14.1437026771653542
21
-3.2145637401574803
0
LINE
8
BLACK
6
CONTINUOUS
10
6.2549826377952753
20
-3.2172439763779526
11
6.2452546062992127
21
-3.2186755118110235
0
LINE
8
BLACK
6
CONTINUOUS
10
6.2452546062992127
20
-3.2186755118110235
11
6.2358283858267711
21
-3.2214738188976377
0
LINE
8
BLACK
6
CONTINUOUS
10
6.2358283858267711
20
-3.2214738188976377
11
6.2268949999999998
21
-3.2255821259842521
0
LINE
8
BLACK
6
CONTINUOUS
10
6.2268949999999998
20
-3.2255821259842521
11
6.2186354330708662
21
-3.2309172834645667
0
LINE
8
BLACK
6
CONTINUOUS
10
6.2186354330708662
20
-3.2309172834645667
11
6.2112170866141732
21
-3.2373711417322832
0
LINE
8
BLACK
6
CONTINUOUS
10
6.2112170866141732
20
-3.2373711417322832
11
6.2047902755905513
21
-3.2448129133858266
0
LINE
8
BLACK
6
CONTINUOUS
10
6.2047902755905513
20
-3.2448129133858266
11
6.1994851968503939
21
-3.253091811023622
0
LINE
8
BLACK
6
CONTINUOUS
10
6.1994851968503939
20
-3.253091811023622
11
6.1954094094488186
21
-3.2620400787401573
0
LINE
8
BLACK
6
CONTINUOUS
10
6.1954094094488186
20
-3.2620400787401573
11
6.1926453937007873
21
-3.2714764173228348
0
LINE
8
BLACK
6
CONTINUOUS
10
6.1926453937007873
20
-3.2714764173228348
11
6.1912492913385826
21
-3.2812095669291339
0
LINE
8
BLACK
6
CONTINUOUS
10
6.1912492913385826
20
-3.2812095669291339
11
6.1912500787401576
21
-3.2861259842519686
0
LINE
8
BLACK
6
CONTINUOUS
10
6.1912500787401576
20
-3.2861259842519686
11
6.1912500787401576
21
-3.3058110236220473
0
LINE
8
BLACK
6
CONTINUOUS
10
6.1912500787401576
20
-3.3058110236220473
11
6.1906220472440943
21
-3.3129892913385826
0
LINE
8
BLACK
6
CONTINUOUS
10
6.1906220472440943
20
-3.3129892913385826
11
6.1887570078740159
21
-3.3199494094488187
0
LINE
8
BLACK
6
CONTINUOUS
10
6.1887570078740159
20
-3.3199494094488187
11
6.1857116929133857
21
-3.3264799606299214
0
LINE
8
BLACK
6
CONTINUOUS
10
6.1857116929133857
20
-3.3264799606299214
11
6.1815785433070864
21
-3.3323824015748031
0
LINE
8
BLACK
6
CONTINUOUS
10
6.1815785433070864
20
-3.3323824015748031
11
6.1764832677165353
21
-3.3374774803149605
0
LINE
8
BLACK
6
CONTINUOUS
10
6.1764832677165353
20
-3.3374774803149605
11
6.1705805905511806
21
-3.3416103149606298
0
LINE
8
BLACK
6
CONTINUOUS
10
6.1705805905511806
20
-3.3416103149606298
11
6.1640499212598421
21
-3.3446553543307087
0
LINE
8
BLACK
6
CONTINUOUS
10
6.1640499212598421
20
-3.3446553543307087
11
6.1570896850393702
21
-3.3465200393700787
0
LINE
8
BLACK
6
CONTINUOUS
10
6.1570896850393702
20
-3.3465200393700787
11
6.1499164960629917
21
-3.3471472440944883
0
LINE
8
BLACK
6
CONTINUOUS
10
6.1499164960629917
20
-3.3471472440944883
11
6.1499114960629919
21
-3.3471482677165354
0
LINE
8
BLACK
6
CONTINUOUS
10
6.1499114960629919
20
-3.3471482677165354
11
6.1499114173228344
21
-3.3471482677165354
0
LINE
8
BLACK
6
CONTINUOUS
10
6.1499114173228344
20
-3.3471482677165354
11
6.1496062992125982
21
-3.3471482677165354
0
LINE
8
BLACK
6
CONTINUOUS
10
6.1496062992125982
20
-3.3471482677165354
11
6.1338582677165352
21
-3.3471482677165354
0
LINE
8
BLACK
6
CONTINUOUS
10
6.1338582677165352
20
-3.3471482677165354
11
6.0396732283464569
21
-3.3471482677165354
0
LINE
8
BLACK
6
CONTINUOUS
10
6.0396732283464569
20
-3.3471482677165354
11
6.032753700787401
21
-3.346565
0
LINE
8
BLACK
6
CONTINUOUS
10
6.032753700787401
20
-3.346565
11
6.0260294488188979
21
-3.3448317322834646
0
LINE
8
BLACK
6
CONTINUOUS
10
6.0260294488188979
20
-3.3448317322834646
11
6.0196901968503935
21
-3.341997283464567
0
LINE
8
BLACK
6
CONTINUOUS
10
6.0196901968503935
20
-3.341997283464567
11
6.0139148818897636
21
-3.3381417322834643
0
LINE
8
BLACK
6
CONTINUOUS
10
6.0139148818897636
20
-3.3381417322834643
11
6.0088664173228343
21
-3.3333738188976376
0
LINE
8
BLACK
6
CONTINUOUS
10
6.0088664173228343
20
-3.3333738188976376
11
6.004687283464567
21
-3.3278281102362204
0
LINE
8
BLACK
6
CONTINUOUS
10
6.004687283464567
20
-3.3278281102362204
11
6.0014954330708656
21
-3.3216611023622047
0
LINE
8
BLACK
6
CONTINUOUS
10
6.0014954330708656
20
-3.3216611023622047
11
5.9993809448818896
21
-3.3150468110236218
0
LINE
8
BLACK
6
CONTINUOUS
10
5.9993809448818896
20
-3.3150468110236218
11
5.9984034645669286
21
-3.3081718897637793
0
LINE
8
BLACK
6
CONTINUOUS
10
5.9984034645669286
20
-3.3081718897637793
11
5.998402913385827
21
-3.308171929133858
0
LINE
8
BLACK
6
CONTINUOUS
10
5.998402913385827
20
-3.308171929133858
11
5.9980816141732278
21
-3.3025594094488189
0
LINE
8
BLACK
6
CONTINUOUS
10
5.9980816141732278
20
-3.3025594094488189
11
5.9961397244094483
21
-3.2914849999999998
0
LINE
8
BLACK
6
CONTINUOUS
10
5.9961397244094483
20
-3.2914849999999998
11
5.9929244488188971
21
-3.2807111417322834
0
LINE
8
BLACK
6
CONTINUOUS
10
5.9929244488188971
20
-3.2807111417322834
11
5.9884792913385825
21
-3.2703837795275588
0
LINE
8
BLACK
6
CONTINUOUS
10
5.9884792913385825
20
-3.2703837795275588
11
5.9828644881889765
21
-3.2606427559055118
0
LINE
8
BLACK
6
CONTINUOUS
10
5.9828644881889765
20
-3.2606427559055118
11
5.9761560629921258
21
-3.2516199606299212
0
LINE
8
BLACK
6
CONTINUOUS
10
5.9761560629921258
20
-3.2516199606299212
11
5.968444842519685
21
-3.2434375984251966
0
LINE
8
BLACK
6
CONTINUOUS
10
5.968444842519685
20
-3.2434375984251966
11
5.9598352755905513
21
-3.2362064566929134
0
LINE
8
BLACK
6
CONTINUOUS
10
5.9598352755905513
20
-3.2362064566929134
11
5.9504439370078739
21
-3.2300244881889761
0
LINE
8
BLACK
6
CONTINUOUS
10
5.9504439370078739
20
-3.2300244881889761
11
5.940397992125984
21
-3.224975433070866
0
LINE
8
BLACK
6
CONTINUOUS
10
5.940397992125984
20
-3.224975433070866
11
5.9298335433070868
21
-3.2211275984251966
0
LINE
8
BLACK
6
CONTINUOUS
10
5.9298335433070868
20
-3.2211275984251966
11
5.9188935826771649
21
-3.2185331102362205
0
LINE
8
BLACK
6
CONTINUOUS
10
5.9188935826771649
20
-3.2185331102362205
11
5.9077262992125981
21
-3.2172271259842518
0
LINE
8
BLACK
6
CONTINUOUS
10
5.9077262992125981
20
-3.2172271259842518
11
5.9021046062992122
21
-3.2172270078740155
0
LINE
8
BLACK
6
CONTINUOUS
10
5.9021046062992122
20
-3.2172270078740155
11
3.9927082677165355
21
-3.21725937007874
0
LINE
8
BLACK
6
CONTINUOUS
10
3.9927082677165355
20
-3.21725937007874
11
3.992700748031496
21
-3.2172578740157478
0
LINE
8
BLACK
6
CONTINUOUS
10
3.992700748031496
20
-3.2172578740157478
11
3.9864407086614171
21
-3.2172579527559053
0
LINE
8
BLACK
6
CONTINUOUS
10
3.9864407086614171
20
-3.2172579527559053
11
3.9734781889763777
21
-3.2187186614173227
0
LINE
8
BLACK
6
CONTINUOUS
10
3.9734781889763777
20
-3.2187186614173227
11
3.9607607086614172
21
-3.2216215354330706
0
LINE
8
BLACK
6
CONTINUOUS
10
3.9607607086614172
20
-3.2216215354330706
11
3.9484482283464568
21
-3.2259300787401575
0
LINE
8
BLACK
6
CONTINUOUS
10
3.9484482283464568
20
-3.2259300787401575
11
3.9366955511811024
21
-3.2315900787401572
0
LINE
8
BLACK
6
CONTINUOUS
10
3.9366955511811024
20
-3.2315900787401572
11
3.9256505118110234
21
-3.2385303543307087
0
LINE
8
BLACK
6
CONTINUOUS
10
3.9256505118110234
20
-3.2385303543307087
11
3.9154520078740158
21
-3.2466636614173225
0
LINE
8
BLACK
6
CONTINUOUS
10
3.9154520078740158
20
-3.2466636614173225
11
3.9062282283464564
21
-3.2558876771653544
0
LINE
8
BLACK
6
CONTINUOUS
10
3.9062282283464564
20
-3.2558876771653544
11
3.8980952362204722
21
-3.2660864566929133
0
LINE
8
BLACK
6
CONTINUOUS
10
3.8980952362204722
20
-3.2660864566929133
11
3.8911552755905512
21
-3.2771317322834643
0
LINE
8
BLACK
6
CONTINUOUS
10
3.8911552755905512
20
-3.2771317322834643
11
3.8854956299212597
21
-3.2888845669291338
0
LINE
8
BLACK
6
CONTINUOUS
10
3.8854956299212597
20
-3.2888845669291338
11
3.8811874803149604
21
-3.3011971653543308
0
LINE
8
BLACK
6
CONTINUOUS
10
3.8811874803149604
20
-3.3011971653543308
11
3.878285
21
-3.3139147244094489
0
LINE
8
BLACK
6
CONTINUOUS
10
3.878285
20
-3.3139147244094489
11
3.8768246850393702
21
-3.326877283464567
0
LINE
8
BLACK
6
CONTINUOUS
10
3.8768246850393702
20
-3.326877283464567
11
3.8768247637795277
21
-3.3332672047244092
0
LINE
8
BLACK
6
CONTINUOUS
10
3.8768247637795277
20
-3.3332672047244092
11
3.8768735826771654
21
-3.3335124803149605
0
LINE
8
BLACK
6
CONTINUOUS
10
3.8768735826771654
20
-3.3335124803149605
11
3.8768204330708662
21
-6.0701916141732282
0
LINE
8
BLACK
6
CONTINUOUS
10
3.8768204330708662
20
-6.0701916141732282
11
3.8768166141732281
21
-6.0702106299212595
0
LINE
8
BLACK
6
CONTINUOUS
10
3.8768166141732281
20
-6.0702106299212595
11
3.8768489763779526
21
-6.0755164173228344
0
LINE
8
BLACK
6
CONTINUOUS
10
3.8768489763779526
20
-6.0755164173228344
11
3.8781975590551179
21
-6.0861056299212599
0
LINE
8
BLACK
6
CONTINUOUS
10
3.8781975590551179
20
-6.0861056299212599
11
3.8808076771653544
21
-6.0964563779527561
0
LINE
8
BLACK
6
CONTINUOUS
10
3.8808076771653544
20
-6.0964563779527561
11
3.8846415748031493
21
-6.1064189370078736
0
LINE
8
BLACK
6
CONTINUOUS
10
3.8846415748031493
20
-6.1064189370078736
11
3.8896437401574802
21
-6.1158491338582675
0
LINE
8
BLACK
6
CONTINUOUS
10
3.8896437401574802
20
-6.1158491338582675
11
3.8957418503937009
21
-6.1246106299212597
0
LINE
8
BLACK
6
CONTINUOUS
10
3.8957418503937009
20
-6.1246106299212597
11
3.9028477165354332
21
-6.1325766535433068
0
LINE
8
BLACK
6
CONTINUOUS
10
3.9028477165354332
20
-6.1325766535433068
11
3.9108585039370078
21
-6.1396320078740159
0
LINE
8
BLACK
6
CONTINUOUS
10
3.9108585039370078
20
-6.1396320078740159
11
3.9196583464566928
21
-6.1456746062992123
0
LINE
8
BLACK
6
CONTINUOUS
10
3.9196583464566928
20
-6.1456746062992123
11
3.9291199999999997
21
-6.1506170472440944
0
LINE
8
BLACK
6
CONTINUOUS
10
3.9291199999999997
20
-6.1506170472440944
11
3.9391065748031493
21
-6.1543878740157476
0
LINE
8
BLACK
6
CONTINUOUS
10
3.9391065748031493
20
-6.1543878740157476
11
3.9494736220472442
21
-6.1569324803149605
0
LINE
8
BLACK
6
CONTINUOUS
10
3.9494736220472442
20
-6.1569324803149605
11
3.9600711811023621
21
-6.1582141338582677
0
LINE
8
BLACK
6
CONTINUOUS
10
3.9600711811023621
20
-6.1582141338582677
11
3.9654085433070865
21
-6.1582128740157476
0
LINE
8
BLACK
6
CONTINUOUS
10
3.9654085433070865
20
-6.1582128740157476
11
3.9654088582677165
21
-6.1582129527559051
0
LINE
8
BLACK
6
CONTINUOUS
10
3.9654088582677165
20
-6.1582129527559051
11
3.9654094488188973
21
-6.1582128740157476
0
LINE
8
BLACK
6
CONTINUOUS
10
3.9654094488188973
20
-6.1582128740157476
11
6.311901377952756
21
-6.1581979527559056
0
LINE
8
BLACK
6
CONTINUOUS
10
6.311901377952756
20
-6.1581979527559056
11
6.3119014173228347
21
-6.1581979527559056
0
LINE
8
BLACK
6
CONTINUOUS
10
6.3119014173228347
20
-6.1581979527559056
11
6.3175089763779528
21
-6.1581772834645667
0
LINE
8
BLACK
6
CONTINUOUS
10
6.3175089763779528
20
-6.1581772834645667
11
6.3286435826771656
21
-6.1568353937007876
0
LINE
8
BLACK
6
CONTINUOUS
10
6.3286435826771656
20
-6.1568353937007876
11
6.3395476771653545
21
-6.154212244094488
0
LINE
8
BLACK
6
CONTINUOUS
10
6.3395476771653545
20
-6.154212244094488
11
6.3500743307086616
21
-6.150343188976378
0
LINE
8
BLACK
6
CONTINUOUS
10
6.3500743307086616
20
-6.150343188976378
11
6.3600817322834642
21
-6.1452803149606297
0
LINE
8
BLACK
6
CONTINUOUS
10
6.3600817322834642
20
-6.1452803149606297
11
6.3694350000000002
21
-6.1390919291338584
0
LINE
8
BLACK
6
CONTINUOUS
10
6.3694350000000002
20
-6.1390919291338584
11
6.3780081102362205
21
-6.1318612992125985
0
LINE
8
BLACK
6
CONTINUOUS
10
6.3780081102362205
20
-6.1318612992125985
11
6.3856856299212597
21
-6.1236859448818892
0
LINE
8
BLACK
6
CONTINUOUS
10
6.3856856299212597
20
-6.1236859448818892
11
6.392364015748031
21
-6.114675984251968
0
LINE
8
BLACK
6
CONTINUOUS
10
6.392364015748031
20
-6.114675984251968
11
6.3979533070866141
21
-6.104952834645669
0
LINE
8
BLACK
6
CONTINUOUS
10
6.3979533070866141
20
-6.104952834645669
11
6.402378228346457
21
-6.0946474803149604
0
LINE
8
BLACK
6
CONTINUOUS
10
6.402378228346457
20
-6.0946474803149604
11
6.4055790944881892
21
-6.0838987795275585
0
LINE
8
BLACK
6
CONTINUOUS
10
6.4055790944881892
20
-6.0838987795275585
11
6.4075128740157483
21
-6.0728515748031491
0
LINE
8
BLACK
6
CONTINUOUS
10
6.4075128740157483
20
-6.0728515748031491
11
6.4078325590551177
21
-6.0672531102362202
0
LINE
8
BLACK
6
CONTINUOUS
10
6.4078325590551177
20
-6.0672531102362202
11
6.4078325984251965
21
-6.0672531102362202
0
LINE
8
BLACK
6
CONTINUOUS
10
6.4078325984251965
20
-6.0672531102362202
11
6.4078325984251965
21
-6.0672529921259839
0
LINE
8
BLACK
6
CONTINUOUS
10
6.4078325984251965
20
-6.0672529921259839
11
6.4078325984251965
21
-6.0672529133858264
0
LINE
8
BLACK
6
CONTINUOUS
10
6.4078325984251965
20
-6.0672529133858264
11
6.4088107480314962
21
-6.0603778740157477
0
LINE
8
BLACK
6
CONTINUOUS
10
6.4088107480314962
20
-6.0603778740157477
11
6.4109258661417323
21
-6.0537635039370077
0
LINE
8
BLACK
6
CONTINUOUS
10
6.4109258661417323
20
-6.0537635039370077
11
6.4141182677165354
21
-6.047596496062992
0
LINE
8
BLACK
6
CONTINUOUS
10
6.4141182677165354
20
-6.047596496062992
11
6.4182978740157477
21
-6.0420508267716535
0
LINE
8
BLACK
6
CONTINUOUS
10
6.4182978740157477
20
-6.0420508267716535
11
6.4233467716535433
21
-6.0372829921259843
0
LINE
8
BLACK
6
CONTINUOUS
10
6.4233467716535433
20
-6.0372829921259843
11
6.4291224409448819
21
-6.0334275196850395
0
LINE
8
BLACK
6
CONTINUOUS
10
6.4291224409448819
20
-6.0334275196850395
11
6.4354620078740155
21
-6.0305931889763782
0
LINE
8
BLACK
6
CONTINUOUS
10
6.4354620078740155
20
-6.0305931889763782
11
6.4421865354330707
21
-6.0288599212598424
0
LINE
8
BLACK
6
CONTINUOUS
10
6.4421865354330707
20
-6.0288599212598424
11
6.4491062992125983
21
-6.0282766929133853
0
LINE
8
BLACK
6
CONTINUOUS
10
6.4491062992125983
20
-6.0282766929133853
11
6.531775590551181
21
-6.0282766929133853
0
LINE
8
BLACK
6
CONTINUOUS
10
6.531775590551181
20
-6.0282766929133853
11
6.538695590551181
21
-6.0288599212598424
0
LINE
8
BLACK
6
CONTINUOUS
10
6.538695590551181
20
-6.0288599212598424
11
6.5454203543307088
21
-6.0305931102362207
0
LINE
8
BLACK
6
CONTINUOUS
10
6.5454203543307088
20
-6.0305931102362207
11
6.5517601968503936
21
-6.0334273622047245
0
LINE
8
BLACK
6
CONTINUOUS
10
6.5517601968503936
20
-6.0334273622047245
11
6.557536220472441
21
-6.0372827559055118
0
LINE
8
BLACK
6
CONTINUOUS
10
6.557536220472441
20
-6.0372827559055118
11
6.5625854724409445
21
-6.0420505118110235
0
LINE
8
BLACK
6
CONTINUOUS
10
6.5625854724409445
20
-6.0420505118110235
11
6.5667655118110231
21
-6.0475961023622045
0
LINE
8
BLACK
6
CONTINUOUS
10
6.5667655118110231
20
-6.0475961023622045
11
6.5699584645669287
21
-6.0537630708661414
0
LINE
8
BLACK
6
CONTINUOUS
10
6.5699584645669287
20
-6.0537630708661414
11
6.5720741732283461
21
-6.0603774803149602
0
LINE
8
BLACK
6
CONTINUOUS
10
6.5720741732283461
20
-6.0603774803149602
11
6.5730529921259837
21
-6.0672526771653539
0
LINE
8
BLACK
6
CONTINUOUS
10
6.5730529921259837
20
-6.0672526771653539
11
6.573051811023622
21
-6.0672527559055114
0
LINE
8
BLACK
6
CONTINUOUS
10
6.573051811023622
20
-6.0672527559055114
11
6.5730517322834645
21
-6.0672529527559051
0
LINE
8
BLACK
6
CONTINUOUS
10
6.5730517322834645
20
-6.0672529527559051
11
6.573051811023622
21
-6.0672531102362202
0
LINE
8
BLACK
6
CONTINUOUS
10
6.573051811023622
20
-6.0672531102362202
11
6.5730539763779525
21
-6.0672529921259839
0
LINE
8
BLACK
6
CONTINUOUS
10
6.5730539763779525
20
-6.0672529921259839
11
6.5733752755905508
21
-6.0728654330708656
0
LINE
8
BLACK
6
CONTINUOUS
10
6.5733752755905508
20
-6.0728654330708656
11
6.5753170866141728
21
-6.0839397244094489
0
LINE
8
BLACK
6
CONTINUOUS
10
6.5753170866141728
20
-6.0839397244094489
11
6.5785322834645665
21
-6.0947134645669294
0
LINE
8
BLACK
6
CONTINUOUS
10
6.5785322834645665
20
-6.0947134645669294
11
6.5829773228346458
21
-6.1050407480314961
0
LINE
8
BLACK
6
CONTINUOUS
10
6.5829773228346458
20
-6.1050407480314961
11
6.5885919685039367
21
-6.114781692913386
0
LINE
8
BLACK
6
CONTINUOUS
10
6.5885919685039367
20
-6.114781692913386
11
6.5953002755905512
21
-6.1238044094488187
0
LINE
8
BLACK
6
CONTINUOUS
10
6.5953002755905512
20
-6.1238044094488187
11
6.6030112992125982
21
-6.1319867716535432
0
LINE
8
BLACK
6
CONTINUOUS
10
6.6030112992125982
20
-6.1319867716535432
11
6.6116207086614169
21
-6.1392178740157481
0
LINE
8
BLACK
6
CONTINUOUS
10
6.6116207086614169
20
-6.1392178740157481
11
6.6210118503937005
21
-6.1453998818897633
0
LINE
8
BLACK
6
CONTINUOUS
10
6.6210118503937005
20
-6.1453998818897633
11
6.631057559055118
21
-6.1504490551181101
0
LINE
8
BLACK
6
CONTINUOUS
10
6.631057559055118
20
-6.1504490551181101
11
6.641621850393701
21
-6.154296968503937
0
LINE
8
BLACK
6
CONTINUOUS
10
6.641621850393701
20
-6.154296968503937
11
6.652561653543307
21
-6.1568915748031499
0
LINE
8
BLACK
6
CONTINUOUS
10
6.652561653543307
20
-6.1568915748031499
11
6.6637287795275588
21
-6.1581977165354331
0
LINE
8
BLACK
6
CONTINUOUS
10
6.6637287795275588
20
-6.1581977165354331
11
6.6693503937007872
21
-6.1581979527559056
0
LINE
8
BLACK
6
CONTINUOUS
10
6.6693503937007872
20
-6.1581979527559056
11
12.9920596062992129
21
-6.1581979527559056
0
LINE
8
BLACK
6
CONTINUOUS
10
12.9920596062992129
20
-6.1581979527559056
11
13.0007535039370072
21
-6.1588198425196845
0
LINE
8
BLACK
6
CONTINUOUS
10
13.0007535039370072
20
-6.1588198425196845
11
13.0092703937007865
21
-6.1606726377952752
0
LINE
8
BLACK
6
CONTINUOUS
10
13.0092703937007865
20
-6.1606726377952752
11
13.0174368897637791
21
-6.1637186614173229
0
LINE
8
BLACK
6
CONTINUOUS
10
13.0174368897637791
20
-6.1637186614173229
11
13.0250868110236215
21
-6.1678958661417322
0
LINE
8
BLACK
6
CONTINUOUS
10
13.0250868110236215
20
-6.1678958661417322
11
13.0320643700787393
21
-6.1731192913385824
0
LINE
8
BLACK
6
CONTINUOUS
10
13.0320643700787393
20
-6.1731192913385824
11
13.0382275590551178
21
-6.1792825196850396
0
LINE
8
BLACK
6
CONTINUOUS
10
13.0382275590551178
20
-6.1792825196850396
11
13.0434508661417325
21
-6.1862601181102361
0
LINE
8
BLACK
6
CONTINUOUS
10
13.0434508661417325
20
-6.1862601181102361
11
13.0476280314960622
21
-6.1939100787401573
0
LINE
8
BLACK
6
CONTINUOUS
10
13.0476280314960622
20
-6.1939100787401573
11
13.0506739763779525
21
-6.2020766141732286
0
LINE
8
BLACK
6
CONTINUOUS
10
13.0506739763779525
20
-6.2020766141732286
11
13.0525266929133856
21
-6.2105935039370079
0
LINE
8
BLACK
6
CONTINUOUS
10
13.0525266929133856
20
-6.2105935039370079
11
13.0531481889763779
21
-6.2192829921259838
0
LINE
8
BLACK
6
CONTINUOUS
10
13.0531481889763779
20
-6.2192829921259838
11
13.0531490551181104
21
-6.2192873622047244
0
LINE
8
BLACK
6
CONTINUOUS
10
13.0531490551181104
20
-6.2192873622047244
11
13.0531501574803155
21
-6.2962774015748026
0
LINE
8
BLACK
6
CONTINUOUS
10
13.0531501574803155
20
-6.2962774015748026
11
13.0531495669291342
21
-6.2962801574803144
0
LINE
8
BLACK
6
CONTINUOUS
10
13.0531495669291342
20
-6.2962801574803144
11
13.0531658661417325
21
-6.3007564566929135
0
LINE
8
BLACK
6
CONTINUOUS
10
13.0531658661417325
20
-6.3007564566929135
11
13.0546001181102351
21
-6.3096142913385824
0
LINE
8
BLACK
6
CONTINUOUS
10
13.0546001181102351
20
-6.3096142913385824
11
13.0573991338582669
21
-6.3181397244094484
0
LINE
8
BLACK
6
CONTINUOUS
10
13.0573991338582669
20
-6.3181397244094484
11
13.0614942913385832
21
-6.3261239370078739
0
LINE
8
BLACK
6
CONTINUOUS
10
13.0614942913385832
20
-6.3261239370078739
11
13.0667852755905507
21
-6.3333712598425196
0
LINE
8
BLACK
6
CONTINUOUS
10
13.0667852755905507
20
-6.3333712598425196
11
13.0731424409448813
21
-6.3397040551181103
0
LINE
8
BLACK
6
CONTINUOUS
10
13.0731424409448813
20
-6.3397040551181103
11
13.0804099606299218
21
-6.3449672047244094
0
LINE
8
BLACK
6
CONTINUOUS
10
13.0804099606299218
20
-6.3449672047244094
11
13.0884098425196846
21
-6.3490316929133854
0
LINE
8
BLACK
6
CONTINUOUS
10
13.0884098425196846
20
-6.3490316929133854
11
13.0969459842519687
21
-6.3517979527559056
0
LINE
8
BLACK
6
CONTINUOUS
10
13.0969459842519687
20
-6.3517979527559056
11
13.1058092125984249
21
-6.3531981889763776
0
LINE
8
BLACK
6
CONTINUOUS
10
13.1058092125984249
20
-6.3531981889763776
11
13.1102958267716527
21
-6.3531973228346459
0
LINE
8
BLACK
6
CONTINUOUS
10
13.1102958267716527
20
-6.3531973228346459
11
14.3505238188976367
21
-6.3531973228346459
0
LINE
8
BLACK
6
CONTINUOUS
10
14.3505238188976367
20
-6.3531973228346459
11
14.3510060629921252
21
-6.3532932283464563
0
LINE
8
BLACK
6
CONTINUOUS
10
14.3510060629921252
20
-6.3532932283464563
11
14.3561522834645672
21
-6.3533441732283462
0
LINE
8
BLACK
6
CONTINUOUS
10
14.3561522834645672
20
-6.3533441732283462
11
14.3673096850393698
21
-6.3521534251968506
0
LINE
8
BLACK
6
CONTINUOUS
10
14.3673096850393698
20
-6.3521534251968506
11
14.378254094488188
21
-6.3496784645669289
0
LINE
8
BLACK
6
CONTINUOUS
10
14.378254094488188
20
-6.3496784645669289
11
14.3888382283464562
21
-6.3459526377952757
0
LINE
8
BLACK
6
CONTINUOUS
10
14.3888382283464562
20
-6.3459526377952757
11
14.3989196456692916
21
-6.3410260236220468
0
LINE
8
BLACK
6
CONTINUOUS
10
14.3989196456692916
20
-6.3410260236220468
11
14.408362598425196
21
-6.3349649999999995
0
LINE
8
BLACK
6
CONTINUOUS
10
14.408362598425196
20
-6.3349649999999995
11
14.4170400393700788
21
-6.3278511023622048
0
LINE
8
BLACK
6
CONTINUOUS
10
14.4170400393700788
20
-6.3278511023622048
11
14.4248351968503936
21
-6.3197800787401572
0
LINE
8
BLACK
6
CONTINUOUS
10
14.4248351968503936
20
-6.3197800787401572
11
14.4316431102362195
21
-6.3108605511811025
0
LINE
8
BLACK
6
CONTINUOUS
10
14.4316431102362195
20
-6.3108605511811025
11
14.4373722047244097
21
-6.3012125590551182
0
LINE
8
BLACK
6
CONTINUOUS
10
14.4373722047244097
20
-6.3012125590551182
11
14.4419453543307075
21
-6.2909659842519687
0
LINE
8
BLACK
6
CONTINUOUS
10
14.4419453543307075
20
-6.2909659842519687
11
14.4453009842519684
21
-6.2802587401574801
0
LINE
8
BLACK
6
CONTINUOUS
10
14.4453009842519684
20
-6.2802587401574801
11
14.4473939370078739
21
-6.2692348818897639
0
LINE
8
BLACK
6
CONTINUOUS
10
14.4473939370078739
20
-6.2692348818897639
11
14.447794251968503
21
-6.263638818897638
0
LINE
8
BLACK
6
CONTINUOUS
10
14.447794251968503
20
-6.263638818897638
11
14.4477942913385817
21
-6.263638818897638
0
LINE
8
BLACK
6
CONTINUOUS
10
14.4477942913385817
20
-6.263638818897638
11
14.4478038976377956
21
-6.263615118110236
0
LINE
8
BLACK
6
CONTINUOUS
10
14.4478038976377956
20
-6.263615118110236
11
14.4484293307086613
21
-6.2566162204724405
0
LINE
8
BLACK
6
CONTINUOUS
10
14.4484293307086613
20
-6.2566162204724405
11
14.4503294488188967
21
-6.2496799212598422
0
LINE
8
BLACK
6
CONTINUOUS
10
14.4503294488188967
20
-6.2496799212598422
11
14.4534293700787391
21
-6.2431904724409444
0
LINE
8
BLACK
6
CONTINUOUS
10
14.4534293700787391
20
-6.2431904724409444
11
14.457630787401575
21
-6.2373534645669286
0
LINE
8
BLACK
6
CONTINUOUS
10
14.457630787401575
20
-6.2373534645669286
11
14.4628005905511809
21
-6.232353897637795
0
LINE
8
BLACK
6
CONTINUOUS
10
14.4628005905511809
20
-6.232353897637795
11
14.4687749606299203
21
-6.2283501968503936
0
LINE
8
BLACK
6
CONTINUOUS
10
14.4687749606299203
20
-6.2283501968503936
11
14.4753645669291338
21
-6.225469291338583
0
LINE
8
BLACK
6
CONTINUOUS
10
14.4753645669291338
20
-6.225469291338583
11
14.4823605905511812
21
-6.2238024015748028
0
LINE
8
BLACK
6
CONTINUOUS
10
14.4823605905511812
20
-6.2238024015748028
11
14.4887031102362194
21
-6.2234490551181105
0
LINE
8
BLACK
6
CONTINUOUS
10
14.4887031102362194
20
-6.2234490551181105
11
14.4887262992125976
21
-6.2234259055118111
0
LINE
8
BLACK
6
CONTINUOUS
10
14.4887262992125976
20
-6.2234259055118111
11
14.4894796062992128
21
-6.2232760629921255
0
LINE
8
BLACK
6
CONTINUOUS
10
14.4894796062992128
20
-6.2232760629921255
11
14.5717401574803151
21
-6.2232760629921255
0
LINE
8
BLACK
6
CONTINUOUS
10
14.5717401574803151
20
-6.2232760629921255
11
14.5786597637795268
21
-6.2238593307086614
0
LINE
8
BLACK
6
CONTINUOUS
10
14.5786597637795268
20
-6.2238593307086614
11
14.5853840944881892
21
-6.2255925984251963
0
LINE
8
BLACK
6
CONTINUOUS
10
14.5853840944881892
20
-6.2255925984251963
11
14.5917233858267714
21
-6.2284270472440939
0
LINE
8
BLACK
6
CONTINUOUS
10
14.5917233858267714
20
-6.2284270472440939
11
14.5974988188976376
21
-6.2322825984251971
0
LINE
8
BLACK
6
CONTINUOUS
10
14.5974988188976376
20
-6.2322825984251971
11
14.6025473622047244
21
-6.2370505118110238
0
LINE
8
BLACK
6
CONTINUOUS
10
14.6025473622047244
20
-6.2370505118110238
11
14.6067265748031492
21
-6.2425962598425198
0
LINE
8
BLACK
6
CONTINUOUS
10
14.6067265748031492
20
-6.2425962598425198
11
14.6099185433070868
21
-6.2487633070866142
0
LINE
8
BLACK
6
CONTINUOUS
10
14.6099185433070868
20
-6.2487633070866142
11
14.6120331496062992
21
-6.2553776377952754
0
LINE
8
BLACK
6
CONTINUOUS
10
14.6120331496062992
20
-6.2553776377952754
11
14.6130093307086604
21
-6.262242755905512
0
LINE
8
BLACK
6
CONTINUOUS
10
14.6130093307086604
20
-6.262242755905512
11
14.6130131102362206
21
-6.2622524409448816
0
LINE
8
BLACK
6
CONTINUOUS
10
14.6130131102362206
20
-6.2622524409448816
11
14.6130114960629918
21
-6.2622525196850392
0
LINE
8
BLACK
6
CONTINUOUS
10
14.6130114960629918
20
-6.2622525196850392
11
14.6130114960629918
21
-6.2622525590551179
0
LINE
8
BLACK
6
CONTINUOUS
10
14.6130114960629918
20
-6.2622525590551179
11
14.6130131102362206
21
-6.2622524803149604
0
LINE
8
BLACK
6
CONTINUOUS
10
14.6130131102362206
20
-6.2622524803149604
11
14.613011771653543
21
-6.262257519685039
0
LINE
8
BLACK
6
CONTINUOUS
10
14.613011771653543
20
-6.262257519685039
11
14.6133329921259847
21
-6.2678649999999996
0
LINE
8
BLACK
6
CONTINUOUS
10
14.6133329921259847
20
-6.2678649999999996
11
14.6152751574803155
21
-6.2789393700787404
0
LINE
8
BLACK
6
CONTINUOUS
10
14.6152751574803155
20
-6.2789393700787404
11
14.6184907086614171
21
-6.2897131496062988
0
LINE
8
BLACK
6
CONTINUOUS
10
14.6184907086614171
20
-6.2897131496062988
11
14.6229360629921263
21
-6.3000404330708664
0
LINE
8
BLACK
6
CONTINUOUS
10
14.6229360629921263
20
-6.3000404330708664
11
14.6285510236220464
21
-6.3097813779527554
0
LINE
8
BLACK
6
CONTINUOUS
10
14.6285510236220464
20
-6.3097813779527554
11
14.6352595669291343
21
-6.3188040551181102
0
LINE
8
BLACK
6
CONTINUOUS
10
14.6352595669291343
20
-6.3188040551181102
11
14.6429708661417326
21
-6.3269863385826772
0
LINE
8
BLACK
6
CONTINUOUS
10
14.6429708661417326
20
-6.3269863385826772
11
14.6515804724409442
21
-6.3342174409448821
0
LINE
8
BLACK
6
CONTINUOUS
10
14.6515804724409442
20
-6.3342174409448821
11
14.6609718110236216
21
-6.3403993700787398
0
LINE
8
BLACK
6
CONTINUOUS
10
14.6609718110236216
20
-6.3403993700787398
11
14.6710177165354327
21
-6.3454485039370079
0
LINE
8
BLACK
6
CONTINUOUS
10
14.6710177165354327
20
-6.3454485039370079
11
14.6815821653543299
21
-6.349296377952756
0
LINE
8
BLACK
6
CONTINUOUS
10
14.6815821653543299
20
-6.349296377952756
11
14.6925220866141721
21
-6.351890984251968
0
LINE
8
BLACK
6
CONTINUOUS
10
14.6925220866141721
20
-6.351890984251968
11
14.7036893307086611
21
-6.3531970866141734
0
LINE
8
BLACK
6
CONTINUOUS
10
14.7036893307086611
20
-6.3531970866141734
11
14.7093110236220461
21
-6.3531973228346459
0
LINE
8
BLACK
6
CONTINUOUS
10
14.7093110236220461
20
-6.3531973228346459
11
15.2007874015748037
21
-6.3531973228346459
0
LINE
8
BLACK
6
CONTINUOUS
10
15.2007874015748037
20
-6.3531973228346459
11
15.2007874015748037
21
-6.3531968503937009
0
LINE
8
BLACK
6
CONTINUOUS
10
15.2007874015748037
20
-6.3531968503937009
11
15.2052801968503939
21
-6.3531968503937009
0
LINE
8
BLACK
6
CONTINUOUS
10
15.2052801968503939
20
-6.3531968503937009
11
15.2141551574803149
21
-6.3517912204724407
0
LINE
8
BLACK
6
CONTINUOUS
10
15.2141551574803149
20
-6.3517912204724407
11
15.2227009448818897
21
-6.3490145275590546
0
LINE
8
BLACK
6
CONTINUOUS
10
15.2227009448818897
20
-6.3490145275590546
11
15.23070716535433
21
-6.3449351968503933
0
LINE
8
BLACK
6
CONTINUOUS
10
15.23070716535433
20
-6.3449351968503933
11
15.2379766929133851
21
-6.3396536220472441
0
LINE
8
BLACK
6
CONTINUOUS
10
15.2379766929133851
20
-6.3396536220472441
11
15.2443304724409447
21
-6.3332998818897632
0
LINE
8
BLACK
6
CONTINUOUS
10
15.2443304724409447
20
-6.3332998818897632
11
15.2496121259842514
21
-6.3260303937007869
0
LINE
8
BLACK
6
CONTINUOUS
10
15.2496121259842514
20
-6.3260303937007869
11
15.2536915354330702
21
-6.3180242125984254
0
LINE
8
BLACK
6
CONTINUOUS
10
15.2536915354330702
20
-6.3180242125984254
11
15.2564682677165351
21
-6.3094784251968505
0
LINE
8
BLACK
6
CONTINUOUS
10
15.2564682677165351
20
-6.3094784251968505
11
15.2578739763779527
21
-6.3006035039370074
0
LINE
8
BLACK
6
CONTINUOUS
10
15.2578739763779527
20
-6.3006035039370074
11
15.2578740157480315
21
-6.2961107086614172
0
LINE
8
BLACK
6
CONTINUOUS
10
15.2578740157480315
20
-6.2961107086614172
11
15.2578740157480315
21
-6.2195098425196846
0
LINE
8
BLACK
6
CONTINUOUS
10
15.2578740157480315
20
-6.2195098425196846
11
15.2578740157480315
21
-6.2195097637795271
0
LINE
8
BLACK
6
CONTINUOUS
10
15.2578740157480315
20
-6.2195097637795271
11
15.2584953149606299
21
-6.2108258661417324
0
LINE
8
BLACK
6
CONTINUOUS
10
15.2584953149606299
20
-6.2108258661417324
11
15.2603459448818892
21
-6.2023187007874014
0
LINE
8
BLACK
6
CONTINUOUS
10
15.2603459448818892
20
-6.2023187007874014
11
15.263388307086613
21
-6.1941614566929131
0
LINE
8
BLACK
6
CONTINUOUS
10
15.263388307086613
20
-6.1941614566929131
11
15.2675604330708659
21
-6.1865201181102361
0
LINE
8
BLACK
6
CONTINUOUS
10
15.2675604330708659
20
-6.1865201181102361
11
15.272777440944882
21
-6.1795502362204724
0
LINE
8
BLACK
6
CONTINUOUS
10
15.272777440944882
20
-6.1795502362204724
11
15.2789331496062992
21
-6.1733936220472438
0
LINE
8
BLACK
6
CONTINUOUS
10
15.2789331496062992
20
-6.1733936220472438
11
15.2859022834645657
21
-6.1681755511811023
0
LINE
8
BLACK
6
CONTINUOUS
10
15.2859022834645657
20
-6.1681755511811023
11
15.2935429921259836
21
-6.1640023228346452
0
LINE
8
BLACK
6
CONTINUOUS
10
15.2935429921259836
20
-6.1640023228346452
11
15.3016998031496065
21
-6.1609587401574801
0
LINE
8
BLACK
6
CONTINUOUS
10
15.3016998031496065
20
-6.1609587401574801
11
15.3102066535433075
21
-6.159106811023622
0
LINE
8
BLACK
6
CONTINUOUS
10
15.3102066535433075
20
-6.159106811023622
11
15.3188905118110235
21
-6.1584842519685035
0
LINE
8
BLACK
6
CONTINUOUS
10
15.3188905118110235
20
-6.1584842519685035
11
15.3188905118110235
21
-6.1584862204724411
0
LINE
8
BLACK
6
CONTINUOUS
10
15.3188905118110235
20
-6.1584862204724411
11
15.3188906299212597
21
-6.1584862598425198
0
LINE
8
BLACK
6
CONTINUOUS
10
15.3188906299212597
20
-6.1584862598425198
11
15.318890905511811
21
-6.1584862204724411
0
LINE
8
BLACK
6
CONTINUOUS
10
15.318890905511811
20
-6.1584862204724411
11
18.3889289370078721
21
-6.1585255511811026
0
LINE
8
BLACK
6
CONTINUOUS
10
18.3889289370078721
20
-6.1585255511811026
11
18.3889415748031482
21
-6.1585280314960631
0
LINE
8
BLACK
6
CONTINUOUS
10
18.3889415748031482
20
-6.1585280314960631
11
18.3934216535433066
21
-6.1585277952755906
0
LINE
8
BLACK
6
CONTINUOUS
10
18.3934216535433066
20
-6.1585277952755906
11
18.4022967322834639
21
-6.1571216535433066
0
LINE
8
BLACK
6
CONTINUOUS
10
18.4022967322834639
20
-6.1571216535433066
11
18.410842598425198
21
-6.1543445275590551
0
LINE
8
BLACK
6
CONTINUOUS
10
18.410842598425198
20
-6.1543445275590551
11
18.4188488582677152
21
-6.1502648031496063
0
LINE
8
BLACK
6
CONTINUOUS
10
18.4188488582677152
20
-6.1502648031496063
11
18.4261183858267721
21
-6.1449829133858263
0
LINE
8
BLACK
6
CONTINUOUS
10
18.4261183858267721
20
-6.1449829133858263
11
18.4324722047244087
21
-6.138628897637795
0
LINE
8
BLACK
6
CONTINUOUS
10
18.4324722047244087
20
-6.138628897637795
11
18.4377538582677154
21
-6.1313592125984249
0
LINE
8
BLACK
6
CONTINUOUS
10
18.4377538582677154
20
-6.1313592125984249
11
18.4418333464566935
21
-6.1233528346456696
0
LINE
8
BLACK
6
CONTINUOUS
10
18.4418333464566935
20
-6.1233528346456696
11
18.4446102362204734
21
-6.1148068897637797
0
LINE
8
BLACK
6
CONTINUOUS
10
18.4446102362204734
20
-6.1148068897637797
11
18.446016141732283
21
-6.1059317716535428
0
LINE
8
BLACK
6
CONTINUOUS
10
18.446016141732283
20
-6.1059317716535428
11
18.4460162598425192
21
-6.1014388582677164
0
LINE
8
BLACK
6
CONTINUOUS
10
18.4460162598425192
20
-6.1014388582677164
11
18.4460162598425192
21
-6.1014388188976376
0
LINE
8
BLACK
6
CONTINUOUS
10
18.4460162598425192
20
-6.1014388188976376
11
18.446016929133858
21
-3.2743578346456692
0
LINE
8
BLACK
6
CONTINUOUS
10
18.446016929133858
20
-3.2743578346456692
11
18.4460161811023617
21
-3.2743578346456692
0
LINE
8
BLACK
6
CONTINUOUS
10
18.4460161811023617
20
-3.2743578346456692
11
18.446016141732283
21
-3.2698646062992127
0
LINE
8
BLACK
6
CONTINUOUS
10
18.446016141732283
20
-3.2698646062992127
11
18.4446101574803158
21
-3.2609888582677167
0
LINE
8
BLACK
6
CONTINUOUS
10
18.4446101574803158
20
-3.2609888582677167
11
18.4418329133858272
21
-3.2524423228346455
0
LINE
8
BLACK
6
CONTINUOUS
10
18.4418329133858272
20
-3.2524423228346455
11
18.4377527559055103
21
-3.2444355118110235
0
LINE
8
BLACK
6
CONTINUOUS
10
18.4377527559055103
20
-3.2444355118110235
11
18.4324702362204711
21
-3.2371656299212597
0
LINE
8
BLACK
6
CONTINUOUS
10
18.4324702362204711
20
-3.2371656299212597
11
18.4261153937007869
21
-3.2308117322834646
0
LINE
8
BLACK
6
CONTINUOUS
10
18.4261153937007869
20
-3.2308117322834646
11
18.4188447244094498
21
-3.2255302362204725
0
LINE
8
BLACK
6
CONTINUOUS
10
18.4188447244094498
20
-3.2255302362204725
11
18.4108373228346451
21
-3.2214512992125983
0
LINE
8
BLACK
6
CONTINUOUS
10
18.4108373228346451
20
-3.2214512992125983
11
18.4022903937007882
21
-3.218675275590551
0
LINE
8
BLACK
6
CONTINUOUS
10
18.4022903937007882
20
-3.218675275590551
11
18.3934144094488197
21
-3.2172706299212597
0
LINE
8
BLACK
6
CONTINUOUS
10
18.3934144094488197
20
-3.2172706299212597
11
18.3889212204724402
21
-3.2172711811023622
0
LINE
8
BLACK
6
CONTINUOUS
10
18.3889212204724402
20
-3.2172711811023622
11
18.3889212204724402
21
-3.217271220472441
0
LINE
8
BLACK
6
CONTINUOUS
10
18.3889212204724402
20
-3.217271220472441
11
15.6416555118110239
21
-3.217708779527559
0
LINE
8
BLACK
6
CONTINUOUS
10
15.6416555118110239
20
-3.217708779527559
11
15.6416554330708664
21
-3.2177087401574802
0
LINE
8
BLACK
6
CONTINUOUS
10
15.6416554330708664
20
-3.2177087401574802
11
15.6416554330708664
21
-3.217708779527559
0
LINE
8
BLACK
6
CONTINUOUS
10
15.6416554330708664
20
-3.217708779527559
11
15.6416554330708664
21
-3.2177112598425195
0
LINE
8
BLACK
6
CONTINUOUS
10
15.6416554330708664
20
-3.2177112598425195
11
15.6366241338582679
21
-3.2177118897637795
0
LINE
8
BLACK
6
CONTINUOUS
10
15.6366241338582679
20
-3.2177118897637795
11
15.6266477952755896
21
-3.219026496062992
0
LINE
8
BLACK
6
CONTINUOUS
10
15.6266477952755896
20
-3.219026496062992
11
15.6169283464566924
21
-3.2216319291338582
0
LINE
8
BLACK
6
CONTINUOUS
10
15.6169283464566924
20
-3.2216319291338582
11
15.6076320866141725
21
-3.225483622047244
0
LINE
8
BLACK
6
CONTINUOUS
10
15.6076320866141725
20
-3.225483622047244
11
15.598918031496062
21
-3.2305156692913384
0
LINE
8
BLACK
6
CONTINUOUS
10
15.598918031496062
20
-3.2305156692913384
11
15.59093531496063
21
-3.2366420078740155
0
LINE
8
BLACK
6
CONTINUOUS
10
15.59093531496063
20
-3.2366420078740155
11
15.5838204330708656
21
-3.243757834645669
0
LINE
8
BLACK
6
CONTINUOUS
10
15.5838204330708656
20
-3.243757834645669
11
15.5776951574803153
21
-3.251741338582677
0
LINE
8
BLACK
6
CONTINUOUS
10
15.5776951574803153
20
-3.251741338582677
11
15.5726642125984256
21
-3.2604560629921258
0
LINE
8
BLACK
6
CONTINUOUS
10
15.5726642125984256
20
-3.2604560629921258
11
15.5688137401574807
21
-3.2697527952755903
0
LINE
8
BLACK
6
CONTINUOUS
10
15.5688137401574807
20
-3.2697527952755903
11
15.5662095669291336
21
-3.2794725984251967
0
LINE
8
BLACK
6
CONTINUOUS
10
15.5662095669291336
20
-3.2794725984251967
11
15.56489625984252
21
-3.2894491338582674
0
LINE
8
BLACK
6
CONTINUOUS
10
15.56489625984252
20
-3.2894491338582674
11
15.5648962992125988
21
-3.2944804330708659
0
LINE
8
BLACK
6
CONTINUOUS
10
15.5648962992125988
20
-3.2944804330708659
11
15.5648962992125988
21
-3.3035941732283463
0
LINE
8
BLACK
6
CONTINUOUS
10
15.5648962992125988
20
-3.3035941732283463
11
15.56488779527559
21
-3.3036367322834645
0
LINE
8
BLACK
6
CONTINUOUS
10
15.56488779527559
20
-3.3036367322834645
11
15.5646416535433065
21
-3.3109671259842517
0
LINE
8
BLACK
6
CONTINUOUS
10
15.5646416535433065
20
-3.3109671259842517
11
15.5630437401574806
21
-3.3182842913385824
0
LINE
8
BLACK
6
CONTINUOUS
10
15.5630437401574806
20
-3.3182842913385824
11
15.5601518503936997
21
-3.3251930314960627
0
LINE
8
BLACK
6
CONTINUOUS
10
15.5601518503936997
20
-3.3251930314960627
11
15.5560608267716525
21
-3.3314665748031493
0
LINE
8
BLACK
6
CONTINUOUS
10
15.5560608267716525
20
-3.3314665748031493
11
15.550905039370079
21
-3.3368990551181104
0
LINE
8
BLACK
6
CONTINUOUS
10
15.550905039370079
20
-3.3368990551181104
11
15.5448536614173225
21
-3.3413120472440943
0
LINE
8
BLACK
6
CONTINUOUS
10
15.5448536614173225
20
-3.3413120472440943
11
15.5381053149606299
21
-3.3445607874015746
0
LINE
8
BLACK
6
CONTINUOUS
10
15.5381053149606299
20
-3.3445607874015746
11
15.5308816141732287
21
-3.3465385433070867
0
LINE
8
BLACK
6
CONTINUOUS
10
15.5308816141732287
20
-3.3465385433070867
11
15.5234372440944881
21
-3.3471789370078739
0
LINE
8
BLACK
6
CONTINUOUS
10
15.5234372440944881
20
-3.3471789370078739
11
15.5234292125984243
21
-3.3471805511811024
0
LINE
8
BLACK
6
CONTINUOUS
10
15.5234292125984243
20
-3.3471805511811024
11
15.4133818897637784
21
-3.3471805511811024
0
LINE
8
BLACK
6
CONTINUOUS
10
15.4133818897637784
20
-3.3471805511811024
11
15.4133817322834634
21
-3.3471805118110236
0
LINE
8
BLACK
6
CONTINUOUS
10
15.4133817322834634
20
-3.3471805118110236
11
15.4133816929133847
21
-3.3471805511811024
0
LINE
8
BLACK
6
CONTINUOUS
10
15.4133816929133847
20
-3.3471805511811024
11
15.4061447244094492
21
-3.3465414566929135
0
LINE
8
BLACK
6
CONTINUOUS
10
15.4061447244094492
20
-3.3465414566929135
11
15.3991313779527559
21
-3.3446453937007874
0
LINE
8
BLACK
6
CONTINUOUS
10
15.3991313779527559
20
-3.3446453937007874
11
15.3925582677165345
21
-3.3415509055118111
0
LINE
8
BLACK
6
CONTINUOUS
10
15.3925582677165345
20
-3.3415509055118111
11
15.3866283070866139
21
-3.3373535433070867
0
LINE
8
BLACK
6
CONTINUOUS
10
15.3866283070866139
20
-3.3373535433070867
11
15.3815246850393699
21
-3.3321829527559053
0
LINE
8
BLACK
6
CONTINUOUS
10
15.3815246850393699
20
-3.3321829527559053
11
15.3774049999999995
21
-3.3261988188976379
0
LINE
8
BLACK
6
CONTINUOUS
10
15.3774049999999995
20
-3.3261988188976379
11
15.3743964566929137
21
-3.3195858661417321
0
LINE
8
BLACK
6
CONTINUOUS
10
15.3743964566929137
20
-3.3195858661417321
11
15.3725920078740153
21
-3.3125484251968502
0
LINE
8
BLACK
6
CONTINUOUS
10
15.3725920078740153
20
-3.3125484251968502
11
15.372050433070866
21
-3.30534531496063
0
LINE
8
BLACK
6
CONTINUOUS
10
15.372050433070866
20
-3.30534531496063
11
15.3720472440944871
21
-3.305329212598425
0
LINE
8
BLACK
6
CONTINUOUS
10
15.3720472440944871
20
-3.305329212598425
11
15.3720472440944871
21
-3.2861574803149605
0
LINE
8
BLACK
6
CONTINUOUS
10
15.3720472440944871
20
-3.2861574803149605
11
15.3720472440944871
21
-3.286157401574803
0
LINE
8
BLACK
6
CONTINUOUS
10
15.3720472440944871
20
-3.286157401574803
11
15.3720472440944871
21
-3.2861573622047242
0
LINE
8
BLACK
6
CONTINUOUS
10
15.3720472440944871
20
-3.2861573622047242
11
15.3720474803149596
21
-3.2812295275590548
0
LINE
8
BLACK
6
CONTINUOUS
10
15.3720474803149596
20
-3.2812295275590548
11
15.3706453937007872
21
-3.2714741338582676
0
LINE
8
BLACK
6
CONTINUOUS
10
15.3706453937007872
20
-3.2714741338582676
11
15.3678691732283461
21
-3.2620175590551179
0
LINE
8
BLACK
6
CONTINUOUS
10
15.3678691732283461
20
-3.2620175590551179
11
15.3637753149606304
21
-3.2530523622047243
0
LINE
8
BLACK
6
CONTINUOUS
10
15.3637753149606304
20
-3.2530523622047243
11
15.3584472440944886
21
-3.2447610629921257
0
LINE
8
BLACK
6
CONTINUOUS
10
15.3584472440944886
20
-3.2447610629921257
11
15.3519933858267716
21
-3.2373124803149604
0
LINE
8
BLACK
6
CONTINUOUS
10
15.3519933858267716
20
-3.2373124803149604
11
15.3445451574803151
21
-3.2308581889763777
0
LINE
8
BLACK
6
CONTINUOUS
10
15.3445451574803151
20
-3.2308581889763777
11
15.336254133858267
21
-3.2255296456692912
0
LINE
8
BLACK
6
CONTINUOUS
10
15.336254133858267
20
-3.2255296456692912
11
15.3272891732283458
21
-3.2214353543307084
0
LINE
8
BLACK
6
CONTINUOUS
10
15.3272891732283458
20
-3.2214353543307084
11
15.3178327559055116
21
-3.2186585826771652
0
LINE
8
BLACK
6
CONTINUOUS
10
15.3178327559055116
20
-3.2186585826771652
11
15.3080774409448814
21
-3.2172559448818898
0
LINE
8
BLACK
6
CONTINUOUS
10
15.3080774409448814
20
-3.2172559448818898
11
15.3031668110236225
21
-3.2172559055118111
0
LINE
8
BLACK
6
CONTINUOUS
10
15.3031668110236225
20
-3.2172559055118111
11
15.3031498031496067
21
-3.2172592913385825
0
LINE
8
BLACK
6
CONTINUOUS
10
15.3031498031496067
20
-3.2172592913385825
11
14.7303140944881878
21
-3.2173202755905512
0
LINE
8
BLACK
6
CONTINUOUS
10
14.7303140944881878
20
-3.2173202755905512
11
14.7303071653543309
21
-3.2173188976377953
0
LINE
8
BLACK
6
CONTINUOUS
10
14.7303071653543309
20
-3.2173188976377953
11
14.7290669685039362
21
-3.2173190551181103
0
LINE
8
BLACK
6
CONTINUOUS
10
14.7290669685039362
20
-3.2173190551181103
11
14.7266948425196844
21
-3.2180900787401576
0
LINE
8
BLACK
6
CONTINUOUS
10
14.7266948425196844
20
-3.2180900787401576
11
14.7246770866141734
21
-3.2195564566929131
0
LINE
8
BLACK
6
CONTINUOUS
10
14.7246770866141734
20
-3.2195564566929131
11
14.7232112204724412
21
-3.2215745669291338
0
LINE
8
BLACK
6
CONTINUOUS
10
14.7232112204724412
20
-3.2215745669291338
11
14.7224407874015739
21
-3.2239468503937005
0
LINE
8
BLACK
6
CONTINUOUS
10
14.7224407874015739
20
-3.2239468503937005
11
14.7224409448818889
21
-3.2251940157480314
0
LINE
8
BLACK
6
CONTINUOUS
10
14.7224409448818889
20
-3.2251940157480314
11
14.7224409055118102
21
-3.2251940944881889
0
LINE
8
BLACK
6
CONTINUOUS
10
14.7224409055118102
20
-3.2251940944881889
11
14.7224409448818889
21
-3.2251942913385827
0
LINE
8
BLACK
6
CONTINUOUS
10
14.7224409448818889
20
-3.2251942913385827
11
14.7224409448818889
21
-3.2408834251968504
0
LINE
8
BLACK
6
CONTINUOUS
10
14.7224409448818889
20
-3.2408834251968504
11
14.7224409055118102
21
-3.2408835826771654
0
LINE
8
BLACK
6
CONTINUOUS
10
14.7224409055118102
20
-3.2408835826771654
11
14.7224409448818889
21
-3.2408837401574804
0
LINE
8
BLACK
6
CONTINUOUS
10
14.7224409448818889
20
-3.2408837401574804
11
14.7218624015748034
21
-3.2445331102362203
0
LINE
8
BLACK
6
CONTINUOUS
10
14.7218624015748034
20
-3.2445331102362203
11
14.7201845669291327
21
-3.2478251574803148
0
LINE
8
BLACK
6
CONTINUOUS
10
14.7201845669291327
20
-3.2478251574803148
11
14.7175716535433061
21
-3.2504376771653543
0
LINE
8
BLACK
6
CONTINUOUS
10
14.7175716535433061
20
-3.2504376771653543
11
14.7142793307086617
21
-3.2521149606299211
0
LINE
8
BLACK
6
CONTINUOUS
10
14.7142793307086617
20
-3.2521149606299211
11
14.7106677165354327
21
-3.2526868897637793
0
LINE
8
BLACK
6
CONTINUOUS
10
14.7106677165354327
20
-3.2526868897637793
11
14.7106298818897638
21
-3.2526944488188976
0
LINE
8
BLACK
6
CONTINUOUS
10
14.7106298818897638
20
-3.2526944488188976
11
14.1633857874015749
21
-3.2526924015748029
0
LINE
8
BLACK
6
CONTINUOUS
10
14.1633857874015749
20
-3.2526924015748029
11
14.1597360236220471
21
-3.2521142913385828
0
LINE
8
BLACK
6
CONTINUOUS
10
14.1597360236220471
20
-3.2521142913385828
11
14.1564435433070859
21
-3.2504366141732284
0
LINE
8
BLACK
6
CONTINUOUS
10
14.1564435433070859
20
-3.2504366141732284
11
14.1538307086614168
21
-3.2478236220472438
0
LINE
8
BLACK
6
CONTINUOUS
10
14.1538307086614168
20
-3.2478236220472438
11
14.1521531889763779
21
-3.244531062992126
0
LINE
8
BLACK
6
CONTINUOUS
10
14.1521531889763779
20
-3.244531062992126
11
14.1515774015748033
21
-3.2408944488188975
0
LINE
8
BLACK
6
CONTINUOUS
10
14.1515774015748033
20
-3.2408944488188975
11
14.1515748031496056
21
-3.2408813779527557
0
LINE
8
BLACK
6
CONTINUOUS
10
14.1515748031496056
20
-3.2408813779527557
11
14.1515748031496056
21
-3.2263747637795275
0
LINE
8
BLACK
6
CONTINUOUS
10
14.1515748031496056
20
-3.2263747637795275
11
14.1515748031496056
21
-3.2263746456692912
0
LINE
8
BLACK
6
CONTINUOUS
10
14.1515748031496056
20
-3.2263746456692912
11
14.1515748031496056
21
-3.2263746062992125
0
LINE
8
BLACK
6
CONTINUOUS
10
14.1515748031496056
20
-3.2263746062992125
11
14.1515740551181093
21
-3.2263746062992125
0
LINE
8
BLACK
6
CONTINUOUS
10
14.1515740551181093
20
-3.2263746062992125
11
14.1515741732283455
21
-3.2251276771653541
0
LINE
8
BLACK
6
CONTINUOUS
10
14.1515741732283455
20
-3.2251276771653541
11
14.15080374015748
21
-3.2227557874015749
0
LINE
8
BLACK
6
CONTINUOUS
10
14.15080374015748
20
-3.2227557874015749
11
14.1493381102362203
21
-3.220738031496063
0
LINE
8
BLACK
6
CONTINUOUS
10
14.1493381102362203
20
-3.220738031496063
11
14.1473207086614163
21
-3.2192719291338583
0
LINE
8
BLACK
6
CONTINUOUS
10
14.1473207086614163
20
-3.2192719291338583
11
14.1449489763779521
21
-3.2185009448818898
0
LINE
8
BLACK
6
CONTINUOUS
10
14.1449489763779521
20
-3.2185009448818898
11
14.1437020472440942
21
-3.218500748031496
0
LINE
8
BLACK
6
CONTINUOUS
10
14.1437020472440942
20
-3.218500748031496
11
6.2598986614173224
21
-3.217226929133858
0
LINE
8
BLACK
6
CONTINUOUS
10
6.2598986614173224
20
-3.217226929133858
11
6.2549826377952753
21
-3.2172439763779526
  0
ENDSEC
  0
EOF
